; NON-PLATED HOLES START AT T1
; THROUGH (PLATED) HOLES START AT T100
M48
INCH
T1C0.177165
T100C0.059055
T101C0.015748
T102C0.042000
T103C0.038194
T104C0.038000
T105C0.030000
T106C0.031496
T107C0.040000
T108C0.035000
%
T1
X001318Y029756
X001318Y020756
T100
X037818Y035506
X037818Y034128
T101
X001318Y009006
X004943Y013381
X017068Y015631
X014443Y004506
X026943Y016256
X000818Y025506
X011818Y034756
X001443Y031881
X035943Y006756
X031943Y015131
X021443Y021006
X008443Y023256
X035318Y010756
X018693Y008131
X035818Y012381
X029068Y019756
X028568Y019131
X028943Y025381
X031943Y026006
X013568Y003881
X020318Y007381
X004318Y016256
X028068Y018506
X032693Y035881
X025943Y024256
X026193Y032256
X026943Y014381
X013693Y035256
X016193Y008756
X014193Y036006
X027818Y011506
X023318Y007381
X037193Y032631
X029943Y009131
X027568Y017881
X017068Y023631
X001568Y008006
X034818Y018631
X018818Y011506
X021443Y024381
X012943Y006506
X008818Y032256
X012568Y022881
X021443Y023006
X019818Y003881
X030568Y006756
T102
X002693Y036756
X008693Y036756
X033068Y032756
X022443Y027881
X009193Y026881
X009193Y027881
X030193Y032776
X013568Y026881
X003693Y036756
X022443Y025881
X008693Y033881
X002693Y033881
X018068Y027881
X001693Y033881
X003693Y033881
X018068Y026881
X001693Y036756
X022443Y026881
X010693Y033881
X032068Y032756
X034068Y032756
X010693Y036756
X026193Y033651
X013568Y025881
X009693Y036756
X009193Y025881
X009693Y033881
X026193Y036631
X030193Y035756
X018068Y025881
X013568Y027881
T103
X036818Y025506
X020818Y011506
X036818Y023506
X037818Y024506
X014218Y030506
X037818Y029506
X026818Y030506
X037818Y027506
X037818Y018506
X031818Y030506
X036818Y013506
X037818Y028506
X009218Y030506
X029818Y030506
X024818Y030506
X032818Y011506
X036818Y026506
X037818Y017506
X034818Y011506
X010818Y011506
X015818Y011506
X033818Y011506
X033818Y030506
X036818Y029506
X021818Y011506
X022818Y011506
X024818Y011506
X037818Y015506
X012218Y030506
X019818Y030506
X017818Y030506
X031818Y011506
X036818Y019506
X026818Y011506
X027818Y030506
X018818Y030506
X025818Y011506
X008218Y030506
X036818Y015506
X036818Y014506
X015218Y030506
X013218Y030506
X032818Y030506
X030818Y030506
X037818Y014506
X037818Y026506
X037818Y023506
X011818Y011506
X017818Y011506
X022818Y030506
X036818Y030506
X037818Y030506
X037818Y013506
X036818Y022506
X036818Y028506
X030818Y011506
X014818Y011506
X016218Y030506
X037818Y016506
X007218Y030506
X036818Y021506
X037818Y021506
X037818Y022506
X012818Y011506
X010218Y030506
X036818Y017506
X037818Y025506
X036818Y027506
X011218Y030506
X037818Y019506
X028818Y011506
X029818Y011506
X036818Y024506
X037818Y020506
X023818Y011506
X013818Y011506
X028818Y030506
X036818Y020506
X023818Y030506
X036818Y018506
X019818Y011506
X035818Y011506
X016818Y011506
X036818Y016506
X020818Y030506
X021818Y030506
T104
X019318Y034256
X024318Y036256
X018318Y036256
X024318Y032256
X037443Y008256
X037443Y003131
X019318Y035256
X017318Y036256
X022318Y034256
X022318Y035256
X017318Y032256
X021318Y034256
X012318Y008381
X021318Y036256
X013318Y008381
X019318Y033256
X037443Y009256
X037443Y004131
X023318Y036256
X021318Y032256
X018318Y033256
X018318Y035256
X020318Y036256
X021318Y035256
X022318Y036256
X022318Y033256
X037443Y007256
X017318Y034256
X017318Y035256
X018318Y034256
X021318Y033256
X014318Y008381
X023318Y034256
X030568Y003506
X019318Y032256
X023318Y035256
X018318Y032256
X020318Y034256
X020318Y033256
X024318Y035256
X027193Y027131
X027193Y028131
X023318Y033256
X017318Y033256
X020318Y032256
X034318Y003506
X033318Y003506
X019318Y036256
X027193Y026131
X022318Y032256
X024318Y033256
X031568Y003506
X020318Y035256
X037443Y005131
X023318Y032256
X024318Y034256
T105
X034443Y029506
X030443Y029506
X029443Y029506
X030443Y024506
X034443Y024506
X028443Y024506
X035443Y024506
X033443Y029506
X031443Y029506
X032443Y024506
X033443Y024506
X035443Y029506
X029443Y024506
X028443Y029506
X031443Y024506
X028693Y034381
X028693Y036381
X032443Y029506
T106
X035943Y033131
X035943Y036084
T107
X008818Y017006
X007818Y014006
X015568Y034881
X008818Y010006
X015568Y033881
X007818Y012006
X008818Y008006
X007818Y009006
X007818Y017006
X006068Y022755
X006068Y026756
X007818Y022006
X008818Y016006
X007818Y006006
X007818Y013006
X008818Y021006
X007818Y011006
X007818Y020006
X007818Y015006
X006068Y023756
X015568Y032881
X007818Y016006
X008818Y022006
X008818Y011006
X008818Y013006
X007818Y010006
X007818Y018006
X006068Y024756
X006068Y025756
X015568Y035881
X008818Y007006
X008818Y014006
X008818Y004006
X007818Y007006
X008818Y015006
X008818Y012006
X008818Y006006
X007818Y004006
X008818Y003006
X008818Y009006
X015568Y031881
X015568Y036881
X007818Y019006
X007818Y003006
X006068Y027756
X007818Y008006
X008818Y018006
X008818Y019006
X008818Y020006
X008818Y005006
X007818Y005006
X007818Y021006
T108
X033318Y008881
X015443Y016256
X030068Y020006
X033068Y020006
X033068Y016256
X030068Y015256
X034318Y008881
X033068Y023006
X018443Y014256
X030068Y016256
X015443Y014256
X030068Y017256
X031318Y005881
X018443Y016256
X015443Y013256
X030068Y021006
X033318Y005881
X033068Y017256
X030068Y022006
X030068Y023006
X032318Y008881
X018443Y015256
X031318Y008881
X033068Y022006
X033068Y021006
X033068Y015256
X033068Y014256
X034318Y005881
X030068Y014256
X015443Y015256
X032318Y005881
X018443Y013256
T00
M30
