G04 MADE WITH FRITZING*
G04 WWW.FRITZING.ORG*
G04 DOUBLE SIDED*
G04 HOLES PLATED*
G04 CONTOUR ON CENTER OF CONTOUR VECTOR*
%ASAXBY*%
%FSLAX23Y23*%
%MOIN*%
%OFA0B0*%
%SFA1.0B1.0*%
%ADD10C,0.080000*%
%ADD11C,0.049370*%
%ADD12C,0.084000*%
%ADD13C,0.085000*%
%ADD14C,0.187165*%
%ADD15C,0.088000*%
%ADD16C,0.082917*%
%ADD17C,0.092000*%
%ADD18C,0.061496*%
%ADD19C,0.109055*%
%ADD20R,0.085000X0.085000*%
%ADD21R,0.084000X0.084000*%
%ADD22R,0.080000X0.080000*%
%ADD23R,0.092000X0.092000*%
%ADD24R,0.109055X0.109055*%
%LNMASK0*%
G90*
G70*
G54D10*
X2869Y3638D03*
X2869Y3438D03*
G54D11*
X157Y801D03*
X132Y901D03*
X1444Y451D03*
X1869Y813D03*
X2332Y738D03*
X1619Y876D03*
X1294Y651D03*
G54D12*
X1557Y3688D03*
X1557Y3588D03*
X1557Y3488D03*
X1557Y3388D03*
X1557Y3288D03*
X1557Y3188D03*
X1557Y3688D03*
X1557Y3588D03*
X1557Y3488D03*
X1557Y3388D03*
X1557Y3288D03*
X1557Y3188D03*
G54D13*
X1844Y1326D03*
X1544Y1326D03*
X1844Y1426D03*
X1544Y1426D03*
X1844Y1526D03*
X1544Y1526D03*
X1844Y1626D03*
X1544Y1626D03*
G54D11*
X432Y1626D03*
X3057Y676D03*
X3582Y1238D03*
G54D13*
X3307Y1426D03*
X3007Y1426D03*
X3307Y1526D03*
X3007Y1526D03*
X3307Y1626D03*
X3007Y1626D03*
X3307Y1726D03*
X3007Y1726D03*
X3307Y2001D03*
X3007Y2001D03*
X3307Y2101D03*
X3007Y2101D03*
X3307Y2201D03*
X3007Y2201D03*
X3307Y2301D03*
X3007Y2301D03*
G54D11*
X2619Y3226D03*
X1707Y2363D03*
X2144Y2438D03*
X1257Y2288D03*
X2807Y1851D03*
X2757Y1788D03*
X2857Y1913D03*
X2907Y1976D03*
X882Y3226D03*
X1369Y3526D03*
X1419Y3601D03*
X3594Y676D03*
X3532Y1076D03*
X2594Y2426D03*
X1357Y388D03*
G54D14*
X132Y2076D03*
X132Y2976D03*
G54D11*
X1982Y388D03*
X3194Y1513D03*
X1182Y3476D03*
X1882Y1151D03*
X144Y3188D03*
X2994Y913D03*
X494Y1338D03*
X2782Y1151D03*
X1707Y1563D03*
X3719Y3263D03*
X3194Y2601D03*
G54D12*
X607Y2776D03*
X607Y2676D03*
X607Y2576D03*
X607Y2476D03*
X607Y2376D03*
X607Y2276D03*
G54D11*
X2144Y2301D03*
X2144Y2101D03*
X3482Y1863D03*
X844Y2326D03*
G54D10*
X3544Y2951D03*
X3544Y2451D03*
X3444Y2951D03*
X3444Y2451D03*
X3344Y2951D03*
X3344Y2451D03*
X3244Y2951D03*
X3244Y2451D03*
X3144Y2951D03*
X3144Y2451D03*
X3044Y2951D03*
X3044Y2451D03*
X2944Y2951D03*
X2944Y2451D03*
X2844Y2951D03*
X2844Y2451D03*
G54D11*
X3269Y3588D03*
X2032Y738D03*
G54D15*
X1732Y3226D03*
X1732Y3326D03*
X1732Y3426D03*
X1732Y3526D03*
X1732Y3626D03*
X2432Y3226D03*
X2432Y3326D03*
X2432Y3426D03*
X2432Y3526D03*
X2432Y3626D03*
X2232Y3626D03*
X2232Y3526D03*
X2232Y3426D03*
X2032Y3426D03*
X2032Y3626D03*
X2032Y3526D03*
X2032Y3226D03*
X2032Y3326D03*
X1832Y3526D03*
X1832Y3626D03*
X2332Y3226D03*
X1932Y3626D03*
X1932Y3426D03*
X1932Y3226D03*
X1932Y3326D03*
X2332Y3626D03*
X2332Y3526D03*
X2332Y3426D03*
X1832Y3226D03*
X1832Y3326D03*
X2132Y3426D03*
X1932Y3526D03*
X2132Y3226D03*
X2132Y3326D03*
X1432Y838D03*
X1332Y838D03*
X1232Y838D03*
X2132Y3626D03*
X2132Y3526D03*
X2332Y3326D03*
X1832Y3426D03*
X2232Y3226D03*
X2232Y3326D03*
G54D11*
X2894Y2538D03*
X82Y2551D03*
G54D13*
X3132Y588D03*
X3132Y888D03*
X3232Y588D03*
X3232Y888D03*
X3332Y588D03*
X3332Y888D03*
X3432Y588D03*
X3432Y888D03*
G54D12*
X882Y2201D03*
X882Y2101D03*
X882Y2001D03*
X882Y1901D03*
X882Y1801D03*
X882Y1701D03*
X882Y1601D03*
X882Y1501D03*
X882Y1401D03*
X882Y1301D03*
X882Y1201D03*
X882Y1101D03*
X882Y1001D03*
X882Y901D03*
X882Y801D03*
X882Y701D03*
X882Y601D03*
X882Y501D03*
X882Y401D03*
X882Y301D03*
X782Y2201D03*
X782Y2101D03*
X782Y2001D03*
X782Y1901D03*
X782Y1801D03*
X782Y1701D03*
X782Y1601D03*
X782Y1501D03*
X782Y1401D03*
X782Y1301D03*
X782Y1201D03*
X782Y1101D03*
X782Y1001D03*
X782Y901D03*
X782Y801D03*
X782Y701D03*
X782Y601D03*
X782Y501D03*
X782Y401D03*
X782Y301D03*
G54D16*
X2982Y1151D03*
X1382Y1151D03*
X3082Y1151D03*
X3182Y1151D03*
X3282Y1151D03*
X3382Y1151D03*
X3682Y2551D03*
X3482Y1151D03*
X3582Y1151D03*
X1422Y3051D03*
X1982Y1151D03*
X2082Y1151D03*
X2182Y1151D03*
X2282Y1151D03*
X3682Y1751D03*
X2382Y1151D03*
X2482Y1151D03*
X2582Y1151D03*
X2682Y1151D03*
X2182Y3051D03*
X3682Y2951D03*
X3682Y2151D03*
X3682Y1351D03*
X1022Y3051D03*
X1782Y1151D03*
X1782Y3051D03*
X3682Y2751D03*
X3682Y2351D03*
X3682Y1951D03*
X3382Y3051D03*
X3682Y1551D03*
X3282Y3051D03*
X3182Y3051D03*
X3082Y3051D03*
X2982Y3051D03*
X2882Y3051D03*
X2782Y3051D03*
X2682Y3051D03*
X822Y3051D03*
X1222Y3051D03*
X1622Y3051D03*
X1182Y1151D03*
X1582Y1151D03*
X2382Y3051D03*
X1982Y3051D03*
X3682Y3051D03*
X3682Y2851D03*
X3682Y2651D03*
X3682Y2451D03*
X3682Y2251D03*
X3682Y2051D03*
X3682Y1851D03*
X3682Y1651D03*
X3682Y1451D03*
X722Y3051D03*
X922Y3051D03*
X1122Y3051D03*
X1322Y3051D03*
X1522Y3051D03*
X1082Y1151D03*
X1282Y1151D03*
X1482Y1151D03*
X1682Y1151D03*
X2482Y3051D03*
X2282Y3051D03*
X2082Y3051D03*
X1882Y3051D03*
X3782Y3051D03*
X3782Y2951D03*
X3782Y2851D03*
X3782Y2751D03*
X3782Y2651D03*
X3782Y2551D03*
X3782Y2451D03*
X3782Y2351D03*
X3782Y2251D03*
X3782Y2151D03*
X3782Y2051D03*
X3782Y1951D03*
X3782Y1851D03*
X3782Y1751D03*
X3782Y1651D03*
X3782Y1551D03*
X3782Y1451D03*
X3782Y1351D03*
X2882Y1151D03*
G54D17*
X1357Y2788D03*
X1357Y2688D03*
X1357Y2588D03*
X2244Y2788D03*
X2244Y2688D03*
X2244Y2588D03*
X1807Y2788D03*
X1807Y2688D03*
X1807Y2588D03*
X919Y2788D03*
X919Y2688D03*
X919Y2588D03*
G54D15*
X3744Y313D03*
X3744Y413D03*
X3744Y513D03*
X3744Y926D03*
X3744Y826D03*
X3744Y726D03*
X2719Y2813D03*
X2719Y2713D03*
X2719Y2613D03*
X3057Y351D03*
X3157Y351D03*
X3432Y351D03*
X3332Y351D03*
G54D17*
X3207Y3276D03*
X3307Y3276D03*
X3407Y3276D03*
X2619Y3663D03*
X2619Y3365D03*
X3019Y3278D03*
X3019Y3576D03*
G54D18*
X3594Y3313D03*
X3594Y3608D03*
G54D17*
X369Y3388D03*
X269Y3388D03*
X169Y3388D03*
X1069Y3676D03*
X969Y3676D03*
X869Y3676D03*
X369Y3676D03*
X269Y3676D03*
X169Y3676D03*
X1069Y3388D03*
X969Y3388D03*
X869Y3388D03*
G54D19*
X3782Y3551D03*
X3782Y3413D03*
G54D11*
X2694Y1438D03*
X2694Y1626D03*
G54D20*
X1844Y1326D03*
X3307Y1426D03*
X3307Y2001D03*
G54D21*
X607Y2776D03*
G54D22*
X2844Y2451D03*
X3444Y2451D03*
G54D20*
X3132Y588D03*
G54D21*
X782Y2201D03*
G54D23*
X1357Y2788D03*
X2244Y2788D03*
X1807Y2788D03*
X919Y2788D03*
X3207Y3276D03*
X2619Y3664D03*
X3019Y3277D03*
X369Y3388D03*
X1069Y3676D03*
X369Y3676D03*
X1069Y3388D03*
G54D24*
X3782Y3551D03*
G04 End of Mask0*
M02*