0
SECTION
2 
ENTITIES
0
LINE
8
Outline
10
99.89819
20
-2.8984
11
99.98386
21
-2.89718
0
LINE
8
Outline
10
99.98386
20
-2.89718
11
100.06946
21
-2.89351
0
LINE
8
Outline
10
100.06946
20
-2.89351
11
100.15492
21
-2.8874
0
LINE
8
Outline
10
100.15492
20
-2.8874
11
100.24016
21
-2.87885
0
LINE
8
Outline
10
100.24016
20
-2.87885
11
100.32513
21
-2.86786
0
LINE
8
Outline
10
100.32513
20
-2.86786
11
100.40976
21
-2.85446
0
LINE
8
Outline
10
100.40976
20
-2.85446
11
100.49396
21
-2.83865
0
LINE
8
Outline
10
100.49396
20
-2.83865
11
100.57768
21
-2.82044
0
LINE
8
Outline
10
100.57768
20
-2.82044
11
100.66085
21
-2.79984
0
LINE
8
Outline
10
100.66085
20
-2.79984
11
100.74339
21
-2.77688
0
LINE
8
Outline
10
100.74339
20
-2.77688
11
100.82524
21
-2.75157
0
LINE
8
Outline
10
100.82524
20
-2.75157
11
100.90634
21
-2.72393
0
LINE
8
Outline
10
100.90634
20
-2.72393
11
100.98661
21
-2.69399
0
LINE
8
Outline
10
100.98661
20
-2.69399
11
101.066
21
-2.66177
0
LINE
8
Outline
10
101.066
20
-2.66177
11
101.14444
21
-2.6273
0
LINE
8
Outline
10
101.14444
20
-2.6273
11
101.22185
21
-2.5906
0
LINE
8
Outline
10
101.22185
20
-2.5906
11
101.29819
21
-2.5517
0
LINE
8
Outline
10
101.29819
20
-2.5517
11
101.37339
21
-2.51064
0
LINE
8
Outline
10
101.37339
20
-2.51064
11
101.44738
21
-2.46745
0
LINE
8
Outline
10
101.44738
20
-2.46745
11
101.52011
21
-2.42216
0
LINE
8
Outline
10
101.52011
20
-2.42216
11
101.59152
21
-2.37482
0
LINE
8
Outline
10
101.59152
20
-2.37482
11
101.66155
21
-2.32545
0
LINE
8
Outline
10
101.66155
20
-2.32545
11
101.73013
21
-2.27411
0
LINE
8
Outline
10
101.73013
20
-2.27411
11
101.79723
21
-2.22082
0
LINE
8
Outline
10
101.79723
20
-2.22082
11
101.86277
21
-2.16565
0
LINE
8
Outline
10
101.86277
20
-2.16565
11
101.92671
21
-2.10862
0
LINE
8
Outline
10
101.92671
20
-2.10862
11
101.989
21
-2.0498
0
LINE
8
Outline
10
101.989
20
-2.0498
11
102.04959
21
-1.98921
0
LINE
8
Outline
10
102.04959
20
-1.98921
11
102.10841
21
-1.92692
0
LINE
8
Outline
10
102.10841
20
-1.92692
11
102.16544
21
-1.86298
0
LINE
8
Outline
10
102.16544
20
-1.86298
11
102.22061
21
-1.79744
0
LINE
8
Outline
10
102.22061
20
-1.79744
11
102.2739
21
-1.73034
0
LINE
8
Outline
10
102.2739
20
-1.73034
11
102.32524
21
-1.66176
0
LINE
8
Outline
10
102.32524
20
-1.66176
11
102.37461
21
-1.59173
0
LINE
8
Outline
10
102.37461
20
-1.59173
11
102.42195
21
-1.52032
0
LINE
8
Outline
10
102.42195
20
-1.52032
11
102.46724
21
-1.44759
0
LINE
8
Outline
10
102.46724
20
-1.44759
11
102.51043
21
-1.3736
0
LINE
8
Outline
10
102.51043
20
-1.3736
11
102.55149
21
-1.2984
0
LINE
8
Outline
10
102.55149
20
-1.2984
11
102.59039
21
-1.22206
0
LINE
8
Outline
10
102.59039
20
-1.22206
11
102.62709
21
-1.14465
0
LINE
8
Outline
10
102.62709
20
-1.14465
11
102.66156
21
-1.06621
0
LINE
8
Outline
10
102.66156
20
-1.06621
11
102.69378
21
-0.98682
0
LINE
8
Outline
10
102.69378
20
-0.98682
11
102.72372
21
-0.90655
0
LINE
8
Outline
10
102.72372
20
-0.90655
11
102.75136
21
-0.82545
0
LINE
8
Outline
10
102.75136
20
-0.82545
11
102.77667
21
-0.7436
0
LINE
8
Outline
10
102.77667
20
-0.7436
11
102.79963
21
-0.66106
0
LINE
8
Outline
10
102.79963
20
-0.66106
11
102.82023
21
-0.57789
0
LINE
8
Outline
10
102.82023
20
-0.57789
11
102.83844
21
-0.49417
0
LINE
8
Outline
10
102.83844
20
-0.49417
11
102.85425
21
-0.40997
0
LINE
8
Outline
10
102.85425
20
-0.40997
11
102.86765
21
-0.32534
0
LINE
8
Outline
10
102.86765
20
-0.32534
11
102.87864
21
-0.24037
0
LINE
8
Outline
10
102.87864
20
-0.24037
11
102.88719
21
-0.15513
0
LINE
8
Outline
10
102.88719
20
-0.15513
11
102.8933
21
-0.06967
0
LINE
8
Outline
10
102.8933
20
-0.06967
11
102.89697
21
0.01593
0
LINE
8
Outline
10
102.89697
20
0.01593
11
102.89819
21
0.1016
0
LINE
8
Outline
10
102.89819
20
0.1016
11
102.89819
21
99.89819
0
LINE
8
Outline
10
102.89819
20
99.89819
11
102.89697
21
99.98386
0
LINE
8
Outline
10
102.89697
20
99.98386
11
102.8933
21
100.06946
0
LINE
8
Outline
10
102.8933
20
100.06946
11
102.88719
21
100.15492
0
LINE
8
Outline
10
102.88719
20
100.15492
11
102.87864
21
100.24016
0
LINE
8
Outline
10
102.87864
20
100.24016
11
102.86765
21
100.32513
0
LINE
8
Outline
10
102.86765
20
100.32513
11
102.85425
21
100.40976
0
LINE
8
Outline
10
102.85425
20
100.40976
11
102.83844
21
100.49396
0
LINE
8
Outline
10
102.83844
20
100.49396
11
102.82023
21
100.57768
0
LINE
8
Outline
10
102.82023
20
100.57768
11
102.79963
21
100.66085
0
LINE
8
Outline
10
102.79963
20
100.66085
11
102.77667
21
100.74339
0
LINE
8
Outline
10
102.77667
20
100.74339
11
102.75136
21
100.82524
0
LINE
8
Outline
10
102.75136
20
100.82524
11
102.72372
21
100.90634
0
LINE
8
Outline
10
102.72372
20
100.90634
11
102.69378
21
100.98661
0
LINE
8
Outline
10
102.69378
20
100.98661
11
102.66156
21
101.066
0
LINE
8
Outline
10
102.66156
20
101.066
11
102.62709
21
101.14444
0
LINE
8
Outline
10
102.62709
20
101.14444
11
102.59039
21
101.22185
0
LINE
8
Outline
10
102.59039
20
101.22185
11
102.55149
21
101.29819
0
LINE
8
Outline
10
102.55149
20
101.29819
11
102.51043
21
101.37339
0
LINE
8
Outline
10
102.51043
20
101.37339
11
102.46724
21
101.44738
0
LINE
8
Outline
10
102.46724
20
101.44738
11
102.42195
21
101.52011
0
LINE
8
Outline
10
102.42195
20
101.52011
11
102.37461
21
101.59152
0
LINE
8
Outline
10
102.37461
20
101.59152
11
102.32524
21
101.66155
0
LINE
8
Outline
10
102.32524
20
101.66155
11
102.2739
21
101.73013
0
LINE
8
Outline
10
102.2739
20
101.73013
11
102.22061
21
101.79723
0
LINE
8
Outline
10
102.22061
20
101.79723
11
102.16544
21
101.86277
0
LINE
8
Outline
10
102.16544
20
101.86277
11
102.10841
21
101.92671
0
LINE
8
Outline
10
102.10841
20
101.92671
11
102.04959
21
101.989
0
LINE
8
Outline
10
102.04959
20
101.989
11
101.989
21
102.04959
0
LINE
8
Outline
10
101.989
20
102.04959
11
101.92671
21
102.10841
0
LINE
8
Outline
10
101.92671
20
102.10841
11
101.86277
21
102.16544
0
LINE
8
Outline
10
101.86277
20
102.16544
11
101.79723
21
102.22061
0
LINE
8
Outline
10
101.79723
20
102.22061
11
101.73013
21
102.2739
0
LINE
8
Outline
10
101.73013
20
102.2739
11
101.66155
21
102.32524
0
LINE
8
Outline
10
101.66155
20
102.32524
11
101.59152
21
102.37461
0
LINE
8
Outline
10
101.59152
20
102.37461
11
101.52011
21
102.42195
0
LINE
8
Outline
10
101.52011
20
102.42195
11
101.44738
21
102.46724
0
LINE
8
Outline
10
101.44738
20
102.46724
11
101.37339
21
102.51043
0
LINE
8
Outline
10
101.37339
20
102.51043
11
101.29819
21
102.55149
0
LINE
8
Outline
10
101.29819
20
102.55149
11
101.22185
21
102.59039
0
LINE
8
Outline
10
101.22185
20
102.59039
11
101.14444
21
102.62709
0
LINE
8
Outline
10
101.14444
20
102.62709
11
101.066
21
102.66156
0
LINE
8
Outline
10
101.066
20
102.66156
11
100.98661
21
102.69378
0
LINE
8
Outline
10
100.98661
20
102.69378
11
100.90634
21
102.72372
0
LINE
8
Outline
10
100.90634
20
102.72372
11
100.82524
21
102.75136
0
LINE
8
Outline
10
100.82524
20
102.75136
11
100.74339
21
102.77667
0
LINE
8
Outline
10
100.74339
20
102.77667
11
100.66085
21
102.79963
0
LINE
8
Outline
10
100.66085
20
102.79963
11
100.57768
21
102.82023
0
LINE
8
Outline
10
100.57768
20
102.82023
11
100.49396
21
102.83844
0
LINE
8
Outline
10
100.49396
20
102.83844
11
100.40976
21
102.85425
0
LINE
8
Outline
10
100.40976
20
102.85425
11
100.32513
21
102.86765
0
LINE
8
Outline
10
100.32513
20
102.86765
11
100.24016
21
102.87864
0
LINE
8
Outline
10
100.24016
20
102.87864
11
100.15492
21
102.88719
0
LINE
8
Outline
10
100.15492
20
102.88719
11
100.06946
21
102.8933
0
LINE
8
Outline
10
100.06946
20
102.8933
11
99.98386
21
102.89697
0
LINE
8
Outline
10
99.98386
20
102.89697
11
99.89819
21
102.89819
0
LINE
8
Outline
10
99.89819
20
102.89819
11
0.1016
21
102.89819
0
LINE
8
Outline
10
0.1016
20
102.89819
11
0.01593
21
102.89697
0
LINE
8
Outline
10
0.01593
20
102.89697
11
-0.06967
21
102.8933
0
LINE
8
Outline
10
-0.06967
20
102.8933
11
-0.15513
21
102.88719
0
LINE
8
Outline
10
-0.15513
20
102.88719
11
-0.24037
21
102.87864
0
LINE
8
Outline
10
-0.24037
20
102.87864
11
-0.32534
21
102.86765
0
LINE
8
Outline
10
-0.32534
20
102.86765
11
-0.40997
21
102.85425
0
LINE
8
Outline
10
-0.40997
20
102.85425
11
-0.49417
21
102.83844
0
LINE
8
Outline
10
-0.49417
20
102.83844
11
-0.57789
21
102.82023
0
LINE
8
Outline
10
-0.57789
20
102.82023
11
-0.66106
21
102.79963
0
LINE
8
Outline
10
-0.66106
20
102.79963
11
-0.7436
21
102.77667
0
LINE
8
Outline
10
-0.7436
20
102.77667
11
-0.82545
21
102.75136
0
LINE
8
Outline
10
-0.82545
20
102.75136
11
-0.90655
21
102.72372
0
LINE
8
Outline
10
-0.90655
20
102.72372
11
-0.98682
21
102.69378
0
LINE
8
Outline
10
-0.98682
20
102.69378
11
-1.06621
21
102.66156
0
LINE
8
Outline
10
-1.06621
20
102.66156
11
-1.14465
21
102.62709
0
LINE
8
Outline
10
-1.14465
20
102.62709
11
-1.22206
21
102.59039
0
LINE
8
Outline
10
-1.22206
20
102.59039
11
-1.2984
21
102.55149
0
LINE
8
Outline
10
-1.2984
20
102.55149
11
-1.3736
21
102.51043
0
LINE
8
Outline
10
-1.3736
20
102.51043
11
-1.44759
21
102.46724
0
LINE
8
Outline
10
-1.44759
20
102.46724
11
-1.52032
21
102.42195
0
LINE
8
Outline
10
-1.52032
20
102.42195
11
-1.59173
21
102.37461
0
LINE
8
Outline
10
-1.59173
20
102.37461
11
-1.66176
21
102.32524
0
LINE
8
Outline
10
-1.66176
20
102.32524
11
-1.73034
21
102.2739
0
LINE
8
Outline
10
-1.73034
20
102.2739
11
-1.79744
21
102.22061
0
LINE
8
Outline
10
-1.79744
20
102.22061
11
-1.86298
21
102.16544
0
LINE
8
Outline
10
-1.86298
20
102.16544
11
-1.92692
21
102.10841
0
LINE
8
Outline
10
-1.92692
20
102.10841
11
-1.98921
21
102.04959
0
LINE
8
Outline
10
-1.98921
20
102.04959
11
-2.0498
21
101.989
0
LINE
8
Outline
10
-2.0498
20
101.989
11
-2.10862
21
101.92671
0
LINE
8
Outline
10
-2.10862
20
101.92671
11
-2.16565
21
101.86277
0
LINE
8
Outline
10
-2.16565
20
101.86277
11
-2.22082
21
101.79723
0
LINE
8
Outline
10
-2.22082
20
101.79723
11
-2.27411
21
101.73013
0
LINE
8
Outline
10
-2.27411
20
101.73013
11
-2.32545
21
101.66155
0
LINE
8
Outline
10
-2.32545
20
101.66155
11
-2.37482
21
101.59152
0
LINE
8
Outline
10
-2.37482
20
101.59152
11
-2.42216
21
101.52011
0
LINE
8
Outline
10
-2.42216
20
101.52011
11
-2.46745
21
101.44738
0
LINE
8
Outline
10
-2.46745
20
101.44738
11
-2.51064
21
101.37339
0
LINE
8
Outline
10
-2.51064
20
101.37339
11
-2.5517
21
101.29819
0
LINE
8
Outline
10
-2.5517
20
101.29819
11
-2.5906
21
101.22185
0
LINE
8
Outline
10
-2.5906
20
101.22185
11
-2.6273
21
101.14444
0
LINE
8
Outline
10
-2.6273
20
101.14444
11
-2.66177
21
101.066
0
LINE
8
Outline
10
-2.66177
20
101.066
11
-2.69399
21
100.98661
0
LINE
8
Outline
10
-2.69399
20
100.98661
11
-2.72393
21
100.90634
0
LINE
8
Outline
10
-2.72393
20
100.90634
11
-2.75157
21
100.82524
0
LINE
8
Outline
10
-2.75157
20
100.82524
11
-2.77688
21
100.74339
0
LINE
8
Outline
10
-2.77688
20
100.74339
11
-2.79984
21
100.66085
0
LINE
8
Outline
10
-2.79984
20
100.66085
11
-2.82044
21
100.57768
0
LINE
8
Outline
10
-2.82044
20
100.57768
11
-2.83865
21
100.49396
0
LINE
8
Outline
10
-2.83865
20
100.49396
11
-2.85446
21
100.40976
0
LINE
8
Outline
10
-2.85446
20
100.40976
11
-2.86786
21
100.32513
0
LINE
8
Outline
10
-2.86786
20
100.32513
11
-2.87885
21
100.24016
0
LINE
8
Outline
10
-2.87885
20
100.24016
11
-2.8874
21
100.15492
0
LINE
8
Outline
10
-2.8874
20
100.15492
11
-2.89351
21
100.06946
0
LINE
8
Outline
10
-2.89351
20
100.06946
11
-2.89718
21
99.98386
0
LINE
8
Outline
10
-2.89718
20
99.98386
11
-2.8984
21
99.89819
0
LINE
8
Outline
10
-2.8984
20
99.89819
11
-2.8984
21
0.1016
0
LINE
8
Outline
10
-2.8984
20
0.1016
11
-2.89718
21
0.01593
0
LINE
8
Outline
10
-2.89718
20
0.01593
11
-2.89351
21
-0.06967
0
LINE
8
Outline
10
-2.89351
20
-0.06967
11
-2.8874
21
-0.15513
0
LINE
8
Outline
10
-2.8874
20
-0.15513
11
-2.87885
21
-0.24037
0
LINE
8
Outline
10
-2.87885
20
-0.24037
11
-2.86786
21
-0.32534
0
LINE
8
Outline
10
-2.86786
20
-0.32534
11
-2.85446
21
-0.40997
0
LINE
8
Outline
10
-2.85446
20
-0.40997
11
-2.83865
21
-0.49417
0
LINE
8
Outline
10
-2.83865
20
-0.49417
11
-2.82044
21
-0.57789
0
LINE
8
Outline
10
-2.82044
20
-0.57789
11
-2.79984
21
-0.66106
0
LINE
8
Outline
10
-2.79984
20
-0.66106
11
-2.77688
21
-0.7436
0
LINE
8
Outline
10
-2.77688
20
-0.7436
11
-2.75157
21
-0.82545
0
LINE
8
Outline
10
-2.75157
20
-0.82545
11
-2.72393
21
-0.90655
0
LINE
8
Outline
10
-2.72393
20
-0.90655
11
-2.69399
21
-0.98682
0
LINE
8
Outline
10
-2.69399
20
-0.98682
11
-2.66177
21
-1.06621
0
LINE
8
Outline
10
-2.66177
20
-1.06621
11
-2.6273
21
-1.14465
0
LINE
8
Outline
10
-2.6273
20
-1.14465
11
-2.5906
21
-1.22206
0
LINE
8
Outline
10
-2.5906
20
-1.22206
11
-2.5517
21
-1.2984
0
LINE
8
Outline
10
-2.5517
20
-1.2984
11
-2.51064
21
-1.3736
0
LINE
8
Outline
10
-2.51064
20
-1.3736
11
-2.46745
21
-1.44759
0
LINE
8
Outline
10
-2.46745
20
-1.44759
11
-2.42216
21
-1.52032
0
LINE
8
Outline
10
-2.42216
20
-1.52032
11
-2.37482
21
-1.59173
0
LINE
8
Outline
10
-2.37482
20
-1.59173
11
-2.32545
21
-1.66176
0
LINE
8
Outline
10
-2.32545
20
-1.66176
11
-2.27411
21
-1.73034
0
LINE
8
Outline
10
-2.27411
20
-1.73034
11
-2.22082
21
-1.79744
0
LINE
8
Outline
10
-2.22082
20
-1.79744
11
-2.16565
21
-1.86298
0
LINE
8
Outline
10
-2.16565
20
-1.86298
11
-2.10862
21
-1.92692
0
LINE
8
Outline
10
-2.10862
20
-1.92692
11
-2.0498
21
-1.98921
0
LINE
8
Outline
10
-2.0498
20
-1.98921
11
-1.98921
21
-2.0498
0
LINE
8
Outline
10
-1.98921
20
-2.0498
11
-1.92692
21
-2.10862
0
LINE
8
Outline
10
-1.92692
20
-2.10862
11
-1.86298
21
-2.16565
0
LINE
8
Outline
10
-1.86298
20
-2.16565
11
-1.79744
21
-2.22082
0
LINE
8
Outline
10
-1.79744
20
-2.22082
11
-1.73034
21
-2.27411
0
LINE
8
Outline
10
-1.73034
20
-2.27411
11
-1.66176
21
-2.32545
0
LINE
8
Outline
10
-1.66176
20
-2.32545
11
-1.59173
21
-2.37482
0
LINE
8
Outline
10
-1.59173
20
-2.37482
11
-1.52032
21
-2.42216
0
LINE
8
Outline
10
-1.52032
20
-2.42216
11
-1.44759
21
-2.46745
0
LINE
8
Outline
10
-1.44759
20
-2.46745
11
-1.3736
21
-2.51064
0
LINE
8
Outline
10
-1.3736
20
-2.51064
11
-1.2984
21
-2.5517
0
LINE
8
Outline
10
-1.2984
20
-2.5517
11
-1.22206
21
-2.5906
0
LINE
8
Outline
10
-1.22206
20
-2.5906
11
-1.14465
21
-2.6273
0
LINE
8
Outline
10
-1.14465
20
-2.6273
11
-1.06621
21
-2.66177
0
LINE
8
Outline
10
-1.06621
20
-2.66177
11
-0.98682
21
-2.69399
0
LINE
8
Outline
10
-0.98682
20
-2.69399
11
-0.90655
21
-2.72393
0
LINE
8
Outline
10
-0.90655
20
-2.72393
11
-0.82545
21
-2.75157
0
LINE
8
Outline
10
-0.82545
20
-2.75157
11
-0.7436
21
-2.77688
0
LINE
8
Outline
10
-0.7436
20
-2.77688
11
-0.66106
21
-2.79984
0
LINE
8
Outline
10
-0.66106
20
-2.79984
11
-0.57789
21
-2.82044
0
LINE
8
Outline
10
-0.57789
20
-2.82044
11
-0.49417
21
-2.83865
0
LINE
8
Outline
10
-0.49417
20
-2.83865
11
-0.40997
21
-2.85446
0
LINE
8
Outline
10
-0.40997
20
-2.85446
11
-0.32534
21
-2.86786
0
LINE
8
Outline
10
-0.32534
20
-2.86786
11
-0.24037
21
-2.87885
0
LINE
8
Outline
10
-0.24037
20
-2.87885
11
-0.15513
21
-2.8874
0
LINE
8
Outline
10
-0.15513
20
-2.8874
11
-0.06967
21
-2.89351
0
LINE
8
Outline
10
-0.06967
20
-2.89351
11
0.01593
21
-2.89718
0
LINE
8
Outline
10
0.01593
20
-2.89718
11
0.1016
21
-2.8984
0
LINE
8
Outline
10
0.1016
20
-2.8984
11
99.89819
21
-2.8984
0
LINE
8
Outline
10
99.89819
20
-2.8984
11
99.89819
21
-2.8984
0
ENDSEC
0
EOF
