; NON-PLATED HOLES START AT T1
; THROUGH (PLATED) HOLES START AT T100
M48
INCH
T1C0.177165
T100C0.038194
T101C0.042000
T102C0.015748
T103C0.031496
T104C0.059055
T105C0.040000
T106C0.030000
T107C0.035000
T108C0.038000
%
T1
X001318Y020640
X001318Y029640
T100
X037818Y027390
X012218Y030390
X029818Y030390
X013818Y011390
X036818Y018390
X032818Y011390
X011218Y030390
X022818Y011390
X036818Y028390
X037818Y029390
X010818Y011390
X036818Y015390
X014218Y030390
X037818Y019390
X028818Y011390
X023818Y030390
X017818Y030390
X036818Y014390
X026818Y011390
X037818Y013390
X016818Y011390
X026818Y030390
X030818Y030390
X037818Y016390
X037818Y014390
X011818Y011390
X037818Y028390
X020818Y011390
X021818Y011390
X036818Y022390
X036818Y027390
X036818Y019390
X037818Y026390
X016218Y030390
X018818Y030390
X014818Y011390
X013218Y030390
X034818Y011390
X037818Y018390
X028818Y030390
X037818Y021390
X037818Y023390
X036818Y021390
X036818Y020390
X037818Y020390
X023818Y011390
X020818Y030390
X007218Y030390
X019818Y011390
X008218Y030390
X036818Y023390
X037818Y025390
X033818Y030390
X009218Y030390
X031818Y011390
X024818Y011390
X036818Y029390
X019818Y030390
X025818Y011390
X032818Y030390
X037818Y022390
X036818Y024390
X036818Y017390
X036818Y025390
X037818Y024390
X017818Y011390
X036818Y026390
X036818Y016390
X024818Y030390
X037818Y030390
X031818Y030390
X027818Y030390
X021818Y030390
X022818Y030390
X036818Y030390
X033818Y011390
X037818Y017390
X015218Y030390
X030818Y011390
X010218Y030390
X012818Y011390
X036818Y013390
X015818Y011390
X029818Y011390
X037818Y015390
X035818Y011390
T101
X026193Y033535
X019318Y025765
X012568Y025765
X002693Y033458
X019318Y027765
X001693Y036333
X019318Y026765
X030193Y035640
X015943Y026765
X001693Y033458
X009193Y026765
X008693Y036333
X015943Y025765
X012568Y026765
X012568Y027765
X009193Y027765
X010693Y033458
X008693Y033458
X033068Y032640
X010693Y036333
X009693Y033458
X002693Y036333
X003693Y033458
X026193Y036515
X015943Y027765
X034068Y032640
X003693Y036333
X032068Y032640
X009693Y036333
X030193Y032660
X009193Y025765
T102
X034818Y018515
X005693Y010515
X007693Y032015
X017068Y015515
X021443Y020890
X012818Y021890
X028943Y025265
X000818Y031640
X020693Y024265
X031943Y025890
X012943Y006390
X027568Y017765
X001318Y008890
X031818Y014640
X024318Y007640
X028568Y019015
X029068Y019640
X025943Y024140
X000693Y024890
X035818Y012265
X028068Y018390
X017318Y023515
X006193Y012390
X002443Y004390
X005943Y003140
X013443Y013515
X021568Y015015
X013693Y034640
X030568Y006640
X003693Y002890
X002943Y013515
X014443Y004390
X001568Y007890
X033193Y018390
X018693Y008390
X013943Y022765
X009818Y029390
X018818Y011390
X020318Y007640
X027818Y011390
X026193Y032140
X000568Y013390
X026943Y016140
X037568Y011140
X013568Y003765
X035943Y006640
X016193Y008640
X008443Y023140
X026943Y014140
X015943Y003890
X034443Y035765
X035318Y010640
X021443Y022890
X034318Y010015
X014193Y035515
X037443Y032515
T103
X035943Y032937
X035943Y035890
T104
X037818Y034640
X037818Y036018
T105
X007818Y009890
X007818Y017890
X008818Y005890
X007818Y007890
X008818Y011890
X015568Y034015
X008818Y002890
X008818Y014890
X008818Y010890
X008818Y021890
X006068Y024640
X008818Y007890
X007818Y012890
X007818Y002890
X007818Y005890
X008818Y017890
X007818Y019890
X015568Y035015
X007818Y013890
X007818Y021890
X007818Y015890
X007818Y010890
X008818Y016890
X006068Y022639
X007818Y006890
X007818Y016890
X007818Y004890
X008818Y018890
X008818Y013890
X015568Y032015
X007818Y008890
X008818Y006890
X008818Y008890
X015568Y036015
X007818Y020890
X008818Y019890
X007818Y003890
X007818Y014890
X008818Y012890
X006068Y023640
X008818Y015890
X007818Y011890
X008818Y020890
X015568Y033015
X006068Y026640
X006068Y025640
X008818Y004890
X008818Y009890
X006068Y027640
X007818Y018890
X015568Y037015
X008818Y003890
T106
X033443Y024390
X028443Y029390
X032443Y024390
X034443Y024390
X029443Y029390
X033443Y029390
X029443Y024390
X035443Y024390
X028693Y034265
X035443Y029390
X030443Y024390
X032443Y029390
X034443Y029390
X031443Y029390
X028693Y036265
X030443Y029390
X028443Y024390
X031443Y024390
T107
X018443Y013140
X030193Y021890
X033193Y016015
X032318Y008765
X015443Y016140
X034318Y008765
X015443Y014140
X033193Y022890
X018443Y014140
X030193Y022890
X033193Y020890
X033318Y005765
X018443Y015140
X034318Y005765
X015443Y013140
X033193Y015015
X033193Y014015
X033193Y019890
X030193Y014015
X033193Y021890
X033193Y017015
X015443Y015140
X030193Y017015
X032318Y005765
X030193Y016015
X031318Y005765
X030193Y020890
X018443Y016140
X031318Y008765
X033318Y008765
X030193Y019890
X030193Y015015
T108
X033318Y003390
X022318Y032140
X018318Y033140
X022318Y036140
X024318Y036140
X037443Y008140
X018318Y032140
X018318Y036140
X020318Y036140
X013318Y008265
X037443Y004015
X021318Y033140
X022318Y034140
X019318Y032140
X037443Y003015
X024318Y032140
X019318Y033140
X019318Y034140
X019318Y036140
X027193Y027015
X037443Y007140
X037443Y009140
X020318Y033140
X020318Y035140
X023318Y035140
X018318Y035140
X023318Y034140
X017318Y035140
X020318Y034140
X022318Y035140
X021318Y034140
X017318Y033140
X022318Y033140
X014318Y008265
X037443Y005015
X027193Y028015
X024318Y035140
X023318Y032140
X031568Y003390
X034318Y003390
X027193Y026015
X021318Y035140
X017318Y032140
X021318Y036140
X024318Y034140
X023318Y033140
X019318Y035140
X021318Y032140
X024318Y033140
X020318Y032140
X023318Y036140
X026818Y007640
X030568Y003390
X018318Y034140
X017318Y036140
X017318Y034140
X012318Y008265
X025818Y007640
T00
M30
