G04 MADE WITH FRITZING*
G04 WWW.FRITZING.ORG*
G04 DOUBLE SIDED*
G04 HOLES PLATED*
G04 CONTOUR ON CENTER OF CONTOUR VECTOR*
%ASAXBY*%
%FSLAX23Y23*%
%MOIN*%
%OFA0B0*%
%SFA1.0B1.0*%
%ADD10C,0.039370*%
%ADD11C,0.075000*%
%ADD12C,0.070000*%
%ADD13C,0.074000*%
%ADD14C,0.078000*%
%ADD15C,0.072917*%
%ADD16C,0.082000*%
%ADD17C,0.051496*%
%ADD18C,0.099055*%
%ADD19R,0.075000X0.075000*%
%ADD20R,0.074000X0.074000*%
%ADD21R,0.070000X0.070000*%
%ADD22R,0.082000X0.082000*%
%ADD23R,0.099055X0.099055*%
%ADD24C,0.024000*%
%ADD25C,0.012000*%
%ADD26C,0.032000*%
%ADD27C,0.048000*%
%ADD28C,0.065000*%
%ADD29C,0.016000*%
%LNCOPPER0*%
G90*
G70*
G54D10*
X369Y289D03*
X57Y1339D03*
G54D11*
X3319Y1402D03*
X3019Y1402D03*
X3319Y1502D03*
X3019Y1502D03*
X3319Y1602D03*
X3019Y1602D03*
X3319Y1702D03*
X3019Y1702D03*
X3319Y1989D03*
X3019Y1989D03*
X3319Y2089D03*
X3019Y2089D03*
X3319Y2189D03*
X3019Y2189D03*
X3319Y2289D03*
X3019Y2289D03*
G54D10*
X594Y314D03*
X3319Y1839D03*
X244Y439D03*
X69Y2489D03*
X2157Y1502D03*
X3432Y1002D03*
X3757Y1114D03*
X982Y2939D03*
X1282Y2189D03*
G54D12*
X2869Y3627D03*
X2869Y3427D03*
G54D10*
X157Y789D03*
X132Y889D03*
X1444Y439D03*
X1869Y839D03*
X2432Y764D03*
X1619Y864D03*
X1294Y639D03*
G54D13*
X1557Y3702D03*
X1557Y3602D03*
X1557Y3502D03*
X1557Y3402D03*
X1557Y3302D03*
X1557Y3202D03*
X1557Y3702D03*
X1557Y3602D03*
X1557Y3502D03*
X1557Y3402D03*
X1557Y3302D03*
X1557Y3202D03*
G54D11*
X1844Y1314D03*
X1544Y1314D03*
X1844Y1414D03*
X1544Y1414D03*
X1844Y1514D03*
X1544Y1514D03*
X1844Y1614D03*
X1544Y1614D03*
G54D10*
X619Y1239D03*
X3057Y664D03*
X3582Y1227D03*
X2619Y3214D03*
X1732Y2352D03*
X2069Y2427D03*
X1394Y2277D03*
X2807Y1839D03*
X2757Y1777D03*
X2857Y1902D03*
X2907Y1964D03*
X769Y3202D03*
X1369Y3464D03*
X1419Y3552D03*
X3594Y664D03*
X3532Y1064D03*
X2594Y2414D03*
X1357Y377D03*
X1594Y389D03*
X3182Y1464D03*
X1344Y1352D03*
X1882Y1139D03*
X82Y3164D03*
X294Y1352D03*
X569Y1052D03*
X2782Y1139D03*
X1707Y1552D03*
X3744Y3252D03*
X3194Y2589D03*
G54D13*
X607Y2764D03*
X607Y2664D03*
X607Y2564D03*
X607Y2464D03*
X607Y2364D03*
X607Y2264D03*
G54D10*
X2144Y2289D03*
X2144Y2089D03*
X3482Y1852D03*
X844Y2314D03*
G54D12*
X3544Y2939D03*
X3544Y2439D03*
X3444Y2939D03*
X3444Y2439D03*
X3344Y2939D03*
X3344Y2439D03*
X3244Y2939D03*
X3244Y2439D03*
X3144Y2939D03*
X3144Y2439D03*
X3044Y2939D03*
X3044Y2439D03*
X2944Y2939D03*
X2944Y2439D03*
X2844Y2939D03*
X2844Y2439D03*
G54D10*
X3444Y3577D03*
X2032Y764D03*
G54D14*
X1732Y3214D03*
X1732Y3314D03*
X1732Y3414D03*
X1732Y3514D03*
X1732Y3614D03*
X2432Y3214D03*
X2432Y3314D03*
X2432Y3414D03*
X2432Y3514D03*
X2432Y3614D03*
X2232Y3614D03*
X2232Y3514D03*
X2232Y3414D03*
X2032Y3414D03*
X2032Y3614D03*
X2032Y3514D03*
X2032Y3214D03*
X2032Y3314D03*
X1832Y3514D03*
X1832Y3614D03*
X2332Y3214D03*
X1932Y3614D03*
X1932Y3414D03*
X1932Y3214D03*
X1932Y3314D03*
X2332Y3614D03*
X2332Y3514D03*
X2332Y3414D03*
X1832Y3214D03*
X1832Y3314D03*
X2132Y3414D03*
X1932Y3514D03*
X2132Y3214D03*
X2132Y3314D03*
X1432Y827D03*
X1332Y827D03*
X1232Y827D03*
X2132Y3614D03*
X2132Y3514D03*
X2332Y3314D03*
X1832Y3414D03*
X2232Y3214D03*
X2232Y3314D03*
G54D10*
X2894Y2527D03*
G54D11*
X3132Y577D03*
X3132Y877D03*
X3232Y577D03*
X3232Y877D03*
X3332Y577D03*
X3332Y877D03*
X3432Y577D03*
X3432Y877D03*
G54D13*
X882Y2189D03*
X882Y2089D03*
X882Y1989D03*
X882Y1889D03*
X882Y1789D03*
X882Y1689D03*
X882Y1589D03*
X882Y1489D03*
X882Y1389D03*
X882Y1289D03*
X882Y1189D03*
X882Y1089D03*
X882Y989D03*
X882Y889D03*
X882Y789D03*
X882Y689D03*
X882Y589D03*
X882Y489D03*
X882Y389D03*
X882Y289D03*
X782Y2189D03*
X782Y2089D03*
X782Y1989D03*
X782Y1889D03*
X782Y1789D03*
X782Y1689D03*
X782Y1589D03*
X782Y1489D03*
X782Y1389D03*
X782Y1289D03*
X782Y1189D03*
X782Y1089D03*
X782Y989D03*
X782Y889D03*
X782Y789D03*
X782Y689D03*
X782Y589D03*
X782Y489D03*
X782Y389D03*
X782Y289D03*
G54D15*
X2982Y1139D03*
X1382Y1139D03*
X3082Y1139D03*
X3182Y1139D03*
X3282Y1139D03*
X3382Y1139D03*
X3682Y2539D03*
X3482Y1139D03*
X3582Y1139D03*
X1422Y3039D03*
X1982Y1139D03*
X2082Y1139D03*
X2182Y1139D03*
X2282Y1139D03*
X3682Y1739D03*
X2382Y1139D03*
X2482Y1139D03*
X2582Y1139D03*
X2682Y1139D03*
X2182Y3039D03*
X3682Y2939D03*
X3682Y2139D03*
X3682Y1339D03*
X1022Y3039D03*
X1782Y1139D03*
X1782Y3039D03*
X3682Y2739D03*
X3682Y2339D03*
X3682Y1939D03*
X3382Y3039D03*
X3682Y1539D03*
X3282Y3039D03*
X3182Y3039D03*
X3082Y3039D03*
X2982Y3039D03*
X2882Y3039D03*
X2782Y3039D03*
X2682Y3039D03*
X822Y3039D03*
X1222Y3039D03*
X1622Y3039D03*
X1182Y1139D03*
X1582Y1139D03*
X2382Y3039D03*
X1982Y3039D03*
X3682Y3039D03*
X3682Y2839D03*
X3682Y2639D03*
X3682Y2439D03*
X3682Y2239D03*
X3682Y2039D03*
X3682Y1839D03*
X3682Y1639D03*
X3682Y1439D03*
X722Y3039D03*
X922Y3039D03*
X1122Y3039D03*
X1322Y3039D03*
X1522Y3039D03*
X1082Y1139D03*
X1282Y1139D03*
X1482Y1139D03*
X1682Y1139D03*
X2482Y3039D03*
X2282Y3039D03*
X2082Y3039D03*
X1882Y3039D03*
X3782Y3039D03*
X3782Y2939D03*
X3782Y2839D03*
X3782Y2739D03*
X3782Y2639D03*
X3782Y2539D03*
X3782Y2439D03*
X3782Y2339D03*
X3782Y2239D03*
X3782Y2139D03*
X3782Y2039D03*
X3782Y1939D03*
X3782Y1839D03*
X3782Y1739D03*
X3782Y1639D03*
X3782Y1539D03*
X3782Y1439D03*
X3782Y1339D03*
X2882Y1139D03*
G54D16*
X1257Y2777D03*
X1257Y2677D03*
X1257Y2577D03*
X1932Y2777D03*
X1932Y2677D03*
X1932Y2577D03*
X1594Y2777D03*
X1594Y2677D03*
X1594Y2577D03*
X919Y2777D03*
X919Y2677D03*
X919Y2577D03*
G54D14*
X3744Y302D03*
X3744Y402D03*
X3744Y502D03*
X3744Y914D03*
X3744Y814D03*
X3744Y714D03*
X2719Y2802D03*
X2719Y2702D03*
X2719Y2602D03*
X3057Y339D03*
X3157Y339D03*
X2682Y764D03*
X2582Y764D03*
X3432Y339D03*
X3332Y339D03*
G54D16*
X3207Y3264D03*
X3307Y3264D03*
X3407Y3264D03*
X2619Y3354D03*
X2619Y3652D03*
X3019Y3266D03*
X3019Y3564D03*
G54D17*
X3594Y3294D03*
X3594Y3589D03*
G54D16*
X369Y3346D03*
X269Y3346D03*
X169Y3346D03*
X1069Y3633D03*
X969Y3633D03*
X869Y3633D03*
X369Y3633D03*
X269Y3633D03*
X169Y3633D03*
X1069Y3346D03*
X969Y3346D03*
X869Y3346D03*
G54D18*
X3782Y3602D03*
X3782Y3464D03*
G54D10*
X2694Y1414D03*
X2694Y1614D03*
G54D19*
X3319Y1402D03*
X3319Y1989D03*
X1844Y1314D03*
G54D20*
X607Y2764D03*
G54D21*
X2844Y2439D03*
X3444Y2439D03*
G54D19*
X3132Y577D03*
G54D20*
X782Y2189D03*
G54D22*
X1257Y2777D03*
X1932Y2777D03*
X1594Y2777D03*
X919Y2777D03*
X3207Y3264D03*
X2619Y3353D03*
X3019Y3265D03*
X369Y3346D03*
X1069Y3633D03*
X369Y3633D03*
X1069Y3346D03*
G54D23*
X3782Y3602D03*
G54D24*
X357Y1026D02*
X369Y1015D01*
D02*
X58Y1040D02*
X69Y1027D01*
D02*
X69Y1027D02*
X357Y1026D01*
D02*
X369Y1015D02*
X369Y308D01*
D02*
X57Y1320D02*
X58Y1040D01*
G54D25*
D02*
X3395Y1214D02*
X3406Y1202D01*
D02*
X3419Y1202D02*
X3432Y1189D01*
D02*
X3245Y1051D02*
X3232Y1040D01*
D02*
X3232Y1040D02*
X3232Y900D01*
D02*
X3406Y1202D02*
X3419Y1202D01*
D02*
X3432Y1051D02*
X3245Y1051D01*
D02*
X3432Y1189D02*
X3432Y1051D01*
D02*
X3394Y2838D02*
X3395Y1214D01*
D02*
X3381Y2851D02*
X3394Y2838D01*
D02*
X3107Y2851D02*
X3381Y2851D01*
D02*
X3095Y2864D02*
X3107Y2851D01*
D02*
X3095Y3039D02*
X3095Y2864D01*
D02*
X3107Y3039D02*
X3095Y3039D01*
D02*
X3594Y926D02*
X3582Y939D01*
D02*
X3482Y952D02*
X3482Y1040D01*
D02*
X3482Y1040D02*
X3469Y1051D01*
D02*
X3469Y1051D02*
X3432Y1051D01*
D02*
X3495Y939D02*
X3482Y952D01*
D02*
X3582Y939D02*
X3495Y939D01*
D02*
X3594Y677D02*
X3594Y926D01*
D02*
X694Y477D02*
X706Y489D01*
D02*
X706Y489D02*
X756Y489D01*
D02*
X695Y214D02*
X694Y477D01*
D02*
X3844Y1526D02*
X3844Y226D01*
D02*
X3831Y1539D02*
X3844Y1526D01*
D02*
X3844Y226D02*
X3819Y201D01*
D02*
X3819Y201D02*
X707Y202D01*
D02*
X707Y202D02*
X695Y214D01*
D02*
X3807Y1539D02*
X3831Y1539D01*
G54D12*
D02*
X3406Y3139D02*
X2894Y3139D01*
D02*
X2894Y3139D02*
X2870Y3164D01*
D02*
X3682Y3138D02*
X3406Y3139D01*
D02*
X3407Y3210D02*
X3406Y3139D01*
D02*
X2870Y3164D02*
X2869Y3378D01*
D02*
X3682Y3138D02*
X3783Y3138D01*
D02*
X3682Y3091D02*
X3682Y3138D01*
D02*
X3783Y3138D02*
X3782Y3091D01*
G54D25*
D02*
X1331Y1089D02*
X1332Y851D01*
D02*
X1299Y1122D02*
X1331Y1089D01*
D02*
X1431Y439D02*
X832Y439D01*
D02*
X832Y439D02*
X800Y407D01*
G54D26*
D02*
X819Y989D02*
X845Y989D01*
G54D25*
D02*
X2289Y3063D02*
X2325Y3190D01*
D02*
X2395Y1239D02*
X2407Y1226D01*
D02*
X1945Y1302D02*
X2382Y1302D01*
D02*
X1844Y1511D02*
X1920Y1511D01*
D02*
X1932Y1501D02*
X1932Y1314D01*
D02*
X1932Y1314D02*
X1945Y1302D01*
D02*
X1920Y1511D02*
X1932Y1501D01*
D02*
X1844Y1491D02*
X1844Y1511D01*
D02*
X2395Y1289D02*
X2395Y1239D01*
D02*
X2382Y1302D02*
X2395Y1289D01*
D02*
X2881Y1215D02*
X2882Y1164D01*
D02*
X2870Y1226D02*
X2881Y1215D01*
D02*
X2407Y1226D02*
X2870Y1226D01*
G54D24*
D02*
X751Y1084D02*
X588Y1055D01*
D02*
X3432Y676D02*
X3432Y848D01*
D02*
X3419Y664D02*
X3432Y676D01*
D02*
X3419Y664D02*
X3076Y664D01*
G54D25*
D02*
X3694Y339D02*
X3729Y382D01*
D02*
X3456Y339D02*
X3694Y339D01*
D02*
X782Y1239D02*
X633Y1239D01*
D02*
X3157Y389D02*
X3170Y401D01*
D02*
X3632Y401D02*
X3645Y414D01*
D02*
X3644Y801D02*
X3657Y814D01*
D02*
X3657Y814D02*
X3720Y814D01*
D02*
X3170Y401D02*
X3632Y401D01*
D02*
X3645Y414D02*
X3644Y801D01*
D02*
X3157Y364D02*
X3157Y389D01*
G54D26*
D02*
X1869Y689D02*
X1869Y815D01*
D02*
X1895Y664D02*
X1869Y689D01*
D02*
X3032Y664D02*
X1895Y664D01*
G54D24*
D02*
X3582Y2402D02*
X3582Y1246D01*
D02*
X3563Y2421D02*
X3582Y2402D01*
G54D26*
D02*
X1507Y977D02*
X1845Y976D01*
D02*
X1869Y952D02*
X1869Y864D01*
D02*
X1845Y976D02*
X1869Y952D01*
D02*
X1482Y1002D02*
X1507Y977D01*
D02*
X1482Y1103D02*
X1482Y1002D01*
G54D25*
D02*
X782Y1215D02*
X782Y1239D01*
G54D27*
D02*
X1394Y2639D02*
X1394Y2307D01*
D02*
X1370Y2677D02*
X1394Y2639D01*
D02*
X1300Y2677D02*
X1370Y2677D01*
D02*
X944Y1689D02*
X924Y1689D01*
D02*
X982Y1713D02*
X944Y1689D01*
D02*
X769Y2639D02*
X770Y2452D01*
D02*
X945Y2415D02*
X982Y2376D01*
D02*
X807Y2415D02*
X945Y2415D01*
D02*
X806Y2676D02*
X769Y2639D01*
D02*
X770Y2452D02*
X807Y2415D01*
D02*
X982Y2376D02*
X982Y1713D01*
D02*
X876Y2676D02*
X806Y2676D01*
D02*
X1733Y2651D02*
X1707Y2677D01*
D02*
X1732Y2382D02*
X1733Y2651D01*
D02*
X1707Y2677D02*
X1638Y2677D01*
D02*
X2070Y2651D02*
X2069Y2457D01*
D02*
X2044Y2677D02*
X2070Y2651D01*
D02*
X1975Y2677D02*
X2044Y2677D01*
G54D26*
D02*
X3344Y2389D02*
X3344Y2407D01*
D02*
X3320Y2364D02*
X3344Y2389D01*
D02*
X3257Y2364D02*
X3320Y2364D01*
D02*
X3232Y2339D02*
X3257Y2364D01*
D02*
X3232Y1802D02*
X3232Y2339D01*
D02*
X3207Y1776D02*
X3232Y1802D01*
D02*
X2781Y1777D02*
X3207Y1776D01*
D02*
X3182Y2365D02*
X3224Y2415D01*
D02*
X3182Y1852D02*
X3182Y2365D01*
D02*
X3157Y1827D02*
X3182Y1852D01*
D02*
X2832Y1827D02*
X3157Y1827D01*
D02*
X2829Y1828D02*
X2832Y1827D01*
D02*
X2945Y1927D02*
X3057Y1927D01*
D02*
X2924Y1947D02*
X2945Y1927D01*
D02*
X3081Y1951D02*
X3082Y2377D01*
D02*
X3082Y2377D02*
X3061Y2412D01*
D02*
X3057Y1927D02*
X3081Y1951D01*
D02*
X2870Y1876D02*
X3107Y1877D01*
D02*
X2868Y1880D02*
X2870Y1876D01*
D02*
X3132Y1901D02*
X3132Y2377D01*
D02*
X3132Y2377D02*
X3138Y2408D01*
D02*
X3107Y1877D02*
X3132Y1901D01*
G54D25*
D02*
X2319Y1252D02*
X1857Y1252D01*
D02*
X2332Y1240D02*
X2319Y1252D01*
D02*
X1844Y1277D02*
X1844Y1291D01*
D02*
X1857Y1252D02*
X1844Y1277D01*
D02*
X2332Y1052D02*
X2332Y1240D01*
D02*
X2345Y1039D02*
X2332Y1052D01*
D02*
X3119Y1039D02*
X2345Y1039D01*
D02*
X3132Y1027D02*
X3119Y1039D01*
D02*
X3132Y900D02*
X3132Y1027D01*
G54D28*
D02*
X506Y2140D02*
X495Y3077D01*
D02*
X495Y3077D02*
X533Y3126D01*
D02*
X556Y2089D02*
X506Y2140D01*
D02*
X533Y3126D02*
X645Y3126D01*
D02*
X729Y2089D02*
X556Y2089D01*
D02*
X645Y3126D02*
X681Y3152D01*
D02*
X970Y3514D02*
X970Y3579D01*
D02*
X944Y3489D02*
X970Y3514D01*
D02*
X682Y3464D02*
X707Y3489D01*
D02*
X707Y3489D02*
X944Y3489D01*
D02*
X681Y3152D02*
X682Y3464D01*
G54D12*
D02*
X408Y2089D02*
X407Y3115D01*
D02*
X269Y3514D02*
X269Y3579D01*
D02*
X494Y3489D02*
X294Y3489D01*
D02*
X520Y3464D02*
X494Y3489D01*
D02*
X294Y3489D02*
X269Y3514D01*
D02*
X520Y3251D02*
X520Y3464D01*
D02*
X407Y3115D02*
X520Y3251D01*
D02*
X506Y1989D02*
X408Y2089D01*
D02*
X729Y1989D02*
X506Y1989D01*
D02*
X556Y1789D02*
X307Y2051D01*
D02*
X307Y2051D02*
X307Y3139D01*
D02*
X729Y1789D02*
X556Y1789D01*
D02*
X269Y3201D02*
X269Y3292D01*
D02*
X307Y3139D02*
X269Y3201D01*
G54D25*
D02*
X1307Y3201D02*
X783Y3202D01*
D02*
X1320Y3189D02*
X1307Y3201D01*
D02*
X1319Y3039D02*
X1320Y3189D01*
D02*
X1297Y3039D02*
X1319Y3039D01*
D02*
X1369Y3090D02*
X1369Y3451D01*
D02*
X1404Y3056D02*
X1369Y3090D01*
D02*
X1532Y3039D02*
X1522Y3039D01*
D02*
X1420Y3126D02*
X1503Y3055D01*
D02*
X1419Y3538D02*
X1420Y3126D01*
D02*
X3532Y2301D02*
X3532Y1077D01*
D02*
X3519Y2314D02*
X3532Y2301D01*
D02*
X3507Y2314D02*
X3519Y2314D01*
D02*
X3495Y2327D02*
X3507Y2314D01*
D02*
X3494Y2876D02*
X3495Y2327D01*
D02*
X3481Y2889D02*
X3494Y2876D01*
D02*
X3207Y2889D02*
X3481Y2889D01*
D02*
X3195Y2901D02*
X3207Y2889D01*
D02*
X3194Y3039D02*
X3195Y2901D01*
D02*
X3207Y3039D02*
X3194Y3039D01*
G54D24*
D02*
X2620Y2802D02*
X2619Y3195D01*
D02*
X2689Y2802D02*
X2620Y2802D01*
G54D29*
D02*
X3432Y264D02*
X3432Y314D01*
D02*
X3419Y252D02*
X3432Y264D01*
D02*
X2932Y252D02*
X3419Y252D01*
D02*
X2895Y289D02*
X2932Y252D01*
G54D12*
D02*
X3783Y3138D02*
X3682Y3138D01*
D02*
X3782Y3091D02*
X3783Y3138D01*
D02*
X3407Y3164D02*
X3407Y3210D01*
D02*
X3432Y3139D02*
X3407Y3164D01*
D02*
X3682Y3138D02*
X3432Y3139D01*
D02*
X3682Y3091D02*
X3682Y3138D01*
G54D29*
D02*
X2895Y526D02*
X2919Y502D01*
D02*
X2919Y502D02*
X2919Y301D01*
D02*
X2919Y301D02*
X2945Y276D01*
D02*
X2945Y276D02*
X3144Y276D01*
D02*
X995Y526D02*
X2895Y526D01*
D02*
X3144Y276D02*
X3157Y289D01*
D02*
X3157Y289D02*
X3157Y314D01*
D02*
X944Y577D02*
X995Y526D01*
D02*
X944Y676D02*
X944Y577D01*
D02*
X932Y689D02*
X944Y676D01*
D02*
X907Y689D02*
X932Y689D01*
D02*
X2869Y502D02*
X969Y501D01*
D02*
X2895Y477D02*
X2869Y502D01*
D02*
X969Y501D02*
X900Y571D01*
D02*
X2895Y289D02*
X2895Y477D01*
G54D25*
D02*
X819Y339D02*
X797Y310D01*
D02*
X932Y339D02*
X819Y339D01*
D02*
X945Y364D02*
X944Y352D01*
D02*
X944Y352D02*
X932Y339D01*
D02*
X956Y377D02*
X945Y364D01*
D02*
X1343Y377D02*
X956Y377D01*
D02*
X132Y177D02*
X145Y164D01*
D02*
X132Y765D02*
X132Y177D01*
D02*
X147Y780D02*
X132Y765D01*
D02*
X3857Y164D02*
X3882Y189D01*
D02*
X3869Y1839D02*
X3807Y1839D01*
D02*
X145Y164D02*
X3857Y164D01*
D02*
X3882Y189D02*
X3882Y1826D01*
D02*
X3882Y1826D02*
X3869Y1839D01*
D02*
X107Y865D02*
X107Y152D01*
D02*
X122Y880D02*
X107Y865D01*
D02*
X3907Y164D02*
X3907Y1926D01*
D02*
X3907Y1926D02*
X3895Y1939D01*
D02*
X120Y139D02*
X3882Y139D01*
D02*
X107Y152D02*
X120Y139D01*
D02*
X3882Y139D02*
X3907Y164D01*
D02*
X3895Y1939D02*
X3807Y1939D01*
G54D29*
D02*
X994Y601D02*
X1020Y576D01*
D02*
X994Y876D02*
X994Y601D01*
D02*
X982Y890D02*
X994Y876D01*
D02*
X1020Y576D02*
X3109Y577D01*
D02*
X907Y889D02*
X982Y890D01*
D02*
X969Y776D02*
X969Y589D01*
D02*
X957Y789D02*
X969Y776D01*
D02*
X969Y589D02*
X1007Y552D01*
D02*
X2957Y502D02*
X3419Y502D01*
D02*
X2907Y552D02*
X2957Y502D01*
D02*
X1007Y552D02*
X2907Y552D01*
D02*
X3432Y514D02*
X3432Y553D01*
D02*
X3419Y502D02*
X3432Y514D01*
D02*
X907Y789D02*
X957Y789D01*
G54D25*
D02*
X2694Y1714D02*
X2694Y1627D01*
D02*
X1145Y1714D02*
X2694Y1714D01*
D02*
X969Y1539D02*
X1145Y1714D01*
D02*
X831Y1539D02*
X969Y1539D01*
D02*
X800Y1507D02*
X831Y1539D01*
D02*
X2632Y1427D02*
X2645Y1414D01*
D02*
X2645Y1414D02*
X2681Y1414D01*
D02*
X2632Y1664D02*
X2632Y1427D01*
D02*
X2620Y1676D02*
X2632Y1664D01*
D02*
X1169Y1676D02*
X2620Y1676D01*
D02*
X982Y1489D02*
X1169Y1676D01*
D02*
X907Y1489D02*
X982Y1489D01*
G54D26*
D02*
X2620Y2701D02*
X2684Y2701D01*
D02*
X2595Y2676D02*
X2620Y2701D01*
D02*
X2594Y2439D02*
X2595Y2676D01*
G54D25*
D02*
X944Y1239D02*
X782Y1239D01*
D02*
X981Y1201D02*
X944Y1239D01*
D02*
X2282Y1189D02*
X2269Y1201D01*
D02*
X2282Y1164D02*
X2282Y1189D01*
D02*
X2269Y1201D02*
X981Y1201D01*
G04 End of Copper0*
M02*