; NON-PLATED HOLES START AT T1
; THROUGH (PLATED) HOLES START AT T100
M48
INCH
T1C0.177165
T100C0.035000
T101C0.038194
T102C0.038000
T103C0.031496
T104C0.042000
T105C0.040000
T106C0.059055
T107C0.015748
T108C0.030000
%
T1
X001318Y029640
X001318Y020640
T100
X031318Y005765
X031318Y008765
X014818Y016140
X030193Y020890
X022318Y015140
X030193Y021890
X032318Y005765
X030193Y015015
X033318Y005765
X030193Y014015
X030193Y016015
X033193Y015015
X032318Y008765
X014818Y013140
X022318Y014140
X019318Y015140
X033193Y014015
X019318Y013140
X022318Y016140
X017818Y015140
X030193Y019890
X033193Y016015
X034318Y005765
X017818Y016140
X033193Y020890
X033193Y022890
X033193Y021890
X033318Y008765
X019318Y014140
X022318Y013140
X017818Y013140
X034318Y008765
X014818Y015140
X030193Y022890
X014818Y014140
X017818Y014140
X019318Y016140
X033193Y019890
X033193Y017015
X030193Y017015
T101
X013818Y011390
X037818Y016390
X033818Y011390
X037818Y028390
X036818Y027390
X028818Y030390
X034818Y011390
X037818Y026390
X012818Y011390
X031818Y030390
X037818Y018390
X010218Y030390
X036818Y013390
X022818Y030390
X011818Y011390
X015218Y030390
X026818Y011390
X017818Y030390
X037818Y019390
X037818Y014390
X027818Y030390
X019818Y030390
X036818Y015390
X036818Y023390
X017818Y011390
X010818Y011390
X037818Y020390
X037818Y023390
X022818Y011390
X007218Y030390
X036818Y028390
X037818Y022390
X036818Y020390
X025818Y011390
X037818Y029390
X036818Y014390
X037818Y015390
X024818Y011390
X015818Y011390
X012218Y030390
X018818Y030390
X037818Y027390
X035818Y011390
X030818Y030390
X036818Y018390
X037818Y021390
X029818Y030390
X036818Y021390
X036818Y016390
X024818Y030390
X020818Y011390
X021818Y030390
X036818Y030390
X021818Y011390
X037818Y017390
X037818Y030390
X030818Y011390
X036818Y022390
X037818Y024390
X028818Y011390
X037818Y013390
X036818Y026390
X036818Y024390
X008218Y030390
X016818Y011390
X026818Y030390
X036818Y025390
X009218Y030390
X023818Y030390
X032818Y011390
X036818Y029390
X036818Y017390
X020818Y030390
X032818Y030390
X023818Y011390
X037818Y025390
X014818Y011390
X029818Y011390
X014218Y030390
X031818Y011390
X011218Y030390
X016218Y030390
X036818Y019390
X013218Y030390
X033818Y030390
X019818Y011390
T102
X021318Y035140
X024318Y035140
X017318Y032140
X020318Y032140
X024318Y034140
X018318Y032140
X019318Y034140
X018318Y033140
X021318Y034140
X024318Y036140
X023318Y032140
X017318Y033140
X019318Y036140
X033318Y003390
X023318Y035140
X037443Y009140
X023318Y034140
X022318Y035140
X022318Y036140
X022318Y033140
X031568Y003390
X017318Y036140
X014318Y008265
X023318Y036140
X020318Y034140
X025818Y007640
X020318Y036140
X037443Y008140
X037443Y004015
X034318Y003390
X027193Y026015
X019318Y035140
X026818Y007640
X018318Y036140
X020318Y035140
X037443Y003015
X018318Y034140
X021318Y036140
X017318Y034140
X020318Y033140
X024318Y032140
X022318Y034140
X021318Y033140
X019318Y033140
X037443Y005015
X037443Y007140
X027193Y027015
X030568Y003390
X019318Y032140
X023318Y033140
X017318Y035140
X027193Y028015
X022318Y032140
X021318Y032140
X018318Y035140
X012318Y008265
X024318Y033140
X013318Y008265
T103
X035943Y035890
X035943Y032937
T104
X008693Y033458
X030193Y032660
X009193Y027765
X012568Y027765
X015943Y027765
X003693Y033458
X034068Y032640
X009693Y036333
X009193Y025765
X001693Y033458
X012568Y025765
X002693Y033458
X019318Y026765
X008693Y036333
X030193Y035640
X026193Y036515
X009693Y033458
X012568Y026765
X002693Y036333
X019318Y025765
X003693Y036333
X032068Y032640
X033068Y032640
X009193Y026765
X010693Y033458
X010693Y036333
X001693Y036333
X015943Y025765
X019318Y027765
X026193Y033535
X015943Y026765
T105
X007818Y021890
X006068Y026640
X015568Y033890
X007818Y002890
X007818Y004890
X007818Y017890
X008818Y008890
X015568Y032890
X007818Y009890
X007818Y011890
X015568Y036890
X007818Y015890
X008818Y014890
X008818Y021890
X008818Y005890
X006068Y022639
X015568Y034890
X008818Y017890
X006068Y025640
X008818Y016890
X007818Y005890
X008818Y004890
X008818Y019890
X008818Y002890
X008818Y018890
X008818Y012890
X007818Y006890
X015568Y031890
X007818Y013890
X007818Y012890
X008818Y006890
X006068Y023640
X007818Y008890
X007818Y010890
X007818Y007890
X008818Y003890
X008818Y013890
X007818Y003890
X007818Y014890
X007818Y019890
X006068Y027640
X007818Y020890
X008818Y010890
X008818Y015890
X008818Y011890
X008818Y007890
X008818Y020890
X006068Y024640
X007818Y016890
X015568Y035890
X008818Y009890
X007818Y018890
T106
X037818Y034640
X037818Y036018
T107
X002443Y004390
X006193Y012390
X037318Y011515
X003693Y002890
X025943Y024140
X027818Y011390
X027943Y016015
X021443Y020890
X005693Y010515
X034443Y035765
X024318Y007640
X000818Y031640
X012818Y021890
X034818Y018515
X018693Y007390
X035818Y012265
X007693Y032015
X018818Y011390
X017318Y023515
X013443Y013515
X035318Y010640
X027568Y017765
X024193Y004015
X029068Y019640
X002943Y013515
X016568Y008390
X009818Y029390
X028943Y025265
X000568Y013390
X020943Y016265
X020318Y007640
X013568Y003765
X026193Y032140
X014193Y035515
X020693Y024265
X001568Y007890
X031818Y014640
X013943Y022765
X030568Y006640
X031943Y025890
X037443Y032515
X026943Y016015
X001318Y008890
X005943Y003140
X008443Y023140
X000693Y024890
X021443Y022890
X014443Y004390
X028068Y018390
X013693Y034640
X028568Y019015
X033193Y018390
X035943Y006640
X015443Y003890
T108
X029443Y024390
X031443Y029390
X030443Y029390
X028693Y034265
X034443Y024390
X032443Y029390
X035443Y024390
X031443Y024390
X032443Y024390
X033443Y024390
X033443Y029390
X034443Y029390
X029443Y029390
X028443Y024390
X035443Y029390
X028693Y036265
X030443Y024390
X028443Y029390
T00
M30
