G04 MADE WITH FRITZING*
G04 WWW.FRITZING.ORG*
G04 DOUBLE SIDED*
G04 HOLES PLATED*
G04 CONTOUR ON CENTER OF CONTOUR VECTOR*
%ASAXBY*%
%FSLAX23Y23*%
%MOIN*%
%OFA0B0*%
%SFA1.0B1.0*%
%ADD10C,0.039370*%
%ADD11C,0.075000*%
%ADD12C,0.070000*%
%ADD13C,0.074000*%
%ADD14C,0.078000*%
%ADD15C,0.072917*%
%ADD16C,0.082000*%
%ADD17C,0.051496*%
%ADD18C,0.099055*%
%ADD19R,0.090086X0.113708*%
%ADD20R,0.075000X0.075000*%
%ADD21R,0.023622X0.086614*%
%ADD22R,0.055118X0.059055*%
%ADD23R,0.047244X0.078740*%
%ADD24R,0.080000X0.026000*%
%ADD25R,0.059055X0.055118*%
%ADD26R,0.074000X0.074000*%
%ADD27R,0.070000X0.070000*%
%ADD28R,0.082000X0.082000*%
%ADD29R,0.099055X0.099055*%
%ADD30C,0.016000*%
%ADD31C,0.024000*%
%ADD32C,0.012000*%
%ADD33C,0.032000*%
%ADD34C,0.065000*%
%ADD35C,0.048000*%
%LNCOPPER1*%
G90*
G70*
G54D10*
X369Y289D03*
X57Y1339D03*
G54D11*
X3319Y1402D03*
X3019Y1402D03*
X3319Y1502D03*
X3019Y1502D03*
X3319Y1602D03*
X3019Y1602D03*
X3319Y1702D03*
X3019Y1702D03*
X3319Y1989D03*
X3019Y1989D03*
X3319Y2089D03*
X3019Y2089D03*
X3319Y2189D03*
X3019Y2189D03*
X3319Y2289D03*
X3019Y2289D03*
G54D10*
X594Y314D03*
X3319Y1839D03*
X244Y439D03*
X69Y2489D03*
X2157Y1502D03*
X3432Y1002D03*
X3757Y1114D03*
X982Y2939D03*
X1282Y2189D03*
G54D12*
X2869Y3627D03*
X2869Y3427D03*
G54D10*
X157Y789D03*
X132Y889D03*
X1444Y439D03*
X1869Y839D03*
X2432Y764D03*
X1619Y864D03*
X1294Y639D03*
G54D13*
X1557Y3702D03*
X1557Y3602D03*
X1557Y3502D03*
X1557Y3402D03*
X1557Y3302D03*
X1557Y3202D03*
X1557Y3702D03*
X1557Y3602D03*
X1557Y3502D03*
X1557Y3402D03*
X1557Y3302D03*
X1557Y3202D03*
G54D11*
X1844Y1314D03*
X1544Y1314D03*
X1844Y1414D03*
X1544Y1414D03*
X1844Y1514D03*
X1544Y1514D03*
X1844Y1614D03*
X1544Y1614D03*
G54D10*
X619Y1239D03*
X3057Y664D03*
X3582Y1227D03*
X2619Y3214D03*
X1732Y2352D03*
X2069Y2427D03*
X1394Y2277D03*
X2807Y1839D03*
X2757Y1777D03*
X2857Y1902D03*
X2907Y1964D03*
X769Y3202D03*
X1369Y3464D03*
X1419Y3552D03*
X3594Y664D03*
X3532Y1064D03*
X2594Y2414D03*
X1357Y377D03*
X1594Y389D03*
X3182Y1464D03*
X1344Y1352D03*
X1882Y1139D03*
X82Y3164D03*
X294Y1352D03*
X569Y1052D03*
X2782Y1139D03*
X1707Y1552D03*
X3744Y3252D03*
X3194Y2589D03*
G54D13*
X607Y2764D03*
X607Y2664D03*
X607Y2564D03*
X607Y2464D03*
X607Y2364D03*
X607Y2264D03*
G54D10*
X2144Y2289D03*
X2144Y2089D03*
X3482Y1852D03*
X844Y2314D03*
G54D12*
X3544Y2939D03*
X3544Y2439D03*
X3444Y2939D03*
X3444Y2439D03*
X3344Y2939D03*
X3344Y2439D03*
X3244Y2939D03*
X3244Y2439D03*
X3144Y2939D03*
X3144Y2439D03*
X3044Y2939D03*
X3044Y2439D03*
X2944Y2939D03*
X2944Y2439D03*
X2844Y2939D03*
X2844Y2439D03*
G54D10*
X3444Y3577D03*
X2032Y764D03*
G54D14*
X1732Y3214D03*
X1732Y3314D03*
X1732Y3414D03*
X1732Y3514D03*
X1732Y3614D03*
X2432Y3214D03*
X2432Y3314D03*
X2432Y3414D03*
X2432Y3514D03*
X2432Y3614D03*
X2232Y3614D03*
X2232Y3514D03*
X2232Y3414D03*
X2032Y3414D03*
X2032Y3614D03*
X2032Y3514D03*
X2032Y3214D03*
X2032Y3314D03*
X1832Y3514D03*
X1832Y3614D03*
X2332Y3214D03*
X1932Y3614D03*
X1932Y3414D03*
X1932Y3214D03*
X1932Y3314D03*
X2332Y3614D03*
X2332Y3514D03*
X2332Y3414D03*
X1832Y3214D03*
X1832Y3314D03*
X2132Y3414D03*
X1932Y3514D03*
X2132Y3214D03*
X2132Y3314D03*
X1432Y827D03*
X1332Y827D03*
X1232Y827D03*
X2132Y3614D03*
X2132Y3514D03*
X2332Y3314D03*
X1832Y3414D03*
X2232Y3214D03*
X2232Y3314D03*
G54D10*
X2894Y2527D03*
G54D11*
X3132Y577D03*
X3132Y877D03*
X3232Y577D03*
X3232Y877D03*
X3332Y577D03*
X3332Y877D03*
X3432Y577D03*
X3432Y877D03*
G54D13*
X882Y2189D03*
X882Y2089D03*
X882Y1989D03*
X882Y1889D03*
X882Y1789D03*
X882Y1689D03*
X882Y1589D03*
X882Y1489D03*
X882Y1389D03*
X882Y1289D03*
X882Y1189D03*
X882Y1089D03*
X882Y989D03*
X882Y889D03*
X882Y789D03*
X882Y689D03*
X882Y589D03*
X882Y489D03*
X882Y389D03*
X882Y289D03*
X782Y2189D03*
X782Y2089D03*
X782Y1989D03*
X782Y1889D03*
X782Y1789D03*
X782Y1689D03*
X782Y1589D03*
X782Y1489D03*
X782Y1389D03*
X782Y1289D03*
X782Y1189D03*
X782Y1089D03*
X782Y989D03*
X782Y889D03*
X782Y789D03*
X782Y689D03*
X782Y589D03*
X782Y489D03*
X782Y389D03*
X782Y289D03*
G54D15*
X2982Y1139D03*
X1382Y1139D03*
X3082Y1139D03*
X3182Y1139D03*
X3282Y1139D03*
X3382Y1139D03*
X3682Y2539D03*
X3482Y1139D03*
X3582Y1139D03*
X1422Y3039D03*
X1982Y1139D03*
X2082Y1139D03*
X2182Y1139D03*
X2282Y1139D03*
X3682Y1739D03*
X2382Y1139D03*
X2482Y1139D03*
X2582Y1139D03*
X2682Y1139D03*
X2182Y3039D03*
X3682Y2939D03*
X3682Y2139D03*
X3682Y1339D03*
X1022Y3039D03*
X1782Y1139D03*
X1782Y3039D03*
X3682Y2739D03*
X3682Y2339D03*
X3682Y1939D03*
X3382Y3039D03*
X3682Y1539D03*
X3282Y3039D03*
X3182Y3039D03*
X3082Y3039D03*
X2982Y3039D03*
X2882Y3039D03*
X2782Y3039D03*
X2682Y3039D03*
X822Y3039D03*
X1222Y3039D03*
X1622Y3039D03*
X1182Y1139D03*
X1582Y1139D03*
X2382Y3039D03*
X1982Y3039D03*
X3682Y3039D03*
X3682Y2839D03*
X3682Y2639D03*
X3682Y2439D03*
X3682Y2239D03*
X3682Y2039D03*
X3682Y1839D03*
X3682Y1639D03*
X3682Y1439D03*
X722Y3039D03*
X922Y3039D03*
X1122Y3039D03*
X1322Y3039D03*
X1522Y3039D03*
X1082Y1139D03*
X1282Y1139D03*
X1482Y1139D03*
X1682Y1139D03*
X2482Y3039D03*
X2282Y3039D03*
X2082Y3039D03*
X1882Y3039D03*
X3782Y3039D03*
X3782Y2939D03*
X3782Y2839D03*
X3782Y2739D03*
X3782Y2639D03*
X3782Y2539D03*
X3782Y2439D03*
X3782Y2339D03*
X3782Y2239D03*
X3782Y2139D03*
X3782Y2039D03*
X3782Y1939D03*
X3782Y1839D03*
X3782Y1739D03*
X3782Y1639D03*
X3782Y1539D03*
X3782Y1439D03*
X3782Y1339D03*
X2882Y1139D03*
G54D16*
X1257Y2777D03*
X1257Y2677D03*
X1257Y2577D03*
X1932Y2777D03*
X1932Y2677D03*
X1932Y2577D03*
X1594Y2777D03*
X1594Y2677D03*
X1594Y2577D03*
X919Y2777D03*
X919Y2677D03*
X919Y2577D03*
G54D14*
X3744Y302D03*
X3744Y402D03*
X3744Y502D03*
X3744Y914D03*
X3744Y814D03*
X3744Y714D03*
X2719Y2802D03*
X2719Y2702D03*
X2719Y2602D03*
X3057Y339D03*
X3157Y339D03*
X2682Y764D03*
X2582Y764D03*
X3432Y339D03*
X3332Y339D03*
G54D16*
X3207Y3264D03*
X3307Y3264D03*
X3407Y3264D03*
X2619Y3354D03*
X2619Y3652D03*
X3019Y3266D03*
X3019Y3564D03*
G54D17*
X3594Y3294D03*
X3594Y3589D03*
X3594Y3294D03*
X3594Y3589D03*
G54D16*
X369Y3346D03*
X269Y3346D03*
X169Y3346D03*
X1069Y3633D03*
X969Y3633D03*
X869Y3633D03*
X369Y3633D03*
X269Y3633D03*
X169Y3633D03*
X1069Y3346D03*
X969Y3346D03*
X869Y3346D03*
G54D18*
X3782Y3602D03*
X3782Y3464D03*
G54D10*
X2694Y1414D03*
X2694Y1614D03*
G54D19*
X569Y1452D03*
X400Y1452D03*
X569Y1589D03*
X400Y1589D03*
X569Y1727D03*
X400Y1727D03*
X569Y1864D03*
X400Y1864D03*
G54D20*
X3319Y1402D03*
X3319Y1989D03*
G54D21*
X407Y2677D03*
X407Y2314D03*
X457Y2677D03*
X357Y2677D03*
X307Y2677D03*
X457Y2314D03*
X357Y2314D03*
X307Y2314D03*
G54D22*
X57Y1452D03*
X138Y1452D03*
X57Y1589D03*
X138Y1589D03*
X57Y1727D03*
X138Y1727D03*
X57Y1864D03*
X138Y1864D03*
X2619Y1502D03*
X2700Y1502D03*
X2619Y1702D03*
X2700Y1702D03*
X2619Y2089D03*
X2700Y2089D03*
X2619Y2289D03*
X2700Y2289D03*
X307Y1452D03*
X226Y1452D03*
X307Y1589D03*
X226Y1589D03*
X307Y1727D03*
X226Y1727D03*
X307Y1864D03*
X226Y1864D03*
X2432Y1502D03*
X2513Y1502D03*
X2432Y1702D03*
X2513Y1702D03*
X2432Y2089D03*
X2513Y2089D03*
X2432Y2289D03*
X2513Y2289D03*
G54D23*
X3319Y3539D03*
X3319Y3649D03*
G54D24*
X252Y939D03*
X252Y889D03*
X252Y839D03*
X252Y789D03*
X252Y739D03*
X252Y689D03*
X252Y639D03*
X252Y589D03*
X494Y589D03*
X494Y639D03*
X494Y689D03*
X494Y739D03*
X494Y789D03*
X494Y839D03*
X494Y889D03*
X494Y939D03*
G54D22*
X414Y439D03*
X494Y439D03*
X550Y1202D03*
X469Y1202D03*
G54D20*
X1844Y1314D03*
G54D25*
X2532Y3189D03*
X2532Y3270D03*
X3157Y3652D03*
X3157Y3571D03*
X2732Y3507D03*
X2732Y3427D03*
G54D22*
X469Y1302D03*
X550Y1302D03*
X201Y1239D03*
X282Y1239D03*
G54D25*
X1344Y3271D03*
X1344Y3352D03*
X1244Y3558D03*
X1244Y3639D03*
X1344Y3558D03*
X1344Y3639D03*
X1244Y3271D03*
X1244Y3352D03*
X657Y3558D03*
X657Y3639D03*
X544Y3558D03*
X544Y3639D03*
X657Y3271D03*
X657Y3352D03*
X544Y3271D03*
X544Y3352D03*
G54D22*
X3507Y2239D03*
X3426Y2239D03*
X3507Y1939D03*
X3426Y1939D03*
X3507Y2039D03*
X3426Y2039D03*
X3507Y2139D03*
X3426Y2139D03*
X2432Y2414D03*
X2513Y2414D03*
X3507Y1477D03*
X3426Y1477D03*
X3507Y1577D03*
X3426Y1577D03*
X3507Y1677D03*
X3426Y1677D03*
X3507Y1777D03*
X3426Y1777D03*
G54D25*
X1107Y2583D03*
X1107Y2664D03*
X1444Y2583D03*
X1444Y2664D03*
X1782Y2583D03*
X1782Y2664D03*
X2119Y2583D03*
X2119Y2664D03*
X1107Y2857D03*
X1107Y2777D03*
X1444Y2857D03*
X1444Y2777D03*
X1782Y2857D03*
X1782Y2777D03*
X2119Y2857D03*
X2119Y2777D03*
G54D22*
X2819Y2089D03*
X2900Y2089D03*
X2900Y2289D03*
X2819Y2289D03*
X1776Y652D03*
X1857Y652D03*
G54D25*
X2282Y698D03*
X2282Y779D03*
G54D22*
X201Y1139D03*
X282Y1139D03*
X3188Y1289D03*
X3107Y1289D03*
G54D25*
X2769Y1314D03*
X2769Y1233D03*
X2082Y933D03*
X2082Y1014D03*
X1232Y921D03*
X1232Y1002D03*
X1107Y746D03*
X1107Y827D03*
X2282Y2783D03*
X2282Y2864D03*
X1982Y933D03*
X1982Y1014D03*
G54D22*
X1857Y739D03*
X1776Y739D03*
G54D25*
X1782Y1014D03*
X1782Y933D03*
G54D22*
X3469Y1235D03*
X3389Y1235D03*
G54D25*
X2382Y1233D03*
X2382Y1314D03*
X3594Y908D03*
X3594Y989D03*
G54D22*
X3245Y452D03*
X3326Y452D03*
X3132Y452D03*
X3051Y452D03*
G54D25*
X3594Y508D03*
X3594Y589D03*
X2982Y682D03*
X2982Y602D03*
G54D26*
X607Y2764D03*
G54D27*
X2844Y2439D03*
X3444Y2439D03*
G54D22*
X2594Y502D03*
X2675Y502D03*
X2494Y639D03*
X2575Y639D03*
G54D20*
X3132Y577D03*
G54D26*
X782Y2189D03*
G54D28*
X1257Y2777D03*
X1932Y2777D03*
X1594Y2777D03*
X919Y2777D03*
X3207Y3264D03*
X2619Y3353D03*
X3019Y3265D03*
X369Y3346D03*
X1069Y3633D03*
X369Y3633D03*
X1069Y3346D03*
G54D29*
X3782Y3602D03*
G54D25*
X2982Y933D03*
X2982Y1014D03*
G54D22*
X2594Y377D03*
X2675Y377D03*
G54D25*
X2869Y603D03*
X2869Y683D03*
X2182Y698D03*
X2182Y779D03*
X1882Y933D03*
X1882Y1014D03*
X2182Y933D03*
X2182Y1014D03*
X1432Y921D03*
X1432Y1002D03*
X2882Y933D03*
X2882Y1014D03*
X2682Y933D03*
X2682Y1014D03*
X2582Y933D03*
X2582Y1014D03*
X2782Y933D03*
X2782Y1014D03*
X2482Y933D03*
X2482Y1014D03*
X2282Y933D03*
X2282Y1014D03*
X2382Y933D03*
X2382Y1014D03*
G54D22*
X2819Y1502D03*
X2900Y1502D03*
X2900Y1702D03*
X2819Y1702D03*
X2669Y1235D03*
X2589Y1235D03*
G54D25*
X2882Y1233D03*
X2882Y1314D03*
G54D30*
X362Y1589D02*
X329Y1589D01*
D02*
X362Y1452D02*
X329Y1452D01*
D02*
X204Y1452D02*
X160Y1452D01*
D02*
X204Y1589D02*
X160Y1589D01*
D02*
X204Y1727D02*
X160Y1727D01*
D02*
X204Y1864D02*
X160Y1864D01*
D02*
X569Y1914D02*
X569Y2164D01*
D02*
X569Y2164D02*
X594Y2189D01*
D02*
X645Y2076D02*
X657Y2089D01*
D02*
X645Y1739D02*
X645Y2076D01*
D02*
X657Y2089D02*
X756Y2089D01*
D02*
X632Y1726D02*
X645Y1739D01*
D02*
X594Y2189D02*
X756Y2189D01*
D02*
X57Y1428D02*
X57Y1352D01*
G54D31*
D02*
X388Y289D02*
X495Y289D01*
G54D30*
D02*
X57Y1565D02*
X57Y1476D01*
D02*
X57Y1703D02*
X57Y1613D01*
D02*
X57Y1751D02*
X57Y1840D01*
D02*
X362Y1864D02*
X329Y1864D01*
D02*
X362Y1727D02*
X329Y1727D01*
D02*
X681Y1876D02*
X695Y1890D01*
D02*
X681Y1602D02*
X681Y1876D01*
D02*
X719Y1465D02*
X719Y1676D01*
D02*
X719Y1676D02*
X733Y1690D01*
D02*
X733Y1690D02*
X756Y1689D01*
D02*
X607Y1452D02*
X706Y1452D01*
D02*
X706Y1452D02*
X719Y1465D01*
D02*
X695Y1890D02*
X756Y1889D01*
D02*
X607Y1589D02*
X670Y1589D01*
D02*
X670Y1589D02*
X681Y1602D01*
D02*
X607Y1726D02*
X632Y1726D01*
G54D32*
D02*
X3404Y2249D02*
X3340Y2279D01*
G54D31*
D02*
X2991Y1702D02*
X2922Y1702D01*
D02*
X2922Y1502D02*
X2991Y1502D01*
G54D32*
D02*
X3404Y1482D02*
X3342Y1496D01*
D02*
X3404Y1761D02*
X3338Y1715D01*
G54D31*
D02*
X2991Y2089D02*
X2922Y2089D01*
D02*
X2991Y2289D02*
X2922Y2289D01*
G54D32*
D02*
X2482Y1036D02*
X2482Y1114D01*
D02*
X2794Y376D02*
X2697Y377D01*
D02*
X2808Y752D02*
X2806Y389D01*
D02*
X2881Y826D02*
X2808Y752D01*
D02*
X2882Y911D02*
X2881Y826D01*
D02*
X2806Y389D02*
X2794Y376D01*
D02*
X2582Y639D02*
X2575Y639D01*
D02*
X2582Y739D02*
X2582Y639D01*
D02*
X2264Y1036D02*
X2197Y1120D01*
D02*
X1982Y1036D02*
X1982Y1114D01*
D02*
X2582Y911D02*
X2582Y789D01*
D02*
X2681Y740D02*
X2676Y526D01*
D02*
X2506Y1014D02*
X2558Y1014D01*
D02*
X2706Y1014D02*
X2758Y1014D01*
D02*
X2682Y1036D02*
X2682Y1114D01*
D02*
X2682Y789D02*
X2682Y911D01*
D02*
X407Y2577D02*
X420Y2564D01*
D02*
X407Y2639D02*
X407Y2577D01*
D02*
X544Y2564D02*
X581Y2564D01*
D02*
X420Y2564D02*
X544Y2564D01*
D02*
X544Y2214D02*
X544Y2564D01*
D02*
X506Y2164D02*
X544Y2214D01*
D02*
X506Y1376D02*
X506Y2164D01*
D02*
X669Y1364D02*
X520Y1364D01*
D02*
X520Y1364D02*
X506Y1376D01*
D02*
X682Y1351D02*
X669Y1364D01*
D02*
X682Y1139D02*
X682Y1351D01*
G54D12*
D02*
X2619Y3255D02*
X2619Y3299D01*
G54D32*
D02*
X304Y1139D02*
X682Y1139D01*
G54D12*
D02*
X3320Y3505D02*
X3320Y3464D01*
G54D32*
D02*
X1069Y3352D02*
X1220Y3352D01*
D02*
X1069Y3372D02*
X1069Y3352D01*
D02*
X2282Y2886D02*
X2281Y2976D01*
G54D30*
D02*
X2694Y1514D02*
X2694Y1427D01*
D02*
X2700Y1502D02*
X2694Y1514D01*
G54D32*
D02*
X2382Y1226D02*
X2220Y1226D01*
D02*
X2206Y1240D02*
X2206Y1264D01*
D02*
X2206Y1264D02*
X2194Y1277D01*
D02*
X1907Y1402D02*
X1894Y1414D01*
D02*
X1907Y1289D02*
X1907Y1402D01*
D02*
X1920Y1277D02*
X1907Y1289D01*
D02*
X1894Y1414D02*
X1867Y1414D01*
D02*
X2194Y1277D02*
X1920Y1277D01*
D02*
X2220Y1226D02*
X2206Y1240D01*
D02*
X2382Y1233D02*
X2382Y1226D01*
G54D33*
D02*
X2570Y2414D02*
X2535Y2414D01*
D02*
X3107Y1313D02*
X3107Y1602D01*
G54D30*
D02*
X2694Y1702D02*
X2694Y1627D01*
D02*
X2700Y1702D02*
X2694Y1702D01*
G54D31*
D02*
X2535Y2089D02*
X2597Y2089D01*
D02*
X2722Y2089D02*
X2797Y2089D01*
D02*
X2535Y2289D02*
X2597Y2289D01*
D02*
X2722Y2289D02*
X2797Y2289D01*
G54D30*
D02*
X2567Y1235D02*
X2406Y1234D01*
D02*
X2745Y1234D02*
X2691Y1235D01*
D02*
X2858Y1233D02*
X2793Y1233D01*
D02*
X3367Y1235D02*
X2906Y1233D01*
G54D31*
D02*
X2382Y1211D02*
X2382Y1169D01*
G54D12*
D02*
X3018Y3414D02*
X3018Y3501D01*
D02*
X2931Y3339D02*
X3018Y3414D01*
G54D31*
D02*
X2535Y1702D02*
X2597Y1702D01*
D02*
X2797Y1702D02*
X2722Y1702D01*
D02*
X2797Y1502D02*
X2722Y1502D01*
D02*
X2535Y1502D02*
X2597Y1502D01*
G54D12*
D02*
X2931Y3165D02*
X2931Y3339D01*
D02*
X2894Y3127D02*
X2931Y3165D01*
D02*
X3407Y3165D02*
X3407Y3210D01*
D02*
X3781Y3140D02*
X3781Y3091D01*
D02*
X3681Y3140D02*
X3781Y3140D01*
D02*
X3681Y3140D02*
X3432Y3140D01*
D02*
X3432Y3140D02*
X3407Y3165D01*
D02*
X3681Y3091D02*
X3681Y3140D01*
D02*
X3157Y3549D02*
X3156Y3464D01*
D02*
X2821Y3427D02*
X2756Y3427D01*
G54D33*
D02*
X2609Y2395D02*
X2633Y2364D01*
G54D31*
D02*
X432Y739D02*
X460Y739D01*
D02*
X419Y727D02*
X432Y739D01*
G54D32*
D02*
X218Y889D02*
X145Y889D01*
D02*
X218Y789D02*
X170Y789D01*
D02*
X619Y1214D02*
X619Y1226D01*
D02*
X607Y1202D02*
X619Y1214D01*
D02*
X572Y1202D02*
X607Y1202D01*
G54D31*
D02*
X419Y439D02*
X419Y727D01*
D02*
X494Y582D02*
X494Y463D01*
D02*
X414Y439D02*
X419Y439D01*
D02*
X495Y289D02*
X495Y415D01*
D02*
X495Y226D02*
X495Y289D01*
D02*
X519Y201D02*
X3819Y202D01*
D02*
X495Y226D02*
X519Y201D01*
D02*
X3645Y1227D02*
X3601Y1227D01*
D02*
X3656Y1214D02*
X3645Y1227D01*
D02*
X3657Y1039D02*
X3656Y1214D01*
D02*
X3819Y202D02*
X3844Y226D01*
D02*
X3670Y1026D02*
X3657Y1039D01*
D02*
X3832Y1026D02*
X3670Y1026D01*
D02*
X3844Y1014D02*
X3832Y1026D01*
D02*
X3844Y226D02*
X3844Y1014D01*
D02*
X1210Y1024D02*
X1182Y1052D01*
G54D30*
D02*
X1207Y827D02*
X1131Y827D01*
G54D32*
D02*
X1958Y1014D02*
X1906Y1014D01*
D02*
X1806Y933D02*
X1858Y933D01*
D02*
X2182Y801D02*
X2182Y911D01*
D02*
X2106Y1014D02*
X2158Y1014D01*
D02*
X2082Y1114D02*
X2082Y1036D01*
D02*
X1845Y440D02*
X1458Y439D01*
D02*
X1356Y726D02*
X1357Y390D01*
D02*
X1370Y739D02*
X1356Y726D01*
D02*
X1754Y739D02*
X1370Y739D01*
G54D30*
D02*
X1781Y911D02*
X1777Y763D01*
G54D32*
D02*
X2306Y1014D02*
X2358Y1014D01*
D02*
X2282Y801D02*
X2282Y911D01*
D02*
X1857Y452D02*
X1845Y440D01*
D02*
X1857Y628D02*
X1857Y452D01*
G54D30*
D02*
X1835Y715D02*
X1798Y675D01*
D02*
X1869Y739D02*
X1857Y739D01*
D02*
X1869Y826D02*
X1869Y739D01*
G54D32*
D02*
X1969Y1201D02*
X1856Y1201D01*
D02*
X1595Y1414D02*
X1567Y1414D01*
D02*
X1606Y1402D02*
X1595Y1414D01*
D02*
X1606Y1214D02*
X1606Y1402D01*
D02*
X1619Y1202D02*
X1606Y1214D01*
D02*
X1856Y1201D02*
X1619Y1202D01*
D02*
X1981Y1189D02*
X1969Y1201D01*
D02*
X1982Y1164D02*
X1981Y1189D01*
G54D31*
D02*
X1644Y3602D02*
X1588Y3602D01*
D02*
X1656Y3614D02*
X1644Y3602D01*
D02*
X1657Y3689D02*
X1656Y3614D01*
D02*
X2420Y3702D02*
X1682Y3702D01*
D02*
X2432Y3689D02*
X2420Y3702D01*
D02*
X1682Y3702D02*
X1657Y3689D01*
D02*
X2432Y3644D02*
X2432Y3689D01*
G54D32*
D02*
X1644Y3126D02*
X1644Y3288D01*
D02*
X1644Y3288D02*
X1632Y3303D01*
D02*
X1632Y3303D02*
X1582Y3302D01*
D02*
X1669Y3390D02*
X1656Y3402D01*
D02*
X1656Y3402D02*
X1582Y3402D01*
D02*
X2382Y3102D02*
X2369Y3114D01*
D02*
X2369Y3114D02*
X1657Y3114D01*
D02*
X2482Y3126D02*
X2469Y3139D01*
D02*
X2469Y3139D02*
X1670Y3139D01*
D02*
X1670Y3139D02*
X1669Y3390D01*
D02*
X1657Y3114D02*
X1644Y3126D01*
D02*
X2482Y3064D02*
X2482Y3126D01*
D02*
X2382Y3064D02*
X2382Y3102D01*
D02*
X2082Y1214D02*
X2082Y1164D01*
D02*
X2070Y1226D02*
X2082Y1214D01*
D02*
X1645Y1226D02*
X2070Y1226D01*
D02*
X1620Y1514D02*
X1632Y1501D01*
D02*
X1632Y1501D02*
X1632Y1240D01*
D02*
X1632Y1240D02*
X1645Y1226D01*
D02*
X1567Y1514D02*
X1620Y1514D01*
G54D31*
D02*
X1494Y1314D02*
X1481Y1301D01*
D02*
X1516Y1314D02*
X1494Y1314D01*
D02*
X1481Y1301D02*
X1482Y1169D01*
G54D33*
D02*
X2860Y2467D02*
X2882Y2505D01*
G54D32*
D02*
X2169Y1252D02*
X2182Y1240D01*
D02*
X1669Y1252D02*
X2169Y1252D01*
D02*
X1657Y1264D02*
X1669Y1252D01*
D02*
X1657Y1602D02*
X1657Y1264D01*
D02*
X1645Y1614D02*
X1657Y1602D01*
D02*
X1567Y1614D02*
X1645Y1614D01*
D02*
X2182Y1240D02*
X2182Y1164D01*
G54D31*
D02*
X2432Y3584D02*
X2432Y3544D01*
D02*
X2482Y3315D02*
X2462Y3314D01*
D02*
X2508Y3291D02*
X2482Y3315D01*
G54D12*
D02*
X2732Y3405D02*
X2732Y3240D01*
G54D32*
D02*
X3482Y1052D02*
X3494Y1039D01*
D02*
X3494Y1002D02*
X3507Y989D01*
D02*
X3507Y989D02*
X3532Y989D01*
D02*
X3494Y1039D02*
X3494Y1002D01*
D02*
X3132Y1039D02*
X3145Y1052D01*
D02*
X3570Y989D02*
X3532Y989D01*
D02*
X3532Y989D02*
X3532Y1051D01*
D02*
X3145Y1052D02*
X3482Y1052D01*
D02*
X3132Y900D02*
X3132Y1039D01*
G54D30*
D02*
X3532Y314D02*
X3545Y301D01*
D02*
X3232Y701D02*
X3245Y714D01*
D02*
X3532Y502D02*
X3532Y314D01*
D02*
X3232Y600D02*
X3232Y701D01*
D02*
X3245Y714D02*
X3720Y714D01*
D02*
X3594Y611D02*
X3594Y651D01*
D02*
X3545Y301D02*
X3720Y302D01*
D02*
X3519Y514D02*
X3532Y502D01*
D02*
X3344Y514D02*
X3519Y514D01*
D02*
X3332Y527D02*
X3344Y514D01*
D02*
X3332Y553D02*
X3332Y527D01*
G54D32*
D02*
X3133Y788D02*
X3132Y853D01*
D02*
X3119Y776D02*
X3133Y788D01*
D02*
X2881Y776D02*
X3119Y776D01*
D02*
X2869Y705D02*
X2869Y764D01*
D02*
X2869Y764D02*
X2881Y776D01*
G54D31*
D02*
X719Y1239D02*
X720Y1139D01*
D02*
X720Y1139D02*
X758Y1109D01*
D02*
X782Y1320D02*
X782Y1358D01*
G54D32*
D02*
X282Y1163D02*
X282Y1215D01*
G54D31*
D02*
X758Y1270D02*
X719Y1239D01*
G54D34*
D02*
X835Y2089D02*
X829Y2089D01*
D02*
X835Y2189D02*
X829Y2189D01*
D02*
X782Y1736D02*
X782Y1742D01*
D02*
X782Y1936D02*
X782Y1942D01*
G54D32*
D02*
X3744Y508D02*
X3744Y526D01*
D02*
X3618Y508D02*
X3744Y508D01*
D02*
X3707Y908D02*
X3720Y910D01*
D02*
X3618Y908D02*
X3707Y908D01*
G54D30*
D02*
X3426Y1753D02*
X3426Y1701D01*
G54D32*
D02*
X3426Y2215D02*
X3426Y2163D01*
G54D33*
D02*
X3107Y1602D02*
X3107Y2089D01*
D02*
X3054Y1602D02*
X3107Y1602D01*
D02*
X3107Y2089D02*
X3054Y2089D01*
G54D31*
D02*
X2557Y3352D02*
X2587Y3353D01*
D02*
X2532Y3326D02*
X2557Y3352D01*
D02*
X2532Y3292D02*
X2532Y3326D01*
G54D33*
D02*
X3082Y2364D02*
X3107Y2340D01*
D02*
X3107Y2340D02*
X3107Y2089D01*
D02*
X2633Y2364D02*
X3082Y2364D01*
G54D12*
D02*
X3320Y3464D02*
X3596Y3463D01*
D02*
X3156Y3464D02*
X3320Y3464D01*
D02*
X3595Y3343D02*
X3596Y3463D01*
D02*
X3596Y3463D02*
X3719Y3464D01*
D02*
X2706Y3214D02*
X2661Y3214D01*
D02*
X2732Y3240D02*
X2706Y3214D01*
D02*
X3018Y3501D02*
X3018Y3510D01*
D02*
X3056Y3465D02*
X3018Y3501D01*
D02*
X3156Y3464D02*
X3056Y3465D01*
D02*
X3153Y3265D02*
X3074Y3265D01*
G54D31*
D02*
X2432Y3244D02*
X2432Y3284D01*
D02*
X2432Y3344D02*
X2432Y3384D01*
D02*
X2432Y3444D02*
X2432Y3484D01*
D02*
X2845Y3001D02*
X2861Y3018D01*
D02*
X2944Y3001D02*
X2960Y3018D01*
D02*
X2844Y2965D02*
X2845Y3001D01*
D02*
X2944Y2965D02*
X2944Y3001D01*
G54D32*
D02*
X2281Y2976D02*
X2519Y2977D01*
D02*
X2531Y2989D02*
X2532Y3167D01*
D02*
X2519Y2977D02*
X2531Y2989D01*
D02*
X2282Y3014D02*
X2281Y2976D01*
D02*
X2981Y738D02*
X2995Y752D01*
D02*
X2982Y704D02*
X2981Y738D01*
D02*
X3232Y764D02*
X3232Y853D01*
D02*
X3219Y752D02*
X3232Y764D01*
D02*
X2995Y752D02*
X3219Y752D01*
G54D31*
D02*
X1256Y1002D02*
X1408Y1002D01*
G54D33*
D02*
X1482Y1077D02*
X1470Y1064D01*
D02*
X1482Y1103D02*
X1482Y1077D01*
G54D30*
D02*
X2119Y665D02*
X2107Y652D01*
D02*
X2119Y765D02*
X2119Y665D01*
D02*
X2131Y777D02*
X2119Y765D01*
D02*
X2107Y652D02*
X1879Y652D01*
D02*
X2158Y778D02*
X2131Y777D01*
G54D32*
D02*
X550Y1278D02*
X550Y1226D01*
D02*
X3404Y2049D02*
X3340Y2079D01*
G54D30*
D02*
X3426Y1553D02*
X3426Y1501D01*
G54D32*
D02*
X3426Y2015D02*
X3426Y1963D01*
D02*
X1069Y3639D02*
X1220Y3639D01*
D02*
X1069Y3660D02*
X1069Y3639D01*
G54D30*
D02*
X2119Y2686D02*
X2119Y2755D01*
D02*
X1782Y2755D02*
X1782Y2686D01*
D02*
X1621Y2777D02*
X1758Y2777D01*
D02*
X1958Y2777D02*
X2095Y2777D01*
D02*
X2082Y2889D02*
X2095Y2877D01*
D02*
X2082Y3014D02*
X2082Y2889D01*
D02*
X1420Y2777D02*
X1283Y2777D01*
D02*
X1444Y2755D02*
X1444Y2686D01*
D02*
X1083Y2777D02*
X946Y2777D01*
D02*
X1107Y2686D02*
X1107Y2755D01*
G54D35*
D02*
X1145Y2351D02*
X1702Y2352D01*
D02*
X1119Y2327D02*
X1145Y2351D01*
D02*
X1119Y2126D02*
X1119Y2327D01*
D02*
X912Y1919D02*
X1119Y2126D01*
G54D30*
D02*
X1669Y2963D02*
X1761Y3025D01*
D02*
X1119Y2964D02*
X1669Y2963D01*
D02*
X1106Y2952D02*
X1119Y2964D01*
D02*
X1107Y2879D02*
X1106Y2952D01*
D02*
X1870Y2927D02*
X1882Y2939D01*
D02*
X1882Y2939D02*
X1882Y3014D01*
D02*
X1457Y2926D02*
X1870Y2927D01*
D02*
X1444Y2914D02*
X1457Y2926D01*
D02*
X1444Y2879D02*
X1444Y2914D01*
D02*
X1982Y3014D02*
X1982Y2876D01*
D02*
X1782Y2864D02*
X1782Y2857D01*
D02*
X1970Y2864D02*
X1782Y2864D01*
D02*
X1982Y2876D02*
X1970Y2864D01*
G54D35*
D02*
X1045Y2402D02*
X1045Y2152D01*
D02*
X1045Y2152D02*
X912Y2019D01*
D02*
X1069Y2427D02*
X1045Y2402D01*
D02*
X1219Y2277D02*
X1194Y2251D01*
D02*
X1194Y2251D02*
X1194Y2101D01*
D02*
X1194Y2101D02*
X912Y1819D01*
D02*
X1364Y2277D02*
X1219Y2277D01*
D02*
X2039Y2427D02*
X1069Y2427D01*
G54D31*
D02*
X3144Y2826D02*
X3119Y2801D01*
D02*
X2781Y2802D02*
X2749Y2802D01*
G54D35*
D02*
X2832Y2702D02*
X2857Y2727D01*
D02*
X2832Y2627D02*
X2832Y2702D01*
D02*
X2807Y2602D02*
X2832Y2627D01*
D02*
X2857Y2727D02*
X3520Y2727D01*
D02*
X2761Y2602D02*
X2807Y2602D01*
G54D31*
D02*
X3632Y2876D02*
X3566Y2924D01*
D02*
X3658Y2857D02*
X3632Y2876D01*
D02*
X3119Y2801D02*
X2781Y2802D01*
D02*
X3144Y2913D02*
X3144Y2826D01*
G54D35*
D02*
X3545Y2702D02*
X3544Y2476D01*
D02*
X3520Y2727D02*
X3545Y2702D01*
G54D30*
D02*
X2882Y1036D02*
X2882Y1114D01*
D02*
X2906Y1014D02*
X2958Y1014D01*
G54D32*
D02*
X319Y2764D02*
X307Y2751D01*
D02*
X469Y2202D02*
X469Y1326D01*
D02*
X231Y2227D02*
X244Y2214D01*
D02*
X231Y2663D02*
X231Y2227D01*
D02*
X244Y2676D02*
X231Y2663D01*
D02*
X457Y2215D02*
X469Y2202D01*
D02*
X244Y2214D02*
X457Y2215D01*
D02*
X301Y2677D02*
X244Y2676D01*
D02*
X307Y2751D02*
X307Y2714D01*
G54D34*
D02*
X607Y3088D02*
X645Y3127D01*
D02*
X782Y2939D02*
X607Y2939D01*
D02*
X645Y3127D02*
X933Y3126D01*
D02*
X782Y2242D02*
X782Y2939D01*
D02*
X607Y2939D02*
X607Y3088D01*
G54D32*
D02*
X581Y2764D02*
X319Y2764D01*
G54D34*
D02*
X969Y3152D02*
X969Y3292D01*
D02*
X933Y3126D02*
X969Y3152D01*
G54D32*
D02*
X1356Y3464D02*
X670Y3464D01*
D02*
X657Y3477D02*
X657Y3536D01*
D02*
X670Y3464D02*
X657Y3477D01*
D02*
X369Y3639D02*
X369Y3660D01*
D02*
X520Y3639D02*
X369Y3639D01*
D02*
X568Y3558D02*
X633Y3558D01*
D02*
X657Y3214D02*
X657Y3249D01*
D02*
X670Y3201D02*
X657Y3214D01*
D02*
X756Y3202D02*
X670Y3201D01*
D02*
X369Y3352D02*
X369Y3372D01*
D02*
X520Y3352D02*
X369Y3352D01*
D02*
X633Y3271D02*
X568Y3271D01*
D02*
X1419Y3558D02*
X1419Y3565D01*
D02*
X1368Y3558D02*
X1419Y3558D01*
D02*
X1320Y3558D02*
X1268Y3558D01*
D02*
X1619Y3102D02*
X1621Y3064D01*
D02*
X1607Y3114D02*
X1619Y3102D01*
D02*
X1357Y3114D02*
X1607Y3114D01*
D02*
X1345Y3126D02*
X1357Y3114D01*
D02*
X1344Y3249D02*
X1345Y3126D01*
D02*
X1268Y3271D02*
X1320Y3271D01*
G54D31*
D02*
X3118Y2939D02*
X3070Y2939D01*
G54D30*
D02*
X3494Y1227D02*
X3568Y1227D01*
D02*
X3491Y1228D02*
X3494Y1227D01*
G54D31*
D02*
X3326Y339D02*
X3302Y339D01*
D02*
X3326Y428D02*
X3326Y339D01*
G54D33*
D02*
X2732Y1777D02*
X1569Y1777D01*
D02*
X1530Y1837D02*
X2782Y1839D01*
D02*
X908Y1215D02*
X1530Y1837D01*
G54D31*
D02*
X3223Y452D02*
X3154Y452D01*
G54D32*
D02*
X1457Y2026D02*
X2682Y2027D01*
D02*
X2694Y2039D02*
X2697Y2065D01*
D02*
X2682Y2027D02*
X2694Y2039D01*
D02*
X970Y1540D02*
X1457Y2026D01*
D02*
X931Y1539D02*
X970Y1540D01*
D02*
X832Y1539D02*
X931Y1539D01*
D02*
X807Y1564D02*
X832Y1539D01*
D02*
X800Y1571D02*
X807Y1564D01*
G54D12*
D02*
X2620Y3126D02*
X2894Y3127D01*
D02*
X2594Y3102D02*
X2620Y3126D01*
D02*
X2595Y2627D02*
X2594Y3102D01*
D02*
X2620Y2602D02*
X2595Y2627D01*
D02*
X2667Y2602D02*
X2620Y2602D01*
G54D31*
D02*
X619Y739D02*
X529Y739D01*
D02*
X759Y610D02*
X619Y739D01*
D02*
X669Y789D02*
X529Y789D01*
D02*
X759Y710D02*
X669Y789D01*
D02*
X719Y839D02*
X529Y839D01*
D02*
X758Y808D02*
X719Y839D01*
D02*
X751Y889D02*
X529Y889D01*
G54D32*
D02*
X3657Y2039D02*
X3529Y2039D01*
D02*
X3529Y2139D02*
X3657Y2139D01*
D02*
X1232Y851D02*
X1232Y899D01*
D02*
X132Y177D02*
X145Y164D01*
D02*
X132Y726D02*
X132Y177D01*
D02*
X144Y739D02*
X132Y726D01*
D02*
X218Y739D02*
X144Y739D01*
D02*
X3857Y164D02*
X3882Y189D01*
D02*
X3882Y1627D02*
X3869Y1639D01*
D02*
X145Y164D02*
X3857Y164D01*
D02*
X3882Y189D02*
X3882Y1627D01*
D02*
X3869Y1639D02*
X3807Y1639D01*
D02*
X119Y839D02*
X107Y826D01*
D02*
X107Y826D02*
X107Y152D01*
D02*
X218Y839D02*
X119Y839D01*
D02*
X107Y152D02*
X120Y139D01*
D02*
X982Y389D02*
X1006Y327D01*
D02*
X1006Y327D02*
X1031Y327D01*
D02*
X907Y389D02*
X982Y389D01*
D02*
X2344Y779D02*
X2306Y779D01*
D02*
X2356Y765D02*
X2344Y779D01*
D02*
X2356Y339D02*
X2356Y765D01*
D02*
X2344Y327D02*
X2356Y339D01*
D02*
X1031Y327D02*
X2344Y327D01*
D02*
X2682Y301D02*
X2669Y289D01*
D02*
X2682Y377D02*
X2682Y301D01*
D02*
X2675Y377D02*
X2682Y377D01*
D02*
X2669Y289D02*
X907Y289D01*
D02*
X3882Y139D02*
X3907Y164D01*
D02*
X3906Y1727D02*
X3895Y1739D01*
D02*
X120Y139D02*
X3882Y139D01*
D02*
X3907Y164D02*
X3906Y1727D01*
D02*
X3895Y1739D02*
X3807Y1739D01*
D02*
X682Y1139D02*
X682Y1001D01*
D02*
X694Y989D02*
X756Y989D01*
D02*
X682Y1001D02*
X694Y989D01*
G54D33*
D02*
X1461Y1968D02*
X2882Y1964D01*
D02*
X908Y1415D02*
X1461Y1968D01*
D02*
X908Y1115D02*
X1569Y1777D01*
D02*
X1492Y1899D02*
X2832Y1902D01*
D02*
X908Y1315D02*
X1492Y1899D01*
G54D32*
D02*
X3662Y1554D02*
X3529Y1659D01*
D02*
X3662Y1454D02*
X3529Y1559D01*
D02*
X1894Y2214D02*
X1906Y2226D01*
D02*
X1882Y2064D02*
X1894Y2076D01*
D02*
X1894Y2076D02*
X1894Y2214D01*
D02*
X1906Y2226D02*
X2681Y2226D01*
D02*
X1445Y2064D02*
X1882Y2064D01*
D02*
X2694Y2239D02*
X2697Y2265D01*
D02*
X2681Y2226D02*
X2694Y2239D01*
D02*
X969Y1590D02*
X1445Y2064D01*
D02*
X907Y1589D02*
X969Y1590D01*
G54D33*
D02*
X1119Y989D02*
X919Y989D01*
D02*
X1194Y1064D02*
X1182Y1052D01*
D02*
X1182Y1052D02*
X1119Y989D01*
D02*
X1470Y1064D02*
X1194Y1064D01*
G54D31*
D02*
X3051Y339D02*
X3051Y428D01*
D02*
X3027Y339D02*
X3051Y339D01*
G54D30*
D02*
X3056Y514D02*
X3057Y651D01*
D02*
X3070Y502D02*
X3056Y514D01*
D02*
X3119Y502D02*
X3070Y502D01*
D02*
X3132Y489D02*
X3119Y501D01*
D02*
X3132Y476D02*
X3132Y489D01*
G54D32*
D02*
X1432Y851D02*
X1432Y899D01*
G04 End of Copper1*
M02*