; NON-PLATED HOLES START AT T1
; THROUGH (PLATED) HOLES START AT T100
M48
INCH
T1C0.165354
T100C0.042000
T101C0.047233
T102C0.030000
T103C0.038194
T104C0.015748
T105C0.038000
T106C0.035000
T107C0.031496
%
T1
X001416Y003755
X001416Y029580
T100
X011298Y026669
X007798Y027669
X013673Y035737
X018048Y025669
X014673Y026669
X006923Y035737
X018048Y026669
X005923Y032487
X023318Y033112
X026298Y033112
X018048Y027669
X014673Y025669
X029173Y034487
X014673Y035737
X007798Y025669
X028173Y034487
X007798Y026669
X007923Y032487
X014673Y032487
X005923Y035737
X032298Y033132
X012673Y032487
X011298Y027669
X006923Y032487
X007923Y035737
X014673Y027669
X012673Y035737
X030173Y034487
X032298Y036112
X013673Y032487
X011298Y025669
T101
X005039Y024343
X006298Y024343
X003857Y014109
X005039Y010370
X006298Y025724
X005039Y008202
X005039Y018833
X005039Y021983
X003857Y008202
X005039Y027100
X003857Y007220
X006298Y008202
X006298Y020801
X005039Y017848
X005039Y025724
X005039Y007220
X005039Y006234
X003857Y006234
X005039Y014109
X005039Y022965
X003857Y017848
X006298Y009188
X006298Y017848
X006298Y015487
X006298Y019815
X003857Y019815
X003857Y012730
X006298Y006234
X005039Y009188
X006298Y007220
X006298Y027100
X005039Y012730
X006298Y012730
X005039Y019815
X003857Y015487
X006298Y011352
X003857Y027100
X005039Y020801
X006298Y022965
X003857Y018833
X006298Y010370
X003857Y025724
X005039Y011352
X005039Y015487
X006298Y014109
X003857Y024343
X006298Y018833
X006298Y021983
T102
X031548Y031737
X034173Y035112
X034548Y026737
X035548Y026737
X030548Y031737
X035548Y031737
X032548Y026737
X033548Y026737
X033548Y031737
X028548Y026737
X028548Y031737
X034548Y031737
X029548Y026737
X029548Y031737
X031548Y026737
X034173Y033112
X030548Y026737
X032548Y031737
T103
X037673Y019237
X023673Y030237
X014073Y030237
X012073Y030237
X012673Y011237
X036673Y022237
X036673Y015237
X037673Y017237
X010673Y011237
X010073Y030237
X008073Y030237
X016673Y011237
X015073Y030237
X017673Y011237
X037673Y023237
X036673Y026237
X037673Y013237
X028673Y011237
X033673Y011237
X037673Y027237
X037673Y021237
X017673Y030237
X035673Y011237
X014673Y011237
X037673Y014237
X024673Y011237
X037673Y026237
X037673Y018237
X018673Y030237
X036673Y027237
X037673Y015237
X026673Y030237
X037673Y028237
X030673Y030237
X036673Y014237
X036673Y019237
X031673Y030237
X009073Y030237
X036673Y020237
X021673Y011237
X011073Y030237
X037673Y016237
X037673Y020237
X011673Y011237
X026673Y011237
X036673Y021237
X031673Y011237
X020673Y011237
X028673Y030237
X034673Y011237
X019673Y030237
X036673Y017237
X019673Y011237
X024673Y030237
X025673Y011237
X037673Y022237
X036673Y028237
X023673Y011237
X037673Y030237
X036673Y029237
X021673Y030237
X033673Y030237
X036673Y023237
X016073Y030237
X029673Y011237
X022673Y011237
X037673Y025237
X037673Y024237
X022673Y030237
X029673Y030237
X007073Y030237
X027673Y030237
X036673Y025237
X030673Y011237
X032673Y030237
X013073Y030237
X013673Y011237
X015673Y011237
X037673Y029237
X036673Y013237
X036673Y018237
X036673Y024237
X032673Y011237
X036673Y016237
X036673Y030237
X020673Y030237
T104
X034548Y019362
X015673Y034987
X031673Y007612
X031298Y015112
X003673Y021737
X020923Y007487
X008923Y033487
X008673Y002112
X007048Y029112
X034548Y013612
X001423Y033737
X028173Y003612
X005923Y003112
X007673Y001987
X031048Y027737
X019173Y017612
X014548Y033862
X028048Y020737
X037298Y011112
X030423Y006737
X035673Y012237
X003298Y010362
X018673Y011237
X026173Y036112
X012548Y003612
X035173Y010487
X002298Y012987
X028048Y014362
X035423Y007237
X008298Y008737
X009048Y016737
X003923Y035737
X022923Y007487
X021798Y031737
X025923Y006612
X027923Y006237
X023673Y027487
X023798Y006987
X013048Y009862
X020673Y033487
X008548Y012862
X015173Y009237
X004798Y030862
X027798Y033237
X015673Y012487
T105
X033173Y003237
X011673Y012487
X025548Y003987
X019548Y003987
X021423Y023737
X037548Y008237
X013673Y012487
X020548Y002987
X034173Y003237
X026798Y026487
X023548Y004987
X037548Y002862
X025548Y002987
X018548Y003987
X022548Y002987
X017548Y003987
X022548Y004987
X037548Y007237
X024548Y002987
X021548Y003987
X022423Y023737
X025548Y004987
X023548Y003987
X016548Y002987
X017548Y004987
X021548Y002987
X031423Y003237
X017548Y002987
X024548Y004987
X030423Y003237
X018548Y002987
X016548Y003987
X026798Y028487
X020548Y003987
X016548Y004987
X020548Y004987
X019548Y002987
X019548Y004987
X024423Y023737
X025423Y023737
X021548Y004987
X037548Y009237
X023423Y023737
X022548Y003987
X018548Y004987
X020423Y023737
X037548Y004862
X012673Y012487
X026798Y027487
X037548Y003862
X023548Y002987
X024548Y003987
T106
X022423Y014362
X017798Y016362
X020798Y015362
X032423Y016737
X033173Y005612
X029423Y020987
X022423Y016362
X025423Y015362
X020798Y016362
X033173Y008612
X029423Y014737
X034173Y008612
X032173Y008612
X029423Y021987
X029423Y015737
X025423Y013362
X017798Y014362
X032173Y005612
X029423Y016737
X025423Y014362
X029423Y023987
X032423Y015737
X032423Y017737
X020798Y014362
X020798Y013362
X034173Y005612
X029423Y022987
X022423Y015362
X031173Y005612
X025423Y016362
X017798Y015362
X032423Y021987
X032423Y020987
X017798Y013362
X031173Y008612
X032423Y023987
X022423Y013362
X032423Y022987
X032423Y014737
X029423Y017737
T107
X019673Y032534
X019673Y035487
T00
M30
