G04 MADE WITH FRITZING*
G04 WWW.FRITZING.ORG*
G04 DOUBLE SIDED*
G04 HOLES PLATED*
G04 CONTOUR ON CENTER OF CONTOUR VECTOR*
%ASAXBY*%
%FSLAX23Y23*%
%MOIN*%
%OFA0B0*%
%SFA1.0B1.0*%
%ADD10C,0.165354*%
%ADD11R,0.059055X0.055118*%
%ADD12R,0.026000X0.080000*%
%ADD13R,0.047244X0.078740*%
%ADD14R,0.087000X0.024000*%
%ADD15R,0.055118X0.059055*%
%ADD16R,0.001000X0.001000*%
%LNPASTEMASK1*%
G90*
G70*
G54D10*
X142Y2958D03*
X142Y376D03*
G54D11*
X767Y1279D03*
X767Y1199D03*
G54D12*
X717Y311D03*
X767Y311D03*
X817Y311D03*
X867Y311D03*
X917Y311D03*
X967Y311D03*
X1017Y311D03*
X1067Y311D03*
X1067Y553D03*
X1017Y553D03*
X967Y553D03*
X917Y553D03*
X867Y553D03*
X817Y553D03*
X767Y553D03*
X717Y553D03*
G54D13*
X2217Y3439D03*
X2217Y3549D03*
G54D14*
X1155Y1786D03*
X1155Y1736D03*
X1155Y1686D03*
X1155Y1636D03*
X1361Y1636D03*
X1361Y1686D03*
X1361Y1736D03*
X1361Y1786D03*
G54D11*
X1155Y468D03*
X1155Y549D03*
G54D15*
X2605Y2486D03*
X2686Y2486D03*
G54D11*
X2430Y3517D03*
X2430Y3436D03*
X3605Y3499D03*
X3605Y3418D03*
X1055Y1499D03*
X1055Y1418D03*
X1530Y1711D03*
X1530Y1631D03*
X1742Y3168D03*
X1742Y3249D03*
X1642Y3506D03*
X1642Y3586D03*
X1742Y3506D03*
X1742Y3586D03*
X1642Y3168D03*
X1642Y3249D03*
X1080Y3506D03*
X1080Y3586D03*
X967Y3506D03*
X967Y3586D03*
X1080Y3168D03*
X1080Y3249D03*
X967Y3168D03*
X967Y3249D03*
G54D15*
X3467Y2399D03*
X3387Y2399D03*
X3387Y2099D03*
X3467Y2099D03*
X3467Y2199D03*
X3387Y2199D03*
X3467Y2299D03*
X3387Y2299D03*
X3198Y2536D03*
X3117Y2536D03*
X3387Y1474D03*
X3467Y1474D03*
X3467Y1574D03*
X3387Y1574D03*
X3467Y1674D03*
X3387Y1674D03*
X3467Y1774D03*
X3387Y1774D03*
G54D11*
X967Y2562D03*
X967Y2643D03*
X1317Y2562D03*
X1317Y2643D03*
X1655Y2562D03*
X1655Y2643D03*
X1992Y2562D03*
X1992Y2643D03*
X967Y2848D03*
X967Y2767D03*
X1317Y2848D03*
X1317Y2767D03*
X1655Y2848D03*
X1655Y2767D03*
X1992Y2848D03*
X1992Y2767D03*
G54D15*
X2749Y2199D03*
X2830Y2199D03*
X2830Y2399D03*
X2749Y2399D03*
X1298Y811D03*
X1217Y811D03*
G54D11*
X2667Y668D03*
X2667Y749D03*
X2467Y668D03*
X2467Y749D03*
X2167Y668D03*
X2167Y749D03*
X1655Y1711D03*
X1655Y1631D03*
G54D15*
X2962Y1349D03*
X3042Y1349D03*
G54D11*
X3180Y1304D03*
X3180Y1224D03*
G54D15*
X2180Y2861D03*
X2261Y2861D03*
G54D11*
X1967Y906D03*
X1967Y986D03*
G54D15*
X1142Y1420D03*
X1223Y1420D03*
X1042Y1249D03*
X962Y1249D03*
G54D11*
X1867Y906D03*
X1867Y986D03*
G54D15*
X1298Y911D03*
X1217Y911D03*
G54D11*
X1655Y906D03*
X1655Y986D03*
G54D15*
X3480Y1226D03*
X3399Y1226D03*
G54D11*
X2692Y1224D03*
X2692Y1304D03*
G54D15*
X3623Y924D03*
X3542Y924D03*
X3231Y436D03*
X3312Y436D03*
X3117Y436D03*
X3037Y436D03*
X3623Y486D03*
X3542Y486D03*
X3542Y611D03*
X3623Y611D03*
G54D11*
X2767Y906D03*
X2767Y986D03*
X2867Y668D03*
X2867Y749D03*
X2967Y906D03*
X2967Y986D03*
X1967Y668D03*
X1967Y749D03*
X1767Y906D03*
X1767Y986D03*
X2067Y906D03*
X2067Y986D03*
G54D15*
X1392Y1420D03*
X1312Y1420D03*
G54D11*
X2867Y906D03*
X2867Y986D03*
X2667Y906D03*
X2667Y986D03*
X2467Y906D03*
X2467Y986D03*
X2167Y906D03*
X2167Y986D03*
X2567Y906D03*
X2567Y986D03*
X2367Y906D03*
X2367Y986D03*
X2267Y906D03*
X2267Y986D03*
G54D15*
X2749Y1574D03*
X2830Y1574D03*
X2830Y1774D03*
X2749Y1774D03*
X2873Y1224D03*
X2792Y1224D03*
G54D11*
X3292Y1224D03*
X3292Y1304D03*
G54D16*
D02*
G04 End of PasteMask1*
M02*