G04 MADE WITH FRITZING*
G04 WWW.FRITZING.ORG*
G04 DOUBLE SIDED*
G04 HOLES PLATED*
G04 CONTOUR ON CENTER OF CONTOUR VECTOR*
%ASAXBY*%
%FSLAX23Y23*%
%MOIN*%
%OFA0B0*%
%SFA1.0B1.0*%
%ADD10C,0.088000*%
%ADD11C,0.049370*%
%ADD12C,0.085000*%
%ADD13C,0.092000*%
%ADD14C,0.080000*%
%ADD15C,0.096603*%
%ADD16C,0.175354*%
%ADD17C,0.082917*%
%ADD18C,0.061496*%
%ADD19R,0.085000X0.085000*%
%ADD20R,0.092000X0.092000*%
%ADD21R,0.080000X0.080000*%
%ADD22R,0.001000X0.001000*%
%LNMASK0*%
G90*
G70*
G54D10*
X2542Y2374D03*
X2442Y2374D03*
X2342Y2374D03*
X2242Y2374D03*
X2142Y2374D03*
X2042Y2374D03*
G54D11*
X1917Y1761D03*
X2805Y1436D03*
G54D12*
X2080Y1336D03*
X1780Y1336D03*
X2080Y1436D03*
X1780Y1436D03*
X2080Y1536D03*
X1780Y1536D03*
X2080Y1636D03*
X1780Y1636D03*
X2542Y1336D03*
X2242Y1336D03*
X2542Y1436D03*
X2242Y1436D03*
X2542Y1536D03*
X2242Y1536D03*
X2542Y1636D03*
X2242Y1636D03*
G54D13*
X2817Y3449D03*
X2917Y3449D03*
X3017Y3449D03*
G54D11*
X2780Y3324D03*
X2617Y3611D03*
G54D12*
X3242Y1474D03*
X2942Y1474D03*
X3242Y1574D03*
X2942Y1574D03*
X3242Y1674D03*
X2942Y1674D03*
X3242Y1774D03*
X2942Y1774D03*
X3242Y2099D03*
X2942Y2099D03*
X3242Y2199D03*
X2942Y2199D03*
X3242Y2299D03*
X2942Y2299D03*
X3242Y2399D03*
X2942Y2399D03*
G54D14*
X3417Y3511D03*
X3417Y3311D03*
G54D10*
X2455Y299D03*
X2355Y299D03*
X2255Y299D03*
X2155Y299D03*
X2055Y299D03*
X1955Y299D03*
X1855Y299D03*
X1755Y299D03*
X2455Y399D03*
X2355Y399D03*
X2255Y399D03*
X2155Y399D03*
X2055Y399D03*
X1955Y399D03*
X1855Y399D03*
X1755Y399D03*
X2455Y499D03*
X2355Y499D03*
X2255Y499D03*
X2155Y499D03*
X2055Y499D03*
X1955Y499D03*
X1855Y499D03*
X1755Y499D03*
X1655Y499D03*
X1655Y399D03*
X1655Y299D03*
X2555Y499D03*
X2555Y399D03*
X2555Y299D03*
G54D11*
X855Y1286D03*
X767Y199D03*
X867Y211D03*
X2817Y361D03*
X367Y2174D03*
X230Y1299D03*
X830Y874D03*
X3730Y1111D03*
X3167Y761D03*
X3455Y1361D03*
X592Y311D03*
X1255Y361D03*
X3455Y1936D03*
X1867Y1124D03*
X2067Y3349D03*
X2180Y3174D03*
X1567Y1249D03*
X1305Y986D03*
X1517Y924D03*
X2092Y749D03*
X2792Y624D03*
X330Y1036D03*
X3105Y2774D03*
X905Y1674D03*
X480Y3086D03*
X2380Y699D03*
X2592Y661D03*
G54D15*
X630Y2572D03*
X630Y2434D03*
X630Y2297D03*
X630Y2198D03*
X630Y2080D03*
X630Y1982D03*
X630Y1883D03*
X630Y1785D03*
X630Y1411D03*
X630Y1273D03*
X630Y1135D03*
X630Y1037D03*
X630Y919D03*
X630Y820D03*
X630Y722D03*
X630Y623D03*
X504Y2710D03*
X504Y2572D03*
X504Y2434D03*
X504Y2297D03*
X504Y2198D03*
X504Y2080D03*
X504Y1982D03*
X504Y1883D03*
X504Y1785D03*
X504Y1549D03*
X504Y1411D03*
X504Y1273D03*
X504Y1135D03*
X504Y1037D03*
X504Y919D03*
X504Y820D03*
X504Y722D03*
X504Y623D03*
X386Y2710D03*
X386Y2572D03*
X386Y2434D03*
X386Y1982D03*
X386Y1883D03*
X386Y1785D03*
X386Y1549D03*
X386Y1411D03*
X386Y1273D03*
X386Y820D03*
X386Y722D03*
X386Y623D03*
X630Y1549D03*
X630Y2710D03*
G54D16*
X142Y2958D03*
X142Y376D03*
G54D15*
X630Y2572D03*
X630Y2434D03*
X630Y2297D03*
X630Y2198D03*
X630Y2080D03*
X630Y1982D03*
X630Y1883D03*
X630Y1785D03*
X630Y1411D03*
X630Y1273D03*
X630Y1135D03*
X630Y1037D03*
X630Y919D03*
X630Y820D03*
X630Y722D03*
X630Y623D03*
X504Y2710D03*
X504Y2572D03*
X504Y2434D03*
X504Y2297D03*
X504Y2198D03*
X504Y2080D03*
X504Y1982D03*
X504Y1883D03*
X504Y1785D03*
X504Y1549D03*
X504Y1411D03*
X504Y1273D03*
X504Y1135D03*
X504Y1037D03*
X504Y919D03*
X504Y820D03*
X504Y722D03*
X504Y623D03*
X386Y2710D03*
X386Y2572D03*
X386Y2434D03*
X386Y1982D03*
X386Y1883D03*
X386Y1785D03*
X386Y1549D03*
X386Y1411D03*
X386Y1273D03*
X386Y820D03*
X386Y722D03*
X386Y623D03*
X630Y1549D03*
X630Y2710D03*
G54D16*
X142Y2958D03*
X142Y376D03*
G54D11*
X3042Y674D03*
X3567Y1224D03*
X2805Y2074D03*
X1567Y3499D03*
X3542Y724D03*
X3517Y1049D03*
X2367Y2749D03*
X1455Y3386D03*
X392Y3574D03*
X2292Y749D03*
X892Y3349D03*
X705Y2911D03*
G54D14*
X3555Y3174D03*
X3555Y2674D03*
X3455Y3174D03*
X3455Y2674D03*
X3355Y3174D03*
X3355Y2674D03*
X3255Y3174D03*
X3255Y2674D03*
X3155Y3174D03*
X3155Y2674D03*
X3055Y3174D03*
X3055Y2674D03*
X2955Y3174D03*
X2955Y2674D03*
X2855Y3174D03*
X2855Y2674D03*
G54D11*
X142Y3374D03*
G54D10*
X1367Y1249D03*
X1267Y1249D03*
X1167Y1249D03*
G54D11*
X3105Y1524D03*
G54D12*
X3117Y561D03*
X3117Y861D03*
X3217Y561D03*
X3217Y861D03*
X3317Y561D03*
X3317Y861D03*
X3417Y561D03*
X3417Y861D03*
G54D17*
X2967Y1124D03*
X1367Y1124D03*
X3067Y1124D03*
X3167Y1124D03*
X3267Y1124D03*
X3367Y1124D03*
X3667Y2524D03*
X3467Y1124D03*
X3567Y1124D03*
X1407Y3024D03*
X1967Y1124D03*
X2067Y1124D03*
X2167Y1124D03*
X2267Y1124D03*
X3667Y1724D03*
X2367Y1124D03*
X2467Y1124D03*
X2567Y1124D03*
X2667Y1124D03*
X2167Y3024D03*
X3667Y2924D03*
X3667Y2124D03*
X3667Y1324D03*
X1007Y3024D03*
X1767Y1124D03*
X1767Y3024D03*
X3667Y2724D03*
X3667Y2324D03*
X3667Y1924D03*
X3367Y3024D03*
X3667Y1524D03*
X3267Y3024D03*
X3167Y3024D03*
X3067Y3024D03*
X2967Y3024D03*
X2867Y3024D03*
X2767Y3024D03*
X2667Y3024D03*
X807Y3024D03*
X1207Y3024D03*
X1607Y3024D03*
X1167Y1124D03*
X1567Y1124D03*
X2367Y3024D03*
X1967Y3024D03*
X3667Y3024D03*
X3667Y2824D03*
X3667Y2624D03*
X3667Y2424D03*
X3667Y2224D03*
X3667Y2024D03*
X3667Y1824D03*
X3667Y1624D03*
X3667Y1424D03*
X707Y3024D03*
X907Y3024D03*
X1107Y3024D03*
X1307Y3024D03*
X1507Y3024D03*
X1067Y1124D03*
X1267Y1124D03*
X1467Y1124D03*
X1667Y1124D03*
X2467Y3024D03*
X2267Y3024D03*
X2067Y3024D03*
X1867Y3024D03*
X3767Y3024D03*
X3767Y2924D03*
X3767Y2824D03*
X3767Y2724D03*
X3767Y2624D03*
X3767Y2524D03*
X3767Y2424D03*
X3767Y2324D03*
X3767Y2224D03*
X3767Y2124D03*
X3767Y2024D03*
X3767Y1924D03*
X3767Y1824D03*
X3767Y1724D03*
X3767Y1624D03*
X3767Y1524D03*
X3767Y1424D03*
X3767Y1324D03*
X2867Y1124D03*
G54D13*
X1130Y2767D03*
X1130Y2667D03*
X1130Y2567D03*
X1805Y2767D03*
X1805Y2667D03*
X1805Y2567D03*
X1467Y2767D03*
X1467Y2667D03*
X1467Y2567D03*
X780Y2767D03*
X780Y2667D03*
X780Y2567D03*
G54D10*
X3755Y286D03*
X3755Y386D03*
X3755Y486D03*
X3755Y924D03*
X3755Y824D03*
X3755Y724D03*
X2680Y2849D03*
X2680Y2749D03*
X2680Y2649D03*
X3042Y324D03*
X3142Y324D03*
X3417Y324D03*
X3317Y324D03*
G54D13*
X3230Y3611D03*
X3230Y3313D03*
X2630Y3311D03*
X2332Y3311D03*
G54D18*
X1967Y3253D03*
X1967Y3549D03*
G54D13*
X792Y3249D03*
X692Y3249D03*
X592Y3249D03*
X1467Y3574D03*
X1367Y3574D03*
X1267Y3574D03*
X792Y3574D03*
X692Y3574D03*
X592Y3574D03*
X1467Y3249D03*
X1367Y3249D03*
X1267Y3249D03*
G54D19*
X2080Y1336D03*
X2542Y1336D03*
G54D20*
X2817Y3449D03*
G54D19*
X3242Y1474D03*
X3242Y2099D03*
G54D21*
X2855Y2674D03*
X3455Y2674D03*
G54D19*
X3117Y561D03*
G54D20*
X1130Y2767D03*
X1805Y2767D03*
X1467Y2767D03*
X780Y2767D03*
X3230Y3612D03*
X2631Y3311D03*
X792Y3249D03*
X1467Y3574D03*
X792Y3574D03*
X1467Y3249D03*
G54D22*
X582Y1833D02*
X677Y1833D01*
X582Y1832D02*
X677Y1832D01*
X582Y1831D02*
X677Y1831D01*
X582Y1830D02*
X677Y1830D01*
X582Y1829D02*
X677Y1829D01*
X582Y1828D02*
X677Y1828D01*
X582Y1827D02*
X677Y1827D01*
X582Y1826D02*
X677Y1826D01*
X582Y1825D02*
X677Y1825D01*
X582Y1824D02*
X677Y1824D01*
X582Y1823D02*
X677Y1823D01*
X582Y1822D02*
X677Y1822D01*
X582Y1821D02*
X677Y1821D01*
X582Y1820D02*
X677Y1820D01*
X582Y1819D02*
X677Y1819D01*
X582Y1818D02*
X677Y1818D01*
X582Y1817D02*
X677Y1817D01*
X582Y1816D02*
X677Y1816D01*
X582Y1815D02*
X677Y1815D01*
X582Y1814D02*
X677Y1814D01*
X582Y1813D02*
X677Y1813D01*
X582Y1812D02*
X677Y1812D01*
X582Y1811D02*
X677Y1811D01*
X582Y1810D02*
X677Y1810D01*
X582Y1809D02*
X677Y1809D01*
X582Y1808D02*
X677Y1808D01*
X582Y1807D02*
X677Y1807D01*
X582Y1806D02*
X677Y1806D01*
X582Y1805D02*
X677Y1805D01*
X582Y1804D02*
X677Y1804D01*
X582Y1803D02*
X624Y1803D01*
X634Y1803D02*
X677Y1803D01*
X582Y1802D02*
X621Y1802D01*
X637Y1802D02*
X677Y1802D01*
X582Y1801D02*
X620Y1801D01*
X639Y1801D02*
X677Y1801D01*
X582Y1800D02*
X618Y1800D01*
X641Y1800D02*
X677Y1800D01*
X582Y1799D02*
X617Y1799D01*
X642Y1799D02*
X677Y1799D01*
X582Y1798D02*
X616Y1798D01*
X643Y1798D02*
X677Y1798D01*
X582Y1797D02*
X615Y1797D01*
X644Y1797D02*
X677Y1797D01*
X582Y1796D02*
X614Y1796D01*
X645Y1796D02*
X677Y1796D01*
X582Y1795D02*
X613Y1795D01*
X645Y1795D02*
X677Y1795D01*
X582Y1794D02*
X613Y1794D01*
X646Y1794D02*
X677Y1794D01*
X582Y1793D02*
X612Y1793D01*
X646Y1793D02*
X677Y1793D01*
X582Y1792D02*
X612Y1792D01*
X647Y1792D02*
X677Y1792D01*
X582Y1791D02*
X611Y1791D01*
X647Y1791D02*
X677Y1791D01*
X582Y1790D02*
X611Y1790D01*
X647Y1790D02*
X677Y1790D01*
X582Y1789D02*
X611Y1789D01*
X648Y1789D02*
X677Y1789D01*
X582Y1788D02*
X611Y1788D01*
X648Y1788D02*
X677Y1788D01*
X582Y1787D02*
X611Y1787D01*
X648Y1787D02*
X677Y1787D01*
X582Y1786D02*
X611Y1786D01*
X648Y1786D02*
X677Y1786D01*
X582Y1785D02*
X611Y1785D01*
X648Y1785D02*
X677Y1785D01*
X582Y1784D02*
X611Y1784D01*
X648Y1784D02*
X677Y1784D01*
X582Y1783D02*
X611Y1783D01*
X648Y1783D02*
X677Y1783D01*
X582Y1782D02*
X611Y1782D01*
X648Y1782D02*
X677Y1782D01*
X582Y1781D02*
X611Y1781D01*
X648Y1781D02*
X677Y1781D01*
X582Y1780D02*
X611Y1780D01*
X647Y1780D02*
X677Y1780D01*
X582Y1779D02*
X612Y1779D01*
X647Y1779D02*
X677Y1779D01*
X582Y1778D02*
X612Y1778D01*
X647Y1778D02*
X677Y1778D01*
X582Y1777D02*
X613Y1777D01*
X646Y1777D02*
X677Y1777D01*
X582Y1776D02*
X613Y1776D01*
X646Y1776D02*
X677Y1776D01*
X582Y1775D02*
X614Y1775D01*
X645Y1775D02*
X677Y1775D01*
X582Y1774D02*
X615Y1774D01*
X644Y1774D02*
X677Y1774D01*
X582Y1773D02*
X615Y1773D01*
X643Y1773D02*
X677Y1773D01*
X582Y1772D02*
X616Y1772D01*
X642Y1772D02*
X677Y1772D01*
X582Y1771D02*
X618Y1771D01*
X641Y1771D02*
X677Y1771D01*
X582Y1770D02*
X619Y1770D01*
X640Y1770D02*
X677Y1770D01*
X582Y1769D02*
X621Y1769D01*
X638Y1769D02*
X677Y1769D01*
X582Y1768D02*
X623Y1768D01*
X636Y1768D02*
X677Y1768D01*
X582Y1767D02*
X677Y1767D01*
X582Y1766D02*
X677Y1766D01*
X582Y1765D02*
X677Y1765D01*
X582Y1764D02*
X677Y1764D01*
X582Y1763D02*
X677Y1763D01*
X582Y1762D02*
X677Y1762D01*
X582Y1761D02*
X677Y1761D01*
X582Y1760D02*
X677Y1760D01*
X582Y1759D02*
X677Y1759D01*
X582Y1758D02*
X677Y1758D01*
X582Y1757D02*
X677Y1757D01*
X582Y1756D02*
X677Y1756D01*
X582Y1755D02*
X677Y1755D01*
X582Y1754D02*
X677Y1754D01*
X582Y1753D02*
X677Y1753D01*
X582Y1752D02*
X677Y1752D01*
X582Y1751D02*
X677Y1751D01*
X582Y1750D02*
X677Y1750D01*
X582Y1749D02*
X677Y1749D01*
X582Y1748D02*
X677Y1748D01*
X582Y1747D02*
X677Y1747D01*
X582Y1746D02*
X677Y1746D01*
X582Y1745D02*
X677Y1745D01*
X582Y1744D02*
X677Y1744D01*
X582Y1743D02*
X677Y1743D01*
X582Y1742D02*
X677Y1742D01*
X582Y1741D02*
X677Y1741D01*
X582Y1740D02*
X677Y1740D01*
X582Y1739D02*
X677Y1739D01*
X582Y1738D02*
X677Y1738D01*
X582Y1737D02*
X677Y1737D01*
X582Y672D02*
X677Y672D01*
X582Y671D02*
X677Y671D01*
X582Y670D02*
X677Y670D01*
X582Y669D02*
X677Y669D01*
X582Y668D02*
X677Y668D01*
X582Y667D02*
X677Y667D01*
X582Y666D02*
X677Y666D01*
X582Y665D02*
X677Y665D01*
X582Y664D02*
X677Y664D01*
X582Y663D02*
X677Y663D01*
X582Y662D02*
X677Y662D01*
X582Y661D02*
X677Y661D01*
X582Y660D02*
X677Y660D01*
X582Y659D02*
X677Y659D01*
X582Y658D02*
X677Y658D01*
X582Y657D02*
X677Y657D01*
X582Y656D02*
X677Y656D01*
X582Y655D02*
X677Y655D01*
X582Y654D02*
X677Y654D01*
X582Y653D02*
X677Y653D01*
X582Y652D02*
X677Y652D01*
X582Y651D02*
X677Y651D01*
X582Y650D02*
X677Y650D01*
X582Y649D02*
X677Y649D01*
X582Y648D02*
X677Y648D01*
X582Y647D02*
X677Y647D01*
X582Y646D02*
X677Y646D01*
X582Y645D02*
X677Y645D01*
X582Y644D02*
X677Y644D01*
X582Y643D02*
X677Y643D01*
X582Y642D02*
X626Y642D01*
X632Y642D02*
X677Y642D01*
X582Y641D02*
X622Y641D01*
X637Y641D02*
X677Y641D01*
X582Y640D02*
X620Y640D01*
X639Y640D02*
X677Y640D01*
X582Y639D02*
X618Y639D01*
X640Y639D02*
X677Y639D01*
X582Y638D02*
X617Y638D01*
X641Y638D02*
X677Y638D01*
X582Y637D02*
X616Y637D01*
X643Y637D02*
X677Y637D01*
X582Y636D02*
X615Y636D01*
X643Y636D02*
X677Y636D01*
X582Y635D02*
X614Y635D01*
X644Y635D02*
X677Y635D01*
X582Y634D02*
X614Y634D01*
X645Y634D02*
X677Y634D01*
X582Y633D02*
X613Y633D01*
X646Y633D02*
X677Y633D01*
X582Y632D02*
X612Y632D01*
X646Y632D02*
X677Y632D01*
X582Y631D02*
X612Y631D01*
X647Y631D02*
X677Y631D01*
X582Y630D02*
X612Y630D01*
X647Y630D02*
X677Y630D01*
X582Y629D02*
X611Y629D01*
X647Y629D02*
X677Y629D01*
X582Y628D02*
X611Y628D01*
X648Y628D02*
X677Y628D01*
X582Y627D02*
X611Y627D01*
X648Y627D02*
X677Y627D01*
X582Y626D02*
X611Y626D01*
X648Y626D02*
X677Y626D01*
X582Y625D02*
X611Y625D01*
X648Y625D02*
X677Y625D01*
X582Y624D02*
X611Y624D01*
X648Y624D02*
X677Y624D01*
X582Y623D02*
X611Y623D01*
X648Y623D02*
X677Y623D01*
X582Y622D02*
X611Y622D01*
X648Y622D02*
X677Y622D01*
X582Y621D02*
X611Y621D01*
X648Y621D02*
X677Y621D01*
X582Y620D02*
X611Y620D01*
X648Y620D02*
X677Y620D01*
X582Y619D02*
X611Y619D01*
X647Y619D02*
X677Y619D01*
X582Y618D02*
X612Y618D01*
X647Y618D02*
X677Y618D01*
X582Y617D02*
X612Y617D01*
X647Y617D02*
X677Y617D01*
X582Y616D02*
X612Y616D01*
X646Y616D02*
X677Y616D01*
X582Y615D02*
X613Y615D01*
X646Y615D02*
X677Y615D01*
X582Y614D02*
X614Y614D01*
X645Y614D02*
X677Y614D01*
X582Y613D02*
X614Y613D01*
X644Y613D02*
X677Y613D01*
X582Y612D02*
X615Y612D01*
X644Y612D02*
X677Y612D01*
X582Y611D02*
X616Y611D01*
X643Y611D02*
X677Y611D01*
X582Y610D02*
X617Y610D01*
X641Y610D02*
X677Y610D01*
X582Y609D02*
X618Y609D01*
X640Y609D02*
X677Y609D01*
X582Y608D02*
X620Y608D01*
X639Y608D02*
X677Y608D01*
X582Y607D02*
X622Y607D01*
X637Y607D02*
X677Y607D01*
X582Y606D02*
X626Y606D01*
X633Y606D02*
X677Y606D01*
X582Y605D02*
X677Y605D01*
X582Y604D02*
X677Y604D01*
X582Y603D02*
X677Y603D01*
X582Y602D02*
X677Y602D01*
X582Y601D02*
X677Y601D01*
X582Y600D02*
X677Y600D01*
X582Y599D02*
X677Y599D01*
X582Y598D02*
X677Y598D01*
X582Y597D02*
X677Y597D01*
X582Y596D02*
X677Y596D01*
X582Y595D02*
X677Y595D01*
X582Y594D02*
X677Y594D01*
X582Y593D02*
X677Y593D01*
X582Y592D02*
X677Y592D01*
X582Y591D02*
X677Y591D01*
X582Y590D02*
X677Y590D01*
X582Y589D02*
X677Y589D01*
X582Y588D02*
X677Y588D01*
X582Y587D02*
X677Y587D01*
X582Y586D02*
X677Y586D01*
X582Y585D02*
X677Y585D01*
X582Y584D02*
X677Y584D01*
X582Y583D02*
X677Y583D01*
X582Y582D02*
X677Y582D01*
X582Y581D02*
X677Y581D01*
X582Y580D02*
X677Y580D01*
X582Y579D02*
X677Y579D01*
X582Y578D02*
X677Y578D01*
X582Y577D02*
X677Y577D01*
X582Y576D02*
X677Y576D01*
D02*
G04 End of Mask0*
M02*