; NON-PLATED HOLES START AT T1
; THROUGH (PLATED) HOLES START AT T100
M48
INCH
T1C0.125984
T100C0.070000
T101C0.015748
T102C0.042000
T103C0.030000
T104C0.031496
T105C0.059055
T106C0.040000
T107C0.038194
T108C0.039370
T109C0.035000
T110C0.038000
T111C0.031497
%
T1
X035411Y031280
X037661Y012280
T100
X012411Y028280
X012411Y026280
X012411Y024280
X012411Y022280
T101
X035661Y004280
X016911Y016280
X009661Y026530
X001661Y026530
X027911Y018780
X037161Y004280
X003911Y019530
X013161Y014780
X027661Y018280
X034911Y025780
X012411Y016280
X034911Y027030
X030661Y006030
X038161Y013030
X015411Y008030
X012411Y003780
X038661Y020780
X015023Y006280
X031161Y008530
X030661Y002780
X008911Y032780
X019161Y017780
X006161Y022030
X038161Y007780
X013411Y016280
X028661Y015030
X013661Y036780
X035911Y028780
X018911Y012280
X015911Y036030
X020161Y029530
X035161Y018280
X036911Y013030
X033911Y023780
X028661Y017530
X025411Y030030
X022161Y029530
X033161Y016030
X006411Y017530
X034911Y028780
X010661Y003530
X031661Y004030
X007161Y025530
X029661Y023530
T102
X020161Y035280
X018661Y024780
X024911Y037280
X002411Y033030
X020161Y033030
X027661Y037030
X003891Y037780
X001411Y033030
X017931Y037280
X000911Y036530
X025161Y033280
X014911Y024030
X014911Y028280
X018661Y022280
X025161Y036260
X014911Y025030
X030661Y036280
X003411Y033030
X030661Y033300
X020661Y022280
X003891Y036530
X002421Y035289
X021931Y037280
X014911Y027280
X022161Y033030
X000911Y037780
X019661Y024780
X022161Y035280
X028661Y037030
X019661Y022280
X011911Y007780
X026661Y037030
X021161Y035280
X014911Y023030
X020661Y024780
X011911Y010760
X021161Y033030
X014911Y029280
X003421Y035289
X001421Y035289
X020911Y037280
T103
X026661Y023030
X033911Y030030
X028661Y008030
X037911Y011030
X013911Y009780
X025411Y005780
X011911Y013780
X028661Y010030
X032411Y037280
X029911Y025030
X004911Y018030
X033661Y013530
X024411Y008280
X032911Y025030
X002911Y018030
X007661Y026530
X028911Y033280
X034911Y030030
X026411Y003280
X030911Y025030
X025911Y010280
X017411Y010280
X031911Y030030
X026911Y033280
X026911Y035280
X015411Y016530
X029911Y030030
X004911Y016780
X028911Y030030
X032911Y030030
X014661Y003780
X014411Y014530
X028911Y025030
X016661Y003780
X028911Y035280
X033911Y025030
X017411Y008280
X013411Y003780
X014411Y016530
X024411Y003280
X002911Y016780
X026661Y021030
X024411Y010280
X032161Y033780
X031911Y025030
X035911Y025030
X037911Y009030
X032161Y035780
X034911Y025030
X023411Y005780
X031661Y013530
X025911Y008280
X015411Y014530
X007661Y028530
X030911Y030030
X011411Y003780
X035911Y030030
X013911Y013780
X013911Y007780
X030411Y037280
T104
X033911Y036983
X033911Y034030
T105
X036411Y036780
X036411Y034811
T106
X008911Y017780
X007911Y006780
X008911Y013780
X007911Y022780
X007911Y003780
X007911Y014780
X008911Y004780
X008911Y019780
X008911Y005780
X007911Y008780
X008911Y016780
X007911Y021780
X006161Y027530
X008911Y008780
X008911Y020780
X006161Y028530
X007911Y009780
X007911Y013780
X008911Y009780
X007911Y012780
X007911Y017780
X008911Y014780
X008911Y011780
X007911Y010780
X007911Y004780
X008911Y015780
X008911Y003780
X006161Y026530
X007911Y015780
X007911Y005780
X007911Y018780
X007911Y016780
X007911Y011780
X008911Y018780
X008911Y021780
X007911Y020780
X008911Y007780
X006161Y023529
X006161Y025530
X007911Y019780
X008911Y010780
X008911Y006780
X008911Y022780
X006161Y024530
X008911Y012780
X007911Y007780
T107
X030911Y031280
X007311Y031280
X013911Y012280
X015311Y031280
X036911Y021280
X030911Y012280
X026911Y031280
X037911Y019280
X037911Y017280
X026911Y012280
X036911Y022280
X036911Y016280
X029911Y012280
X037911Y021280
X036911Y017280
X012911Y012280
X037911Y022280
X019911Y012280
X037911Y020280
X036911Y023280
X017911Y012280
X024911Y031280
X023911Y031280
X014911Y012280
X023911Y012280
X037911Y025280
X037911Y029280
X031911Y031280
X028911Y031280
X036911Y020280
X037911Y015280
X011911Y012280
X032911Y031280
X016311Y031280
X028911Y012280
X037911Y031280
X036911Y028280
X021911Y031280
X035911Y012280
X037911Y023280
X022911Y031280
X036911Y030280
X037911Y026280
X018911Y031280
X012311Y031280
X014311Y031280
X036911Y031280
X036911Y024280
X037911Y030280
X036911Y014280
X027911Y031280
X013311Y031280
X020911Y031280
X036911Y027280
X036911Y026280
X037911Y028280
X015911Y012280
X009311Y031280
X016911Y012280
X020911Y012280
X011311Y031280
X036911Y015280
X025911Y012280
X008311Y031280
X031911Y012280
X036911Y029280
X036911Y025280
X029911Y031280
X037911Y014280
X019911Y031280
X024911Y012280
X036911Y018280
X021911Y012280
X037911Y027280
X034911Y012280
X017911Y031280
X033911Y012280
X022911Y012280
X037911Y018280
X037911Y024280
X037911Y016280
X032911Y012280
X036911Y019280
X033911Y031280
X010311Y031280
X010911Y012280
T108
X027661Y021530
X030661Y016530
X027661Y020530
X030661Y023530
X030661Y021530
X027661Y014530
X030661Y014530
X030661Y020530
X027661Y023530
X027661Y017530
X027661Y016530
X030661Y015530
X030661Y022530
X027661Y022530
X027661Y015530
X030661Y017530
T109
X016411Y006280
X022661Y030280
X012652Y036521
X031661Y020280
X024661Y029030
X035911Y015530
X033911Y005030
X024161Y036280
X012411Y006280
X035661Y021280
X010911Y037780
X022911Y017780
X018911Y007280
X037911Y002280
X017411Y018530
X019661Y026280
X016411Y018530
X017411Y006030
X019911Y007280
X032911Y010280
X027661Y006780
X033911Y006030
X020911Y017780
X010911Y034530
X018661Y026280
X018661Y030280
X022911Y013780
X006911Y037780
X031911Y015530
X020911Y010280
X035911Y017530
X010911Y032530
X021661Y026280
X006911Y034530
X023161Y010780
X016411Y014530
X018911Y010280
X031661Y021280
X016661Y034530
X010911Y035530
X031661Y022280
X025911Y029030
X031911Y007280
X033911Y010280
X006911Y032530
X025911Y025030
X020661Y026280
X006911Y035530
X023661Y021030
X012911Y011280
X035661Y020280
X012661Y037780
X024161Y032280
X017411Y014530
X035411Y002280
X030911Y010280
X016661Y037780
X012652Y033521
X029161Y013280
X006911Y036530
X023911Y017780
X031911Y010280
X012661Y032530
X023911Y013780
X032911Y007280
X012911Y007280
X022661Y021030
X035911Y016530
X025161Y013280
X017661Y030280
X031911Y017530
X004661Y019030
X017661Y026280
X000661Y019030
X019661Y030280
X014911Y007030
X020661Y030280
X021911Y010280
X031911Y016530
X006911Y033530
X035661Y023280
X020911Y007280
X037911Y006280
X012661Y035530
X016661Y032530
X021911Y017780
X031411Y002280
X015911Y011030
X027661Y010780
X016661Y025530
X021911Y007280
X019911Y010280
X021411Y006030
X029911Y006030
X033911Y007280
X010911Y036530
X014911Y011030
X030911Y007280
X021911Y013780
X022661Y025030
X029911Y005030
X024661Y025030
X023661Y025030
X010911Y033530
X023661Y030280
X031661Y023280
X020911Y013780
X016661Y029530
X016652Y036521
X016652Y033521
X022661Y026280
X015911Y007030
X016661Y035530
X031911Y014530
X023161Y006780
X023661Y026280
X012661Y034530
X021661Y030280
X035911Y014530
X035661Y022280
T110
X003911Y005530
X003911Y009530
X003911Y012530
X002911Y014530
X005911Y004530
X001911Y011530
X005911Y002530
X027911Y028280
X001911Y013530
X035661Y008780
X033661Y004030
X004911Y005530
X002911Y008530
X001911Y008530
X032661Y004030
X001911Y014530
X005911Y013530
X004911Y011530
X029911Y004030
X004911Y012530
X001911Y005530
X004911Y007530
X005911Y007530
X005911Y010530
X002911Y003530
X003911Y002530
X003911Y015530
X002911Y009530
X002911Y007530
X035661Y009780
X002911Y005530
X001911Y015530
X003911Y004530
X005911Y009530
X001911Y007530
X035661Y006280
X005911Y006530
X004911Y008530
X003911Y006530
X004911Y015530
X004911Y006530
X005911Y014530
X005911Y003530
X003911Y014530
X003911Y013530
X003911Y008530
X001911Y009530
X004911Y009530
X005911Y008530
X002911Y015530
X035661Y010780
X027911Y027280
X035661Y005280
X004911Y004530
X003911Y003530
X002911Y010530
X002911Y012530
X001911Y006530
X001911Y002530
X004911Y010530
X002911Y002530
X027911Y026280
X004911Y002530
X004911Y014530
X002911Y004530
X003911Y010530
X001911Y003530
X002911Y011530
X001911Y010530
X005911Y011530
X001911Y004530
X004911Y013530
X002911Y013530
X005911Y012530
X003911Y007530
X035661Y007280
X004911Y003530
X005911Y015530
X002911Y006530
X005911Y005530
X030911Y004030
X003911Y011530
X001911Y012530
T111
X005421Y035789
X018161Y035045
X005421Y033789
X025911Y015030
X024927Y017030
X025911Y017030
X024927Y015030
X018161Y033045
X005421Y032805
X005421Y034805
X025661Y021030
X024677Y021030
X018161Y034030
X025661Y023030
X024677Y023030
X018161Y036030
T00
M30
