; NON-PLATED HOLES START AT T1
; THROUGH (PLATED) HOLES START AT T100
M48
INCH
T1C0.177165
T100C0.031496
T101C0.059055
T102C0.038000
T103C0.042000
T104C0.035000
T105C0.038194
T106C0.040000
T107C0.015748
T108C0.030000
%
T1
X001318Y020756
X001318Y029756
T100
X035943Y036006
X035943Y033053
T101
X037818Y034756
X037818Y036134
T102
X037443Y003131
X024318Y036256
X018318Y036256
X027193Y027131
X017318Y036256
X022318Y036256
X024318Y035256
X020318Y036256
X021318Y032256
X019318Y034256
X020318Y035256
X021318Y035256
X037443Y008256
X022318Y032256
X027193Y026131
X018318Y032256
X022318Y035256
X037443Y004131
X019318Y032256
X017318Y034256
X013318Y008381
X020318Y034256
X024318Y033256
X018318Y035256
X031568Y003506
X037443Y007256
X023318Y032256
X022318Y033256
X021318Y034256
X018318Y033256
X017318Y035256
X014318Y008381
X023318Y035256
X020318Y032256
X034318Y003506
X019318Y033256
X017318Y032256
X017318Y033256
X019318Y036256
X037443Y005131
X037443Y009256
X020318Y033256
X024318Y034256
X024318Y032256
X030568Y003506
X021318Y036256
X021318Y033256
X027193Y028131
X023318Y036256
X023318Y033256
X012318Y008381
X019318Y035256
X022318Y034256
X033318Y003506
X018318Y034256
X023318Y034256
T103
X002693Y036449
X003693Y033574
X012568Y025881
X034068Y032756
X030193Y035756
X033068Y032756
X009693Y036449
X019318Y027881
X026193Y036631
X009193Y025881
X019318Y026881
X010693Y033574
X015943Y025881
X003693Y036449
X015943Y026881
X019318Y025881
X032068Y032756
X009693Y033574
X008693Y036449
X001693Y033574
X026193Y033651
X009193Y027881
X030193Y032776
X008693Y033574
X010693Y036449
X015943Y027881
X009193Y026881
X002693Y033574
X001693Y036449
X012568Y027881
X012568Y026881
T104
X033068Y014256
X018443Y016256
X031318Y005881
X033068Y023006
X030068Y017256
X030068Y016256
X034318Y008881
X030068Y020006
X030068Y023006
X030068Y015256
X030068Y022006
X015443Y013256
X030068Y021006
X034318Y005881
X018443Y015256
X015443Y016256
X032318Y008881
X033318Y005881
X015443Y014256
X018443Y013256
X032318Y005881
X031318Y008881
X033068Y020006
X033068Y016256
X018443Y014256
X030068Y014256
X033068Y022006
X033068Y017256
X015443Y015256
X033318Y008881
X033068Y015256
X033068Y021006
T105
X024818Y011506
X030818Y030506
X036818Y030506
X037818Y027506
X012218Y030506
X010818Y011506
X029818Y030506
X023818Y030506
X037818Y013506
X037818Y021506
X019818Y011506
X037818Y023506
X021818Y030506
X036818Y019506
X036818Y018506
X036818Y026506
X024818Y030506
X037818Y025506
X037818Y030506
X020818Y030506
X021818Y011506
X026818Y030506
X008218Y030506
X013218Y030506
X033818Y030506
X011818Y011506
X023818Y011506
X009218Y030506
X016218Y030506
X036818Y029506
X036818Y022506
X013818Y011506
X037818Y018506
X032818Y011506
X033818Y011506
X015218Y030506
X017818Y011506
X037818Y024506
X037818Y028506
X036818Y023506
X014818Y011506
X036818Y027506
X026818Y011506
X036818Y025506
X011218Y030506
X028818Y030506
X032818Y030506
X010218Y030506
X034818Y011506
X037818Y026506
X031818Y030506
X012818Y011506
X029818Y011506
X037818Y022506
X031818Y011506
X036818Y013506
X014218Y030506
X016818Y011506
X037818Y014506
X036818Y017506
X037818Y016506
X027818Y030506
X017818Y030506
X025818Y011506
X037818Y015506
X037818Y017506
X019818Y030506
X018818Y030506
X036818Y020506
X022818Y030506
X037818Y020506
X037818Y029506
X022818Y011506
X007218Y030506
X036818Y016506
X036818Y015506
X015818Y011506
X036818Y014506
X030818Y011506
X020818Y011506
X028818Y011506
X036818Y028506
X036818Y021506
X036818Y024506
X037818Y019506
X035818Y011506
T106
X015568Y035881
X008818Y006006
X007818Y021006
X006068Y025756
X007818Y016006
X008818Y012006
X008818Y009006
X007818Y020006
X008818Y007006
X007818Y007006
X008818Y008006
X007818Y017006
X007818Y013006
X007818Y008006
X007818Y022006
X015568Y031881
X007818Y014006
X008818Y017006
X006068Y026756
X008818Y021006
X015568Y034881
X007818Y015006
X015568Y033881
X008818Y015006
X008818Y018006
X008818Y014006
X008818Y022006
X008818Y010006
X008818Y013006
X015568Y036881
X015568Y032881
X006068Y024756
X008818Y005006
X007818Y003006
X007818Y004006
X006068Y022755
X006068Y023756
X008818Y003006
X008818Y016006
X007818Y005006
X007818Y010006
X007818Y006006
X008818Y019006
X007818Y009006
X008818Y011006
X007818Y011006
X006068Y027756
X007818Y018006
X007818Y019006
X007818Y012006
X008818Y004006
X008818Y020006
T107
X026943Y016256
X018693Y008131
X028943Y025381
X028568Y019131
X020318Y007381
X008443Y023256
X026193Y032256
X001318Y009006
X002068Y016631
X017068Y015631
X020693Y024381
X001568Y008006
X013693Y034756
X035943Y006756
X023318Y007381
X013943Y022881
X008318Y029381
X037568Y011256
X000818Y031756
X034318Y010131
X007693Y032131
X028068Y018506
X019818Y003881
X027568Y017881
X002818Y003006
X021443Y023006
X031943Y026006
X013568Y003881
X021443Y021006
X012943Y006506
X016193Y008756
X034443Y035881
X005818Y011006
X029943Y009131
X013443Y013631
X031943Y015131
X037443Y032631
X025943Y024256
X030568Y006756
X021568Y015131
X029068Y019756
X035818Y012381
X018818Y011506
X034818Y018631
X017318Y023631
X004318Y016256
X026943Y014381
X035318Y010756
X012818Y022006
X027818Y011506
X000818Y025506
X014443Y004506
X014193Y035631
X000943Y010381
T108
X028443Y029506
X028693Y036381
X034443Y029506
X032443Y029506
X033443Y024506
X028443Y024506
X030443Y029506
X035443Y024506
X031443Y029506
X034443Y024506
X033443Y029506
X030443Y024506
X031443Y024506
X035443Y029506
X029443Y029506
X028693Y034381
X032443Y024506
X029443Y024506
T00
M30
