G04 MADE WITH FRITZING*
G04 WWW.FRITZING.ORG*
G04 DOUBLE SIDED*
G04 HOLES PLATED*
G04 CONTOUR ON CENTER OF CONTOUR VECTOR*
%ASAXBY*%
%FSLAX23Y23*%
%MOIN*%
%OFA0B0*%
%SFA1.0B1.0*%
%ADD10C,0.074000*%
%ADD11R,0.024000X0.087000*%
%ADD12R,0.055118X0.059055*%
%ADD13R,0.047244X0.078740*%
%ADD14R,0.080000X0.026000*%
%ADD15R,0.059055X0.055118*%
%ADD16R,0.001000X0.001000*%
%LNPASTEMASK1*%
G90*
G70*
G54D10*
X607Y2476D03*
X607Y2376D03*
X607Y2276D03*
G54D11*
X257Y1419D03*
X207Y1419D03*
X157Y1419D03*
X107Y1419D03*
X107Y1213D03*
X157Y1213D03*
X207Y1213D03*
X257Y1213D03*
G54D12*
X2619Y1526D03*
X2700Y1526D03*
X2619Y1713D03*
X2700Y1713D03*
X2619Y2101D03*
X2700Y2101D03*
X2619Y2301D03*
X2700Y2301D03*
X2432Y1526D03*
X2513Y1526D03*
X2432Y1713D03*
X2513Y1713D03*
X2432Y2101D03*
X2513Y2101D03*
X2432Y2301D03*
X2513Y2301D03*
G54D13*
X3319Y3551D03*
X3319Y3661D03*
G54D14*
X252Y951D03*
X252Y901D03*
X252Y851D03*
X252Y801D03*
X252Y751D03*
X252Y701D03*
X252Y651D03*
X252Y601D03*
X494Y601D03*
X494Y651D03*
X494Y701D03*
X494Y751D03*
X494Y801D03*
X494Y851D03*
X494Y901D03*
X494Y951D03*
G54D12*
X414Y451D03*
X494Y451D03*
G54D15*
X344Y1626D03*
X344Y1545D03*
X2532Y3201D03*
X2532Y3281D03*
X3157Y3663D03*
X3157Y3582D03*
X2732Y3519D03*
X2732Y3438D03*
X344Y1813D03*
X344Y1732D03*
G54D12*
X501Y2101D03*
X582Y2101D03*
G54D15*
X1344Y3282D03*
X1344Y3363D03*
X1244Y3570D03*
X1244Y3651D03*
X1344Y3570D03*
X1344Y3651D03*
X1244Y3282D03*
X1244Y3363D03*
X657Y3570D03*
X657Y3651D03*
X544Y3570D03*
X544Y3651D03*
X657Y3282D03*
X657Y3363D03*
X544Y3282D03*
X544Y3363D03*
G54D12*
X3507Y2301D03*
X3426Y2301D03*
X3507Y2001D03*
X3426Y2001D03*
X3507Y2101D03*
X3426Y2101D03*
X3507Y2201D03*
X3426Y2201D03*
X2432Y2426D03*
X2513Y2426D03*
X3513Y1426D03*
X3432Y1426D03*
X3513Y1526D03*
X3432Y1526D03*
X3513Y1626D03*
X3432Y1626D03*
X3513Y1726D03*
X3432Y1726D03*
G54D15*
X1107Y2595D03*
X1107Y2676D03*
X1444Y2595D03*
X1444Y2676D03*
X1782Y2595D03*
X1782Y2676D03*
X2119Y2595D03*
X2119Y2676D03*
X1107Y2869D03*
X1107Y2788D03*
X1444Y2869D03*
X1444Y2788D03*
X1782Y2869D03*
X1782Y2788D03*
X2119Y2869D03*
X2119Y2788D03*
G54D12*
X2819Y2101D03*
X2900Y2101D03*
X2900Y2301D03*
X2819Y2301D03*
X1864Y563D03*
X1944Y563D03*
X2363Y563D03*
X2282Y563D03*
X501Y2001D03*
X582Y2001D03*
X3169Y1313D03*
X3089Y1313D03*
G54D15*
X2769Y1326D03*
X2769Y1245D03*
X2082Y901D03*
X2082Y981D03*
X1232Y932D03*
X1232Y1013D03*
X1107Y757D03*
X1107Y838D03*
X2282Y2795D03*
X2282Y2876D03*
X1982Y901D03*
X1982Y981D03*
G54D12*
X1863Y726D03*
X1782Y726D03*
G54D15*
X1782Y981D03*
X1782Y901D03*
G54D12*
X3469Y1247D03*
X3389Y1247D03*
G54D15*
X2382Y1245D03*
X2382Y1326D03*
X3594Y920D03*
X3594Y1001D03*
G54D12*
X3245Y463D03*
X3326Y463D03*
X3132Y463D03*
X3051Y463D03*
G54D15*
X3594Y520D03*
X3594Y601D03*
X2957Y662D03*
X2957Y581D03*
G54D12*
X2582Y913D03*
X2663Y913D03*
X2582Y763D03*
X2663Y763D03*
G54D15*
X2844Y582D03*
X2844Y663D03*
X2182Y482D03*
X2182Y563D03*
X1882Y901D03*
X1882Y981D03*
X2182Y901D03*
X2182Y981D03*
X1432Y932D03*
X1432Y1013D03*
X2782Y838D03*
X2782Y919D03*
X2282Y901D03*
X2282Y981D03*
X2382Y901D03*
X2382Y981D03*
G54D12*
X2819Y1526D03*
X2900Y1526D03*
X2900Y1713D03*
X2819Y1713D03*
X2669Y1247D03*
X2589Y1247D03*
G54D15*
X2882Y1245D03*
X2882Y1326D03*
G54D16*
D02*
G04 End of PasteMask1*
M02*