; NON-PLATED HOLES START AT T1
; THROUGH (PLATED) HOLES START AT T100
M48
INCH
T1C0.165354
T100C0.059055
T101C0.015748
T102C0.035000
T103C0.039370
%
T1
X001495Y003634
X018128Y003634
T100
X009092Y001960
X010592Y001960
X013592Y001960
X006092Y001960
X012092Y001960
X007592Y001960
T101
X005136Y004126
X001790Y002059
X013896Y004126
X016455Y002649
T102
X003168Y001209
X003168Y005209
X014585Y005110
X010585Y005110
T103
X016554Y006685
X015554Y006685
X003136Y006685
X014554Y006685
X004136Y006685
X005136Y006685
T00
M30
