G04 MADE WITH FRITZING*
G04 WWW.FRITZING.ORG*
G04 DOUBLE SIDED*
G04 HOLES PLATED*
G04 CONTOUR ON CENTER OF CONTOUR VECTOR*
%ASAXBY*%
%FSLAX23Y23*%
%MOIN*%
%OFA0B0*%
%SFA1.0B1.0*%
%ADD10C,0.010000*%
%ADD11R,0.001000X0.001000*%
%LNSILK1*%
G90*
G70*
G54D10*
X1349Y478D02*
X1149Y478D01*
D02*
X1149Y478D02*
X1149Y544D01*
D02*
X1149Y544D02*
X1349Y544D01*
D02*
X1349Y544D02*
X1349Y478D01*
D02*
X350Y411D02*
X350Y211D01*
D02*
X350Y211D02*
X284Y211D01*
D02*
X284Y211D02*
X284Y411D01*
D02*
X284Y411D02*
X350Y411D01*
G36*
X1360Y772D02*
X1360Y769D01*
X1355Y769D01*
X1355Y766D01*
X1347Y766D01*
X1347Y764D01*
X1339Y764D01*
X1339Y761D01*
X1336Y761D01*
X1336Y759D01*
X1339Y759D01*
X1339Y753D01*
X1342Y753D01*
X1342Y748D01*
X1344Y748D01*
X1344Y743D01*
X1347Y743D01*
X1347Y722D01*
X1344Y722D01*
X1344Y720D01*
X1349Y720D01*
X1349Y722D01*
X1360Y722D01*
X1360Y725D01*
X1370Y725D01*
X1370Y727D01*
X1373Y727D01*
X1373Y730D01*
X1375Y730D01*
X1375Y735D01*
X1378Y735D01*
X1378Y746D01*
X1375Y746D01*
X1375Y751D01*
X1373Y751D01*
X1373Y761D01*
X1370Y761D01*
X1370Y764D01*
X1368Y764D01*
X1368Y769D01*
X1365Y769D01*
X1365Y772D01*
X1360Y772D01*
G37*
D02*
G36*
X1323Y756D02*
X1323Y753D01*
X1316Y753D01*
X1316Y751D01*
X1305Y751D01*
X1305Y748D01*
X1297Y748D01*
X1297Y746D01*
X1290Y746D01*
X1290Y743D01*
X1282Y743D01*
X1282Y740D01*
X1274Y740D01*
X1274Y738D01*
X1266Y738D01*
X1266Y735D01*
X1258Y735D01*
X1258Y733D01*
X1251Y733D01*
X1251Y730D01*
X1245Y730D01*
X1245Y727D01*
X1240Y727D01*
X1240Y725D01*
X1235Y725D01*
X1235Y722D01*
X1232Y722D01*
X1232Y720D01*
X1230Y720D01*
X1230Y717D01*
X1227Y717D01*
X1227Y714D01*
X1225Y714D01*
X1225Y712D01*
X1222Y712D01*
X1222Y709D01*
X1219Y709D01*
X1219Y707D01*
X1282Y707D01*
X1282Y704D01*
X1292Y704D01*
X1292Y701D01*
X1300Y701D01*
X1300Y699D01*
X1308Y699D01*
X1308Y696D01*
X1313Y696D01*
X1313Y694D01*
X1316Y694D01*
X1316Y691D01*
X1318Y691D01*
X1318Y688D01*
X1321Y688D01*
X1321Y686D01*
X1323Y686D01*
X1323Y681D01*
X1326Y681D01*
X1326Y673D01*
X1329Y673D01*
X1329Y655D01*
X1326Y655D01*
X1326Y647D01*
X1323Y647D01*
X1323Y642D01*
X1321Y642D01*
X1321Y639D01*
X1318Y639D01*
X1318Y637D01*
X1316Y637D01*
X1316Y634D01*
X1313Y634D01*
X1313Y631D01*
X1308Y631D01*
X1308Y629D01*
X1303Y629D01*
X1303Y626D01*
X1284Y626D01*
X1284Y624D01*
X1329Y624D01*
X1329Y626D01*
X1331Y626D01*
X1331Y629D01*
X1334Y629D01*
X1334Y631D01*
X1336Y631D01*
X1336Y637D01*
X1339Y637D01*
X1339Y642D01*
X1342Y642D01*
X1342Y647D01*
X1344Y647D01*
X1344Y657D01*
X1347Y657D01*
X1347Y678D01*
X1344Y678D01*
X1344Y688D01*
X1342Y688D01*
X1342Y696D01*
X1339Y696D01*
X1339Y699D01*
X1336Y699D01*
X1336Y704D01*
X1334Y704D01*
X1334Y707D01*
X1331Y707D01*
X1331Y712D01*
X1329Y712D01*
X1329Y714D01*
X1331Y714D01*
X1331Y717D01*
X1334Y717D01*
X1334Y720D01*
X1336Y720D01*
X1336Y722D01*
X1339Y722D01*
X1339Y735D01*
X1336Y735D01*
X1336Y743D01*
X1334Y743D01*
X1334Y748D01*
X1331Y748D01*
X1331Y753D01*
X1329Y753D01*
X1329Y756D01*
X1323Y756D01*
G37*
D02*
G36*
X1219Y707D02*
X1219Y704D01*
X1217Y704D01*
X1217Y699D01*
X1214Y699D01*
X1214Y694D01*
X1212Y694D01*
X1212Y686D01*
X1209Y686D01*
X1209Y678D01*
X1206Y678D01*
X1206Y663D01*
X1209Y663D01*
X1209Y655D01*
X1212Y655D01*
X1212Y647D01*
X1214Y647D01*
X1214Y642D01*
X1217Y642D01*
X1217Y637D01*
X1219Y637D01*
X1219Y631D01*
X1222Y631D01*
X1222Y629D01*
X1225Y629D01*
X1225Y626D01*
X1227Y626D01*
X1227Y624D01*
X1266Y624D01*
X1266Y626D01*
X1258Y626D01*
X1258Y629D01*
X1253Y629D01*
X1253Y631D01*
X1248Y631D01*
X1248Y634D01*
X1245Y634D01*
X1245Y637D01*
X1243Y637D01*
X1243Y639D01*
X1240Y639D01*
X1240Y642D01*
X1238Y642D01*
X1238Y644D01*
X1235Y644D01*
X1235Y650D01*
X1232Y650D01*
X1232Y657D01*
X1230Y657D01*
X1230Y673D01*
X1232Y673D01*
X1232Y681D01*
X1235Y681D01*
X1235Y686D01*
X1238Y686D01*
X1238Y691D01*
X1240Y691D01*
X1240Y694D01*
X1243Y694D01*
X1243Y696D01*
X1245Y696D01*
X1245Y699D01*
X1251Y699D01*
X1251Y701D01*
X1256Y701D01*
X1256Y704D01*
X1266Y704D01*
X1266Y707D01*
X1219Y707D01*
G37*
D02*
G36*
X1230Y624D02*
X1230Y621D01*
X1326Y621D01*
X1326Y624D01*
X1230Y624D01*
G37*
D02*
G36*
X1230Y624D02*
X1230Y621D01*
X1326Y621D01*
X1326Y624D01*
X1230Y624D01*
G37*
D02*
G36*
X1232Y621D02*
X1232Y618D01*
X1235Y618D01*
X1235Y616D01*
X1240Y616D01*
X1240Y613D01*
X1243Y613D01*
X1243Y611D01*
X1248Y611D01*
X1248Y608D01*
X1256Y608D01*
X1256Y605D01*
X1264Y605D01*
X1264Y603D01*
X1271Y603D01*
X1271Y600D01*
X1284Y600D01*
X1284Y603D01*
X1292Y603D01*
X1292Y605D01*
X1303Y605D01*
X1303Y608D01*
X1308Y608D01*
X1308Y611D01*
X1313Y611D01*
X1313Y613D01*
X1318Y613D01*
X1318Y616D01*
X1321Y616D01*
X1321Y618D01*
X1323Y618D01*
X1323Y621D01*
X1232Y621D01*
G37*
D02*
G36*
X949Y709D02*
X949Y704D01*
X947Y704D01*
X947Y696D01*
X954Y696D01*
X954Y701D01*
X957Y701D01*
X957Y709D01*
X949Y709D01*
G37*
D02*
G36*
X606Y704D02*
X606Y701D01*
X604Y701D01*
X604Y696D01*
X624Y696D01*
X624Y694D01*
X627Y694D01*
X627Y670D01*
X624Y670D01*
X624Y663D01*
X622Y663D01*
X622Y657D01*
X619Y657D01*
X619Y655D01*
X627Y655D01*
X627Y657D01*
X630Y657D01*
X630Y663D01*
X632Y663D01*
X632Y668D01*
X635Y668D01*
X635Y683D01*
X637Y683D01*
X637Y686D01*
X635Y686D01*
X635Y696D01*
X632Y696D01*
X632Y699D01*
X627Y699D01*
X627Y701D01*
X617Y701D01*
X617Y704D01*
X606Y704D01*
G37*
D02*
G36*
X604Y696D02*
X604Y688D01*
X601Y688D01*
X601Y675D01*
X598Y675D01*
X598Y663D01*
X596Y663D01*
X596Y655D01*
X604Y655D01*
X604Y657D01*
X606Y657D01*
X606Y670D01*
X609Y670D01*
X609Y686D01*
X611Y686D01*
X611Y696D01*
X604Y696D01*
G37*
D02*
G36*
X596Y655D02*
X596Y652D01*
X624Y652D01*
X624Y655D01*
X596Y655D01*
G37*
D02*
G36*
X596Y655D02*
X596Y652D01*
X624Y652D01*
X624Y655D01*
X596Y655D01*
G37*
D02*
G36*
X596Y652D02*
X596Y647D01*
X606Y647D01*
X606Y650D01*
X619Y650D01*
X619Y652D01*
X596Y652D01*
G37*
D02*
G36*
X1074Y704D02*
X1074Y694D01*
X1071Y694D01*
X1071Y681D01*
X1069Y681D01*
X1069Y668D01*
X1066Y668D01*
X1066Y655D01*
X1064Y655D01*
X1064Y647D01*
X1097Y647D01*
X1097Y655D01*
X1074Y655D01*
X1074Y665D01*
X1077Y665D01*
X1077Y675D01*
X1100Y675D01*
X1100Y683D01*
X1079Y683D01*
X1079Y694D01*
X1082Y694D01*
X1082Y696D01*
X1105Y696D01*
X1105Y701D01*
X1108Y701D01*
X1108Y704D01*
X1074Y704D01*
G37*
D02*
G36*
X1118Y704D02*
X1118Y699D01*
X1115Y699D01*
X1115Y694D01*
X1126Y694D01*
X1126Y678D01*
X1131Y678D01*
X1131Y688D01*
X1128Y688D01*
X1128Y704D01*
X1118Y704D01*
G37*
D02*
G36*
X1144Y704D02*
X1144Y699D01*
X1141Y699D01*
X1141Y694D01*
X1147Y694D01*
X1147Y686D01*
X1144Y686D01*
X1144Y673D01*
X1141Y673D01*
X1141Y660D01*
X1139Y660D01*
X1139Y647D01*
X1144Y647D01*
X1144Y652D01*
X1147Y652D01*
X1147Y665D01*
X1149Y665D01*
X1149Y678D01*
X1152Y678D01*
X1152Y694D01*
X1154Y694D01*
X1154Y704D01*
X1144Y704D01*
G37*
D02*
G36*
X1115Y694D02*
X1115Y683D01*
X1113Y683D01*
X1113Y670D01*
X1110Y670D01*
X1110Y657D01*
X1108Y657D01*
X1108Y647D01*
X1113Y647D01*
X1113Y650D01*
X1115Y650D01*
X1115Y663D01*
X1118Y663D01*
X1118Y678D01*
X1121Y678D01*
X1121Y691D01*
X1123Y691D01*
X1123Y694D01*
X1115Y694D01*
G37*
D02*
G36*
X1139Y694D02*
X1139Y688D01*
X1136Y688D01*
X1136Y683D01*
X1134Y683D01*
X1134Y678D01*
X1136Y678D01*
X1136Y681D01*
X1139Y681D01*
X1139Y686D01*
X1141Y686D01*
X1141Y691D01*
X1144Y691D01*
X1144Y694D01*
X1139Y694D01*
G37*
D02*
G36*
X1126Y678D02*
X1126Y675D01*
X1136Y675D01*
X1136Y678D01*
X1126Y678D01*
G37*
D02*
G36*
X1126Y678D02*
X1126Y675D01*
X1136Y675D01*
X1136Y678D01*
X1126Y678D01*
G37*
D02*
G36*
X1126Y675D02*
X1126Y668D01*
X1134Y668D01*
X1134Y673D01*
X1136Y673D01*
X1136Y675D01*
X1126Y675D01*
G37*
D02*
G36*
X710Y701D02*
X710Y699D01*
X707Y699D01*
X707Y688D01*
X694Y688D01*
X694Y681D01*
X705Y681D01*
X705Y673D01*
X702Y673D01*
X702Y657D01*
X700Y657D01*
X700Y655D01*
X702Y655D01*
X702Y650D01*
X713Y650D01*
X713Y647D01*
X720Y647D01*
X720Y650D01*
X723Y650D01*
X723Y655D01*
X710Y655D01*
X710Y670D01*
X713Y670D01*
X713Y681D01*
X728Y681D01*
X728Y688D01*
X715Y688D01*
X715Y696D01*
X718Y696D01*
X718Y701D01*
X710Y701D01*
G37*
D02*
G36*
X897Y701D02*
X897Y699D01*
X895Y699D01*
X895Y688D01*
X882Y688D01*
X882Y681D01*
X892Y681D01*
X892Y673D01*
X889Y673D01*
X889Y657D01*
X887Y657D01*
X887Y655D01*
X889Y655D01*
X889Y650D01*
X900Y650D01*
X900Y647D01*
X908Y647D01*
X908Y650D01*
X910Y650D01*
X910Y655D01*
X897Y655D01*
X897Y670D01*
X900Y670D01*
X900Y681D01*
X915Y681D01*
X915Y688D01*
X902Y688D01*
X902Y696D01*
X905Y696D01*
X905Y701D01*
X897Y701D01*
G37*
D02*
G36*
X1277Y696D02*
X1277Y694D01*
X1284Y694D01*
X1284Y691D01*
X1292Y691D01*
X1292Y688D01*
X1295Y688D01*
X1295Y686D01*
X1297Y686D01*
X1297Y683D01*
X1300Y683D01*
X1300Y681D01*
X1303Y681D01*
X1303Y678D01*
X1305Y678D01*
X1305Y670D01*
X1308Y670D01*
X1308Y657D01*
X1305Y657D01*
X1305Y650D01*
X1303Y650D01*
X1303Y647D01*
X1300Y647D01*
X1300Y642D01*
X1295Y642D01*
X1295Y639D01*
X1292Y639D01*
X1292Y637D01*
X1287Y637D01*
X1287Y634D01*
X1277Y634D01*
X1277Y631D01*
X1295Y631D01*
X1295Y634D01*
X1303Y634D01*
X1303Y637D01*
X1308Y637D01*
X1308Y639D01*
X1310Y639D01*
X1310Y642D01*
X1313Y642D01*
X1313Y644D01*
X1316Y644D01*
X1316Y647D01*
X1318Y647D01*
X1318Y652D01*
X1321Y652D01*
X1321Y675D01*
X1318Y675D01*
X1318Y681D01*
X1316Y681D01*
X1316Y683D01*
X1313Y683D01*
X1313Y686D01*
X1310Y686D01*
X1310Y688D01*
X1308Y688D01*
X1308Y691D01*
X1303Y691D01*
X1303Y694D01*
X1297Y694D01*
X1297Y696D01*
X1277Y696D01*
G37*
D02*
G36*
X793Y688D02*
X793Y686D01*
X791Y686D01*
X791Y673D01*
X788Y673D01*
X788Y660D01*
X785Y660D01*
X785Y647D01*
X793Y647D01*
X793Y660D01*
X796Y660D01*
X796Y673D01*
X798Y673D01*
X798Y678D01*
X801Y678D01*
X801Y681D01*
X798Y681D01*
X798Y686D01*
X801Y686D01*
X801Y688D01*
X793Y688D01*
G37*
D02*
G36*
X934Y688D02*
X934Y681D01*
X944Y681D01*
X944Y678D01*
X941Y678D01*
X941Y665D01*
X939Y665D01*
X939Y655D01*
X923Y655D01*
X923Y647D01*
X960Y647D01*
X960Y655D01*
X947Y655D01*
X947Y663D01*
X949Y663D01*
X949Y675D01*
X952Y675D01*
X952Y688D01*
X934Y688D01*
G37*
D02*
G36*
X1027Y688D02*
X1027Y686D01*
X1025Y686D01*
X1025Y673D01*
X1022Y673D01*
X1022Y660D01*
X1019Y660D01*
X1019Y647D01*
X1027Y647D01*
X1027Y660D01*
X1030Y660D01*
X1030Y673D01*
X1032Y673D01*
X1032Y678D01*
X1035Y678D01*
X1035Y681D01*
X1032Y681D01*
X1032Y686D01*
X1035Y686D01*
X1035Y688D01*
X1027Y688D01*
G37*
D02*
G36*
X656Y686D02*
X656Y683D01*
X653Y683D01*
X653Y681D01*
X674Y681D01*
X674Y670D01*
X682Y670D01*
X682Y681D01*
X679Y681D01*
X679Y683D01*
X676Y683D01*
X676Y686D01*
X656Y686D01*
G37*
D02*
G36*
X650Y681D02*
X650Y678D01*
X648Y678D01*
X648Y673D01*
X645Y673D01*
X645Y670D01*
X656Y670D01*
X656Y678D01*
X658Y678D01*
X658Y681D01*
X650Y681D01*
G37*
D02*
G36*
X645Y670D02*
X645Y668D01*
X682Y668D01*
X682Y670D01*
X645Y670D01*
G37*
D02*
G36*
X645Y670D02*
X645Y668D01*
X682Y668D01*
X682Y670D01*
X645Y670D01*
G37*
D02*
G36*
X645Y668D02*
X645Y655D01*
X648Y655D01*
X648Y652D01*
X650Y652D01*
X650Y650D01*
X676Y650D01*
X676Y655D01*
X653Y655D01*
X653Y663D01*
X682Y663D01*
X682Y668D01*
X645Y668D01*
G37*
D02*
G36*
X749Y686D02*
X749Y683D01*
X746Y683D01*
X746Y681D01*
X765Y681D01*
X765Y678D01*
X767Y678D01*
X767Y663D01*
X765Y663D01*
X765Y657D01*
X762Y657D01*
X762Y655D01*
X770Y655D01*
X770Y657D01*
X772Y657D01*
X772Y663D01*
X775Y663D01*
X775Y681D01*
X772Y681D01*
X772Y683D01*
X770Y683D01*
X770Y686D01*
X749Y686D01*
G37*
D02*
G36*
X744Y681D02*
X744Y678D01*
X741Y678D01*
X741Y673D01*
X739Y673D01*
X739Y655D01*
X749Y655D01*
X749Y657D01*
X746Y657D01*
X746Y670D01*
X749Y670D01*
X749Y678D01*
X752Y678D01*
X752Y681D01*
X744Y681D01*
G37*
D02*
G36*
X741Y655D02*
X741Y652D01*
X767Y652D01*
X767Y655D01*
X741Y655D01*
G37*
D02*
G36*
X741Y655D02*
X741Y652D01*
X767Y652D01*
X767Y655D01*
X741Y655D01*
G37*
D02*
G36*
X744Y652D02*
X744Y650D01*
X765Y650D01*
X765Y652D01*
X744Y652D01*
G37*
D02*
G36*
X806Y686D02*
X806Y683D01*
X804Y683D01*
X804Y681D01*
X811Y681D01*
X811Y663D01*
X809Y663D01*
X809Y650D01*
X806Y650D01*
X806Y647D01*
X817Y647D01*
X817Y660D01*
X819Y660D01*
X819Y673D01*
X822Y673D01*
X822Y683D01*
X819Y683D01*
X819Y686D01*
X806Y686D01*
G37*
D02*
G36*
X840Y686D02*
X840Y681D01*
X861Y681D01*
X861Y675D01*
X853Y675D01*
X853Y673D01*
X837Y673D01*
X837Y670D01*
X835Y670D01*
X835Y668D01*
X858Y668D01*
X858Y660D01*
X856Y660D01*
X856Y657D01*
X853Y657D01*
X853Y655D01*
X856Y655D01*
X856Y647D01*
X863Y647D01*
X863Y655D01*
X866Y655D01*
X866Y668D01*
X869Y668D01*
X869Y683D01*
X866Y683D01*
X866Y686D01*
X840Y686D01*
G37*
D02*
G36*
X832Y668D02*
X832Y663D01*
X830Y663D01*
X830Y655D01*
X840Y655D01*
X840Y665D01*
X843Y665D01*
X843Y668D01*
X832Y668D01*
G37*
D02*
G36*
X832Y655D02*
X832Y652D01*
X835Y652D01*
X835Y650D01*
X850Y650D01*
X850Y652D01*
X853Y652D01*
X853Y655D01*
X832Y655D01*
G37*
D02*
G36*
X983Y686D02*
X983Y683D01*
X980Y683D01*
X980Y681D01*
X999Y681D01*
X999Y678D01*
X1001Y678D01*
X1001Y663D01*
X999Y663D01*
X999Y657D01*
X996Y657D01*
X996Y655D01*
X1004Y655D01*
X1004Y657D01*
X1006Y657D01*
X1006Y663D01*
X1009Y663D01*
X1009Y681D01*
X1006Y681D01*
X1006Y683D01*
X1004Y683D01*
X1004Y686D01*
X983Y686D01*
G37*
D02*
G36*
X978Y681D02*
X978Y678D01*
X975Y678D01*
X975Y673D01*
X973Y673D01*
X973Y655D01*
X983Y655D01*
X983Y657D01*
X980Y657D01*
X980Y670D01*
X983Y670D01*
X983Y678D01*
X986Y678D01*
X986Y681D01*
X978Y681D01*
G37*
D02*
G36*
X975Y655D02*
X975Y652D01*
X1001Y652D01*
X1001Y655D01*
X975Y655D01*
G37*
D02*
G36*
X975Y655D02*
X975Y652D01*
X1001Y652D01*
X1001Y655D01*
X975Y655D01*
G37*
D02*
G36*
X978Y652D02*
X978Y650D01*
X999Y650D01*
X999Y652D01*
X978Y652D01*
G37*
D02*
G36*
X1040Y686D02*
X1040Y683D01*
X1038Y683D01*
X1038Y681D01*
X1045Y681D01*
X1045Y663D01*
X1043Y663D01*
X1043Y650D01*
X1040Y650D01*
X1040Y647D01*
X1051Y647D01*
X1051Y660D01*
X1053Y660D01*
X1053Y673D01*
X1056Y673D01*
X1056Y683D01*
X1053Y683D01*
X1053Y686D01*
X1040Y686D01*
G37*
D02*
G36*
X1264Y686D02*
X1264Y683D01*
X1277Y683D01*
X1277Y681D01*
X1279Y681D01*
X1279Y678D01*
X1282Y678D01*
X1282Y675D01*
X1284Y675D01*
X1284Y673D01*
X1287Y673D01*
X1287Y665D01*
X1290Y665D01*
X1290Y663D01*
X1287Y663D01*
X1287Y657D01*
X1282Y657D01*
X1282Y655D01*
X1284Y655D01*
X1284Y650D01*
X1282Y650D01*
X1282Y647D01*
X1277Y647D01*
X1277Y644D01*
X1264Y644D01*
X1264Y642D01*
X1274Y642D01*
X1274Y639D01*
X1277Y639D01*
X1277Y642D01*
X1287Y642D01*
X1287Y644D01*
X1292Y644D01*
X1292Y647D01*
X1295Y647D01*
X1295Y650D01*
X1297Y650D01*
X1297Y655D01*
X1300Y655D01*
X1300Y673D01*
X1297Y673D01*
X1297Y678D01*
X1295Y678D01*
X1295Y681D01*
X1292Y681D01*
X1292Y683D01*
X1287Y683D01*
X1287Y686D01*
X1264Y686D01*
G37*
D02*
G36*
X1240Y678D02*
X1240Y675D01*
X1243Y675D01*
X1243Y678D01*
X1240Y678D01*
G37*
D02*
G36*
X1173Y701D02*
X1173Y699D01*
X1167Y699D01*
X1167Y696D01*
X1193Y696D01*
X1193Y694D01*
X1196Y694D01*
X1196Y701D01*
X1173Y701D01*
G37*
D02*
G36*
X1167Y696D02*
X1167Y694D01*
X1165Y694D01*
X1165Y688D01*
X1162Y688D01*
X1162Y683D01*
X1165Y683D01*
X1165Y681D01*
X1167Y681D01*
X1167Y678D01*
X1170Y678D01*
X1170Y675D01*
X1178Y675D01*
X1178Y673D01*
X1183Y673D01*
X1183Y668D01*
X1186Y668D01*
X1186Y660D01*
X1183Y660D01*
X1183Y657D01*
X1180Y657D01*
X1180Y655D01*
X1191Y655D01*
X1191Y660D01*
X1193Y660D01*
X1193Y670D01*
X1191Y670D01*
X1191Y675D01*
X1186Y675D01*
X1186Y678D01*
X1180Y678D01*
X1180Y681D01*
X1175Y681D01*
X1175Y683D01*
X1173Y683D01*
X1173Y686D01*
X1170Y686D01*
X1170Y691D01*
X1173Y691D01*
X1173Y694D01*
X1175Y694D01*
X1175Y696D01*
X1167Y696D01*
G37*
D02*
G36*
X1157Y660D02*
X1157Y655D01*
X1165Y655D01*
X1165Y657D01*
X1160Y657D01*
X1160Y660D01*
X1157Y660D01*
G37*
D02*
G36*
X1157Y655D02*
X1157Y652D01*
X1188Y652D01*
X1188Y655D01*
X1157Y655D01*
G37*
D02*
G36*
X1157Y655D02*
X1157Y652D01*
X1188Y652D01*
X1188Y655D01*
X1157Y655D01*
G37*
D02*
G36*
X1160Y652D02*
X1160Y650D01*
X1183Y650D01*
X1183Y652D01*
X1160Y652D01*
G37*
D02*
G54D11*
X0Y787D02*
X1967Y787D01*
X0Y786D02*
X1967Y786D01*
X0Y785D02*
X1967Y785D01*
X0Y784D02*
X1967Y784D01*
X0Y783D02*
X1967Y783D01*
X0Y782D02*
X1967Y782D01*
X0Y781D02*
X1967Y781D01*
X0Y780D02*
X1967Y780D01*
X0Y779D02*
X7Y779D01*
X290Y779D02*
X297Y779D01*
X329Y779D02*
X336Y779D01*
X390Y779D02*
X397Y779D01*
X429Y779D02*
X436Y779D01*
X490Y779D02*
X497Y779D01*
X529Y779D02*
X536Y779D01*
X1431Y779D02*
X1438Y779D01*
X1471Y779D02*
X1478Y779D01*
X1531Y779D02*
X1538Y779D01*
X1571Y779D02*
X1578Y779D01*
X1631Y779D02*
X1638Y779D01*
X1671Y779D02*
X1678Y779D01*
X1960Y779D02*
X1967Y779D01*
X0Y778D02*
X7Y778D01*
X290Y778D02*
X297Y778D01*
X329Y778D02*
X336Y778D01*
X390Y778D02*
X397Y778D01*
X429Y778D02*
X436Y778D01*
X490Y778D02*
X497Y778D01*
X529Y778D02*
X536Y778D01*
X1431Y778D02*
X1438Y778D01*
X1471Y778D02*
X1478Y778D01*
X1531Y778D02*
X1538Y778D01*
X1571Y778D02*
X1578Y778D01*
X1631Y778D02*
X1638Y778D01*
X1671Y778D02*
X1678Y778D01*
X1960Y778D02*
X1967Y778D01*
X0Y777D02*
X7Y777D01*
X290Y777D02*
X297Y777D01*
X329Y777D02*
X336Y777D01*
X390Y777D02*
X397Y777D01*
X429Y777D02*
X436Y777D01*
X490Y777D02*
X497Y777D01*
X529Y777D02*
X536Y777D01*
X1431Y777D02*
X1438Y777D01*
X1471Y777D02*
X1478Y777D01*
X1531Y777D02*
X1538Y777D01*
X1571Y777D02*
X1578Y777D01*
X1631Y777D02*
X1638Y777D01*
X1671Y777D02*
X1678Y777D01*
X1960Y777D02*
X1967Y777D01*
X0Y776D02*
X7Y776D01*
X290Y776D02*
X297Y776D01*
X329Y776D02*
X336Y776D01*
X390Y776D02*
X397Y776D01*
X429Y776D02*
X436Y776D01*
X490Y776D02*
X497Y776D01*
X529Y776D02*
X536Y776D01*
X1431Y776D02*
X1438Y776D01*
X1471Y776D02*
X1478Y776D01*
X1531Y776D02*
X1538Y776D01*
X1571Y776D02*
X1578Y776D01*
X1631Y776D02*
X1638Y776D01*
X1671Y776D02*
X1678Y776D01*
X1960Y776D02*
X1967Y776D01*
X0Y775D02*
X7Y775D01*
X290Y775D02*
X297Y775D01*
X329Y775D02*
X336Y775D01*
X390Y775D02*
X397Y775D01*
X429Y775D02*
X436Y775D01*
X490Y775D02*
X497Y775D01*
X529Y775D02*
X536Y775D01*
X1431Y775D02*
X1438Y775D01*
X1471Y775D02*
X1478Y775D01*
X1531Y775D02*
X1538Y775D01*
X1571Y775D02*
X1578Y775D01*
X1631Y775D02*
X1638Y775D01*
X1671Y775D02*
X1678Y775D01*
X1960Y775D02*
X1967Y775D01*
X0Y774D02*
X7Y774D01*
X290Y774D02*
X297Y774D01*
X329Y774D02*
X336Y774D01*
X390Y774D02*
X397Y774D01*
X429Y774D02*
X436Y774D01*
X490Y774D02*
X497Y774D01*
X529Y774D02*
X536Y774D01*
X1431Y774D02*
X1438Y774D01*
X1471Y774D02*
X1478Y774D01*
X1531Y774D02*
X1538Y774D01*
X1571Y774D02*
X1578Y774D01*
X1631Y774D02*
X1638Y774D01*
X1671Y774D02*
X1678Y774D01*
X1960Y774D02*
X1967Y774D01*
X0Y773D02*
X7Y773D01*
X290Y773D02*
X297Y773D01*
X329Y773D02*
X336Y773D01*
X390Y773D02*
X397Y773D01*
X429Y773D02*
X436Y773D01*
X490Y773D02*
X497Y773D01*
X529Y773D02*
X536Y773D01*
X1431Y773D02*
X1438Y773D01*
X1471Y773D02*
X1478Y773D01*
X1531Y773D02*
X1538Y773D01*
X1571Y773D02*
X1578Y773D01*
X1631Y773D02*
X1638Y773D01*
X1671Y773D02*
X1678Y773D01*
X1960Y773D02*
X1967Y773D01*
X0Y772D02*
X7Y772D01*
X290Y772D02*
X297Y772D01*
X329Y772D02*
X336Y772D01*
X390Y772D02*
X397Y772D01*
X429Y772D02*
X436Y772D01*
X490Y772D02*
X497Y772D01*
X529Y772D02*
X536Y772D01*
X1431Y772D02*
X1438Y772D01*
X1471Y772D02*
X1478Y772D01*
X1531Y772D02*
X1538Y772D01*
X1571Y772D02*
X1578Y772D01*
X1631Y772D02*
X1638Y772D01*
X1671Y772D02*
X1678Y772D01*
X1960Y772D02*
X1967Y772D01*
X0Y771D02*
X7Y771D01*
X290Y771D02*
X297Y771D01*
X329Y771D02*
X336Y771D01*
X390Y771D02*
X397Y771D01*
X429Y771D02*
X436Y771D01*
X490Y771D02*
X497Y771D01*
X529Y771D02*
X536Y771D01*
X1431Y771D02*
X1438Y771D01*
X1471Y771D02*
X1478Y771D01*
X1531Y771D02*
X1538Y771D01*
X1571Y771D02*
X1578Y771D01*
X1631Y771D02*
X1638Y771D01*
X1671Y771D02*
X1678Y771D01*
X1960Y771D02*
X1967Y771D01*
X0Y770D02*
X7Y770D01*
X290Y770D02*
X297Y770D01*
X329Y770D02*
X336Y770D01*
X390Y770D02*
X397Y770D01*
X429Y770D02*
X436Y770D01*
X490Y770D02*
X497Y770D01*
X529Y770D02*
X536Y770D01*
X1431Y770D02*
X1438Y770D01*
X1471Y770D02*
X1478Y770D01*
X1531Y770D02*
X1538Y770D01*
X1571Y770D02*
X1578Y770D01*
X1631Y770D02*
X1638Y770D01*
X1671Y770D02*
X1678Y770D01*
X1960Y770D02*
X1967Y770D01*
X0Y769D02*
X7Y769D01*
X290Y769D02*
X297Y769D01*
X329Y769D02*
X336Y769D01*
X390Y769D02*
X397Y769D01*
X429Y769D02*
X436Y769D01*
X490Y769D02*
X497Y769D01*
X529Y769D02*
X536Y769D01*
X1431Y769D02*
X1438Y769D01*
X1471Y769D02*
X1478Y769D01*
X1531Y769D02*
X1538Y769D01*
X1571Y769D02*
X1578Y769D01*
X1631Y769D02*
X1638Y769D01*
X1671Y769D02*
X1678Y769D01*
X1960Y769D02*
X1967Y769D01*
X0Y768D02*
X7Y768D01*
X290Y768D02*
X297Y768D01*
X329Y768D02*
X336Y768D01*
X390Y768D02*
X397Y768D01*
X429Y768D02*
X436Y768D01*
X490Y768D02*
X497Y768D01*
X529Y768D02*
X536Y768D01*
X1431Y768D02*
X1438Y768D01*
X1471Y768D02*
X1478Y768D01*
X1531Y768D02*
X1538Y768D01*
X1571Y768D02*
X1578Y768D01*
X1631Y768D02*
X1638Y768D01*
X1671Y768D02*
X1678Y768D01*
X1960Y768D02*
X1967Y768D01*
X0Y767D02*
X7Y767D01*
X290Y767D02*
X297Y767D01*
X329Y767D02*
X336Y767D01*
X390Y767D02*
X397Y767D01*
X429Y767D02*
X436Y767D01*
X490Y767D02*
X497Y767D01*
X529Y767D02*
X536Y767D01*
X1431Y767D02*
X1438Y767D01*
X1471Y767D02*
X1478Y767D01*
X1531Y767D02*
X1538Y767D01*
X1571Y767D02*
X1578Y767D01*
X1631Y767D02*
X1638Y767D01*
X1671Y767D02*
X1678Y767D01*
X1960Y767D02*
X1967Y767D01*
X0Y766D02*
X7Y766D01*
X290Y766D02*
X297Y766D01*
X329Y766D02*
X336Y766D01*
X390Y766D02*
X397Y766D01*
X429Y766D02*
X436Y766D01*
X490Y766D02*
X497Y766D01*
X529Y766D02*
X536Y766D01*
X1431Y766D02*
X1438Y766D01*
X1471Y766D02*
X1478Y766D01*
X1531Y766D02*
X1538Y766D01*
X1571Y766D02*
X1578Y766D01*
X1631Y766D02*
X1638Y766D01*
X1671Y766D02*
X1678Y766D01*
X1960Y766D02*
X1967Y766D01*
X0Y765D02*
X7Y765D01*
X290Y765D02*
X297Y765D01*
X329Y765D02*
X336Y765D01*
X390Y765D02*
X397Y765D01*
X429Y765D02*
X436Y765D01*
X490Y765D02*
X497Y765D01*
X529Y765D02*
X536Y765D01*
X1431Y765D02*
X1438Y765D01*
X1471Y765D02*
X1478Y765D01*
X1531Y765D02*
X1538Y765D01*
X1571Y765D02*
X1578Y765D01*
X1631Y765D02*
X1638Y765D01*
X1671Y765D02*
X1678Y765D01*
X1960Y765D02*
X1967Y765D01*
X0Y764D02*
X7Y764D01*
X290Y764D02*
X297Y764D01*
X329Y764D02*
X336Y764D01*
X390Y764D02*
X397Y764D01*
X429Y764D02*
X436Y764D01*
X490Y764D02*
X497Y764D01*
X529Y764D02*
X536Y764D01*
X1431Y764D02*
X1438Y764D01*
X1471Y764D02*
X1478Y764D01*
X1531Y764D02*
X1538Y764D01*
X1571Y764D02*
X1578Y764D01*
X1631Y764D02*
X1638Y764D01*
X1671Y764D02*
X1678Y764D01*
X1960Y764D02*
X1967Y764D01*
X0Y763D02*
X7Y763D01*
X290Y763D02*
X297Y763D01*
X329Y763D02*
X336Y763D01*
X390Y763D02*
X397Y763D01*
X429Y763D02*
X436Y763D01*
X490Y763D02*
X497Y763D01*
X529Y763D02*
X536Y763D01*
X1431Y763D02*
X1438Y763D01*
X1471Y763D02*
X1478Y763D01*
X1531Y763D02*
X1538Y763D01*
X1571Y763D02*
X1578Y763D01*
X1631Y763D02*
X1638Y763D01*
X1671Y763D02*
X1678Y763D01*
X1960Y763D02*
X1967Y763D01*
X0Y762D02*
X7Y762D01*
X290Y762D02*
X297Y762D01*
X329Y762D02*
X336Y762D01*
X390Y762D02*
X397Y762D01*
X429Y762D02*
X436Y762D01*
X490Y762D02*
X497Y762D01*
X529Y762D02*
X536Y762D01*
X1431Y762D02*
X1438Y762D01*
X1471Y762D02*
X1478Y762D01*
X1531Y762D02*
X1538Y762D01*
X1571Y762D02*
X1578Y762D01*
X1631Y762D02*
X1638Y762D01*
X1671Y762D02*
X1678Y762D01*
X1960Y762D02*
X1967Y762D01*
X0Y761D02*
X7Y761D01*
X290Y761D02*
X297Y761D01*
X329Y761D02*
X336Y761D01*
X390Y761D02*
X397Y761D01*
X429Y761D02*
X436Y761D01*
X490Y761D02*
X497Y761D01*
X529Y761D02*
X536Y761D01*
X1431Y761D02*
X1438Y761D01*
X1471Y761D02*
X1478Y761D01*
X1531Y761D02*
X1538Y761D01*
X1571Y761D02*
X1578Y761D01*
X1631Y761D02*
X1638Y761D01*
X1671Y761D02*
X1678Y761D01*
X1960Y761D02*
X1967Y761D01*
X0Y760D02*
X7Y760D01*
X290Y760D02*
X297Y760D01*
X329Y760D02*
X336Y760D01*
X390Y760D02*
X397Y760D01*
X429Y760D02*
X436Y760D01*
X490Y760D02*
X497Y760D01*
X529Y760D02*
X536Y760D01*
X1431Y760D02*
X1438Y760D01*
X1471Y760D02*
X1478Y760D01*
X1531Y760D02*
X1538Y760D01*
X1571Y760D02*
X1578Y760D01*
X1631Y760D02*
X1638Y760D01*
X1671Y760D02*
X1678Y760D01*
X1960Y760D02*
X1967Y760D01*
X0Y759D02*
X7Y759D01*
X290Y759D02*
X297Y759D01*
X329Y759D02*
X336Y759D01*
X390Y759D02*
X397Y759D01*
X429Y759D02*
X436Y759D01*
X490Y759D02*
X497Y759D01*
X529Y759D02*
X536Y759D01*
X1431Y759D02*
X1438Y759D01*
X1471Y759D02*
X1478Y759D01*
X1531Y759D02*
X1538Y759D01*
X1571Y759D02*
X1578Y759D01*
X1631Y759D02*
X1638Y759D01*
X1671Y759D02*
X1678Y759D01*
X1960Y759D02*
X1967Y759D01*
X0Y758D02*
X7Y758D01*
X290Y758D02*
X297Y758D01*
X329Y758D02*
X336Y758D01*
X390Y758D02*
X397Y758D01*
X429Y758D02*
X436Y758D01*
X490Y758D02*
X497Y758D01*
X529Y758D02*
X536Y758D01*
X1431Y758D02*
X1438Y758D01*
X1471Y758D02*
X1478Y758D01*
X1531Y758D02*
X1538Y758D01*
X1571Y758D02*
X1578Y758D01*
X1631Y758D02*
X1638Y758D01*
X1671Y758D02*
X1678Y758D01*
X1960Y758D02*
X1967Y758D01*
X0Y757D02*
X7Y757D01*
X290Y757D02*
X297Y757D01*
X329Y757D02*
X336Y757D01*
X390Y757D02*
X397Y757D01*
X429Y757D02*
X436Y757D01*
X490Y757D02*
X497Y757D01*
X529Y757D02*
X536Y757D01*
X1431Y757D02*
X1438Y757D01*
X1471Y757D02*
X1478Y757D01*
X1531Y757D02*
X1538Y757D01*
X1571Y757D02*
X1578Y757D01*
X1631Y757D02*
X1638Y757D01*
X1671Y757D02*
X1678Y757D01*
X1960Y757D02*
X1967Y757D01*
X0Y756D02*
X7Y756D01*
X290Y756D02*
X297Y756D01*
X329Y756D02*
X336Y756D01*
X390Y756D02*
X397Y756D01*
X429Y756D02*
X436Y756D01*
X490Y756D02*
X497Y756D01*
X529Y756D02*
X536Y756D01*
X1431Y756D02*
X1438Y756D01*
X1471Y756D02*
X1478Y756D01*
X1531Y756D02*
X1538Y756D01*
X1571Y756D02*
X1578Y756D01*
X1631Y756D02*
X1638Y756D01*
X1671Y756D02*
X1678Y756D01*
X1960Y756D02*
X1967Y756D01*
X0Y755D02*
X7Y755D01*
X290Y755D02*
X297Y755D01*
X329Y755D02*
X336Y755D01*
X390Y755D02*
X397Y755D01*
X429Y755D02*
X436Y755D01*
X490Y755D02*
X497Y755D01*
X529Y755D02*
X536Y755D01*
X1431Y755D02*
X1438Y755D01*
X1471Y755D02*
X1478Y755D01*
X1531Y755D02*
X1538Y755D01*
X1571Y755D02*
X1578Y755D01*
X1631Y755D02*
X1638Y755D01*
X1671Y755D02*
X1678Y755D01*
X1960Y755D02*
X1967Y755D01*
X0Y754D02*
X7Y754D01*
X290Y754D02*
X297Y754D01*
X329Y754D02*
X336Y754D01*
X390Y754D02*
X397Y754D01*
X429Y754D02*
X436Y754D01*
X490Y754D02*
X497Y754D01*
X529Y754D02*
X536Y754D01*
X1431Y754D02*
X1438Y754D01*
X1471Y754D02*
X1478Y754D01*
X1531Y754D02*
X1538Y754D01*
X1571Y754D02*
X1578Y754D01*
X1631Y754D02*
X1638Y754D01*
X1671Y754D02*
X1678Y754D01*
X1960Y754D02*
X1967Y754D01*
X0Y753D02*
X7Y753D01*
X290Y753D02*
X297Y753D01*
X329Y753D02*
X336Y753D01*
X390Y753D02*
X397Y753D01*
X429Y753D02*
X436Y753D01*
X490Y753D02*
X497Y753D01*
X529Y753D02*
X536Y753D01*
X1431Y753D02*
X1438Y753D01*
X1471Y753D02*
X1478Y753D01*
X1531Y753D02*
X1538Y753D01*
X1571Y753D02*
X1578Y753D01*
X1631Y753D02*
X1638Y753D01*
X1671Y753D02*
X1678Y753D01*
X1960Y753D02*
X1967Y753D01*
X0Y752D02*
X7Y752D01*
X290Y752D02*
X297Y752D01*
X329Y752D02*
X336Y752D01*
X390Y752D02*
X397Y752D01*
X429Y752D02*
X436Y752D01*
X490Y752D02*
X497Y752D01*
X529Y752D02*
X536Y752D01*
X1431Y752D02*
X1438Y752D01*
X1471Y752D02*
X1478Y752D01*
X1531Y752D02*
X1538Y752D01*
X1571Y752D02*
X1578Y752D01*
X1631Y752D02*
X1638Y752D01*
X1671Y752D02*
X1678Y752D01*
X1960Y752D02*
X1967Y752D01*
X0Y751D02*
X7Y751D01*
X290Y751D02*
X297Y751D01*
X329Y751D02*
X336Y751D01*
X390Y751D02*
X397Y751D01*
X429Y751D02*
X436Y751D01*
X490Y751D02*
X497Y751D01*
X529Y751D02*
X536Y751D01*
X1431Y751D02*
X1438Y751D01*
X1471Y751D02*
X1478Y751D01*
X1531Y751D02*
X1538Y751D01*
X1571Y751D02*
X1578Y751D01*
X1631Y751D02*
X1638Y751D01*
X1671Y751D02*
X1678Y751D01*
X1960Y751D02*
X1967Y751D01*
X0Y750D02*
X7Y750D01*
X290Y750D02*
X297Y750D01*
X329Y750D02*
X336Y750D01*
X390Y750D02*
X397Y750D01*
X429Y750D02*
X436Y750D01*
X490Y750D02*
X497Y750D01*
X529Y750D02*
X536Y750D01*
X1431Y750D02*
X1438Y750D01*
X1471Y750D02*
X1478Y750D01*
X1531Y750D02*
X1538Y750D01*
X1571Y750D02*
X1578Y750D01*
X1631Y750D02*
X1638Y750D01*
X1671Y750D02*
X1678Y750D01*
X1960Y750D02*
X1967Y750D01*
X0Y749D02*
X7Y749D01*
X290Y749D02*
X297Y749D01*
X329Y749D02*
X336Y749D01*
X390Y749D02*
X397Y749D01*
X429Y749D02*
X436Y749D01*
X490Y749D02*
X497Y749D01*
X529Y749D02*
X536Y749D01*
X1431Y749D02*
X1438Y749D01*
X1471Y749D02*
X1478Y749D01*
X1531Y749D02*
X1538Y749D01*
X1571Y749D02*
X1578Y749D01*
X1631Y749D02*
X1638Y749D01*
X1671Y749D02*
X1678Y749D01*
X1960Y749D02*
X1967Y749D01*
X0Y748D02*
X7Y748D01*
X290Y748D02*
X297Y748D01*
X329Y748D02*
X336Y748D01*
X390Y748D02*
X397Y748D01*
X429Y748D02*
X436Y748D01*
X490Y748D02*
X497Y748D01*
X529Y748D02*
X536Y748D01*
X1431Y748D02*
X1438Y748D01*
X1471Y748D02*
X1478Y748D01*
X1531Y748D02*
X1538Y748D01*
X1571Y748D02*
X1578Y748D01*
X1631Y748D02*
X1638Y748D01*
X1671Y748D02*
X1678Y748D01*
X1960Y748D02*
X1967Y748D01*
X0Y747D02*
X7Y747D01*
X290Y747D02*
X297Y747D01*
X329Y747D02*
X336Y747D01*
X390Y747D02*
X397Y747D01*
X429Y747D02*
X436Y747D01*
X490Y747D02*
X497Y747D01*
X529Y747D02*
X536Y747D01*
X1431Y747D02*
X1438Y747D01*
X1471Y747D02*
X1478Y747D01*
X1531Y747D02*
X1538Y747D01*
X1571Y747D02*
X1578Y747D01*
X1631Y747D02*
X1638Y747D01*
X1671Y747D02*
X1678Y747D01*
X1960Y747D02*
X1967Y747D01*
X0Y746D02*
X7Y746D01*
X290Y746D02*
X297Y746D01*
X329Y746D02*
X336Y746D01*
X390Y746D02*
X397Y746D01*
X429Y746D02*
X436Y746D01*
X490Y746D02*
X497Y746D01*
X529Y746D02*
X536Y746D01*
X1431Y746D02*
X1438Y746D01*
X1471Y746D02*
X1478Y746D01*
X1531Y746D02*
X1538Y746D01*
X1571Y746D02*
X1578Y746D01*
X1631Y746D02*
X1638Y746D01*
X1671Y746D02*
X1678Y746D01*
X1960Y746D02*
X1967Y746D01*
X0Y745D02*
X7Y745D01*
X290Y745D02*
X297Y745D01*
X329Y745D02*
X336Y745D01*
X390Y745D02*
X397Y745D01*
X429Y745D02*
X436Y745D01*
X490Y745D02*
X497Y745D01*
X529Y745D02*
X536Y745D01*
X1431Y745D02*
X1438Y745D01*
X1471Y745D02*
X1478Y745D01*
X1531Y745D02*
X1538Y745D01*
X1571Y745D02*
X1578Y745D01*
X1631Y745D02*
X1638Y745D01*
X1671Y745D02*
X1678Y745D01*
X1960Y745D02*
X1967Y745D01*
X0Y744D02*
X7Y744D01*
X290Y744D02*
X297Y744D01*
X329Y744D02*
X336Y744D01*
X390Y744D02*
X397Y744D01*
X429Y744D02*
X436Y744D01*
X490Y744D02*
X497Y744D01*
X529Y744D02*
X536Y744D01*
X1431Y744D02*
X1438Y744D01*
X1471Y744D02*
X1478Y744D01*
X1531Y744D02*
X1538Y744D01*
X1571Y744D02*
X1578Y744D01*
X1631Y744D02*
X1638Y744D01*
X1671Y744D02*
X1678Y744D01*
X1960Y744D02*
X1967Y744D01*
X0Y743D02*
X7Y743D01*
X290Y743D02*
X297Y743D01*
X329Y743D02*
X336Y743D01*
X390Y743D02*
X397Y743D01*
X429Y743D02*
X436Y743D01*
X490Y743D02*
X497Y743D01*
X529Y743D02*
X536Y743D01*
X1431Y743D02*
X1438Y743D01*
X1471Y743D02*
X1478Y743D01*
X1531Y743D02*
X1538Y743D01*
X1571Y743D02*
X1578Y743D01*
X1631Y743D02*
X1638Y743D01*
X1671Y743D02*
X1678Y743D01*
X1960Y743D02*
X1967Y743D01*
X0Y742D02*
X7Y742D01*
X290Y742D02*
X297Y742D01*
X329Y742D02*
X336Y742D01*
X390Y742D02*
X397Y742D01*
X429Y742D02*
X436Y742D01*
X490Y742D02*
X497Y742D01*
X529Y742D02*
X536Y742D01*
X1431Y742D02*
X1438Y742D01*
X1471Y742D02*
X1478Y742D01*
X1531Y742D02*
X1538Y742D01*
X1571Y742D02*
X1578Y742D01*
X1631Y742D02*
X1638Y742D01*
X1671Y742D02*
X1678Y742D01*
X1960Y742D02*
X1967Y742D01*
X0Y741D02*
X7Y741D01*
X290Y741D02*
X297Y741D01*
X329Y741D02*
X336Y741D01*
X390Y741D02*
X397Y741D01*
X429Y741D02*
X436Y741D01*
X490Y741D02*
X497Y741D01*
X529Y741D02*
X536Y741D01*
X1431Y741D02*
X1438Y741D01*
X1471Y741D02*
X1478Y741D01*
X1531Y741D02*
X1538Y741D01*
X1571Y741D02*
X1578Y741D01*
X1631Y741D02*
X1638Y741D01*
X1671Y741D02*
X1678Y741D01*
X1960Y741D02*
X1967Y741D01*
X0Y740D02*
X7Y740D01*
X290Y740D02*
X297Y740D01*
X329Y740D02*
X336Y740D01*
X390Y740D02*
X397Y740D01*
X429Y740D02*
X436Y740D01*
X490Y740D02*
X497Y740D01*
X529Y740D02*
X536Y740D01*
X1431Y740D02*
X1438Y740D01*
X1471Y740D02*
X1478Y740D01*
X1531Y740D02*
X1538Y740D01*
X1571Y740D02*
X1578Y740D01*
X1631Y740D02*
X1638Y740D01*
X1671Y740D02*
X1678Y740D01*
X1960Y740D02*
X1967Y740D01*
X0Y739D02*
X7Y739D01*
X290Y739D02*
X297Y739D01*
X329Y739D02*
X336Y739D01*
X390Y739D02*
X397Y739D01*
X429Y739D02*
X436Y739D01*
X490Y739D02*
X497Y739D01*
X529Y739D02*
X536Y739D01*
X1431Y739D02*
X1438Y739D01*
X1471Y739D02*
X1478Y739D01*
X1531Y739D02*
X1538Y739D01*
X1571Y739D02*
X1578Y739D01*
X1631Y739D02*
X1638Y739D01*
X1671Y739D02*
X1678Y739D01*
X1960Y739D02*
X1967Y739D01*
X0Y738D02*
X7Y738D01*
X290Y738D02*
X297Y738D01*
X329Y738D02*
X336Y738D01*
X390Y738D02*
X397Y738D01*
X429Y738D02*
X436Y738D01*
X490Y738D02*
X497Y738D01*
X529Y738D02*
X536Y738D01*
X1431Y738D02*
X1438Y738D01*
X1471Y738D02*
X1478Y738D01*
X1531Y738D02*
X1538Y738D01*
X1571Y738D02*
X1578Y738D01*
X1631Y738D02*
X1638Y738D01*
X1671Y738D02*
X1678Y738D01*
X1960Y738D02*
X1967Y738D01*
X0Y737D02*
X7Y737D01*
X290Y737D02*
X297Y737D01*
X329Y737D02*
X336Y737D01*
X390Y737D02*
X397Y737D01*
X429Y737D02*
X436Y737D01*
X490Y737D02*
X497Y737D01*
X529Y737D02*
X536Y737D01*
X1431Y737D02*
X1438Y737D01*
X1471Y737D02*
X1478Y737D01*
X1531Y737D02*
X1538Y737D01*
X1571Y737D02*
X1578Y737D01*
X1631Y737D02*
X1638Y737D01*
X1671Y737D02*
X1678Y737D01*
X1960Y737D02*
X1967Y737D01*
X0Y736D02*
X7Y736D01*
X290Y736D02*
X297Y736D01*
X329Y736D02*
X336Y736D01*
X390Y736D02*
X397Y736D01*
X429Y736D02*
X436Y736D01*
X490Y736D02*
X497Y736D01*
X529Y736D02*
X536Y736D01*
X1431Y736D02*
X1438Y736D01*
X1471Y736D02*
X1478Y736D01*
X1531Y736D02*
X1538Y736D01*
X1571Y736D02*
X1578Y736D01*
X1631Y736D02*
X1638Y736D01*
X1671Y736D02*
X1678Y736D01*
X1960Y736D02*
X1967Y736D01*
X0Y735D02*
X7Y735D01*
X290Y735D02*
X297Y735D01*
X329Y735D02*
X336Y735D01*
X390Y735D02*
X397Y735D01*
X429Y735D02*
X436Y735D01*
X490Y735D02*
X497Y735D01*
X529Y735D02*
X536Y735D01*
X1431Y735D02*
X1438Y735D01*
X1471Y735D02*
X1478Y735D01*
X1531Y735D02*
X1538Y735D01*
X1571Y735D02*
X1578Y735D01*
X1631Y735D02*
X1638Y735D01*
X1671Y735D02*
X1678Y735D01*
X1960Y735D02*
X1967Y735D01*
X0Y734D02*
X7Y734D01*
X290Y734D02*
X297Y734D01*
X329Y734D02*
X336Y734D01*
X390Y734D02*
X397Y734D01*
X429Y734D02*
X436Y734D01*
X490Y734D02*
X497Y734D01*
X529Y734D02*
X536Y734D01*
X1431Y734D02*
X1438Y734D01*
X1471Y734D02*
X1478Y734D01*
X1531Y734D02*
X1538Y734D01*
X1571Y734D02*
X1578Y734D01*
X1631Y734D02*
X1638Y734D01*
X1671Y734D02*
X1678Y734D01*
X1960Y734D02*
X1967Y734D01*
X0Y733D02*
X7Y733D01*
X290Y733D02*
X297Y733D01*
X329Y733D02*
X336Y733D01*
X390Y733D02*
X397Y733D01*
X429Y733D02*
X436Y733D01*
X490Y733D02*
X497Y733D01*
X529Y733D02*
X536Y733D01*
X1431Y733D02*
X1438Y733D01*
X1471Y733D02*
X1478Y733D01*
X1531Y733D02*
X1538Y733D01*
X1571Y733D02*
X1578Y733D01*
X1631Y733D02*
X1638Y733D01*
X1671Y733D02*
X1678Y733D01*
X1960Y733D02*
X1967Y733D01*
X0Y732D02*
X7Y732D01*
X290Y732D02*
X297Y732D01*
X329Y732D02*
X336Y732D01*
X390Y732D02*
X397Y732D01*
X429Y732D02*
X436Y732D01*
X490Y732D02*
X497Y732D01*
X529Y732D02*
X536Y732D01*
X1431Y732D02*
X1438Y732D01*
X1471Y732D02*
X1478Y732D01*
X1531Y732D02*
X1538Y732D01*
X1571Y732D02*
X1578Y732D01*
X1631Y732D02*
X1638Y732D01*
X1671Y732D02*
X1678Y732D01*
X1960Y732D02*
X1967Y732D01*
X0Y731D02*
X7Y731D01*
X290Y731D02*
X297Y731D01*
X329Y731D02*
X336Y731D01*
X390Y731D02*
X397Y731D01*
X429Y731D02*
X436Y731D01*
X490Y731D02*
X497Y731D01*
X529Y731D02*
X536Y731D01*
X1431Y731D02*
X1438Y731D01*
X1471Y731D02*
X1478Y731D01*
X1531Y731D02*
X1538Y731D01*
X1571Y731D02*
X1578Y731D01*
X1631Y731D02*
X1638Y731D01*
X1671Y731D02*
X1678Y731D01*
X1960Y731D02*
X1967Y731D01*
X0Y730D02*
X7Y730D01*
X290Y730D02*
X297Y730D01*
X329Y730D02*
X336Y730D01*
X390Y730D02*
X397Y730D01*
X429Y730D02*
X436Y730D01*
X490Y730D02*
X497Y730D01*
X529Y730D02*
X536Y730D01*
X1431Y730D02*
X1438Y730D01*
X1471Y730D02*
X1478Y730D01*
X1531Y730D02*
X1538Y730D01*
X1571Y730D02*
X1578Y730D01*
X1631Y730D02*
X1638Y730D01*
X1671Y730D02*
X1678Y730D01*
X1960Y730D02*
X1967Y730D01*
X0Y729D02*
X7Y729D01*
X290Y729D02*
X297Y729D01*
X329Y729D02*
X336Y729D01*
X390Y729D02*
X397Y729D01*
X429Y729D02*
X436Y729D01*
X490Y729D02*
X497Y729D01*
X529Y729D02*
X536Y729D01*
X1431Y729D02*
X1438Y729D01*
X1471Y729D02*
X1478Y729D01*
X1531Y729D02*
X1538Y729D01*
X1571Y729D02*
X1578Y729D01*
X1631Y729D02*
X1638Y729D01*
X1671Y729D02*
X1678Y729D01*
X1960Y729D02*
X1967Y729D01*
X0Y728D02*
X7Y728D01*
X290Y728D02*
X297Y728D01*
X329Y728D02*
X336Y728D01*
X390Y728D02*
X397Y728D01*
X429Y728D02*
X436Y728D01*
X490Y728D02*
X497Y728D01*
X529Y728D02*
X536Y728D01*
X1431Y728D02*
X1438Y728D01*
X1471Y728D02*
X1478Y728D01*
X1531Y728D02*
X1538Y728D01*
X1571Y728D02*
X1578Y728D01*
X1631Y728D02*
X1638Y728D01*
X1671Y728D02*
X1678Y728D01*
X1960Y728D02*
X1967Y728D01*
X0Y727D02*
X7Y727D01*
X290Y727D02*
X297Y727D01*
X329Y727D02*
X336Y727D01*
X390Y727D02*
X397Y727D01*
X429Y727D02*
X436Y727D01*
X490Y727D02*
X497Y727D01*
X529Y727D02*
X536Y727D01*
X1431Y727D02*
X1438Y727D01*
X1471Y727D02*
X1478Y727D01*
X1531Y727D02*
X1538Y727D01*
X1571Y727D02*
X1578Y727D01*
X1631Y727D02*
X1638Y727D01*
X1671Y727D02*
X1678Y727D01*
X1960Y727D02*
X1967Y727D01*
X0Y726D02*
X7Y726D01*
X290Y726D02*
X297Y726D01*
X329Y726D02*
X336Y726D01*
X390Y726D02*
X397Y726D01*
X429Y726D02*
X436Y726D01*
X490Y726D02*
X497Y726D01*
X529Y726D02*
X536Y726D01*
X1431Y726D02*
X1438Y726D01*
X1471Y726D02*
X1478Y726D01*
X1531Y726D02*
X1538Y726D01*
X1571Y726D02*
X1578Y726D01*
X1631Y726D02*
X1638Y726D01*
X1671Y726D02*
X1678Y726D01*
X1960Y726D02*
X1967Y726D01*
X0Y725D02*
X7Y725D01*
X290Y725D02*
X297Y725D01*
X329Y725D02*
X336Y725D01*
X390Y725D02*
X397Y725D01*
X429Y725D02*
X436Y725D01*
X490Y725D02*
X497Y725D01*
X529Y725D02*
X536Y725D01*
X1431Y725D02*
X1438Y725D01*
X1471Y725D02*
X1478Y725D01*
X1531Y725D02*
X1538Y725D01*
X1571Y725D02*
X1578Y725D01*
X1631Y725D02*
X1638Y725D01*
X1671Y725D02*
X1678Y725D01*
X1960Y725D02*
X1967Y725D01*
X0Y724D02*
X7Y724D01*
X290Y724D02*
X297Y724D01*
X329Y724D02*
X336Y724D01*
X390Y724D02*
X397Y724D01*
X429Y724D02*
X436Y724D01*
X490Y724D02*
X497Y724D01*
X529Y724D02*
X536Y724D01*
X1431Y724D02*
X1438Y724D01*
X1471Y724D02*
X1478Y724D01*
X1531Y724D02*
X1538Y724D01*
X1571Y724D02*
X1578Y724D01*
X1631Y724D02*
X1638Y724D01*
X1671Y724D02*
X1678Y724D01*
X1960Y724D02*
X1967Y724D01*
X0Y723D02*
X7Y723D01*
X290Y723D02*
X297Y723D01*
X329Y723D02*
X336Y723D01*
X390Y723D02*
X397Y723D01*
X429Y723D02*
X436Y723D01*
X490Y723D02*
X497Y723D01*
X529Y723D02*
X536Y723D01*
X1431Y723D02*
X1438Y723D01*
X1471Y723D02*
X1478Y723D01*
X1531Y723D02*
X1538Y723D01*
X1571Y723D02*
X1578Y723D01*
X1631Y723D02*
X1638Y723D01*
X1671Y723D02*
X1678Y723D01*
X1960Y723D02*
X1967Y723D01*
X0Y722D02*
X7Y722D01*
X290Y722D02*
X297Y722D01*
X329Y722D02*
X336Y722D01*
X390Y722D02*
X397Y722D01*
X429Y722D02*
X436Y722D01*
X490Y722D02*
X497Y722D01*
X529Y722D02*
X536Y722D01*
X1431Y722D02*
X1438Y722D01*
X1471Y722D02*
X1478Y722D01*
X1531Y722D02*
X1538Y722D01*
X1571Y722D02*
X1578Y722D01*
X1631Y722D02*
X1638Y722D01*
X1671Y722D02*
X1678Y722D01*
X1960Y722D02*
X1967Y722D01*
X0Y721D02*
X7Y721D01*
X290Y721D02*
X297Y721D01*
X329Y721D02*
X336Y721D01*
X390Y721D02*
X397Y721D01*
X429Y721D02*
X436Y721D01*
X490Y721D02*
X497Y721D01*
X529Y721D02*
X536Y721D01*
X1431Y721D02*
X1438Y721D01*
X1471Y721D02*
X1478Y721D01*
X1531Y721D02*
X1538Y721D01*
X1571Y721D02*
X1578Y721D01*
X1631Y721D02*
X1638Y721D01*
X1671Y721D02*
X1678Y721D01*
X1960Y721D02*
X1967Y721D01*
X0Y720D02*
X7Y720D01*
X290Y720D02*
X297Y720D01*
X329Y720D02*
X336Y720D01*
X390Y720D02*
X397Y720D01*
X429Y720D02*
X436Y720D01*
X490Y720D02*
X497Y720D01*
X529Y720D02*
X536Y720D01*
X1431Y720D02*
X1439Y720D01*
X1470Y720D02*
X1478Y720D01*
X1531Y720D02*
X1539Y720D01*
X1570Y720D02*
X1578Y720D01*
X1631Y720D02*
X1638Y720D01*
X1671Y720D02*
X1678Y720D01*
X1960Y720D02*
X1967Y720D01*
X0Y719D02*
X7Y719D01*
X290Y719D02*
X336Y719D01*
X390Y719D02*
X436Y719D01*
X490Y719D02*
X536Y719D01*
X1431Y719D02*
X1478Y719D01*
X1531Y719D02*
X1578Y719D01*
X1631Y719D02*
X1678Y719D01*
X1960Y719D02*
X1967Y719D01*
X0Y718D02*
X7Y718D01*
X290Y718D02*
X336Y718D01*
X390Y718D02*
X436Y718D01*
X490Y718D02*
X536Y718D01*
X1431Y718D02*
X1478Y718D01*
X1531Y718D02*
X1578Y718D01*
X1631Y718D02*
X1678Y718D01*
X1960Y718D02*
X1967Y718D01*
X0Y717D02*
X7Y717D01*
X290Y717D02*
X336Y717D01*
X390Y717D02*
X436Y717D01*
X490Y717D02*
X536Y717D01*
X1431Y717D02*
X1478Y717D01*
X1531Y717D02*
X1578Y717D01*
X1631Y717D02*
X1678Y717D01*
X1960Y717D02*
X1967Y717D01*
X0Y716D02*
X7Y716D01*
X290Y716D02*
X336Y716D01*
X390Y716D02*
X436Y716D01*
X490Y716D02*
X536Y716D01*
X1431Y716D02*
X1478Y716D01*
X1531Y716D02*
X1578Y716D01*
X1631Y716D02*
X1678Y716D01*
X1960Y716D02*
X1967Y716D01*
X0Y715D02*
X7Y715D01*
X290Y715D02*
X336Y715D01*
X390Y715D02*
X436Y715D01*
X490Y715D02*
X536Y715D01*
X1431Y715D02*
X1478Y715D01*
X1531Y715D02*
X1578Y715D01*
X1631Y715D02*
X1678Y715D01*
X1960Y715D02*
X1967Y715D01*
X0Y714D02*
X7Y714D01*
X290Y714D02*
X336Y714D01*
X390Y714D02*
X436Y714D01*
X490Y714D02*
X536Y714D01*
X1431Y714D02*
X1478Y714D01*
X1531Y714D02*
X1578Y714D01*
X1631Y714D02*
X1678Y714D01*
X1960Y714D02*
X1967Y714D01*
X0Y713D02*
X7Y713D01*
X1960Y713D02*
X1967Y713D01*
X0Y712D02*
X7Y712D01*
X1960Y712D02*
X1967Y712D01*
X0Y711D02*
X7Y711D01*
X1960Y711D02*
X1967Y711D01*
X0Y710D02*
X7Y710D01*
X1960Y710D02*
X1967Y710D01*
X0Y709D02*
X7Y709D01*
X1960Y709D02*
X1967Y709D01*
X0Y708D02*
X7Y708D01*
X1960Y708D02*
X1967Y708D01*
X0Y707D02*
X7Y707D01*
X1960Y707D02*
X1967Y707D01*
X0Y706D02*
X7Y706D01*
X1960Y706D02*
X1967Y706D01*
X0Y705D02*
X7Y705D01*
X1960Y705D02*
X1967Y705D01*
X0Y704D02*
X7Y704D01*
X1960Y704D02*
X1967Y704D01*
X0Y703D02*
X7Y703D01*
X1960Y703D02*
X1967Y703D01*
X0Y702D02*
X7Y702D01*
X1960Y702D02*
X1967Y702D01*
X0Y701D02*
X7Y701D01*
X1960Y701D02*
X1967Y701D01*
X0Y700D02*
X7Y700D01*
X1960Y700D02*
X1967Y700D01*
X0Y699D02*
X7Y699D01*
X1960Y699D02*
X1967Y699D01*
X0Y698D02*
X7Y698D01*
X1960Y698D02*
X1967Y698D01*
X0Y697D02*
X7Y697D01*
X1960Y697D02*
X1967Y697D01*
X0Y696D02*
X7Y696D01*
X1960Y696D02*
X1967Y696D01*
X0Y695D02*
X7Y695D01*
X1960Y695D02*
X1967Y695D01*
X0Y694D02*
X7Y694D01*
X1960Y694D02*
X1967Y694D01*
X0Y693D02*
X7Y693D01*
X1960Y693D02*
X1967Y693D01*
X0Y692D02*
X7Y692D01*
X1960Y692D02*
X1967Y692D01*
X0Y691D02*
X7Y691D01*
X1960Y691D02*
X1967Y691D01*
X0Y690D02*
X7Y690D01*
X1960Y690D02*
X1967Y690D01*
X0Y689D02*
X7Y689D01*
X1960Y689D02*
X1967Y689D01*
X0Y688D02*
X7Y688D01*
X1960Y688D02*
X1967Y688D01*
X0Y687D02*
X7Y687D01*
X1960Y687D02*
X1967Y687D01*
X0Y686D02*
X7Y686D01*
X1960Y686D02*
X1967Y686D01*
X0Y685D02*
X7Y685D01*
X1960Y685D02*
X1967Y685D01*
X0Y684D02*
X7Y684D01*
X1960Y684D02*
X1967Y684D01*
X0Y683D02*
X7Y683D01*
X1960Y683D02*
X1967Y683D01*
X0Y682D02*
X7Y682D01*
X1960Y682D02*
X1967Y682D01*
X0Y681D02*
X7Y681D01*
X1960Y681D02*
X1967Y681D01*
X0Y680D02*
X7Y680D01*
X1960Y680D02*
X1967Y680D01*
X0Y679D02*
X7Y679D01*
X1960Y679D02*
X1967Y679D01*
X0Y678D02*
X7Y678D01*
X1960Y678D02*
X1967Y678D01*
X0Y677D02*
X7Y677D01*
X1960Y677D02*
X1967Y677D01*
X0Y676D02*
X7Y676D01*
X1960Y676D02*
X1967Y676D01*
X0Y675D02*
X7Y675D01*
X1960Y675D02*
X1967Y675D01*
X0Y674D02*
X7Y674D01*
X1960Y674D02*
X1967Y674D01*
X0Y673D02*
X7Y673D01*
X1960Y673D02*
X1967Y673D01*
X0Y672D02*
X7Y672D01*
X1960Y672D02*
X1967Y672D01*
X0Y671D02*
X7Y671D01*
X1960Y671D02*
X1967Y671D01*
X0Y670D02*
X7Y670D01*
X1960Y670D02*
X1967Y670D01*
X0Y669D02*
X7Y669D01*
X1960Y669D02*
X1967Y669D01*
X0Y668D02*
X7Y668D01*
X1960Y668D02*
X1967Y668D01*
X0Y667D02*
X7Y667D01*
X1960Y667D02*
X1967Y667D01*
X0Y666D02*
X7Y666D01*
X1960Y666D02*
X1967Y666D01*
X0Y665D02*
X7Y665D01*
X1960Y665D02*
X1967Y665D01*
X0Y664D02*
X7Y664D01*
X1960Y664D02*
X1967Y664D01*
X0Y663D02*
X7Y663D01*
X1960Y663D02*
X1967Y663D01*
X0Y662D02*
X7Y662D01*
X1960Y662D02*
X1967Y662D01*
X0Y661D02*
X7Y661D01*
X1960Y661D02*
X1967Y661D01*
X0Y660D02*
X7Y660D01*
X1960Y660D02*
X1967Y660D01*
X0Y659D02*
X7Y659D01*
X1960Y659D02*
X1967Y659D01*
X0Y658D02*
X7Y658D01*
X1960Y658D02*
X1967Y658D01*
X0Y657D02*
X7Y657D01*
X1960Y657D02*
X1967Y657D01*
X0Y656D02*
X7Y656D01*
X1960Y656D02*
X1967Y656D01*
X0Y655D02*
X7Y655D01*
X1960Y655D02*
X1967Y655D01*
X0Y654D02*
X7Y654D01*
X1960Y654D02*
X1967Y654D01*
X0Y653D02*
X7Y653D01*
X1960Y653D02*
X1967Y653D01*
X0Y652D02*
X7Y652D01*
X1960Y652D02*
X1967Y652D01*
X0Y651D02*
X7Y651D01*
X1960Y651D02*
X1967Y651D01*
X0Y650D02*
X7Y650D01*
X1960Y650D02*
X1967Y650D01*
X0Y649D02*
X7Y649D01*
X1960Y649D02*
X1967Y649D01*
X0Y648D02*
X7Y648D01*
X1960Y648D02*
X1967Y648D01*
X0Y647D02*
X7Y647D01*
X1960Y647D02*
X1967Y647D01*
X0Y646D02*
X7Y646D01*
X1960Y646D02*
X1967Y646D01*
X0Y645D02*
X7Y645D01*
X1960Y645D02*
X1967Y645D01*
X0Y644D02*
X7Y644D01*
X1960Y644D02*
X1967Y644D01*
X0Y643D02*
X7Y643D01*
X1960Y643D02*
X1967Y643D01*
X0Y642D02*
X7Y642D01*
X1960Y642D02*
X1967Y642D01*
X0Y641D02*
X7Y641D01*
X1960Y641D02*
X1967Y641D01*
X0Y640D02*
X7Y640D01*
X1960Y640D02*
X1967Y640D01*
X0Y639D02*
X7Y639D01*
X1960Y639D02*
X1967Y639D01*
X0Y638D02*
X7Y638D01*
X1960Y638D02*
X1967Y638D01*
X0Y637D02*
X7Y637D01*
X1960Y637D02*
X1967Y637D01*
X0Y636D02*
X7Y636D01*
X1960Y636D02*
X1967Y636D01*
X0Y635D02*
X7Y635D01*
X1960Y635D02*
X1967Y635D01*
X0Y634D02*
X7Y634D01*
X1960Y634D02*
X1967Y634D01*
X0Y633D02*
X7Y633D01*
X1960Y633D02*
X1967Y633D01*
X0Y632D02*
X7Y632D01*
X1960Y632D02*
X1967Y632D01*
X0Y631D02*
X7Y631D01*
X1960Y631D02*
X1967Y631D01*
X0Y630D02*
X7Y630D01*
X1960Y630D02*
X1967Y630D01*
X0Y629D02*
X7Y629D01*
X1960Y629D02*
X1967Y629D01*
X0Y628D02*
X7Y628D01*
X1960Y628D02*
X1967Y628D01*
X0Y627D02*
X7Y627D01*
X1960Y627D02*
X1967Y627D01*
X0Y626D02*
X7Y626D01*
X1960Y626D02*
X1967Y626D01*
X0Y625D02*
X7Y625D01*
X1960Y625D02*
X1967Y625D01*
X0Y624D02*
X7Y624D01*
X1960Y624D02*
X1967Y624D01*
X0Y623D02*
X7Y623D01*
X1960Y623D02*
X1967Y623D01*
X0Y622D02*
X7Y622D01*
X1960Y622D02*
X1967Y622D01*
X0Y621D02*
X7Y621D01*
X1960Y621D02*
X1967Y621D01*
X0Y620D02*
X7Y620D01*
X1960Y620D02*
X1967Y620D01*
X0Y619D02*
X7Y619D01*
X1960Y619D02*
X1967Y619D01*
X0Y618D02*
X7Y618D01*
X1960Y618D02*
X1967Y618D01*
X0Y617D02*
X7Y617D01*
X1960Y617D02*
X1967Y617D01*
X0Y616D02*
X7Y616D01*
X1960Y616D02*
X1967Y616D01*
X0Y615D02*
X7Y615D01*
X1960Y615D02*
X1967Y615D01*
X0Y614D02*
X7Y614D01*
X1960Y614D02*
X1967Y614D01*
X0Y613D02*
X7Y613D01*
X786Y613D02*
X788Y613D01*
X975Y613D02*
X991Y613D01*
X1072Y613D02*
X1090Y613D01*
X1106Y613D02*
X1123Y613D01*
X1137Y613D02*
X1155Y613D01*
X1171Y613D02*
X1188Y613D01*
X1960Y613D02*
X1967Y613D01*
X0Y612D02*
X7Y612D01*
X786Y612D02*
X789Y612D01*
X974Y612D02*
X992Y612D01*
X1071Y612D02*
X1091Y612D01*
X1105Y612D02*
X1124Y612D01*
X1136Y612D02*
X1156Y612D01*
X1170Y612D02*
X1189Y612D01*
X1960Y612D02*
X1967Y612D01*
X0Y611D02*
X7Y611D01*
X785Y611D02*
X789Y611D01*
X973Y611D02*
X993Y611D01*
X1071Y611D02*
X1092Y611D01*
X1104Y611D02*
X1124Y611D01*
X1136Y611D02*
X1157Y611D01*
X1169Y611D02*
X1190Y611D01*
X1960Y611D02*
X1967Y611D01*
X0Y610D02*
X7Y610D01*
X785Y610D02*
X789Y610D01*
X973Y610D02*
X994Y610D01*
X1071Y610D02*
X1092Y610D01*
X1104Y610D02*
X1125Y610D01*
X1137Y610D02*
X1157Y610D01*
X1169Y610D02*
X1190Y610D01*
X1960Y610D02*
X1967Y610D01*
X0Y609D02*
X7Y609D01*
X785Y609D02*
X790Y609D01*
X973Y609D02*
X977Y609D01*
X990Y609D02*
X994Y609D01*
X1088Y609D02*
X1092Y609D01*
X1104Y609D02*
X1107Y609D01*
X1121Y609D02*
X1125Y609D01*
X1154Y609D02*
X1158Y609D01*
X1169Y609D02*
X1173Y609D01*
X1186Y609D02*
X1190Y609D01*
X1960Y609D02*
X1967Y609D01*
X0Y608D02*
X7Y608D01*
X784Y608D02*
X790Y608D01*
X973Y608D02*
X977Y608D01*
X990Y608D02*
X994Y608D01*
X1089Y608D02*
X1092Y608D01*
X1104Y608D02*
X1107Y608D01*
X1121Y608D02*
X1125Y608D01*
X1154Y608D02*
X1158Y608D01*
X1169Y608D02*
X1172Y608D01*
X1187Y608D02*
X1190Y608D01*
X1960Y608D02*
X1967Y608D01*
X0Y607D02*
X7Y607D01*
X784Y607D02*
X790Y607D01*
X973Y607D02*
X977Y607D01*
X991Y607D02*
X994Y607D01*
X1089Y607D02*
X1092Y607D01*
X1104Y607D02*
X1107Y607D01*
X1121Y607D02*
X1125Y607D01*
X1154Y607D02*
X1158Y607D01*
X1169Y607D02*
X1172Y607D01*
X1187Y607D02*
X1190Y607D01*
X1960Y607D02*
X1967Y607D01*
X0Y606D02*
X7Y606D01*
X784Y606D02*
X791Y606D01*
X973Y606D02*
X978Y606D01*
X991Y606D02*
X993Y606D01*
X1089Y606D02*
X1092Y606D01*
X1104Y606D02*
X1107Y606D01*
X1121Y606D02*
X1125Y606D01*
X1154Y606D02*
X1158Y606D01*
X1169Y606D02*
X1172Y606D01*
X1187Y606D02*
X1190Y606D01*
X1960Y606D02*
X1967Y606D01*
X0Y605D02*
X7Y605D01*
X783Y605D02*
X791Y605D01*
X974Y605D02*
X979Y605D01*
X1089Y605D02*
X1092Y605D01*
X1104Y605D02*
X1107Y605D01*
X1121Y605D02*
X1125Y605D01*
X1154Y605D02*
X1158Y605D01*
X1169Y605D02*
X1172Y605D01*
X1187Y605D02*
X1190Y605D01*
X1960Y605D02*
X1967Y605D01*
X0Y604D02*
X7Y604D01*
X783Y604D02*
X791Y604D01*
X815Y604D02*
X825Y604D01*
X843Y604D02*
X844Y604D01*
X853Y604D02*
X858Y604D01*
X882Y604D02*
X889Y604D01*
X909Y604D02*
X909Y604D01*
X919Y604D02*
X923Y604D01*
X975Y604D02*
X980Y604D01*
X1089Y604D02*
X1092Y604D01*
X1104Y604D02*
X1107Y604D01*
X1121Y604D02*
X1125Y604D01*
X1154Y604D02*
X1158Y604D01*
X1169Y604D02*
X1172Y604D01*
X1187Y604D02*
X1190Y604D01*
X1960Y604D02*
X1967Y604D01*
X0Y603D02*
X7Y603D01*
X783Y603D02*
X792Y603D01*
X814Y603D02*
X827Y603D01*
X842Y603D02*
X845Y603D01*
X851Y603D02*
X860Y603D01*
X879Y603D02*
X891Y603D01*
X908Y603D02*
X911Y603D01*
X916Y603D02*
X925Y603D01*
X976Y603D02*
X980Y603D01*
X1089Y603D02*
X1092Y603D01*
X1104Y603D02*
X1107Y603D01*
X1121Y603D02*
X1125Y603D01*
X1154Y603D02*
X1158Y603D01*
X1169Y603D02*
X1172Y603D01*
X1187Y603D02*
X1190Y603D01*
X1960Y603D02*
X1967Y603D01*
X0Y602D02*
X7Y602D01*
X783Y602D02*
X786Y602D01*
X788Y602D02*
X792Y602D01*
X814Y602D02*
X828Y602D01*
X842Y602D02*
X845Y602D01*
X850Y602D02*
X861Y602D01*
X878Y602D02*
X893Y602D01*
X907Y602D02*
X911Y602D01*
X914Y602D02*
X926Y602D01*
X976Y602D02*
X981Y602D01*
X1089Y602D02*
X1092Y602D01*
X1104Y602D02*
X1107Y602D01*
X1121Y602D02*
X1125Y602D01*
X1154Y602D02*
X1158Y602D01*
X1169Y602D02*
X1172Y602D01*
X1187Y602D02*
X1190Y602D01*
X1960Y602D02*
X1967Y602D01*
X0Y601D02*
X7Y601D01*
X782Y601D02*
X786Y601D01*
X788Y601D02*
X792Y601D01*
X814Y601D02*
X829Y601D01*
X842Y601D02*
X845Y601D01*
X849Y601D02*
X862Y601D01*
X877Y601D02*
X894Y601D01*
X907Y601D02*
X911Y601D01*
X913Y601D02*
X927Y601D01*
X977Y601D02*
X982Y601D01*
X1089Y601D02*
X1092Y601D01*
X1104Y601D02*
X1107Y601D01*
X1121Y601D02*
X1125Y601D01*
X1154Y601D02*
X1158Y601D01*
X1169Y601D02*
X1172Y601D01*
X1187Y601D02*
X1190Y601D01*
X1960Y601D02*
X1967Y601D01*
X0Y600D02*
X7Y600D01*
X782Y600D02*
X786Y600D01*
X789Y600D02*
X792Y600D01*
X815Y600D02*
X830Y600D01*
X842Y600D02*
X863Y600D01*
X876Y600D02*
X895Y600D01*
X907Y600D02*
X928Y600D01*
X978Y600D02*
X983Y600D01*
X1089Y600D02*
X1092Y600D01*
X1104Y600D02*
X1107Y600D01*
X1121Y600D02*
X1125Y600D01*
X1154Y600D02*
X1158Y600D01*
X1169Y600D02*
X1172Y600D01*
X1187Y600D02*
X1190Y600D01*
X1960Y600D02*
X1967Y600D01*
X0Y599D02*
X7Y599D01*
X782Y599D02*
X785Y599D01*
X789Y599D02*
X793Y599D01*
X826Y599D02*
X830Y599D01*
X842Y599D02*
X852Y599D01*
X859Y599D02*
X863Y599D01*
X875Y599D02*
X880Y599D01*
X890Y599D02*
X895Y599D01*
X907Y599D02*
X917Y599D01*
X924Y599D02*
X928Y599D01*
X979Y599D02*
X984Y599D01*
X1089Y599D02*
X1092Y599D01*
X1104Y599D02*
X1107Y599D01*
X1121Y599D02*
X1125Y599D01*
X1154Y599D02*
X1158Y599D01*
X1169Y599D02*
X1172Y599D01*
X1187Y599D02*
X1190Y599D01*
X1960Y599D02*
X1967Y599D01*
X0Y598D02*
X7Y598D01*
X781Y598D02*
X785Y598D01*
X789Y598D02*
X793Y598D01*
X826Y598D02*
X830Y598D01*
X842Y598D02*
X851Y598D01*
X860Y598D02*
X863Y598D01*
X875Y598D02*
X879Y598D01*
X891Y598D02*
X896Y598D01*
X907Y598D02*
X916Y598D01*
X924Y598D02*
X928Y598D01*
X980Y598D02*
X984Y598D01*
X1074Y598D02*
X1092Y598D01*
X1104Y598D02*
X1107Y598D01*
X1121Y598D02*
X1125Y598D01*
X1139Y598D02*
X1158Y598D01*
X1169Y598D02*
X1172Y598D01*
X1187Y598D02*
X1190Y598D01*
X1960Y598D02*
X1967Y598D01*
X0Y597D02*
X7Y597D01*
X781Y597D02*
X785Y597D01*
X790Y597D02*
X793Y597D01*
X826Y597D02*
X830Y597D01*
X842Y597D02*
X850Y597D01*
X860Y597D02*
X863Y597D01*
X875Y597D02*
X878Y597D01*
X892Y597D02*
X896Y597D01*
X907Y597D02*
X914Y597D01*
X925Y597D02*
X928Y597D01*
X980Y597D02*
X985Y597D01*
X1072Y597D02*
X1092Y597D01*
X1104Y597D02*
X1107Y597D01*
X1121Y597D02*
X1125Y597D01*
X1138Y597D02*
X1157Y597D01*
X1169Y597D02*
X1172Y597D01*
X1187Y597D02*
X1190Y597D01*
X1960Y597D02*
X1967Y597D01*
X0Y596D02*
X7Y596D01*
X781Y596D02*
X785Y596D01*
X790Y596D02*
X794Y596D01*
X827Y596D02*
X830Y596D01*
X842Y596D02*
X849Y596D01*
X860Y596D02*
X863Y596D01*
X875Y596D02*
X878Y596D01*
X892Y596D02*
X896Y596D01*
X907Y596D02*
X913Y596D01*
X925Y596D02*
X928Y596D01*
X981Y596D02*
X986Y596D01*
X1071Y596D02*
X1091Y596D01*
X1104Y596D02*
X1107Y596D01*
X1121Y596D02*
X1125Y596D01*
X1137Y596D02*
X1157Y596D01*
X1169Y596D02*
X1172Y596D01*
X1187Y596D02*
X1190Y596D01*
X1960Y596D02*
X1967Y596D01*
X0Y595D02*
X7Y595D01*
X781Y595D02*
X784Y595D01*
X790Y595D02*
X794Y595D01*
X827Y595D02*
X830Y595D01*
X842Y595D02*
X848Y595D01*
X860Y595D02*
X863Y595D01*
X875Y595D02*
X878Y595D01*
X892Y595D02*
X896Y595D01*
X907Y595D02*
X911Y595D01*
X925Y595D02*
X928Y595D01*
X982Y595D02*
X987Y595D01*
X1071Y595D02*
X1091Y595D01*
X1104Y595D02*
X1107Y595D01*
X1121Y595D02*
X1125Y595D01*
X1136Y595D02*
X1156Y595D01*
X1169Y595D02*
X1172Y595D01*
X1187Y595D02*
X1190Y595D01*
X1960Y595D02*
X1967Y595D01*
X0Y594D02*
X7Y594D01*
X780Y594D02*
X784Y594D01*
X790Y594D02*
X794Y594D01*
X813Y594D02*
X830Y594D01*
X842Y594D02*
X846Y594D01*
X862Y594D02*
X862Y594D01*
X875Y594D02*
X878Y594D01*
X892Y594D02*
X896Y594D01*
X907Y594D02*
X911Y594D01*
X925Y594D02*
X928Y594D01*
X983Y594D02*
X987Y594D01*
X1071Y594D02*
X1088Y594D01*
X1104Y594D02*
X1107Y594D01*
X1121Y594D02*
X1125Y594D01*
X1136Y594D02*
X1154Y594D01*
X1169Y594D02*
X1172Y594D01*
X1187Y594D02*
X1190Y594D01*
X1960Y594D02*
X1967Y594D01*
X0Y593D02*
X7Y593D01*
X780Y593D02*
X784Y593D01*
X791Y593D02*
X794Y593D01*
X812Y593D02*
X830Y593D01*
X842Y593D02*
X846Y593D01*
X875Y593D02*
X878Y593D01*
X892Y593D02*
X896Y593D01*
X907Y593D02*
X911Y593D01*
X925Y593D02*
X928Y593D01*
X983Y593D02*
X988Y593D01*
X1071Y593D02*
X1074Y593D01*
X1104Y593D02*
X1107Y593D01*
X1121Y593D02*
X1125Y593D01*
X1136Y593D02*
X1140Y593D01*
X1169Y593D02*
X1172Y593D01*
X1187Y593D02*
X1190Y593D01*
X1960Y593D02*
X1967Y593D01*
X0Y592D02*
X7Y592D01*
X780Y592D02*
X783Y592D01*
X791Y592D02*
X795Y592D01*
X811Y592D02*
X830Y592D01*
X842Y592D02*
X845Y592D01*
X875Y592D02*
X878Y592D01*
X892Y592D02*
X896Y592D01*
X907Y592D02*
X911Y592D01*
X925Y592D02*
X928Y592D01*
X984Y592D02*
X989Y592D01*
X1013Y592D02*
X1019Y592D01*
X1071Y592D02*
X1074Y592D01*
X1104Y592D02*
X1107Y592D01*
X1121Y592D02*
X1125Y592D01*
X1136Y592D02*
X1140Y592D01*
X1169Y592D02*
X1172Y592D01*
X1187Y592D02*
X1190Y592D01*
X1960Y592D02*
X1967Y592D01*
X0Y591D02*
X7Y591D01*
X779Y591D02*
X783Y591D01*
X791Y591D02*
X795Y591D01*
X810Y591D02*
X830Y591D01*
X842Y591D02*
X845Y591D01*
X875Y591D02*
X878Y591D01*
X892Y591D02*
X896Y591D01*
X907Y591D02*
X911Y591D01*
X925Y591D02*
X928Y591D01*
X985Y591D02*
X990Y591D01*
X1012Y591D02*
X1020Y591D01*
X1071Y591D02*
X1074Y591D01*
X1104Y591D02*
X1107Y591D01*
X1121Y591D02*
X1125Y591D01*
X1136Y591D02*
X1140Y591D01*
X1169Y591D02*
X1172Y591D01*
X1187Y591D02*
X1190Y591D01*
X1960Y591D02*
X1967Y591D01*
X0Y590D02*
X7Y590D01*
X779Y590D02*
X795Y590D01*
X810Y590D02*
X815Y590D01*
X825Y590D02*
X830Y590D01*
X842Y590D02*
X845Y590D01*
X875Y590D02*
X878Y590D01*
X892Y590D02*
X896Y590D01*
X907Y590D02*
X911Y590D01*
X925Y590D02*
X928Y590D01*
X986Y590D02*
X991Y590D01*
X1012Y590D02*
X1020Y590D01*
X1071Y590D02*
X1074Y590D01*
X1104Y590D02*
X1107Y590D01*
X1121Y590D02*
X1125Y590D01*
X1136Y590D02*
X1140Y590D01*
X1169Y590D02*
X1172Y590D01*
X1187Y590D02*
X1190Y590D01*
X1960Y590D02*
X1967Y590D01*
X0Y589D02*
X7Y589D01*
X779Y589D02*
X796Y589D01*
X809Y589D02*
X813Y589D01*
X826Y589D02*
X830Y589D01*
X842Y589D02*
X845Y589D01*
X875Y589D02*
X878Y589D01*
X892Y589D02*
X896Y589D01*
X907Y589D02*
X911Y589D01*
X925Y589D02*
X928Y589D01*
X987Y589D02*
X991Y589D01*
X1012Y589D02*
X1020Y589D01*
X1071Y589D02*
X1074Y589D01*
X1104Y589D02*
X1107Y589D01*
X1121Y589D02*
X1125Y589D01*
X1136Y589D02*
X1140Y589D01*
X1169Y589D02*
X1172Y589D01*
X1187Y589D02*
X1190Y589D01*
X1960Y589D02*
X1967Y589D01*
X0Y588D02*
X7Y588D01*
X778Y588D02*
X796Y588D01*
X809Y588D02*
X813Y588D01*
X827Y588D02*
X830Y588D01*
X842Y588D02*
X845Y588D01*
X875Y588D02*
X878Y588D01*
X892Y588D02*
X896Y588D01*
X907Y588D02*
X911Y588D01*
X925Y588D02*
X928Y588D01*
X987Y588D02*
X992Y588D01*
X1012Y588D02*
X1020Y588D01*
X1071Y588D02*
X1074Y588D01*
X1104Y588D02*
X1107Y588D01*
X1121Y588D02*
X1125Y588D01*
X1136Y588D02*
X1140Y588D01*
X1169Y588D02*
X1172Y588D01*
X1187Y588D02*
X1190Y588D01*
X1960Y588D02*
X1967Y588D01*
X0Y587D02*
X7Y587D01*
X778Y587D02*
X796Y587D01*
X809Y587D02*
X813Y587D01*
X827Y587D02*
X830Y587D01*
X842Y587D02*
X845Y587D01*
X875Y587D02*
X878Y587D01*
X892Y587D02*
X896Y587D01*
X907Y587D02*
X911Y587D01*
X925Y587D02*
X928Y587D01*
X988Y587D02*
X993Y587D01*
X1012Y587D02*
X1020Y587D01*
X1071Y587D02*
X1074Y587D01*
X1104Y587D02*
X1107Y587D01*
X1121Y587D02*
X1125Y587D01*
X1136Y587D02*
X1140Y587D01*
X1169Y587D02*
X1172Y587D01*
X1187Y587D02*
X1190Y587D01*
X1960Y587D02*
X1967Y587D01*
X0Y586D02*
X7Y586D01*
X778Y586D02*
X782Y586D01*
X793Y586D02*
X796Y586D01*
X809Y586D02*
X813Y586D01*
X827Y586D02*
X830Y586D01*
X842Y586D02*
X845Y586D01*
X875Y586D02*
X878Y586D01*
X892Y586D02*
X896Y586D01*
X907Y586D02*
X911Y586D01*
X925Y586D02*
X929Y586D01*
X973Y586D02*
X976Y586D01*
X989Y586D02*
X994Y586D01*
X1012Y586D02*
X1020Y586D01*
X1071Y586D02*
X1074Y586D01*
X1104Y586D02*
X1107Y586D01*
X1121Y586D02*
X1125Y586D01*
X1136Y586D02*
X1140Y586D01*
X1169Y586D02*
X1172Y586D01*
X1187Y586D02*
X1190Y586D01*
X1960Y586D02*
X1967Y586D01*
X0Y585D02*
X7Y585D01*
X778Y585D02*
X781Y585D01*
X793Y585D02*
X797Y585D01*
X809Y585D02*
X813Y585D01*
X825Y585D02*
X830Y585D01*
X842Y585D02*
X845Y585D01*
X875Y585D02*
X879Y585D01*
X892Y585D02*
X896Y585D01*
X907Y585D02*
X911Y585D01*
X925Y585D02*
X929Y585D01*
X973Y585D02*
X976Y585D01*
X990Y585D02*
X994Y585D01*
X1013Y585D02*
X1019Y585D01*
X1071Y585D02*
X1074Y585D01*
X1104Y585D02*
X1107Y585D01*
X1121Y585D02*
X1125Y585D01*
X1136Y585D02*
X1140Y585D01*
X1169Y585D02*
X1172Y585D01*
X1187Y585D02*
X1190Y585D01*
X1960Y585D02*
X1967Y585D01*
X0Y584D02*
X7Y584D01*
X777Y584D02*
X781Y584D01*
X793Y584D02*
X797Y584D01*
X809Y584D02*
X813Y584D01*
X823Y584D02*
X831Y584D01*
X842Y584D02*
X845Y584D01*
X875Y584D02*
X880Y584D01*
X890Y584D02*
X895Y584D01*
X907Y584D02*
X911Y584D01*
X925Y584D02*
X929Y584D01*
X973Y584D02*
X977Y584D01*
X990Y584D02*
X994Y584D01*
X1071Y584D02*
X1074Y584D01*
X1104Y584D02*
X1107Y584D01*
X1121Y584D02*
X1125Y584D01*
X1136Y584D02*
X1140Y584D01*
X1169Y584D02*
X1172Y584D01*
X1187Y584D02*
X1190Y584D01*
X1960Y584D02*
X1967Y584D01*
X0Y583D02*
X7Y583D01*
X777Y583D02*
X781Y583D01*
X794Y583D02*
X797Y583D01*
X810Y583D02*
X831Y583D01*
X842Y583D02*
X845Y583D01*
X876Y583D02*
X895Y583D01*
X907Y583D02*
X911Y583D01*
X925Y583D02*
X929Y583D01*
X973Y583D02*
X994Y583D01*
X1071Y583D02*
X1091Y583D01*
X1104Y583D02*
X1125Y583D01*
X1136Y583D02*
X1156Y583D01*
X1169Y583D02*
X1190Y583D01*
X1960Y583D02*
X1967Y583D01*
X0Y582D02*
X7Y582D01*
X777Y582D02*
X780Y582D01*
X794Y582D02*
X798Y582D01*
X810Y582D02*
X831Y582D01*
X842Y582D02*
X845Y582D01*
X877Y582D02*
X894Y582D01*
X907Y582D02*
X911Y582D01*
X925Y582D02*
X929Y582D01*
X973Y582D02*
X994Y582D01*
X1071Y582D02*
X1092Y582D01*
X1104Y582D02*
X1125Y582D01*
X1136Y582D02*
X1157Y582D01*
X1169Y582D02*
X1190Y582D01*
X1960Y582D02*
X1967Y582D01*
X0Y581D02*
X7Y581D01*
X776Y581D02*
X780Y581D01*
X794Y581D02*
X798Y581D01*
X811Y581D02*
X831Y581D01*
X842Y581D02*
X845Y581D01*
X878Y581D02*
X893Y581D01*
X907Y581D02*
X911Y581D01*
X925Y581D02*
X929Y581D01*
X974Y581D02*
X993Y581D01*
X1071Y581D02*
X1092Y581D01*
X1104Y581D02*
X1124Y581D01*
X1136Y581D02*
X1158Y581D01*
X1170Y581D02*
X1190Y581D01*
X1960Y581D02*
X1967Y581D01*
X0Y580D02*
X7Y580D01*
X777Y580D02*
X780Y580D01*
X795Y580D02*
X798Y580D01*
X812Y580D02*
X825Y580D01*
X827Y580D02*
X830Y580D01*
X842Y580D02*
X845Y580D01*
X879Y580D02*
X892Y580D01*
X908Y580D02*
X911Y580D01*
X925Y580D02*
X928Y580D01*
X975Y580D02*
X992Y580D01*
X1071Y580D02*
X1092Y580D01*
X1105Y580D02*
X1123Y580D01*
X1136Y580D02*
X1157Y580D01*
X1170Y580D02*
X1189Y580D01*
X1960Y580D02*
X1967Y580D01*
X0Y579D02*
X7Y579D01*
X778Y579D02*
X779Y579D01*
X795Y579D02*
X797Y579D01*
X814Y579D02*
X823Y579D01*
X828Y579D02*
X829Y579D01*
X843Y579D02*
X844Y579D01*
X881Y579D02*
X890Y579D01*
X908Y579D02*
X910Y579D01*
X926Y579D02*
X928Y579D01*
X977Y579D02*
X991Y579D01*
X1071Y579D02*
X1091Y579D01*
X1106Y579D02*
X1122Y579D01*
X1136Y579D02*
X1156Y579D01*
X1172Y579D02*
X1187Y579D01*
X1960Y579D02*
X1967Y579D01*
X0Y578D02*
X7Y578D01*
X1960Y578D02*
X1967Y578D01*
X0Y577D02*
X7Y577D01*
X1960Y577D02*
X1967Y577D01*
X0Y576D02*
X7Y576D01*
X1960Y576D02*
X1967Y576D01*
X0Y575D02*
X7Y575D01*
X1960Y575D02*
X1967Y575D01*
X0Y574D02*
X7Y574D01*
X1960Y574D02*
X1967Y574D01*
X0Y573D02*
X7Y573D01*
X1960Y573D02*
X1967Y573D01*
X0Y572D02*
X7Y572D01*
X1960Y572D02*
X1967Y572D01*
X0Y571D02*
X7Y571D01*
X1960Y571D02*
X1967Y571D01*
X0Y570D02*
X7Y570D01*
X1960Y570D02*
X1967Y570D01*
X0Y569D02*
X7Y569D01*
X1960Y569D02*
X1967Y569D01*
X0Y568D02*
X7Y568D01*
X1960Y568D02*
X1967Y568D01*
X0Y567D02*
X7Y567D01*
X1960Y567D02*
X1967Y567D01*
X0Y566D02*
X7Y566D01*
X1960Y566D02*
X1967Y566D01*
X0Y565D02*
X7Y565D01*
X1960Y565D02*
X1967Y565D01*
X0Y564D02*
X7Y564D01*
X1960Y564D02*
X1967Y564D01*
X0Y563D02*
X7Y563D01*
X1960Y563D02*
X1967Y563D01*
X0Y562D02*
X7Y562D01*
X1960Y562D02*
X1967Y562D01*
X0Y561D02*
X7Y561D01*
X1960Y561D02*
X1967Y561D01*
X0Y560D02*
X7Y560D01*
X1960Y560D02*
X1967Y560D01*
X0Y559D02*
X7Y559D01*
X1960Y559D02*
X1967Y559D01*
X0Y558D02*
X7Y558D01*
X1960Y558D02*
X1967Y558D01*
X0Y557D02*
X7Y557D01*
X1960Y557D02*
X1967Y557D01*
X0Y556D02*
X7Y556D01*
X1960Y556D02*
X1967Y556D01*
X0Y555D02*
X7Y555D01*
X1960Y555D02*
X1967Y555D01*
X0Y554D02*
X7Y554D01*
X1960Y554D02*
X1967Y554D01*
X0Y553D02*
X7Y553D01*
X1960Y553D02*
X1967Y553D01*
X0Y552D02*
X7Y552D01*
X1960Y552D02*
X1967Y552D01*
X0Y551D02*
X7Y551D01*
X1960Y551D02*
X1967Y551D01*
X0Y550D02*
X7Y550D01*
X1960Y550D02*
X1967Y550D01*
X0Y549D02*
X7Y549D01*
X1960Y549D02*
X1967Y549D01*
X0Y548D02*
X7Y548D01*
X1960Y548D02*
X1967Y548D01*
X0Y547D02*
X7Y547D01*
X1960Y547D02*
X1967Y547D01*
X0Y546D02*
X7Y546D01*
X1960Y546D02*
X1967Y546D01*
X0Y545D02*
X7Y545D01*
X1960Y545D02*
X1967Y545D01*
X0Y544D02*
X7Y544D01*
X1960Y544D02*
X1967Y544D01*
X0Y543D02*
X7Y543D01*
X1960Y543D02*
X1967Y543D01*
X0Y542D02*
X7Y542D01*
X1960Y542D02*
X1967Y542D01*
X0Y541D02*
X7Y541D01*
X1960Y541D02*
X1967Y541D01*
X0Y540D02*
X7Y540D01*
X1960Y540D02*
X1967Y540D01*
X0Y539D02*
X7Y539D01*
X1960Y539D02*
X1967Y539D01*
X0Y538D02*
X7Y538D01*
X1960Y538D02*
X1967Y538D01*
X0Y537D02*
X7Y537D01*
X1960Y537D02*
X1967Y537D01*
X0Y536D02*
X7Y536D01*
X1211Y536D02*
X1238Y536D01*
X1263Y536D02*
X1290Y536D01*
X1960Y536D02*
X1967Y536D01*
X0Y535D02*
X7Y535D01*
X1211Y535D02*
X1240Y535D01*
X1262Y535D02*
X1292Y535D01*
X1960Y535D02*
X1967Y535D01*
X0Y534D02*
X7Y534D01*
X1211Y534D02*
X1241Y534D01*
X1261Y534D02*
X1293Y534D01*
X1960Y534D02*
X1967Y534D01*
X0Y533D02*
X7Y533D01*
X1211Y533D02*
X1242Y533D01*
X1261Y533D02*
X1294Y533D01*
X1960Y533D02*
X1967Y533D01*
X0Y532D02*
X7Y532D01*
X1211Y532D02*
X1243Y532D01*
X1261Y532D02*
X1294Y532D01*
X1960Y532D02*
X1967Y532D01*
X0Y531D02*
X7Y531D01*
X1211Y531D02*
X1243Y531D01*
X1262Y531D02*
X1294Y531D01*
X1960Y531D02*
X1967Y531D01*
X0Y530D02*
X7Y530D01*
X1211Y530D02*
X1244Y530D01*
X1263Y530D02*
X1295Y530D01*
X1960Y530D02*
X1967Y530D01*
X0Y529D02*
X7Y529D01*
X1211Y529D02*
X1217Y529D01*
X1237Y529D02*
X1244Y529D01*
X1289Y529D02*
X1295Y529D01*
X1960Y529D02*
X1967Y529D01*
X0Y528D02*
X7Y528D01*
X1211Y528D02*
X1217Y528D01*
X1238Y528D02*
X1244Y528D01*
X1289Y528D02*
X1295Y528D01*
X1960Y528D02*
X1967Y528D01*
X0Y527D02*
X7Y527D01*
X1211Y527D02*
X1217Y527D01*
X1238Y527D02*
X1245Y527D01*
X1289Y527D02*
X1295Y527D01*
X1960Y527D02*
X1967Y527D01*
X0Y526D02*
X7Y526D01*
X1211Y526D02*
X1217Y526D01*
X1239Y526D02*
X1245Y526D01*
X1289Y526D02*
X1295Y526D01*
X1960Y526D02*
X1967Y526D01*
X0Y525D02*
X7Y525D01*
X1211Y525D02*
X1217Y525D01*
X1239Y525D02*
X1245Y525D01*
X1289Y525D02*
X1295Y525D01*
X1960Y525D02*
X1967Y525D01*
X0Y524D02*
X7Y524D01*
X1211Y524D02*
X1217Y524D01*
X1239Y524D02*
X1245Y524D01*
X1289Y524D02*
X1295Y524D01*
X1960Y524D02*
X1967Y524D01*
X0Y523D02*
X7Y523D01*
X1211Y523D02*
X1217Y523D01*
X1239Y523D02*
X1245Y523D01*
X1289Y523D02*
X1295Y523D01*
X1960Y523D02*
X1967Y523D01*
X0Y522D02*
X7Y522D01*
X1211Y522D02*
X1217Y522D01*
X1239Y522D02*
X1245Y522D01*
X1289Y522D02*
X1295Y522D01*
X1960Y522D02*
X1967Y522D01*
X0Y521D02*
X7Y521D01*
X1211Y521D02*
X1217Y521D01*
X1238Y521D02*
X1245Y521D01*
X1289Y521D02*
X1295Y521D01*
X1960Y521D02*
X1967Y521D01*
X0Y520D02*
X7Y520D01*
X1211Y520D02*
X1217Y520D01*
X1237Y520D02*
X1244Y520D01*
X1289Y520D02*
X1295Y520D01*
X1960Y520D02*
X1967Y520D01*
X0Y519D02*
X7Y519D01*
X1211Y519D02*
X1217Y519D01*
X1236Y519D02*
X1244Y519D01*
X1289Y519D02*
X1295Y519D01*
X1960Y519D02*
X1967Y519D01*
X0Y518D02*
X7Y518D01*
X1211Y518D02*
X1244Y518D01*
X1289Y518D02*
X1295Y518D01*
X1960Y518D02*
X1967Y518D01*
X0Y517D02*
X7Y517D01*
X1211Y517D02*
X1243Y517D01*
X1289Y517D02*
X1295Y517D01*
X1960Y517D02*
X1967Y517D01*
X0Y516D02*
X7Y516D01*
X1100Y516D02*
X1148Y516D01*
X1211Y516D02*
X1242Y516D01*
X1289Y516D02*
X1295Y516D01*
X1349Y516D02*
X1415Y516D01*
X1960Y516D02*
X1967Y516D01*
X0Y515D02*
X7Y515D01*
X1101Y515D02*
X1148Y515D01*
X1211Y515D02*
X1241Y515D01*
X1289Y515D02*
X1295Y515D01*
X1349Y515D02*
X1415Y515D01*
X1960Y515D02*
X1967Y515D01*
X0Y514D02*
X7Y514D01*
X1101Y514D02*
X1148Y514D01*
X1211Y514D02*
X1240Y514D01*
X1289Y514D02*
X1295Y514D01*
X1349Y514D02*
X1415Y514D01*
X1960Y514D02*
X1967Y514D01*
X0Y513D02*
X7Y513D01*
X1101Y513D02*
X1148Y513D01*
X1211Y513D02*
X1239Y513D01*
X1268Y513D02*
X1295Y513D01*
X1349Y513D02*
X1415Y513D01*
X1960Y513D02*
X1967Y513D01*
X0Y512D02*
X7Y512D01*
X1101Y512D02*
X1148Y512D01*
X1211Y512D02*
X1235Y512D01*
X1265Y512D02*
X1295Y512D01*
X1349Y512D02*
X1415Y512D01*
X1960Y512D02*
X1967Y512D01*
X0Y511D02*
X7Y511D01*
X1101Y511D02*
X1148Y511D01*
X1211Y511D02*
X1217Y511D01*
X1223Y511D02*
X1231Y511D01*
X1263Y511D02*
X1294Y511D01*
X1349Y511D02*
X1415Y511D01*
X1960Y511D02*
X1967Y511D01*
X0Y510D02*
X7Y510D01*
X1101Y510D02*
X1148Y510D01*
X1211Y510D02*
X1217Y510D01*
X1224Y510D02*
X1231Y510D01*
X1262Y510D02*
X1294Y510D01*
X1349Y510D02*
X1415Y510D01*
X1960Y510D02*
X1967Y510D01*
X0Y509D02*
X7Y509D01*
X1101Y509D02*
X1148Y509D01*
X1211Y509D02*
X1217Y509D01*
X1225Y509D02*
X1232Y509D01*
X1262Y509D02*
X1293Y509D01*
X1349Y509D02*
X1415Y509D01*
X1960Y509D02*
X1967Y509D01*
X0Y508D02*
X7Y508D01*
X1101Y508D02*
X1148Y508D01*
X1211Y508D02*
X1217Y508D01*
X1225Y508D02*
X1232Y508D01*
X1261Y508D02*
X1292Y508D01*
X1349Y508D02*
X1415Y508D01*
X1960Y508D02*
X1967Y508D01*
X0Y507D02*
X7Y507D01*
X1101Y507D02*
X1148Y507D01*
X1211Y507D02*
X1217Y507D01*
X1226Y507D02*
X1233Y507D01*
X1261Y507D02*
X1291Y507D01*
X1349Y507D02*
X1415Y507D01*
X1960Y507D02*
X1967Y507D01*
X0Y506D02*
X7Y506D01*
X1211Y506D02*
X1217Y506D01*
X1226Y506D02*
X1234Y506D01*
X1261Y506D02*
X1267Y506D01*
X1960Y506D02*
X1967Y506D01*
X0Y505D02*
X7Y505D01*
X1211Y505D02*
X1217Y505D01*
X1227Y505D02*
X1234Y505D01*
X1261Y505D02*
X1267Y505D01*
X1960Y505D02*
X1967Y505D01*
X0Y504D02*
X7Y504D01*
X1211Y504D02*
X1217Y504D01*
X1227Y504D02*
X1235Y504D01*
X1261Y504D02*
X1267Y504D01*
X1960Y504D02*
X1967Y504D01*
X0Y503D02*
X7Y503D01*
X1211Y503D02*
X1217Y503D01*
X1228Y503D02*
X1235Y503D01*
X1261Y503D02*
X1267Y503D01*
X1960Y503D02*
X1967Y503D01*
X0Y502D02*
X7Y502D01*
X1211Y502D02*
X1217Y502D01*
X1229Y502D02*
X1236Y502D01*
X1261Y502D02*
X1267Y502D01*
X1960Y502D02*
X1967Y502D01*
X0Y501D02*
X7Y501D01*
X1211Y501D02*
X1217Y501D01*
X1229Y501D02*
X1236Y501D01*
X1261Y501D02*
X1267Y501D01*
X1960Y501D02*
X1967Y501D01*
X0Y500D02*
X7Y500D01*
X1211Y500D02*
X1217Y500D01*
X1230Y500D02*
X1237Y500D01*
X1261Y500D02*
X1267Y500D01*
X1960Y500D02*
X1967Y500D01*
X0Y499D02*
X7Y499D01*
X1211Y499D02*
X1217Y499D01*
X1230Y499D02*
X1238Y499D01*
X1261Y499D02*
X1267Y499D01*
X1960Y499D02*
X1967Y499D01*
X0Y498D02*
X7Y498D01*
X1211Y498D02*
X1217Y498D01*
X1231Y498D02*
X1238Y498D01*
X1261Y498D02*
X1267Y498D01*
X1960Y498D02*
X1967Y498D01*
X0Y497D02*
X7Y497D01*
X1211Y497D02*
X1217Y497D01*
X1232Y497D02*
X1239Y497D01*
X1261Y497D02*
X1267Y497D01*
X1960Y497D02*
X1967Y497D01*
X0Y496D02*
X7Y496D01*
X1211Y496D02*
X1217Y496D01*
X1232Y496D02*
X1239Y496D01*
X1261Y496D02*
X1267Y496D01*
X1960Y496D02*
X1967Y496D01*
X0Y495D02*
X7Y495D01*
X1211Y495D02*
X1217Y495D01*
X1233Y495D02*
X1240Y495D01*
X1261Y495D02*
X1267Y495D01*
X1960Y495D02*
X1967Y495D01*
X0Y494D02*
X7Y494D01*
X1211Y494D02*
X1217Y494D01*
X1233Y494D02*
X1241Y494D01*
X1261Y494D02*
X1267Y494D01*
X1960Y494D02*
X1967Y494D01*
X0Y493D02*
X7Y493D01*
X1211Y493D02*
X1217Y493D01*
X1234Y493D02*
X1241Y493D01*
X1261Y493D02*
X1267Y493D01*
X1960Y493D02*
X1967Y493D01*
X0Y492D02*
X7Y492D01*
X1211Y492D02*
X1217Y492D01*
X1234Y492D02*
X1242Y492D01*
X1261Y492D02*
X1267Y492D01*
X1960Y492D02*
X1967Y492D01*
X0Y491D02*
X7Y491D01*
X1211Y491D02*
X1217Y491D01*
X1235Y491D02*
X1242Y491D01*
X1261Y491D02*
X1267Y491D01*
X1960Y491D02*
X1967Y491D01*
X0Y490D02*
X7Y490D01*
X1211Y490D02*
X1217Y490D01*
X1236Y490D02*
X1243Y490D01*
X1261Y490D02*
X1267Y490D01*
X1960Y490D02*
X1967Y490D01*
X0Y489D02*
X7Y489D01*
X1211Y489D02*
X1217Y489D01*
X1236Y489D02*
X1243Y489D01*
X1261Y489D02*
X1293Y489D01*
X1960Y489D02*
X1967Y489D01*
X0Y488D02*
X7Y488D01*
X1211Y488D02*
X1217Y488D01*
X1237Y488D02*
X1244Y488D01*
X1261Y488D02*
X1294Y488D01*
X1960Y488D02*
X1967Y488D01*
X0Y487D02*
X7Y487D01*
X1211Y487D02*
X1217Y487D01*
X1237Y487D02*
X1244Y487D01*
X1261Y487D02*
X1294Y487D01*
X1960Y487D02*
X1967Y487D01*
X0Y486D02*
X7Y486D01*
X1211Y486D02*
X1217Y486D01*
X1238Y486D02*
X1245Y486D01*
X1261Y486D02*
X1295Y486D01*
X1960Y486D02*
X1967Y486D01*
X0Y485D02*
X7Y485D01*
X1211Y485D02*
X1217Y485D01*
X1239Y485D02*
X1244Y485D01*
X1261Y485D02*
X1294Y485D01*
X1960Y485D02*
X1967Y485D01*
X0Y484D02*
X7Y484D01*
X1212Y484D02*
X1216Y484D01*
X1239Y484D02*
X1244Y484D01*
X1261Y484D02*
X1294Y484D01*
X1960Y484D02*
X1967Y484D01*
X0Y483D02*
X7Y483D01*
X1213Y483D02*
X1215Y483D01*
X1240Y483D02*
X1243Y483D01*
X1261Y483D02*
X1293Y483D01*
X1960Y483D02*
X1967Y483D01*
X0Y482D02*
X7Y482D01*
X1960Y482D02*
X1967Y482D01*
X0Y481D02*
X7Y481D01*
X1960Y481D02*
X1967Y481D01*
X0Y480D02*
X7Y480D01*
X1960Y480D02*
X1967Y480D01*
X0Y479D02*
X7Y479D01*
X1960Y479D02*
X1967Y479D01*
X0Y478D02*
X7Y478D01*
X312Y478D02*
X321Y478D01*
X1960Y478D02*
X1967Y478D01*
X0Y477D02*
X7Y477D01*
X312Y477D02*
X321Y477D01*
X1960Y477D02*
X1967Y477D01*
X0Y476D02*
X7Y476D01*
X312Y476D02*
X321Y476D01*
X1960Y476D02*
X1967Y476D01*
X0Y475D02*
X7Y475D01*
X312Y475D02*
X321Y475D01*
X1960Y475D02*
X1967Y475D01*
X0Y474D02*
X7Y474D01*
X312Y474D02*
X321Y474D01*
X1960Y474D02*
X1967Y474D01*
X0Y473D02*
X7Y473D01*
X312Y473D02*
X321Y473D01*
X1960Y473D02*
X1967Y473D01*
X0Y472D02*
X7Y472D01*
X312Y472D02*
X321Y472D01*
X1960Y472D02*
X1967Y472D01*
X0Y471D02*
X7Y471D01*
X312Y471D02*
X321Y471D01*
X1960Y471D02*
X1967Y471D01*
X0Y470D02*
X7Y470D01*
X312Y470D02*
X321Y470D01*
X1960Y470D02*
X1967Y470D01*
X0Y469D02*
X7Y469D01*
X312Y469D02*
X321Y469D01*
X1960Y469D02*
X1967Y469D01*
X0Y468D02*
X7Y468D01*
X312Y468D02*
X321Y468D01*
X1960Y468D02*
X1967Y468D01*
X0Y467D02*
X7Y467D01*
X312Y467D02*
X321Y467D01*
X1960Y467D02*
X1967Y467D01*
X0Y466D02*
X7Y466D01*
X312Y466D02*
X321Y466D01*
X1960Y466D02*
X1967Y466D01*
X0Y465D02*
X7Y465D01*
X312Y465D02*
X321Y465D01*
X1960Y465D02*
X1967Y465D01*
X0Y464D02*
X7Y464D01*
X312Y464D02*
X321Y464D01*
X1960Y464D02*
X1967Y464D01*
X0Y463D02*
X7Y463D01*
X312Y463D02*
X321Y463D01*
X1960Y463D02*
X1967Y463D01*
X0Y462D02*
X7Y462D01*
X312Y462D02*
X321Y462D01*
X1960Y462D02*
X1967Y462D01*
X0Y461D02*
X7Y461D01*
X312Y461D02*
X321Y461D01*
X1960Y461D02*
X1967Y461D01*
X0Y460D02*
X7Y460D01*
X312Y460D02*
X321Y460D01*
X1960Y460D02*
X1967Y460D01*
X0Y459D02*
X7Y459D01*
X312Y459D02*
X321Y459D01*
X1960Y459D02*
X1967Y459D01*
X0Y458D02*
X7Y458D01*
X312Y458D02*
X321Y458D01*
X1960Y458D02*
X1967Y458D01*
X0Y457D02*
X7Y457D01*
X312Y457D02*
X321Y457D01*
X1960Y457D02*
X1967Y457D01*
X0Y456D02*
X7Y456D01*
X312Y456D02*
X321Y456D01*
X1960Y456D02*
X1967Y456D01*
X0Y455D02*
X7Y455D01*
X312Y455D02*
X321Y455D01*
X1960Y455D02*
X1967Y455D01*
X0Y454D02*
X7Y454D01*
X312Y454D02*
X321Y454D01*
X1960Y454D02*
X1967Y454D01*
X0Y453D02*
X7Y453D01*
X312Y453D02*
X321Y453D01*
X1960Y453D02*
X1967Y453D01*
X0Y452D02*
X7Y452D01*
X312Y452D02*
X321Y452D01*
X1960Y452D02*
X1967Y452D01*
X0Y451D02*
X7Y451D01*
X312Y451D02*
X321Y451D01*
X1960Y451D02*
X1967Y451D01*
X0Y450D02*
X7Y450D01*
X312Y450D02*
X321Y450D01*
X1960Y450D02*
X1967Y450D01*
X0Y449D02*
X7Y449D01*
X312Y449D02*
X321Y449D01*
X1960Y449D02*
X1967Y449D01*
X0Y448D02*
X7Y448D01*
X312Y448D02*
X321Y448D01*
X1960Y448D02*
X1967Y448D01*
X0Y447D02*
X7Y447D01*
X312Y447D02*
X321Y447D01*
X1960Y447D02*
X1967Y447D01*
X0Y446D02*
X7Y446D01*
X312Y446D02*
X321Y446D01*
X1960Y446D02*
X1967Y446D01*
X0Y445D02*
X7Y445D01*
X312Y445D02*
X321Y445D01*
X1960Y445D02*
X1967Y445D01*
X0Y444D02*
X7Y444D01*
X312Y444D02*
X321Y444D01*
X1960Y444D02*
X1967Y444D01*
X0Y443D02*
X7Y443D01*
X312Y443D02*
X321Y443D01*
X1960Y443D02*
X1967Y443D01*
X0Y442D02*
X7Y442D01*
X312Y442D02*
X321Y442D01*
X1960Y442D02*
X1967Y442D01*
X0Y441D02*
X7Y441D01*
X312Y441D02*
X321Y441D01*
X1960Y441D02*
X1967Y441D01*
X0Y440D02*
X7Y440D01*
X312Y440D02*
X321Y440D01*
X1960Y440D02*
X1967Y440D01*
X0Y439D02*
X7Y439D01*
X312Y439D02*
X321Y439D01*
X1960Y439D02*
X1967Y439D01*
X0Y438D02*
X7Y438D01*
X312Y438D02*
X321Y438D01*
X1960Y438D02*
X1967Y438D01*
X0Y437D02*
X7Y437D01*
X312Y437D02*
X321Y437D01*
X1960Y437D02*
X1967Y437D01*
X0Y436D02*
X7Y436D01*
X312Y436D02*
X321Y436D01*
X1960Y436D02*
X1967Y436D01*
X0Y435D02*
X7Y435D01*
X312Y435D02*
X321Y435D01*
X1960Y435D02*
X1967Y435D01*
X0Y434D02*
X7Y434D01*
X312Y434D02*
X321Y434D01*
X1960Y434D02*
X1967Y434D01*
X0Y433D02*
X7Y433D01*
X312Y433D02*
X321Y433D01*
X1960Y433D02*
X1967Y433D01*
X0Y432D02*
X7Y432D01*
X312Y432D02*
X321Y432D01*
X1960Y432D02*
X1967Y432D01*
X0Y431D02*
X7Y431D01*
X312Y431D02*
X321Y431D01*
X1960Y431D02*
X1967Y431D01*
X0Y430D02*
X7Y430D01*
X312Y430D02*
X321Y430D01*
X1960Y430D02*
X1967Y430D01*
X0Y429D02*
X7Y429D01*
X312Y429D02*
X321Y429D01*
X1960Y429D02*
X1967Y429D01*
X0Y428D02*
X7Y428D01*
X312Y428D02*
X321Y428D01*
X1960Y428D02*
X1967Y428D01*
X0Y427D02*
X7Y427D01*
X312Y427D02*
X321Y427D01*
X1960Y427D02*
X1967Y427D01*
X0Y426D02*
X7Y426D01*
X312Y426D02*
X321Y426D01*
X1960Y426D02*
X1967Y426D01*
X0Y425D02*
X7Y425D01*
X312Y425D02*
X321Y425D01*
X1960Y425D02*
X1967Y425D01*
X0Y424D02*
X7Y424D01*
X312Y424D02*
X321Y424D01*
X1960Y424D02*
X1967Y424D01*
X0Y423D02*
X7Y423D01*
X312Y423D02*
X321Y423D01*
X1960Y423D02*
X1967Y423D01*
X0Y422D02*
X7Y422D01*
X312Y422D02*
X321Y422D01*
X1960Y422D02*
X1967Y422D01*
X0Y421D02*
X7Y421D01*
X312Y421D02*
X321Y421D01*
X1960Y421D02*
X1967Y421D01*
X0Y420D02*
X7Y420D01*
X312Y420D02*
X321Y420D01*
X1960Y420D02*
X1967Y420D01*
X0Y419D02*
X7Y419D01*
X312Y419D02*
X321Y419D01*
X1960Y419D02*
X1967Y419D01*
X0Y418D02*
X7Y418D01*
X312Y418D02*
X321Y418D01*
X1960Y418D02*
X1967Y418D01*
X0Y417D02*
X7Y417D01*
X312Y417D02*
X321Y417D01*
X1960Y417D02*
X1967Y417D01*
X0Y416D02*
X7Y416D01*
X312Y416D02*
X321Y416D01*
X1960Y416D02*
X1967Y416D01*
X0Y415D02*
X7Y415D01*
X312Y415D02*
X321Y415D01*
X1960Y415D02*
X1967Y415D01*
X0Y414D02*
X7Y414D01*
X312Y414D02*
X321Y414D01*
X1960Y414D02*
X1967Y414D01*
X0Y413D02*
X7Y413D01*
X312Y413D02*
X321Y413D01*
X1960Y413D02*
X1967Y413D01*
X0Y412D02*
X7Y412D01*
X312Y412D02*
X321Y412D01*
X1960Y412D02*
X1967Y412D01*
X0Y411D02*
X7Y411D01*
X1960Y411D02*
X1967Y411D01*
X0Y410D02*
X7Y410D01*
X1960Y410D02*
X1967Y410D01*
X0Y409D02*
X7Y409D01*
X1960Y409D02*
X1967Y409D01*
X0Y408D02*
X7Y408D01*
X1960Y408D02*
X1967Y408D01*
X0Y407D02*
X7Y407D01*
X1960Y407D02*
X1967Y407D01*
X0Y406D02*
X7Y406D01*
X1960Y406D02*
X1967Y406D01*
X0Y405D02*
X7Y405D01*
X1960Y405D02*
X1967Y405D01*
X0Y404D02*
X7Y404D01*
X1960Y404D02*
X1967Y404D01*
X0Y403D02*
X7Y403D01*
X1960Y403D02*
X1967Y403D01*
X0Y402D02*
X7Y402D01*
X1960Y402D02*
X1967Y402D01*
X0Y401D02*
X7Y401D01*
X1960Y401D02*
X1967Y401D01*
X0Y400D02*
X7Y400D01*
X1960Y400D02*
X1967Y400D01*
X0Y399D02*
X7Y399D01*
X1960Y399D02*
X1967Y399D01*
X0Y398D02*
X7Y398D01*
X1960Y398D02*
X1967Y398D01*
X0Y397D02*
X7Y397D01*
X1960Y397D02*
X1967Y397D01*
X0Y396D02*
X7Y396D01*
X1960Y396D02*
X1967Y396D01*
X0Y395D02*
X7Y395D01*
X1960Y395D02*
X1967Y395D01*
X0Y394D02*
X7Y394D01*
X1960Y394D02*
X1967Y394D01*
X0Y393D02*
X7Y393D01*
X1960Y393D02*
X1967Y393D01*
X0Y392D02*
X7Y392D01*
X1960Y392D02*
X1967Y392D01*
X0Y391D02*
X7Y391D01*
X1960Y391D02*
X1967Y391D01*
X0Y390D02*
X7Y390D01*
X1960Y390D02*
X1967Y390D01*
X0Y389D02*
X7Y389D01*
X1960Y389D02*
X1967Y389D01*
X0Y388D02*
X7Y388D01*
X1960Y388D02*
X1967Y388D01*
X0Y387D02*
X7Y387D01*
X1960Y387D02*
X1967Y387D01*
X0Y386D02*
X7Y386D01*
X1960Y386D02*
X1967Y386D01*
X0Y385D02*
X7Y385D01*
X1960Y385D02*
X1967Y385D01*
X0Y384D02*
X7Y384D01*
X1960Y384D02*
X1967Y384D01*
X0Y383D02*
X7Y383D01*
X1960Y383D02*
X1967Y383D01*
X0Y382D02*
X7Y382D01*
X1960Y382D02*
X1967Y382D01*
X0Y381D02*
X7Y381D01*
X1960Y381D02*
X1967Y381D01*
X0Y380D02*
X7Y380D01*
X1960Y380D02*
X1967Y380D01*
X0Y379D02*
X7Y379D01*
X1960Y379D02*
X1967Y379D01*
X0Y378D02*
X7Y378D01*
X1960Y378D02*
X1967Y378D01*
X0Y377D02*
X7Y377D01*
X1960Y377D02*
X1967Y377D01*
X0Y376D02*
X7Y376D01*
X1960Y376D02*
X1967Y376D01*
X0Y375D02*
X7Y375D01*
X1960Y375D02*
X1967Y375D01*
X0Y374D02*
X7Y374D01*
X1960Y374D02*
X1967Y374D01*
X0Y373D02*
X7Y373D01*
X1960Y373D02*
X1967Y373D01*
X0Y372D02*
X7Y372D01*
X1960Y372D02*
X1967Y372D01*
X0Y371D02*
X7Y371D01*
X1960Y371D02*
X1967Y371D01*
X0Y370D02*
X7Y370D01*
X1960Y370D02*
X1967Y370D01*
X0Y369D02*
X7Y369D01*
X1960Y369D02*
X1967Y369D01*
X0Y368D02*
X7Y368D01*
X1960Y368D02*
X1967Y368D01*
X0Y367D02*
X7Y367D01*
X1960Y367D02*
X1967Y367D01*
X0Y366D02*
X7Y366D01*
X1960Y366D02*
X1967Y366D01*
X0Y365D02*
X7Y365D01*
X1960Y365D02*
X1967Y365D01*
X0Y364D02*
X7Y364D01*
X1960Y364D02*
X1967Y364D01*
X0Y363D02*
X7Y363D01*
X1960Y363D02*
X1967Y363D01*
X0Y362D02*
X7Y362D01*
X1960Y362D02*
X1967Y362D01*
X0Y361D02*
X7Y361D01*
X1960Y361D02*
X1967Y361D01*
X0Y360D02*
X7Y360D01*
X1960Y360D02*
X1967Y360D01*
X0Y359D02*
X7Y359D01*
X1960Y359D02*
X1967Y359D01*
X0Y358D02*
X7Y358D01*
X1960Y358D02*
X1967Y358D01*
X0Y357D02*
X7Y357D01*
X1960Y357D02*
X1967Y357D01*
X0Y356D02*
X7Y356D01*
X1960Y356D02*
X1967Y356D01*
X0Y355D02*
X7Y355D01*
X1960Y355D02*
X1967Y355D01*
X0Y354D02*
X7Y354D01*
X324Y354D02*
X345Y354D01*
X1960Y354D02*
X1967Y354D01*
X0Y353D02*
X7Y353D01*
X323Y353D02*
X346Y353D01*
X1960Y353D02*
X1967Y353D01*
X0Y352D02*
X7Y352D01*
X323Y352D02*
X346Y352D01*
X1960Y352D02*
X1967Y352D01*
X0Y351D02*
X7Y351D01*
X323Y351D02*
X346Y351D01*
X1960Y351D02*
X1967Y351D01*
X0Y350D02*
X7Y350D01*
X323Y350D02*
X346Y350D01*
X1960Y350D02*
X1967Y350D01*
X0Y349D02*
X7Y349D01*
X324Y349D02*
X346Y349D01*
X1960Y349D02*
X1967Y349D01*
X0Y348D02*
X7Y348D01*
X326Y348D02*
X346Y348D01*
X1960Y348D02*
X1967Y348D01*
X0Y347D02*
X7Y347D01*
X340Y347D02*
X346Y347D01*
X1960Y347D02*
X1967Y347D01*
X0Y346D02*
X7Y346D01*
X340Y346D02*
X346Y346D01*
X1960Y346D02*
X1967Y346D01*
X0Y345D02*
X7Y345D01*
X340Y345D02*
X346Y345D01*
X1960Y345D02*
X1967Y345D01*
X0Y344D02*
X7Y344D01*
X340Y344D02*
X346Y344D01*
X1960Y344D02*
X1967Y344D01*
X0Y343D02*
X7Y343D01*
X340Y343D02*
X346Y343D01*
X1960Y343D02*
X1967Y343D01*
X0Y342D02*
X7Y342D01*
X340Y342D02*
X346Y342D01*
X1960Y342D02*
X1967Y342D01*
X0Y341D02*
X7Y341D01*
X294Y341D02*
X346Y341D01*
X1960Y341D02*
X1967Y341D01*
X0Y340D02*
X7Y340D01*
X293Y340D02*
X346Y340D01*
X1960Y340D02*
X1967Y340D01*
X0Y339D02*
X7Y339D01*
X293Y339D02*
X346Y339D01*
X1960Y339D02*
X1967Y339D01*
X0Y338D02*
X7Y338D01*
X293Y338D02*
X346Y338D01*
X1960Y338D02*
X1967Y338D01*
X0Y337D02*
X7Y337D01*
X293Y337D02*
X346Y337D01*
X1960Y337D02*
X1967Y337D01*
X0Y336D02*
X7Y336D01*
X293Y336D02*
X346Y336D01*
X1960Y336D02*
X1967Y336D01*
X0Y335D02*
X7Y335D01*
X293Y335D02*
X346Y335D01*
X1960Y335D02*
X1967Y335D01*
X0Y334D02*
X7Y334D01*
X293Y334D02*
X300Y334D01*
X340Y334D02*
X346Y334D01*
X1960Y334D02*
X1967Y334D01*
X0Y333D02*
X7Y333D01*
X293Y333D02*
X299Y333D01*
X340Y333D02*
X346Y333D01*
X1960Y333D02*
X1967Y333D01*
X0Y332D02*
X7Y332D01*
X293Y332D02*
X299Y332D01*
X340Y332D02*
X346Y332D01*
X1960Y332D02*
X1967Y332D01*
X0Y331D02*
X7Y331D01*
X293Y331D02*
X299Y331D01*
X340Y331D02*
X346Y331D01*
X1960Y331D02*
X1967Y331D01*
X0Y330D02*
X7Y330D01*
X293Y330D02*
X299Y330D01*
X340Y330D02*
X346Y330D01*
X1960Y330D02*
X1967Y330D01*
X0Y329D02*
X7Y329D01*
X293Y329D02*
X299Y329D01*
X340Y329D02*
X346Y329D01*
X1960Y329D02*
X1967Y329D01*
X0Y328D02*
X7Y328D01*
X293Y328D02*
X299Y328D01*
X340Y328D02*
X346Y328D01*
X1960Y328D02*
X1967Y328D01*
X0Y327D02*
X7Y327D01*
X293Y327D02*
X299Y327D01*
X340Y327D02*
X346Y327D01*
X1960Y327D02*
X1967Y327D01*
X0Y326D02*
X7Y326D01*
X293Y326D02*
X299Y326D01*
X340Y326D02*
X346Y326D01*
X1960Y326D02*
X1967Y326D01*
X0Y325D02*
X7Y325D01*
X293Y325D02*
X299Y325D01*
X340Y325D02*
X346Y325D01*
X1960Y325D02*
X1967Y325D01*
X0Y324D02*
X7Y324D01*
X293Y324D02*
X299Y324D01*
X340Y324D02*
X346Y324D01*
X1960Y324D02*
X1967Y324D01*
X0Y323D02*
X7Y323D01*
X293Y323D02*
X299Y323D01*
X341Y323D02*
X346Y323D01*
X1960Y323D02*
X1967Y323D01*
X0Y322D02*
X7Y322D01*
X294Y322D02*
X299Y322D01*
X341Y322D02*
X346Y322D01*
X1960Y322D02*
X1967Y322D01*
X0Y321D02*
X7Y321D01*
X295Y321D02*
X298Y321D01*
X342Y321D02*
X345Y321D01*
X1960Y321D02*
X1967Y321D01*
X0Y320D02*
X7Y320D01*
X1960Y320D02*
X1967Y320D01*
X0Y319D02*
X7Y319D01*
X1960Y319D02*
X1967Y319D01*
X0Y318D02*
X7Y318D01*
X1960Y318D02*
X1967Y318D01*
X0Y317D02*
X7Y317D01*
X1960Y317D02*
X1967Y317D01*
X0Y316D02*
X7Y316D01*
X1960Y316D02*
X1967Y316D01*
X0Y315D02*
X7Y315D01*
X1960Y315D02*
X1967Y315D01*
X0Y314D02*
X7Y314D01*
X1960Y314D02*
X1967Y314D01*
X0Y313D02*
X7Y313D01*
X1960Y313D02*
X1967Y313D01*
X0Y312D02*
X7Y312D01*
X1960Y312D02*
X1967Y312D01*
X0Y311D02*
X7Y311D01*
X1960Y311D02*
X1967Y311D01*
X0Y310D02*
X7Y310D01*
X798Y310D02*
X803Y310D01*
X1960Y310D02*
X1967Y310D01*
X0Y309D02*
X7Y309D01*
X798Y309D02*
X803Y309D01*
X1960Y309D02*
X1967Y309D01*
X0Y308D02*
X7Y308D01*
X558Y308D02*
X570Y308D01*
X798Y308D02*
X804Y308D01*
X891Y308D02*
X912Y308D01*
X924Y308D02*
X929Y308D01*
X941Y308D02*
X946Y308D01*
X960Y308D02*
X976Y308D01*
X1960Y308D02*
X1967Y308D01*
X0Y307D02*
X7Y307D01*
X558Y307D02*
X572Y307D01*
X798Y307D02*
X804Y307D01*
X891Y307D02*
X913Y307D01*
X924Y307D02*
X930Y307D01*
X940Y307D02*
X946Y307D01*
X959Y307D02*
X977Y307D01*
X1960Y307D02*
X1967Y307D01*
X0Y306D02*
X7Y306D01*
X557Y306D02*
X573Y306D01*
X629Y306D02*
X632Y306D01*
X763Y306D02*
X765Y306D01*
X798Y306D02*
X803Y306D01*
X891Y306D02*
X913Y306D01*
X924Y306D02*
X931Y306D01*
X939Y306D02*
X946Y306D01*
X958Y306D02*
X978Y306D01*
X1960Y306D02*
X1967Y306D01*
X0Y305D02*
X7Y305D01*
X558Y305D02*
X573Y305D01*
X629Y305D02*
X632Y305D01*
X762Y305D02*
X766Y305D01*
X798Y305D02*
X803Y305D01*
X891Y305D02*
X912Y305D01*
X924Y305D02*
X932Y305D01*
X939Y305D02*
X946Y305D01*
X958Y305D02*
X979Y305D01*
X1960Y305D02*
X1967Y305D01*
X0Y304D02*
X7Y304D01*
X300Y304D02*
X311Y304D01*
X341Y304D02*
X345Y304D01*
X562Y304D02*
X566Y304D01*
X568Y304D02*
X574Y304D01*
X629Y304D02*
X632Y304D01*
X762Y304D02*
X766Y304D01*
X891Y304D02*
X895Y304D01*
X924Y304D02*
X932Y304D01*
X938Y304D02*
X946Y304D01*
X958Y304D02*
X962Y304D01*
X974Y304D02*
X979Y304D01*
X1960Y304D02*
X1967Y304D01*
X0Y303D02*
X7Y303D01*
X298Y303D02*
X312Y303D01*
X340Y303D02*
X346Y303D01*
X562Y303D02*
X566Y303D01*
X570Y303D02*
X574Y303D01*
X629Y303D02*
X632Y303D01*
X762Y303D02*
X766Y303D01*
X891Y303D02*
X894Y303D01*
X924Y303D02*
X933Y303D01*
X937Y303D02*
X946Y303D01*
X958Y303D02*
X961Y303D01*
X975Y303D02*
X979Y303D01*
X1960Y303D02*
X1967Y303D01*
X0Y302D02*
X7Y302D01*
X297Y302D02*
X314Y302D01*
X338Y302D02*
X346Y302D01*
X562Y302D02*
X566Y302D01*
X571Y302D02*
X575Y302D01*
X629Y302D02*
X632Y302D01*
X762Y302D02*
X766Y302D01*
X891Y302D02*
X894Y302D01*
X924Y302D02*
X934Y302D01*
X937Y302D02*
X946Y302D01*
X958Y302D02*
X962Y302D01*
X976Y302D02*
X979Y302D01*
X1960Y302D02*
X1967Y302D01*
X0Y301D02*
X7Y301D01*
X296Y301D02*
X315Y301D01*
X336Y301D02*
X346Y301D01*
X562Y301D02*
X566Y301D01*
X571Y301D02*
X575Y301D01*
X629Y301D02*
X632Y301D01*
X762Y301D02*
X766Y301D01*
X891Y301D02*
X894Y301D01*
X924Y301D02*
X928Y301D01*
X930Y301D02*
X940Y301D01*
X942Y301D02*
X946Y301D01*
X958Y301D02*
X963Y301D01*
X976Y301D02*
X979Y301D01*
X1960Y301D02*
X1967Y301D01*
X0Y300D02*
X7Y300D01*
X295Y300D02*
X315Y300D01*
X334Y300D02*
X346Y300D01*
X562Y300D02*
X566Y300D01*
X572Y300D02*
X576Y300D01*
X629Y300D02*
X632Y300D01*
X762Y300D02*
X766Y300D01*
X891Y300D02*
X894Y300D01*
X924Y300D02*
X928Y300D01*
X930Y300D02*
X940Y300D01*
X942Y300D02*
X946Y300D01*
X959Y300D02*
X964Y300D01*
X1960Y300D02*
X1967Y300D01*
X0Y299D02*
X7Y299D01*
X294Y299D02*
X316Y299D01*
X333Y299D02*
X345Y299D01*
X562Y299D02*
X566Y299D01*
X572Y299D02*
X576Y299D01*
X628Y299D02*
X633Y299D01*
X762Y299D02*
X766Y299D01*
X891Y299D02*
X894Y299D01*
X924Y299D02*
X928Y299D01*
X931Y299D02*
X939Y299D01*
X942Y299D02*
X946Y299D01*
X960Y299D02*
X964Y299D01*
X1960Y299D02*
X1967Y299D01*
X0Y298D02*
X7Y298D01*
X294Y298D02*
X316Y298D01*
X331Y298D02*
X344Y298D01*
X562Y298D02*
X566Y298D01*
X573Y298D02*
X577Y298D01*
X596Y298D02*
X607Y298D01*
X625Y298D02*
X643Y298D01*
X663Y298D02*
X674Y298D01*
X691Y298D02*
X694Y298D01*
X700Y298D02*
X708Y298D01*
X729Y298D02*
X742Y298D01*
X758Y298D02*
X776Y298D01*
X794Y298D02*
X803Y298D01*
X829Y298D02*
X841Y298D01*
X858Y298D02*
X861Y298D01*
X867Y298D02*
X875Y298D01*
X891Y298D02*
X894Y298D01*
X924Y298D02*
X928Y298D01*
X932Y298D02*
X938Y298D01*
X942Y298D02*
X946Y298D01*
X960Y298D02*
X965Y298D01*
X1032Y298D02*
X1045Y298D01*
X1063Y298D02*
X1074Y298D01*
X1091Y298D02*
X1094Y298D01*
X1096Y298D02*
X1101Y298D01*
X1105Y298D02*
X1110Y298D01*
X1960Y298D02*
X1967Y298D01*
X0Y297D02*
X7Y297D01*
X294Y297D02*
X301Y297D01*
X310Y297D02*
X317Y297D01*
X329Y297D02*
X342Y297D01*
X562Y297D02*
X566Y297D01*
X573Y297D02*
X577Y297D01*
X594Y297D02*
X609Y297D01*
X624Y297D02*
X644Y297D01*
X661Y297D02*
X676Y297D01*
X691Y297D02*
X694Y297D01*
X698Y297D02*
X710Y297D01*
X729Y297D02*
X743Y297D01*
X758Y297D02*
X777Y297D01*
X793Y297D02*
X803Y297D01*
X828Y297D02*
X842Y297D01*
X858Y297D02*
X861Y297D01*
X865Y297D02*
X877Y297D01*
X891Y297D02*
X894Y297D01*
X924Y297D02*
X928Y297D01*
X932Y297D02*
X938Y297D01*
X942Y297D02*
X946Y297D01*
X961Y297D02*
X966Y297D01*
X1030Y297D02*
X1046Y297D01*
X1061Y297D02*
X1076Y297D01*
X1091Y297D02*
X1102Y297D01*
X1104Y297D02*
X1111Y297D01*
X1960Y297D02*
X1967Y297D01*
X0Y296D02*
X7Y296D01*
X293Y296D02*
X300Y296D01*
X310Y296D02*
X317Y296D01*
X328Y296D02*
X341Y296D01*
X562Y296D02*
X566Y296D01*
X574Y296D02*
X578Y296D01*
X593Y296D02*
X610Y296D01*
X624Y296D02*
X643Y296D01*
X660Y296D02*
X677Y296D01*
X691Y296D02*
X694Y296D01*
X697Y296D02*
X711Y296D01*
X729Y296D02*
X744Y296D01*
X758Y296D02*
X777Y296D01*
X793Y296D02*
X804Y296D01*
X827Y296D02*
X843Y296D01*
X857Y296D02*
X861Y296D01*
X864Y296D02*
X877Y296D01*
X891Y296D02*
X894Y296D01*
X924Y296D02*
X928Y296D01*
X933Y296D02*
X937Y296D01*
X942Y296D02*
X946Y296D01*
X962Y296D02*
X967Y296D01*
X1029Y296D02*
X1046Y296D01*
X1060Y296D02*
X1077Y296D01*
X1090Y296D02*
X1112Y296D01*
X1960Y296D02*
X1967Y296D01*
X0Y295D02*
X7Y295D01*
X293Y295D02*
X299Y295D01*
X311Y295D02*
X317Y295D01*
X326Y295D02*
X339Y295D01*
X562Y295D02*
X566Y295D01*
X574Y295D02*
X578Y295D01*
X592Y295D02*
X611Y295D01*
X625Y295D02*
X643Y295D01*
X659Y295D02*
X678Y295D01*
X691Y295D02*
X711Y295D01*
X729Y295D02*
X745Y295D01*
X758Y295D02*
X776Y295D01*
X794Y295D02*
X804Y295D01*
X826Y295D02*
X844Y295D01*
X857Y295D02*
X878Y295D01*
X891Y295D02*
X894Y295D01*
X924Y295D02*
X928Y295D01*
X933Y295D02*
X937Y295D01*
X942Y295D02*
X946Y295D01*
X963Y295D02*
X968Y295D01*
X1028Y295D02*
X1045Y295D01*
X1059Y295D02*
X1078Y295D01*
X1090Y295D02*
X1112Y295D01*
X1960Y295D02*
X1967Y295D01*
X0Y294D02*
X7Y294D01*
X293Y294D02*
X299Y294D01*
X311Y294D02*
X317Y294D01*
X324Y294D02*
X337Y294D01*
X562Y294D02*
X566Y294D01*
X575Y294D02*
X579Y294D01*
X592Y294D02*
X597Y294D01*
X606Y294D02*
X612Y294D01*
X629Y294D02*
X632Y294D01*
X658Y294D02*
X664Y294D01*
X673Y294D02*
X678Y294D01*
X691Y294D02*
X701Y294D01*
X707Y294D02*
X712Y294D01*
X741Y294D02*
X745Y294D01*
X762Y294D02*
X766Y294D01*
X800Y294D02*
X804Y294D01*
X825Y294D02*
X831Y294D01*
X840Y294D02*
X845Y294D01*
X857Y294D02*
X868Y294D01*
X874Y294D02*
X878Y294D01*
X891Y294D02*
X894Y294D01*
X924Y294D02*
X928Y294D01*
X933Y294D02*
X937Y294D01*
X942Y294D02*
X946Y294D01*
X963Y294D02*
X968Y294D01*
X1027Y294D02*
X1033Y294D01*
X1059Y294D02*
X1064Y294D01*
X1073Y294D02*
X1078Y294D01*
X1090Y294D02*
X1097Y294D01*
X1100Y294D02*
X1106Y294D01*
X1108Y294D02*
X1112Y294D01*
X1960Y294D02*
X1967Y294D01*
X0Y293D02*
X7Y293D01*
X293Y293D02*
X299Y293D01*
X311Y293D02*
X317Y293D01*
X322Y293D02*
X336Y293D01*
X562Y293D02*
X566Y293D01*
X575Y293D02*
X579Y293D01*
X591Y293D02*
X596Y293D01*
X608Y293D02*
X612Y293D01*
X629Y293D02*
X632Y293D01*
X658Y293D02*
X663Y293D01*
X674Y293D02*
X679Y293D01*
X691Y293D02*
X700Y293D01*
X708Y293D02*
X712Y293D01*
X741Y293D02*
X745Y293D01*
X762Y293D02*
X766Y293D01*
X800Y293D02*
X804Y293D01*
X825Y293D02*
X829Y293D01*
X841Y293D02*
X846Y293D01*
X857Y293D02*
X867Y293D01*
X875Y293D02*
X879Y293D01*
X891Y293D02*
X902Y293D01*
X924Y293D02*
X928Y293D01*
X934Y293D02*
X936Y293D01*
X942Y293D02*
X946Y293D01*
X964Y293D02*
X969Y293D01*
X1026Y293D02*
X1032Y293D01*
X1058Y293D02*
X1063Y293D01*
X1074Y293D02*
X1079Y293D01*
X1090Y293D02*
X1096Y293D01*
X1100Y293D02*
X1105Y293D01*
X1109Y293D02*
X1112Y293D01*
X1960Y293D02*
X1967Y293D01*
X0Y292D02*
X7Y292D01*
X293Y292D02*
X299Y292D01*
X311Y292D02*
X317Y292D01*
X321Y292D02*
X334Y292D01*
X562Y292D02*
X566Y292D01*
X575Y292D02*
X579Y292D01*
X591Y292D02*
X595Y292D01*
X608Y292D02*
X612Y292D01*
X629Y292D02*
X632Y292D01*
X658Y292D02*
X662Y292D01*
X675Y292D02*
X679Y292D01*
X691Y292D02*
X698Y292D01*
X708Y292D02*
X712Y292D01*
X742Y292D02*
X745Y292D01*
X762Y292D02*
X766Y292D01*
X800Y292D02*
X804Y292D01*
X824Y292D02*
X828Y292D01*
X842Y292D02*
X846Y292D01*
X857Y292D02*
X865Y292D01*
X875Y292D02*
X879Y292D01*
X891Y292D02*
X903Y292D01*
X924Y292D02*
X928Y292D01*
X942Y292D02*
X946Y292D01*
X965Y292D02*
X970Y292D01*
X1025Y292D02*
X1030Y292D01*
X1058Y292D02*
X1062Y292D01*
X1075Y292D02*
X1079Y292D01*
X1090Y292D02*
X1095Y292D01*
X1100Y292D02*
X1104Y292D01*
X1109Y292D02*
X1112Y292D01*
X1960Y292D02*
X1967Y292D01*
X0Y291D02*
X7Y291D01*
X293Y291D02*
X299Y291D01*
X311Y291D02*
X317Y291D01*
X319Y291D02*
X332Y291D01*
X562Y291D02*
X566Y291D01*
X576Y291D02*
X579Y291D01*
X591Y291D02*
X594Y291D01*
X609Y291D02*
X613Y291D01*
X629Y291D02*
X632Y291D01*
X657Y291D02*
X661Y291D01*
X676Y291D02*
X679Y291D01*
X691Y291D02*
X697Y291D01*
X708Y291D02*
X712Y291D01*
X742Y291D02*
X745Y291D01*
X762Y291D02*
X766Y291D01*
X800Y291D02*
X804Y291D01*
X824Y291D02*
X828Y291D01*
X842Y291D02*
X846Y291D01*
X857Y291D02*
X863Y291D01*
X875Y291D02*
X879Y291D01*
X891Y291D02*
X903Y291D01*
X924Y291D02*
X928Y291D01*
X942Y291D02*
X946Y291D01*
X966Y291D02*
X971Y291D01*
X1025Y291D02*
X1029Y291D01*
X1058Y291D02*
X1061Y291D01*
X1076Y291D02*
X1079Y291D01*
X1090Y291D02*
X1094Y291D01*
X1100Y291D02*
X1104Y291D01*
X1109Y291D02*
X1112Y291D01*
X1960Y291D02*
X1967Y291D01*
X0Y290D02*
X7Y290D01*
X293Y290D02*
X299Y290D01*
X311Y290D02*
X330Y290D01*
X562Y290D02*
X566Y290D01*
X576Y290D02*
X579Y290D01*
X591Y290D02*
X594Y290D01*
X609Y290D02*
X613Y290D01*
X629Y290D02*
X632Y290D01*
X657Y290D02*
X661Y290D01*
X676Y290D02*
X679Y290D01*
X691Y290D02*
X695Y290D01*
X708Y290D02*
X712Y290D01*
X742Y290D02*
X745Y290D01*
X762Y290D02*
X766Y290D01*
X800Y290D02*
X804Y290D01*
X824Y290D02*
X828Y290D01*
X842Y290D02*
X846Y290D01*
X857Y290D02*
X862Y290D01*
X875Y290D02*
X879Y290D01*
X891Y290D02*
X903Y290D01*
X924Y290D02*
X928Y290D01*
X942Y290D02*
X946Y290D01*
X966Y290D02*
X971Y290D01*
X1024Y290D02*
X1028Y290D01*
X1058Y290D02*
X1061Y290D01*
X1076Y290D02*
X1079Y290D01*
X1090Y290D02*
X1094Y290D01*
X1100Y290D02*
X1104Y290D01*
X1109Y290D02*
X1112Y290D01*
X1960Y290D02*
X1967Y290D01*
X0Y289D02*
X7Y289D01*
X293Y289D02*
X299Y289D01*
X311Y289D02*
X329Y289D01*
X562Y289D02*
X566Y289D01*
X575Y289D02*
X579Y289D01*
X591Y289D02*
X594Y289D01*
X609Y289D02*
X613Y289D01*
X629Y289D02*
X632Y289D01*
X657Y289D02*
X661Y289D01*
X676Y289D02*
X679Y289D01*
X691Y289D02*
X694Y289D01*
X708Y289D02*
X712Y289D01*
X729Y289D02*
X745Y289D01*
X762Y289D02*
X766Y289D01*
X800Y289D02*
X804Y289D01*
X824Y289D02*
X828Y289D01*
X842Y289D02*
X846Y289D01*
X857Y289D02*
X861Y289D01*
X875Y289D02*
X879Y289D01*
X891Y289D02*
X903Y289D01*
X924Y289D02*
X928Y289D01*
X942Y289D02*
X946Y289D01*
X967Y289D02*
X972Y289D01*
X1024Y289D02*
X1028Y289D01*
X1058Y289D02*
X1061Y289D01*
X1076Y289D02*
X1079Y289D01*
X1090Y289D02*
X1094Y289D01*
X1100Y289D02*
X1104Y289D01*
X1109Y289D02*
X1113Y289D01*
X1960Y289D02*
X1967Y289D01*
X0Y288D02*
X7Y288D01*
X293Y288D02*
X299Y288D01*
X311Y288D02*
X327Y288D01*
X562Y288D02*
X566Y288D01*
X575Y288D02*
X579Y288D01*
X591Y288D02*
X594Y288D01*
X609Y288D02*
X613Y288D01*
X629Y288D02*
X632Y288D01*
X657Y288D02*
X661Y288D01*
X676Y288D02*
X679Y288D01*
X691Y288D02*
X694Y288D01*
X709Y288D02*
X712Y288D01*
X727Y288D02*
X746Y288D01*
X762Y288D02*
X766Y288D01*
X800Y288D02*
X804Y288D01*
X824Y288D02*
X828Y288D01*
X842Y288D02*
X846Y288D01*
X857Y288D02*
X861Y288D01*
X875Y288D02*
X879Y288D01*
X891Y288D02*
X894Y288D01*
X924Y288D02*
X928Y288D01*
X942Y288D02*
X946Y288D01*
X968Y288D02*
X973Y288D01*
X1024Y288D02*
X1028Y288D01*
X1058Y288D02*
X1061Y288D01*
X1076Y288D02*
X1079Y288D01*
X1090Y288D02*
X1094Y288D01*
X1100Y288D02*
X1104Y288D01*
X1109Y288D02*
X1113Y288D01*
X1960Y288D02*
X1967Y288D01*
X0Y287D02*
X7Y287D01*
X293Y287D02*
X299Y287D01*
X311Y287D02*
X325Y287D01*
X562Y287D02*
X566Y287D01*
X574Y287D02*
X578Y287D01*
X591Y287D02*
X613Y287D01*
X629Y287D02*
X632Y287D01*
X657Y287D02*
X661Y287D01*
X676Y287D02*
X679Y287D01*
X691Y287D02*
X694Y287D01*
X709Y287D02*
X712Y287D01*
X726Y287D02*
X746Y287D01*
X762Y287D02*
X766Y287D01*
X800Y287D02*
X804Y287D01*
X824Y287D02*
X828Y287D01*
X842Y287D02*
X846Y287D01*
X857Y287D02*
X861Y287D01*
X875Y287D02*
X879Y287D01*
X891Y287D02*
X894Y287D01*
X924Y287D02*
X928Y287D01*
X942Y287D02*
X946Y287D01*
X969Y287D02*
X974Y287D01*
X999Y287D02*
X1004Y287D01*
X1024Y287D02*
X1028Y287D01*
X1058Y287D02*
X1061Y287D01*
X1076Y287D02*
X1079Y287D01*
X1090Y287D02*
X1094Y287D01*
X1100Y287D02*
X1104Y287D01*
X1109Y287D02*
X1113Y287D01*
X1960Y287D02*
X1967Y287D01*
X0Y286D02*
X7Y286D01*
X293Y286D02*
X299Y286D01*
X311Y286D02*
X324Y286D01*
X562Y286D02*
X566Y286D01*
X574Y286D02*
X578Y286D01*
X591Y286D02*
X613Y286D01*
X629Y286D02*
X632Y286D01*
X657Y286D02*
X661Y286D01*
X676Y286D02*
X679Y286D01*
X691Y286D02*
X694Y286D01*
X709Y286D02*
X712Y286D01*
X725Y286D02*
X746Y286D01*
X762Y286D02*
X766Y286D01*
X800Y286D02*
X804Y286D01*
X824Y286D02*
X828Y286D01*
X842Y286D02*
X846Y286D01*
X857Y286D02*
X861Y286D01*
X875Y286D02*
X879Y286D01*
X891Y286D02*
X894Y286D01*
X924Y286D02*
X928Y286D01*
X942Y286D02*
X946Y286D01*
X970Y286D02*
X975Y286D01*
X998Y286D02*
X1006Y286D01*
X1024Y286D02*
X1028Y286D01*
X1058Y286D02*
X1061Y286D01*
X1076Y286D02*
X1079Y286D01*
X1090Y286D02*
X1094Y286D01*
X1100Y286D02*
X1104Y286D01*
X1109Y286D02*
X1113Y286D01*
X1960Y286D02*
X1967Y286D01*
X0Y285D02*
X7Y285D01*
X293Y285D02*
X299Y285D01*
X311Y285D02*
X322Y285D01*
X562Y285D02*
X566Y285D01*
X573Y285D02*
X578Y285D01*
X591Y285D02*
X613Y285D01*
X629Y285D02*
X632Y285D01*
X657Y285D02*
X661Y285D01*
X676Y285D02*
X679Y285D01*
X691Y285D02*
X694Y285D01*
X709Y285D02*
X712Y285D01*
X725Y285D02*
X746Y285D01*
X762Y285D02*
X766Y285D01*
X800Y285D02*
X804Y285D01*
X824Y285D02*
X828Y285D01*
X842Y285D02*
X846Y285D01*
X857Y285D02*
X861Y285D01*
X875Y285D02*
X879Y285D01*
X891Y285D02*
X894Y285D01*
X924Y285D02*
X928Y285D01*
X942Y285D02*
X946Y285D01*
X970Y285D02*
X975Y285D01*
X998Y285D02*
X1006Y285D01*
X1024Y285D02*
X1028Y285D01*
X1058Y285D02*
X1061Y285D01*
X1076Y285D02*
X1079Y285D01*
X1090Y285D02*
X1094Y285D01*
X1100Y285D02*
X1104Y285D01*
X1109Y285D02*
X1113Y285D01*
X1960Y285D02*
X1967Y285D01*
X0Y284D02*
X7Y284D01*
X293Y284D02*
X299Y284D01*
X311Y284D02*
X320Y284D01*
X562Y284D02*
X566Y284D01*
X573Y284D02*
X577Y284D01*
X591Y284D02*
X612Y284D01*
X629Y284D02*
X632Y284D01*
X657Y284D02*
X661Y284D01*
X676Y284D02*
X679Y284D01*
X691Y284D02*
X694Y284D01*
X709Y284D02*
X712Y284D01*
X724Y284D02*
X729Y284D01*
X741Y284D02*
X746Y284D01*
X762Y284D02*
X766Y284D01*
X800Y284D02*
X804Y284D01*
X824Y284D02*
X828Y284D01*
X842Y284D02*
X846Y284D01*
X857Y284D02*
X861Y284D01*
X875Y284D02*
X879Y284D01*
X891Y284D02*
X894Y284D01*
X924Y284D02*
X928Y284D01*
X942Y284D02*
X946Y284D01*
X971Y284D02*
X976Y284D01*
X998Y284D02*
X1006Y284D01*
X1024Y284D02*
X1028Y284D01*
X1058Y284D02*
X1061Y284D01*
X1076Y284D02*
X1079Y284D01*
X1090Y284D02*
X1094Y284D01*
X1100Y284D02*
X1104Y284D01*
X1109Y284D02*
X1113Y284D01*
X1960Y284D02*
X1967Y284D01*
X0Y283D02*
X7Y283D01*
X293Y283D02*
X299Y283D01*
X311Y283D02*
X318Y283D01*
X562Y283D02*
X566Y283D01*
X572Y283D02*
X577Y283D01*
X591Y283D02*
X611Y283D01*
X629Y283D02*
X632Y283D01*
X657Y283D02*
X661Y283D01*
X676Y283D02*
X679Y283D01*
X691Y283D02*
X694Y283D01*
X709Y283D02*
X712Y283D01*
X724Y283D02*
X728Y283D01*
X742Y283D02*
X746Y283D01*
X762Y283D02*
X766Y283D01*
X800Y283D02*
X804Y283D01*
X824Y283D02*
X828Y283D01*
X842Y283D02*
X846Y283D01*
X857Y283D02*
X861Y283D01*
X875Y283D02*
X879Y283D01*
X891Y283D02*
X894Y283D01*
X924Y283D02*
X928Y283D01*
X942Y283D02*
X946Y283D01*
X972Y283D02*
X977Y283D01*
X998Y283D02*
X1006Y283D01*
X1024Y283D02*
X1028Y283D01*
X1058Y283D02*
X1061Y283D01*
X1076Y283D02*
X1079Y283D01*
X1090Y283D02*
X1094Y283D01*
X1100Y283D02*
X1104Y283D01*
X1109Y283D02*
X1113Y283D01*
X1960Y283D02*
X1967Y283D01*
X0Y282D02*
X7Y282D01*
X293Y282D02*
X299Y282D01*
X311Y282D02*
X317Y282D01*
X562Y282D02*
X566Y282D01*
X572Y282D02*
X576Y282D01*
X591Y282D02*
X594Y282D01*
X629Y282D02*
X632Y282D01*
X657Y282D02*
X661Y282D01*
X676Y282D02*
X679Y282D01*
X691Y282D02*
X694Y282D01*
X709Y282D02*
X712Y282D01*
X724Y282D02*
X728Y282D01*
X742Y282D02*
X746Y282D01*
X762Y282D02*
X766Y282D01*
X800Y282D02*
X804Y282D01*
X824Y282D02*
X828Y282D01*
X842Y282D02*
X846Y282D01*
X857Y282D02*
X861Y282D01*
X875Y282D02*
X879Y282D01*
X891Y282D02*
X894Y282D01*
X924Y282D02*
X928Y282D01*
X942Y282D02*
X946Y282D01*
X973Y282D02*
X978Y282D01*
X998Y282D02*
X1006Y282D01*
X1024Y282D02*
X1028Y282D01*
X1058Y282D02*
X1061Y282D01*
X1076Y282D02*
X1079Y282D01*
X1090Y282D02*
X1094Y282D01*
X1100Y282D02*
X1104Y282D01*
X1109Y282D02*
X1113Y282D01*
X1960Y282D02*
X1967Y282D01*
X0Y281D02*
X7Y281D01*
X293Y281D02*
X299Y281D01*
X311Y281D02*
X317Y281D01*
X562Y281D02*
X566Y281D01*
X571Y281D02*
X576Y281D01*
X591Y281D02*
X594Y281D01*
X629Y281D02*
X632Y281D01*
X643Y281D02*
X645Y281D01*
X657Y281D02*
X661Y281D01*
X676Y281D02*
X679Y281D01*
X691Y281D02*
X694Y281D01*
X709Y281D02*
X712Y281D01*
X724Y281D02*
X728Y281D01*
X742Y281D02*
X746Y281D01*
X762Y281D02*
X766Y281D01*
X777Y281D02*
X778Y281D01*
X800Y281D02*
X804Y281D01*
X824Y281D02*
X828Y281D01*
X842Y281D02*
X846Y281D01*
X857Y281D02*
X861Y281D01*
X875Y281D02*
X879Y281D01*
X891Y281D02*
X894Y281D01*
X924Y281D02*
X928Y281D01*
X942Y281D02*
X946Y281D01*
X959Y281D02*
X960Y281D01*
X973Y281D02*
X978Y281D01*
X998Y281D02*
X1006Y281D01*
X1025Y281D02*
X1029Y281D01*
X1058Y281D02*
X1061Y281D01*
X1076Y281D02*
X1079Y281D01*
X1090Y281D02*
X1094Y281D01*
X1100Y281D02*
X1104Y281D01*
X1109Y281D02*
X1113Y281D01*
X1960Y281D02*
X1967Y281D01*
X0Y280D02*
X7Y280D01*
X293Y280D02*
X299Y280D01*
X311Y280D02*
X317Y280D01*
X562Y280D02*
X566Y280D01*
X571Y280D02*
X575Y280D01*
X591Y280D02*
X595Y280D01*
X629Y280D02*
X632Y280D01*
X643Y280D02*
X646Y280D01*
X658Y280D02*
X661Y280D01*
X675Y280D02*
X679Y280D01*
X691Y280D02*
X694Y280D01*
X709Y280D02*
X712Y280D01*
X724Y280D02*
X728Y280D01*
X741Y280D02*
X746Y280D01*
X762Y280D02*
X766Y280D01*
X776Y280D02*
X779Y280D01*
X800Y280D02*
X804Y280D01*
X824Y280D02*
X828Y280D01*
X842Y280D02*
X846Y280D01*
X857Y280D02*
X861Y280D01*
X876Y280D02*
X879Y280D01*
X891Y280D02*
X894Y280D01*
X924Y280D02*
X928Y280D01*
X942Y280D02*
X946Y280D01*
X958Y280D02*
X961Y280D01*
X974Y280D02*
X979Y280D01*
X998Y280D02*
X1006Y280D01*
X1025Y280D02*
X1030Y280D01*
X1058Y280D02*
X1062Y280D01*
X1075Y280D02*
X1079Y280D01*
X1090Y280D02*
X1094Y280D01*
X1100Y280D02*
X1104Y280D01*
X1109Y280D02*
X1113Y280D01*
X1960Y280D02*
X1967Y280D01*
X0Y279D02*
X7Y279D01*
X293Y279D02*
X299Y279D01*
X311Y279D02*
X317Y279D01*
X562Y279D02*
X566Y279D01*
X570Y279D02*
X575Y279D01*
X591Y279D02*
X596Y279D01*
X629Y279D02*
X632Y279D01*
X642Y279D02*
X646Y279D01*
X658Y279D02*
X662Y279D01*
X674Y279D02*
X679Y279D01*
X691Y279D02*
X694Y279D01*
X709Y279D02*
X712Y279D01*
X724Y279D02*
X728Y279D01*
X740Y279D02*
X746Y279D01*
X762Y279D02*
X766Y279D01*
X775Y279D02*
X779Y279D01*
X800Y279D02*
X804Y279D01*
X824Y279D02*
X829Y279D01*
X841Y279D02*
X846Y279D01*
X857Y279D02*
X861Y279D01*
X876Y279D02*
X879Y279D01*
X891Y279D02*
X894Y279D01*
X924Y279D02*
X928Y279D01*
X942Y279D02*
X946Y279D01*
X958Y279D02*
X961Y279D01*
X975Y279D02*
X979Y279D01*
X999Y279D02*
X1004Y279D01*
X1026Y279D02*
X1031Y279D01*
X1058Y279D02*
X1062Y279D01*
X1074Y279D02*
X1079Y279D01*
X1090Y279D02*
X1094Y279D01*
X1100Y279D02*
X1104Y279D01*
X1109Y279D02*
X1113Y279D01*
X1960Y279D02*
X1967Y279D01*
X0Y278D02*
X7Y278D01*
X293Y278D02*
X299Y278D01*
X311Y278D02*
X317Y278D01*
X562Y278D02*
X566Y278D01*
X569Y278D02*
X574Y278D01*
X592Y278D02*
X597Y278D01*
X629Y278D02*
X633Y278D01*
X641Y278D02*
X646Y278D01*
X658Y278D02*
X664Y278D01*
X673Y278D02*
X678Y278D01*
X691Y278D02*
X694Y278D01*
X709Y278D02*
X712Y278D01*
X724Y278D02*
X729Y278D01*
X738Y278D02*
X746Y278D01*
X762Y278D02*
X767Y278D01*
X775Y278D02*
X779Y278D01*
X800Y278D02*
X804Y278D01*
X825Y278D02*
X830Y278D01*
X840Y278D02*
X845Y278D01*
X857Y278D02*
X861Y278D01*
X876Y278D02*
X879Y278D01*
X891Y278D02*
X894Y278D01*
X924Y278D02*
X928Y278D01*
X942Y278D02*
X946Y278D01*
X958Y278D02*
X962Y278D01*
X976Y278D02*
X979Y278D01*
X1027Y278D02*
X1033Y278D01*
X1058Y278D02*
X1064Y278D01*
X1073Y278D02*
X1079Y278D01*
X1090Y278D02*
X1094Y278D01*
X1100Y278D02*
X1104Y278D01*
X1109Y278D02*
X1113Y278D01*
X1960Y278D02*
X1967Y278D01*
X0Y277D02*
X7Y277D01*
X293Y277D02*
X344Y277D01*
X558Y277D02*
X574Y277D01*
X592Y277D02*
X612Y277D01*
X629Y277D02*
X645Y277D01*
X659Y277D02*
X678Y277D01*
X691Y277D02*
X694Y277D01*
X709Y277D02*
X713Y277D01*
X725Y277D02*
X746Y277D01*
X763Y277D02*
X779Y277D01*
X794Y277D02*
X809Y277D01*
X826Y277D02*
X844Y277D01*
X857Y277D02*
X861Y277D01*
X876Y277D02*
X879Y277D01*
X891Y277D02*
X912Y277D01*
X924Y277D02*
X928Y277D01*
X942Y277D02*
X946Y277D01*
X958Y277D02*
X979Y277D01*
X1028Y277D02*
X1045Y277D01*
X1059Y277D02*
X1078Y277D01*
X1090Y277D02*
X1094Y277D01*
X1100Y277D02*
X1104Y277D01*
X1109Y277D02*
X1113Y277D01*
X1960Y277D02*
X1967Y277D01*
X0Y276D02*
X7Y276D01*
X293Y276D02*
X346Y276D01*
X558Y276D02*
X573Y276D01*
X593Y276D02*
X612Y276D01*
X630Y276D02*
X645Y276D01*
X660Y276D02*
X677Y276D01*
X691Y276D02*
X694Y276D01*
X709Y276D02*
X713Y276D01*
X725Y276D02*
X746Y276D01*
X763Y276D02*
X778Y276D01*
X793Y276D02*
X810Y276D01*
X827Y276D02*
X843Y276D01*
X857Y276D02*
X861Y276D01*
X876Y276D02*
X879Y276D01*
X891Y276D02*
X912Y276D01*
X924Y276D02*
X928Y276D01*
X942Y276D02*
X946Y276D01*
X958Y276D02*
X979Y276D01*
X1029Y276D02*
X1046Y276D01*
X1060Y276D02*
X1077Y276D01*
X1090Y276D02*
X1094Y276D01*
X1100Y276D02*
X1104Y276D01*
X1109Y276D02*
X1113Y276D01*
X1960Y276D02*
X1967Y276D01*
X0Y275D02*
X7Y275D01*
X293Y275D02*
X346Y275D01*
X557Y275D02*
X572Y275D01*
X594Y275D02*
X613Y275D01*
X631Y275D02*
X644Y275D01*
X661Y275D02*
X676Y275D01*
X691Y275D02*
X694Y275D01*
X709Y275D02*
X713Y275D01*
X726Y275D02*
X746Y275D01*
X764Y275D02*
X777Y275D01*
X793Y275D02*
X810Y275D01*
X828Y275D02*
X842Y275D01*
X858Y275D02*
X861Y275D01*
X876Y275D02*
X879Y275D01*
X891Y275D02*
X913Y275D01*
X924Y275D02*
X928Y275D01*
X942Y275D02*
X946Y275D01*
X959Y275D02*
X978Y275D01*
X1030Y275D02*
X1046Y275D01*
X1061Y275D02*
X1076Y275D01*
X1091Y275D02*
X1094Y275D01*
X1100Y275D02*
X1104Y275D01*
X1109Y275D02*
X1113Y275D01*
X1960Y275D02*
X1967Y275D01*
X0Y274D02*
X7Y274D01*
X293Y274D02*
X346Y274D01*
X558Y274D02*
X571Y274D01*
X596Y274D02*
X612Y274D01*
X632Y274D02*
X643Y274D01*
X662Y274D02*
X674Y274D01*
X691Y274D02*
X694Y274D01*
X709Y274D02*
X712Y274D01*
X727Y274D02*
X739Y274D01*
X743Y274D02*
X746Y274D01*
X765Y274D02*
X776Y274D01*
X793Y274D02*
X810Y274D01*
X829Y274D02*
X841Y274D01*
X858Y274D02*
X861Y274D01*
X876Y274D02*
X879Y274D01*
X891Y274D02*
X912Y274D01*
X925Y274D02*
X927Y274D01*
X943Y274D02*
X946Y274D01*
X960Y274D02*
X977Y274D01*
X1031Y274D02*
X1046Y274D01*
X1062Y274D02*
X1074Y274D01*
X1091Y274D02*
X1094Y274D01*
X1100Y274D02*
X1103Y274D01*
X1110Y274D02*
X1113Y274D01*
X1960Y274D02*
X1967Y274D01*
X0Y273D02*
X7Y273D01*
X293Y273D02*
X346Y273D01*
X559Y273D02*
X568Y273D01*
X598Y273D02*
X611Y273D01*
X634Y273D02*
X640Y273D01*
X665Y273D02*
X672Y273D01*
X693Y273D02*
X693Y273D01*
X711Y273D02*
X711Y273D01*
X730Y273D02*
X737Y273D01*
X744Y273D02*
X744Y273D01*
X768Y273D02*
X773Y273D01*
X795Y273D02*
X809Y273D01*
X832Y273D02*
X838Y273D01*
X859Y273D02*
X859Y273D01*
X891Y273D02*
X911Y273D01*
X926Y273D02*
X926Y273D01*
X944Y273D02*
X944Y273D01*
X963Y273D02*
X975Y273D01*
X1034Y273D02*
X1044Y273D01*
X1065Y273D02*
X1072Y273D01*
X1092Y273D02*
X1092Y273D01*
X1102Y273D02*
X1102Y273D01*
X1111Y273D02*
X1111Y273D01*
X1960Y273D02*
X1967Y273D01*
X0Y272D02*
X7Y272D01*
X293Y272D02*
X346Y272D01*
X1960Y272D02*
X1967Y272D01*
X0Y271D02*
X7Y271D01*
X293Y271D02*
X345Y271D01*
X1960Y271D02*
X1967Y271D01*
X0Y270D02*
X7Y270D01*
X1960Y270D02*
X1967Y270D01*
X0Y269D02*
X7Y269D01*
X1960Y269D02*
X1967Y269D01*
X0Y268D02*
X7Y268D01*
X1960Y268D02*
X1967Y268D01*
X0Y267D02*
X7Y267D01*
X1960Y267D02*
X1967Y267D01*
X0Y266D02*
X7Y266D01*
X1960Y266D02*
X1967Y266D01*
X0Y265D02*
X7Y265D01*
X1960Y265D02*
X1967Y265D01*
X0Y264D02*
X7Y264D01*
X1960Y264D02*
X1967Y264D01*
X0Y263D02*
X7Y263D01*
X1960Y263D02*
X1967Y263D01*
X0Y262D02*
X7Y262D01*
X1960Y262D02*
X1967Y262D01*
X0Y261D02*
X7Y261D01*
X1960Y261D02*
X1967Y261D01*
X0Y260D02*
X7Y260D01*
X1960Y260D02*
X1967Y260D01*
X0Y259D02*
X7Y259D01*
X1960Y259D02*
X1967Y259D01*
X0Y258D02*
X7Y258D01*
X1960Y258D02*
X1967Y258D01*
X0Y257D02*
X7Y257D01*
X1960Y257D02*
X1967Y257D01*
X0Y256D02*
X7Y256D01*
X1960Y256D02*
X1967Y256D01*
X0Y255D02*
X7Y255D01*
X1960Y255D02*
X1967Y255D01*
X0Y254D02*
X7Y254D01*
X1960Y254D02*
X1967Y254D01*
X0Y253D02*
X7Y253D01*
X1960Y253D02*
X1967Y253D01*
X0Y252D02*
X7Y252D01*
X1960Y252D02*
X1967Y252D01*
X0Y251D02*
X7Y251D01*
X559Y251D02*
X1408Y251D01*
X1960Y251D02*
X1967Y251D01*
X0Y250D02*
X7Y250D01*
X559Y250D02*
X598Y250D01*
X619Y250D02*
X748Y250D01*
X769Y250D02*
X898Y250D01*
X919Y250D02*
X1048Y250D01*
X1069Y250D02*
X1198Y250D01*
X1219Y250D02*
X1348Y250D01*
X1369Y250D02*
X1408Y250D01*
X1960Y250D02*
X1967Y250D01*
X0Y249D02*
X7Y249D01*
X559Y249D02*
X594Y249D01*
X623Y249D02*
X744Y249D01*
X773Y249D02*
X894Y249D01*
X923Y249D02*
X1044Y249D01*
X1073Y249D02*
X1194Y249D01*
X1223Y249D02*
X1344Y249D01*
X1373Y249D02*
X1408Y249D01*
X1960Y249D02*
X1967Y249D01*
X0Y248D02*
X7Y248D01*
X559Y248D02*
X590Y248D01*
X627Y248D02*
X740Y248D01*
X777Y248D02*
X890Y248D01*
X927Y248D02*
X1040Y248D01*
X1077Y248D02*
X1190Y248D01*
X1227Y248D02*
X1340Y248D01*
X1377Y248D02*
X1408Y248D01*
X1960Y248D02*
X1967Y248D01*
X0Y247D02*
X7Y247D01*
X559Y247D02*
X588Y247D01*
X629Y247D02*
X738Y247D01*
X779Y247D02*
X888Y247D01*
X929Y247D02*
X1038Y247D01*
X1079Y247D02*
X1188Y247D01*
X1229Y247D02*
X1338Y247D01*
X1379Y247D02*
X1408Y247D01*
X1960Y247D02*
X1967Y247D01*
X0Y246D02*
X7Y246D01*
X554Y246D02*
X585Y246D01*
X632Y246D02*
X735Y246D01*
X782Y246D02*
X885Y246D01*
X932Y246D02*
X1035Y246D01*
X1082Y246D02*
X1185Y246D01*
X1232Y246D02*
X1335Y246D01*
X1382Y246D02*
X1413Y246D01*
X1960Y246D02*
X1967Y246D01*
X0Y245D02*
X7Y245D01*
X554Y245D02*
X583Y245D01*
X634Y245D02*
X733Y245D01*
X784Y245D02*
X883Y245D01*
X934Y245D02*
X1033Y245D01*
X1084Y245D02*
X1183Y245D01*
X1234Y245D02*
X1333Y245D01*
X1384Y245D02*
X1413Y245D01*
X1960Y245D02*
X1967Y245D01*
X0Y244D02*
X7Y244D01*
X554Y244D02*
X582Y244D01*
X636Y244D02*
X731Y244D01*
X786Y244D02*
X881Y244D01*
X936Y244D02*
X1031Y244D01*
X1086Y244D02*
X1181Y244D01*
X1236Y244D02*
X1331Y244D01*
X1385Y244D02*
X1413Y244D01*
X1960Y244D02*
X1967Y244D01*
X0Y243D02*
X7Y243D01*
X554Y243D02*
X580Y243D01*
X637Y243D02*
X730Y243D01*
X787Y243D02*
X880Y243D01*
X937Y243D02*
X1030Y243D01*
X1087Y243D02*
X1180Y243D01*
X1237Y243D02*
X1330Y243D01*
X1387Y243D02*
X1413Y243D01*
X1960Y243D02*
X1967Y243D01*
X0Y242D02*
X7Y242D01*
X554Y242D02*
X578Y242D01*
X639Y242D02*
X728Y242D01*
X789Y242D02*
X878Y242D01*
X939Y242D02*
X1028Y242D01*
X1089Y242D02*
X1178Y242D01*
X1239Y242D02*
X1328Y242D01*
X1389Y242D02*
X1413Y242D01*
X1960Y242D02*
X1967Y242D01*
X0Y241D02*
X7Y241D01*
X554Y241D02*
X563Y241D01*
X1404Y241D02*
X1413Y241D01*
X1960Y241D02*
X1967Y241D01*
X0Y240D02*
X7Y240D01*
X554Y240D02*
X563Y240D01*
X1404Y240D02*
X1413Y240D01*
X1960Y240D02*
X1967Y240D01*
X0Y239D02*
X7Y239D01*
X554Y239D02*
X563Y239D01*
X1404Y239D02*
X1413Y239D01*
X1960Y239D02*
X1967Y239D01*
X0Y238D02*
X7Y238D01*
X554Y238D02*
X563Y238D01*
X1404Y238D02*
X1413Y238D01*
X1960Y238D02*
X1967Y238D01*
X0Y237D02*
X7Y237D01*
X554Y237D02*
X563Y237D01*
X1404Y237D02*
X1413Y237D01*
X1960Y237D02*
X1967Y237D01*
X0Y236D02*
X7Y236D01*
X554Y236D02*
X563Y236D01*
X1404Y236D02*
X1413Y236D01*
X1960Y236D02*
X1967Y236D01*
X0Y235D02*
X7Y235D01*
X554Y235D02*
X563Y235D01*
X1404Y235D02*
X1413Y235D01*
X1960Y235D02*
X1967Y235D01*
X0Y234D02*
X7Y234D01*
X554Y234D02*
X563Y234D01*
X1404Y234D02*
X1413Y234D01*
X1960Y234D02*
X1967Y234D01*
X0Y233D02*
X7Y233D01*
X554Y233D02*
X563Y233D01*
X1404Y233D02*
X1413Y233D01*
X1960Y233D02*
X1967Y233D01*
X0Y232D02*
X7Y232D01*
X554Y232D02*
X563Y232D01*
X1404Y232D02*
X1413Y232D01*
X1960Y232D02*
X1967Y232D01*
X0Y231D02*
X7Y231D01*
X554Y231D02*
X563Y231D01*
X1404Y231D02*
X1413Y231D01*
X1960Y231D02*
X1967Y231D01*
X0Y230D02*
X7Y230D01*
X554Y230D02*
X563Y230D01*
X1404Y230D02*
X1413Y230D01*
X1960Y230D02*
X1967Y230D01*
X0Y229D02*
X7Y229D01*
X554Y229D02*
X563Y229D01*
X1404Y229D02*
X1413Y229D01*
X1960Y229D02*
X1967Y229D01*
X0Y228D02*
X7Y228D01*
X554Y228D02*
X563Y228D01*
X1404Y228D02*
X1413Y228D01*
X1960Y228D02*
X1967Y228D01*
X0Y227D02*
X7Y227D01*
X554Y227D02*
X563Y227D01*
X1404Y227D02*
X1413Y227D01*
X1960Y227D02*
X1967Y227D01*
X0Y226D02*
X7Y226D01*
X554Y226D02*
X562Y226D01*
X1405Y226D02*
X1413Y226D01*
X1960Y226D02*
X1967Y226D01*
X0Y225D02*
X7Y225D01*
X554Y225D02*
X562Y225D01*
X1405Y225D02*
X1413Y225D01*
X1960Y225D02*
X1967Y225D01*
X0Y224D02*
X7Y224D01*
X554Y224D02*
X561Y224D01*
X1406Y224D02*
X1413Y224D01*
X1960Y224D02*
X1967Y224D01*
X0Y223D02*
X7Y223D01*
X554Y223D02*
X561Y223D01*
X1406Y223D02*
X1413Y223D01*
X1960Y223D02*
X1967Y223D01*
X0Y222D02*
X7Y222D01*
X554Y222D02*
X560Y222D01*
X1407Y222D02*
X1413Y222D01*
X1960Y222D02*
X1967Y222D01*
X0Y221D02*
X7Y221D01*
X554Y221D02*
X559Y221D01*
X1408Y221D02*
X1413Y221D01*
X1960Y221D02*
X1967Y221D01*
X0Y220D02*
X7Y220D01*
X554Y220D02*
X559Y220D01*
X1408Y220D02*
X1413Y220D01*
X1960Y220D02*
X1967Y220D01*
X0Y219D02*
X7Y219D01*
X554Y219D02*
X558Y219D01*
X1408Y219D02*
X1413Y219D01*
X1960Y219D02*
X1967Y219D01*
X0Y218D02*
X7Y218D01*
X554Y218D02*
X558Y218D01*
X1409Y218D02*
X1413Y218D01*
X1960Y218D02*
X1967Y218D01*
X0Y217D02*
X7Y217D01*
X554Y217D02*
X558Y217D01*
X1409Y217D02*
X1413Y217D01*
X1960Y217D02*
X1967Y217D01*
X0Y216D02*
X7Y216D01*
X554Y216D02*
X557Y216D01*
X1410Y216D02*
X1413Y216D01*
X1960Y216D02*
X1967Y216D01*
X0Y215D02*
X7Y215D01*
X554Y215D02*
X557Y215D01*
X1410Y215D02*
X1413Y215D01*
X1960Y215D02*
X1967Y215D01*
X0Y214D02*
X7Y214D01*
X554Y214D02*
X557Y214D01*
X1410Y214D02*
X1413Y214D01*
X1960Y214D02*
X1967Y214D01*
X0Y213D02*
X7Y213D01*
X554Y213D02*
X556Y213D01*
X1411Y213D02*
X1413Y213D01*
X1960Y213D02*
X1967Y213D01*
X0Y212D02*
X7Y212D01*
X554Y212D02*
X556Y212D01*
X1411Y212D02*
X1413Y212D01*
X1960Y212D02*
X1967Y212D01*
X0Y211D02*
X7Y211D01*
X312Y211D02*
X321Y211D01*
X554Y211D02*
X556Y211D01*
X1411Y211D02*
X1413Y211D01*
X1960Y211D02*
X1967Y211D01*
X0Y210D02*
X7Y210D01*
X312Y210D02*
X321Y210D01*
X554Y210D02*
X555Y210D01*
X1412Y210D02*
X1413Y210D01*
X1960Y210D02*
X1967Y210D01*
X0Y209D02*
X7Y209D01*
X312Y209D02*
X321Y209D01*
X554Y209D02*
X555Y209D01*
X1412Y209D02*
X1413Y209D01*
X1960Y209D02*
X1967Y209D01*
X0Y208D02*
X7Y208D01*
X312Y208D02*
X321Y208D01*
X554Y208D02*
X555Y208D01*
X1412Y208D02*
X1413Y208D01*
X1960Y208D02*
X1967Y208D01*
X0Y207D02*
X7Y207D01*
X312Y207D02*
X321Y207D01*
X554Y207D02*
X555Y207D01*
X1412Y207D02*
X1413Y207D01*
X1960Y207D02*
X1967Y207D01*
X0Y206D02*
X7Y206D01*
X312Y206D02*
X321Y206D01*
X554Y206D02*
X555Y206D01*
X1412Y206D02*
X1413Y206D01*
X1960Y206D02*
X1967Y206D01*
X0Y205D02*
X7Y205D01*
X312Y205D02*
X321Y205D01*
X554Y205D02*
X554Y205D01*
X1413Y205D02*
X1413Y205D01*
X1960Y205D02*
X1967Y205D01*
X0Y204D02*
X7Y204D01*
X312Y204D02*
X321Y204D01*
X554Y204D02*
X554Y204D01*
X1413Y204D02*
X1413Y204D01*
X1960Y204D02*
X1967Y204D01*
X0Y203D02*
X7Y203D01*
X312Y203D02*
X321Y203D01*
X554Y203D02*
X554Y203D01*
X1413Y203D02*
X1413Y203D01*
X1960Y203D02*
X1967Y203D01*
X0Y202D02*
X7Y202D01*
X312Y202D02*
X321Y202D01*
X554Y202D02*
X554Y202D01*
X1413Y202D02*
X1413Y202D01*
X1960Y202D02*
X1967Y202D01*
X0Y201D02*
X7Y201D01*
X312Y201D02*
X321Y201D01*
X554Y201D02*
X554Y201D01*
X1413Y201D02*
X1413Y201D01*
X1960Y201D02*
X1967Y201D01*
X0Y200D02*
X7Y200D01*
X312Y200D02*
X321Y200D01*
X554Y200D02*
X554Y200D01*
X1413Y200D02*
X1413Y200D01*
X1960Y200D02*
X1967Y200D01*
X0Y199D02*
X7Y199D01*
X312Y199D02*
X321Y199D01*
X554Y199D02*
X554Y199D01*
X1413Y199D02*
X1413Y199D01*
X1960Y199D02*
X1967Y199D01*
X0Y198D02*
X7Y198D01*
X312Y198D02*
X321Y198D01*
X554Y198D02*
X554Y198D01*
X1413Y198D02*
X1413Y198D01*
X1960Y198D02*
X1967Y198D01*
X0Y197D02*
X7Y197D01*
X312Y197D02*
X321Y197D01*
X554Y197D02*
X554Y197D01*
X1413Y197D02*
X1413Y197D01*
X1960Y197D02*
X1967Y197D01*
X0Y196D02*
X7Y196D01*
X312Y196D02*
X321Y196D01*
X554Y196D02*
X554Y196D01*
X1413Y196D02*
X1413Y196D01*
X1960Y196D02*
X1967Y196D01*
X0Y195D02*
X7Y195D01*
X312Y195D02*
X321Y195D01*
X554Y195D02*
X554Y195D01*
X1413Y195D02*
X1413Y195D01*
X1960Y195D02*
X1967Y195D01*
X0Y194D02*
X7Y194D01*
X312Y194D02*
X321Y194D01*
X554Y194D02*
X554Y194D01*
X1413Y194D02*
X1413Y194D01*
X1960Y194D02*
X1967Y194D01*
X0Y193D02*
X7Y193D01*
X312Y193D02*
X321Y193D01*
X554Y193D02*
X554Y193D01*
X1413Y193D02*
X1413Y193D01*
X1960Y193D02*
X1967Y193D01*
X0Y192D02*
X7Y192D01*
X312Y192D02*
X321Y192D01*
X554Y192D02*
X554Y192D01*
X1413Y192D02*
X1413Y192D01*
X1960Y192D02*
X1967Y192D01*
X0Y191D02*
X7Y191D01*
X312Y191D02*
X321Y191D01*
X554Y191D02*
X554Y191D01*
X1413Y191D02*
X1413Y191D01*
X1960Y191D02*
X1967Y191D01*
X0Y190D02*
X7Y190D01*
X312Y190D02*
X321Y190D01*
X554Y190D02*
X554Y190D01*
X1413Y190D02*
X1413Y190D01*
X1960Y190D02*
X1967Y190D01*
X0Y189D02*
X7Y189D01*
X312Y189D02*
X321Y189D01*
X554Y189D02*
X554Y189D01*
X1413Y189D02*
X1413Y189D01*
X1960Y189D02*
X1967Y189D01*
X0Y188D02*
X7Y188D01*
X312Y188D02*
X321Y188D01*
X554Y188D02*
X554Y188D01*
X1413Y188D02*
X1413Y188D01*
X1960Y188D02*
X1967Y188D01*
X0Y187D02*
X7Y187D01*
X312Y187D02*
X321Y187D01*
X554Y187D02*
X555Y187D01*
X1412Y187D02*
X1413Y187D01*
X1960Y187D02*
X1967Y187D01*
X0Y186D02*
X7Y186D01*
X312Y186D02*
X321Y186D01*
X554Y186D02*
X555Y186D01*
X1412Y186D02*
X1413Y186D01*
X1960Y186D02*
X1967Y186D01*
X0Y185D02*
X7Y185D01*
X312Y185D02*
X321Y185D01*
X554Y185D02*
X555Y185D01*
X1412Y185D02*
X1413Y185D01*
X1960Y185D02*
X1967Y185D01*
X0Y184D02*
X7Y184D01*
X312Y184D02*
X321Y184D01*
X554Y184D02*
X555Y184D01*
X1412Y184D02*
X1413Y184D01*
X1960Y184D02*
X1967Y184D01*
X0Y183D02*
X7Y183D01*
X312Y183D02*
X321Y183D01*
X554Y183D02*
X555Y183D01*
X1412Y183D02*
X1413Y183D01*
X1960Y183D02*
X1967Y183D01*
X0Y182D02*
X7Y182D01*
X312Y182D02*
X321Y182D01*
X554Y182D02*
X556Y182D01*
X1411Y182D02*
X1413Y182D01*
X1960Y182D02*
X1967Y182D01*
X0Y181D02*
X7Y181D01*
X312Y181D02*
X321Y181D01*
X554Y181D02*
X556Y181D01*
X1411Y181D02*
X1413Y181D01*
X1960Y181D02*
X1967Y181D01*
X0Y180D02*
X7Y180D01*
X312Y180D02*
X321Y180D01*
X554Y180D02*
X556Y180D01*
X1411Y180D02*
X1413Y180D01*
X1960Y180D02*
X1967Y180D01*
X0Y179D02*
X7Y179D01*
X312Y179D02*
X321Y179D01*
X554Y179D02*
X557Y179D01*
X1410Y179D02*
X1413Y179D01*
X1960Y179D02*
X1967Y179D01*
X0Y178D02*
X7Y178D01*
X312Y178D02*
X321Y178D01*
X554Y178D02*
X557Y178D01*
X1410Y178D02*
X1413Y178D01*
X1960Y178D02*
X1967Y178D01*
X0Y177D02*
X7Y177D01*
X312Y177D02*
X321Y177D01*
X554Y177D02*
X557Y177D01*
X1410Y177D02*
X1413Y177D01*
X1960Y177D02*
X1967Y177D01*
X0Y176D02*
X7Y176D01*
X312Y176D02*
X321Y176D01*
X554Y176D02*
X558Y176D01*
X1409Y176D02*
X1413Y176D01*
X1960Y176D02*
X1967Y176D01*
X0Y175D02*
X7Y175D01*
X312Y175D02*
X321Y175D01*
X554Y175D02*
X558Y175D01*
X1409Y175D02*
X1413Y175D01*
X1960Y175D02*
X1967Y175D01*
X0Y174D02*
X7Y174D01*
X312Y174D02*
X321Y174D01*
X554Y174D02*
X558Y174D01*
X1409Y174D02*
X1413Y174D01*
X1960Y174D02*
X1967Y174D01*
X0Y173D02*
X7Y173D01*
X312Y173D02*
X321Y173D01*
X554Y173D02*
X559Y173D01*
X1408Y173D02*
X1413Y173D01*
X1960Y173D02*
X1967Y173D01*
X0Y172D02*
X7Y172D01*
X312Y172D02*
X321Y172D01*
X554Y172D02*
X559Y172D01*
X1408Y172D02*
X1413Y172D01*
X1960Y172D02*
X1967Y172D01*
X0Y171D02*
X7Y171D01*
X312Y171D02*
X321Y171D01*
X554Y171D02*
X560Y171D01*
X1407Y171D02*
X1413Y171D01*
X1960Y171D02*
X1967Y171D01*
X0Y170D02*
X7Y170D01*
X312Y170D02*
X321Y170D01*
X554Y170D02*
X561Y170D01*
X1406Y170D02*
X1413Y170D01*
X1960Y170D02*
X1967Y170D01*
X0Y169D02*
X7Y169D01*
X312Y169D02*
X321Y169D01*
X554Y169D02*
X561Y169D01*
X1406Y169D02*
X1413Y169D01*
X1960Y169D02*
X1967Y169D01*
X0Y168D02*
X7Y168D01*
X312Y168D02*
X321Y168D01*
X554Y168D02*
X562Y168D01*
X1405Y168D02*
X1413Y168D01*
X1960Y168D02*
X1967Y168D01*
X0Y167D02*
X7Y167D01*
X312Y167D02*
X321Y167D01*
X554Y167D02*
X562Y167D01*
X1405Y167D02*
X1413Y167D01*
X1960Y167D02*
X1967Y167D01*
X0Y166D02*
X7Y166D01*
X312Y166D02*
X321Y166D01*
X554Y166D02*
X563Y166D01*
X1404Y166D02*
X1413Y166D01*
X1960Y166D02*
X1967Y166D01*
X0Y165D02*
X7Y165D01*
X312Y165D02*
X321Y165D01*
X554Y165D02*
X563Y165D01*
X1404Y165D02*
X1413Y165D01*
X1960Y165D02*
X1967Y165D01*
X0Y164D02*
X7Y164D01*
X312Y164D02*
X321Y164D01*
X554Y164D02*
X563Y164D01*
X1404Y164D02*
X1413Y164D01*
X1960Y164D02*
X1967Y164D01*
X0Y163D02*
X7Y163D01*
X554Y163D02*
X563Y163D01*
X1404Y163D02*
X1413Y163D01*
X1960Y163D02*
X1967Y163D01*
X0Y162D02*
X7Y162D01*
X554Y162D02*
X563Y162D01*
X1404Y162D02*
X1413Y162D01*
X1960Y162D02*
X1967Y162D01*
X0Y161D02*
X7Y161D01*
X554Y161D02*
X563Y161D01*
X1404Y161D02*
X1413Y161D01*
X1960Y161D02*
X1967Y161D01*
X0Y160D02*
X7Y160D01*
X554Y160D02*
X563Y160D01*
X1404Y160D02*
X1413Y160D01*
X1960Y160D02*
X1967Y160D01*
X0Y159D02*
X7Y159D01*
X554Y159D02*
X563Y159D01*
X1404Y159D02*
X1413Y159D01*
X1960Y159D02*
X1967Y159D01*
X0Y158D02*
X7Y158D01*
X554Y158D02*
X563Y158D01*
X1404Y158D02*
X1413Y158D01*
X1960Y158D02*
X1967Y158D01*
X0Y157D02*
X7Y157D01*
X554Y157D02*
X563Y157D01*
X1404Y157D02*
X1413Y157D01*
X1960Y157D02*
X1967Y157D01*
X0Y156D02*
X7Y156D01*
X554Y156D02*
X563Y156D01*
X1404Y156D02*
X1413Y156D01*
X1960Y156D02*
X1967Y156D01*
X0Y155D02*
X7Y155D01*
X554Y155D02*
X563Y155D01*
X1404Y155D02*
X1413Y155D01*
X1960Y155D02*
X1967Y155D01*
X0Y154D02*
X7Y154D01*
X554Y154D02*
X563Y154D01*
X1404Y154D02*
X1413Y154D01*
X1960Y154D02*
X1967Y154D01*
X0Y153D02*
X7Y153D01*
X554Y153D02*
X563Y153D01*
X1404Y153D02*
X1413Y153D01*
X1960Y153D02*
X1967Y153D01*
X0Y152D02*
X7Y152D01*
X554Y152D02*
X563Y152D01*
X1404Y152D02*
X1413Y152D01*
X1960Y152D02*
X1967Y152D01*
X0Y151D02*
X7Y151D01*
X554Y151D02*
X578Y151D01*
X639Y151D02*
X728Y151D01*
X789Y151D02*
X878Y151D01*
X939Y151D02*
X1028Y151D01*
X1089Y151D02*
X1178Y151D01*
X1239Y151D02*
X1328Y151D01*
X1389Y151D02*
X1413Y151D01*
X1960Y151D02*
X1967Y151D01*
X0Y150D02*
X7Y150D01*
X554Y150D02*
X580Y150D01*
X637Y150D02*
X730Y150D01*
X787Y150D02*
X880Y150D01*
X937Y150D02*
X1030Y150D01*
X1087Y150D02*
X1180Y150D01*
X1237Y150D02*
X1330Y150D01*
X1387Y150D02*
X1413Y150D01*
X1960Y150D02*
X1967Y150D01*
X0Y149D02*
X7Y149D01*
X554Y149D02*
X581Y149D01*
X636Y149D02*
X731Y149D01*
X786Y149D02*
X881Y149D01*
X936Y149D02*
X1031Y149D01*
X1086Y149D02*
X1181Y149D01*
X1236Y149D02*
X1331Y149D01*
X1386Y149D02*
X1413Y149D01*
X1960Y149D02*
X1967Y149D01*
X0Y148D02*
X7Y148D01*
X554Y148D02*
X583Y148D01*
X634Y148D02*
X733Y148D01*
X784Y148D02*
X883Y148D01*
X934Y148D02*
X1033Y148D01*
X1084Y148D02*
X1183Y148D01*
X1234Y148D02*
X1333Y148D01*
X1384Y148D02*
X1413Y148D01*
X1960Y148D02*
X1967Y148D01*
X0Y147D02*
X7Y147D01*
X554Y147D02*
X585Y147D01*
X632Y147D02*
X735Y147D01*
X782Y147D02*
X885Y147D01*
X932Y147D02*
X1035Y147D01*
X1082Y147D02*
X1185Y147D01*
X1232Y147D02*
X1335Y147D01*
X1382Y147D02*
X1413Y147D01*
X1960Y147D02*
X1967Y147D01*
X0Y146D02*
X7Y146D01*
X559Y146D02*
X588Y146D01*
X630Y146D02*
X738Y146D01*
X779Y146D02*
X888Y146D01*
X929Y146D02*
X1038Y146D01*
X1079Y146D02*
X1188Y146D01*
X1229Y146D02*
X1337Y146D01*
X1379Y146D02*
X1408Y146D01*
X1960Y146D02*
X1967Y146D01*
X0Y145D02*
X7Y145D01*
X559Y145D02*
X590Y145D01*
X627Y145D02*
X740Y145D01*
X777Y145D02*
X890Y145D01*
X927Y145D02*
X1040Y145D01*
X1077Y145D02*
X1190Y145D01*
X1227Y145D02*
X1340Y145D01*
X1377Y145D02*
X1408Y145D01*
X1960Y145D02*
X1967Y145D01*
X0Y144D02*
X7Y144D01*
X559Y144D02*
X594Y144D01*
X623Y144D02*
X744Y144D01*
X773Y144D02*
X894Y144D01*
X923Y144D02*
X1044Y144D01*
X1073Y144D02*
X1194Y144D01*
X1223Y144D02*
X1344Y144D01*
X1373Y144D02*
X1408Y144D01*
X1960Y144D02*
X1967Y144D01*
X0Y143D02*
X7Y143D01*
X559Y143D02*
X598Y143D01*
X619Y143D02*
X748Y143D01*
X769Y143D02*
X898Y143D01*
X919Y143D02*
X1048Y143D01*
X1069Y143D02*
X1198Y143D01*
X1219Y143D02*
X1348Y143D01*
X1369Y143D02*
X1408Y143D01*
X1960Y143D02*
X1967Y143D01*
X0Y142D02*
X7Y142D01*
X559Y142D02*
X1408Y142D01*
X1960Y142D02*
X1967Y142D01*
X0Y141D02*
X7Y141D01*
X1960Y141D02*
X1967Y141D01*
X0Y140D02*
X7Y140D01*
X1960Y140D02*
X1967Y140D01*
X0Y139D02*
X7Y139D01*
X1960Y139D02*
X1967Y139D01*
X0Y138D02*
X7Y138D01*
X1960Y138D02*
X1967Y138D01*
X0Y137D02*
X7Y137D01*
X1960Y137D02*
X1967Y137D01*
X0Y136D02*
X7Y136D01*
X1960Y136D02*
X1967Y136D01*
X0Y135D02*
X7Y135D01*
X1960Y135D02*
X1967Y135D01*
X0Y134D02*
X7Y134D01*
X771Y134D02*
X774Y134D01*
X1376Y134D02*
X1379Y134D01*
X1960Y134D02*
X1967Y134D01*
X0Y133D02*
X7Y133D01*
X770Y133D02*
X775Y133D01*
X1375Y133D02*
X1380Y133D01*
X1960Y133D02*
X1967Y133D01*
X0Y132D02*
X7Y132D01*
X567Y132D02*
X585Y132D01*
X603Y132D02*
X613Y132D01*
X625Y132D02*
X626Y132D01*
X641Y132D02*
X642Y132D01*
X715Y132D02*
X725Y132D01*
X770Y132D02*
X775Y132D01*
X795Y132D02*
X803Y132D01*
X897Y132D02*
X898Y132D01*
X955Y132D02*
X964Y132D01*
X974Y132D02*
X979Y132D01*
X991Y132D02*
X992Y132D01*
X1004Y132D02*
X1013Y132D01*
X1069Y132D02*
X1070Y132D01*
X1168Y132D02*
X1186Y132D01*
X1204Y132D02*
X1214Y132D01*
X1226Y132D02*
X1227Y132D01*
X1242Y132D02*
X1243Y132D01*
X1320Y132D02*
X1330Y132D01*
X1375Y132D02*
X1380Y132D01*
X1401Y132D02*
X1408Y132D01*
X1960Y132D02*
X1967Y132D01*
X0Y131D02*
X7Y131D01*
X567Y131D02*
X585Y131D01*
X602Y131D02*
X614Y131D01*
X624Y131D02*
X627Y131D01*
X640Y131D02*
X643Y131D01*
X713Y131D02*
X725Y131D01*
X770Y131D02*
X775Y131D01*
X795Y131D02*
X804Y131D01*
X896Y131D02*
X899Y131D01*
X953Y131D02*
X964Y131D01*
X974Y131D02*
X979Y131D01*
X990Y131D02*
X993Y131D01*
X1003Y131D02*
X1015Y131D01*
X1068Y131D02*
X1071Y131D01*
X1168Y131D02*
X1186Y131D01*
X1203Y131D02*
X1215Y131D01*
X1225Y131D02*
X1228Y131D01*
X1241Y131D02*
X1244Y131D01*
X1318Y131D02*
X1331Y131D01*
X1375Y131D02*
X1380Y131D01*
X1400Y131D02*
X1409Y131D01*
X1960Y131D02*
X1967Y131D01*
X0Y130D02*
X7Y130D01*
X567Y130D02*
X585Y130D01*
X601Y130D02*
X614Y130D01*
X624Y130D02*
X627Y130D01*
X640Y130D02*
X643Y130D01*
X712Y130D02*
X725Y130D01*
X770Y130D02*
X775Y130D01*
X795Y130D02*
X804Y130D01*
X896Y130D02*
X899Y130D01*
X952Y130D02*
X964Y130D01*
X974Y130D02*
X980Y130D01*
X990Y130D02*
X993Y130D01*
X1003Y130D02*
X1016Y130D01*
X1068Y130D02*
X1071Y130D01*
X1168Y130D02*
X1186Y130D01*
X1202Y130D02*
X1215Y130D01*
X1225Y130D02*
X1228Y130D01*
X1241Y130D02*
X1244Y130D01*
X1317Y130D02*
X1331Y130D01*
X1375Y130D02*
X1380Y130D01*
X1400Y130D02*
X1409Y130D01*
X1960Y130D02*
X1967Y130D01*
X0Y129D02*
X7Y129D01*
X567Y129D02*
X585Y129D01*
X600Y129D02*
X613Y129D01*
X624Y129D02*
X627Y129D01*
X640Y129D02*
X643Y129D01*
X712Y129D02*
X725Y129D01*
X771Y129D02*
X774Y129D01*
X795Y129D02*
X804Y129D01*
X896Y129D02*
X899Y129D01*
X952Y129D02*
X963Y129D01*
X974Y129D02*
X980Y129D01*
X990Y129D02*
X993Y129D01*
X1004Y129D02*
X1017Y129D01*
X1068Y129D02*
X1071Y129D01*
X1168Y129D02*
X1186Y129D01*
X1201Y129D02*
X1214Y129D01*
X1225Y129D02*
X1228Y129D01*
X1241Y129D02*
X1244Y129D01*
X1317Y129D02*
X1330Y129D01*
X1376Y129D02*
X1379Y129D01*
X1401Y129D02*
X1409Y129D01*
X1960Y129D02*
X1967Y129D01*
X0Y128D02*
X7Y128D01*
X567Y128D02*
X570Y128D01*
X600Y128D02*
X604Y128D01*
X624Y128D02*
X627Y128D01*
X640Y128D02*
X643Y128D01*
X711Y128D02*
X715Y128D01*
X801Y128D02*
X804Y128D01*
X896Y128D02*
X899Y128D01*
X951Y128D02*
X955Y128D01*
X974Y128D02*
X980Y128D01*
X990Y128D02*
X993Y128D01*
X1007Y128D02*
X1010Y128D01*
X1013Y128D02*
X1017Y128D01*
X1068Y128D02*
X1071Y128D01*
X1168Y128D02*
X1171Y128D01*
X1201Y128D02*
X1205Y128D01*
X1225Y128D02*
X1228Y128D01*
X1241Y128D02*
X1244Y128D01*
X1316Y128D02*
X1320Y128D01*
X1406Y128D02*
X1409Y128D01*
X1960Y128D02*
X1967Y128D01*
X0Y127D02*
X7Y127D01*
X567Y127D02*
X570Y127D01*
X599Y127D02*
X603Y127D01*
X624Y127D02*
X627Y127D01*
X640Y127D02*
X643Y127D01*
X711Y127D02*
X714Y127D01*
X801Y127D02*
X804Y127D01*
X896Y127D02*
X899Y127D01*
X950Y127D02*
X954Y127D01*
X974Y127D02*
X981Y127D01*
X990Y127D02*
X993Y127D01*
X1007Y127D02*
X1010Y127D01*
X1014Y127D02*
X1018Y127D01*
X1068Y127D02*
X1071Y127D01*
X1168Y127D02*
X1171Y127D01*
X1200Y127D02*
X1204Y127D01*
X1225Y127D02*
X1228Y127D01*
X1241Y127D02*
X1244Y127D01*
X1316Y127D02*
X1319Y127D01*
X1406Y127D02*
X1409Y127D01*
X1960Y127D02*
X1967Y127D01*
X0Y126D02*
X7Y126D01*
X567Y126D02*
X570Y126D01*
X599Y126D02*
X602Y126D01*
X624Y126D02*
X627Y126D01*
X640Y126D02*
X643Y126D01*
X710Y126D02*
X714Y126D01*
X801Y126D02*
X804Y126D01*
X896Y126D02*
X899Y126D01*
X949Y126D02*
X953Y126D01*
X974Y126D02*
X981Y126D01*
X990Y126D02*
X993Y126D01*
X1007Y126D02*
X1010Y126D01*
X1015Y126D02*
X1018Y126D01*
X1068Y126D02*
X1071Y126D01*
X1168Y126D02*
X1171Y126D01*
X1200Y126D02*
X1203Y126D01*
X1225Y126D02*
X1228Y126D01*
X1241Y126D02*
X1244Y126D01*
X1315Y126D02*
X1319Y126D01*
X1406Y126D02*
X1409Y126D01*
X1960Y126D02*
X1967Y126D01*
X0Y125D02*
X7Y125D01*
X567Y125D02*
X570Y125D01*
X598Y125D02*
X602Y125D01*
X624Y125D02*
X627Y125D01*
X640Y125D02*
X643Y125D01*
X710Y125D02*
X713Y125D01*
X801Y125D02*
X804Y125D01*
X896Y125D02*
X899Y125D01*
X949Y125D02*
X953Y125D01*
X974Y125D02*
X982Y125D01*
X990Y125D02*
X993Y125D01*
X1007Y125D02*
X1010Y125D01*
X1015Y125D02*
X1019Y125D01*
X1068Y125D02*
X1071Y125D01*
X1168Y125D02*
X1171Y125D01*
X1199Y125D02*
X1203Y125D01*
X1225Y125D02*
X1228Y125D01*
X1241Y125D02*
X1244Y125D01*
X1315Y125D02*
X1318Y125D01*
X1406Y125D02*
X1409Y125D01*
X1960Y125D02*
X1967Y125D01*
X0Y124D02*
X7Y124D01*
X567Y124D02*
X570Y124D01*
X598Y124D02*
X601Y124D01*
X624Y124D02*
X627Y124D01*
X640Y124D02*
X643Y124D01*
X709Y124D02*
X713Y124D01*
X742Y124D02*
X748Y124D01*
X768Y124D02*
X773Y124D01*
X801Y124D02*
X804Y124D01*
X896Y124D02*
X899Y124D01*
X948Y124D02*
X952Y124D01*
X974Y124D02*
X977Y124D01*
X979Y124D02*
X982Y124D01*
X990Y124D02*
X993Y124D01*
X1007Y124D02*
X1010Y124D01*
X1016Y124D02*
X1019Y124D01*
X1068Y124D02*
X1071Y124D01*
X1168Y124D02*
X1171Y124D01*
X1199Y124D02*
X1202Y124D01*
X1225Y124D02*
X1228Y124D01*
X1241Y124D02*
X1244Y124D01*
X1314Y124D02*
X1318Y124D01*
X1347Y124D02*
X1353Y124D01*
X1373Y124D02*
X1378Y124D01*
X1406Y124D02*
X1409Y124D01*
X1960Y124D02*
X1967Y124D01*
X0Y123D02*
X7Y123D01*
X567Y123D02*
X570Y123D01*
X597Y123D02*
X601Y123D01*
X624Y123D02*
X627Y123D01*
X640Y123D02*
X643Y123D01*
X709Y123D02*
X712Y123D01*
X739Y123D02*
X750Y123D01*
X766Y123D02*
X775Y123D01*
X801Y123D02*
X804Y123D01*
X896Y123D02*
X899Y123D01*
X947Y123D02*
X951Y123D01*
X974Y123D02*
X977Y123D01*
X979Y123D02*
X983Y123D01*
X990Y123D02*
X993Y123D01*
X1007Y123D02*
X1010Y123D01*
X1016Y123D02*
X1020Y123D01*
X1068Y123D02*
X1071Y123D01*
X1168Y123D02*
X1171Y123D01*
X1198Y123D02*
X1202Y123D01*
X1225Y123D02*
X1228Y123D01*
X1241Y123D02*
X1244Y123D01*
X1314Y123D02*
X1317Y123D01*
X1345Y123D02*
X1355Y123D01*
X1371Y123D02*
X1380Y123D01*
X1406Y123D02*
X1409Y123D01*
X1960Y123D02*
X1967Y123D01*
X0Y122D02*
X7Y122D01*
X567Y122D02*
X570Y122D01*
X597Y122D02*
X600Y122D01*
X624Y122D02*
X627Y122D01*
X640Y122D02*
X643Y122D01*
X708Y122D02*
X712Y122D01*
X738Y122D02*
X751Y122D01*
X766Y122D02*
X775Y122D01*
X801Y122D02*
X804Y122D01*
X896Y122D02*
X899Y122D01*
X946Y122D02*
X950Y122D01*
X974Y122D02*
X977Y122D01*
X980Y122D02*
X983Y122D01*
X990Y122D02*
X993Y122D01*
X1007Y122D02*
X1010Y122D01*
X1017Y122D02*
X1020Y122D01*
X1068Y122D02*
X1071Y122D01*
X1168Y122D02*
X1171Y122D01*
X1198Y122D02*
X1201Y122D01*
X1225Y122D02*
X1228Y122D01*
X1241Y122D02*
X1244Y122D01*
X1313Y122D02*
X1317Y122D01*
X1343Y122D02*
X1357Y122D01*
X1371Y122D02*
X1380Y122D01*
X1406Y122D02*
X1409Y122D01*
X1960Y122D02*
X1967Y122D01*
X0Y121D02*
X7Y121D01*
X567Y121D02*
X570Y121D01*
X596Y121D02*
X600Y121D01*
X624Y121D02*
X627Y121D01*
X640Y121D02*
X643Y121D01*
X708Y121D02*
X711Y121D01*
X737Y121D02*
X752Y121D01*
X766Y121D02*
X775Y121D01*
X801Y121D02*
X804Y121D01*
X896Y121D02*
X899Y121D01*
X946Y121D02*
X950Y121D01*
X974Y121D02*
X977Y121D01*
X980Y121D02*
X983Y121D01*
X990Y121D02*
X993Y121D01*
X1007Y121D02*
X1010Y121D01*
X1017Y121D02*
X1021Y121D01*
X1068Y121D02*
X1071Y121D01*
X1168Y121D02*
X1171Y121D01*
X1197Y121D02*
X1201Y121D01*
X1225Y121D02*
X1228Y121D01*
X1241Y121D02*
X1244Y121D01*
X1313Y121D02*
X1316Y121D01*
X1342Y121D02*
X1358Y121D01*
X1371Y121D02*
X1380Y121D01*
X1406Y121D02*
X1409Y121D01*
X1960Y121D02*
X1967Y121D01*
X0Y120D02*
X7Y120D01*
X567Y120D02*
X570Y120D01*
X596Y120D02*
X599Y120D01*
X624Y120D02*
X627Y120D01*
X640Y120D02*
X643Y120D01*
X707Y120D02*
X711Y120D01*
X736Y120D02*
X742Y120D01*
X748Y120D02*
X753Y120D01*
X772Y120D02*
X775Y120D01*
X801Y120D02*
X804Y120D01*
X896Y120D02*
X899Y120D01*
X946Y120D02*
X949Y120D01*
X974Y120D02*
X977Y120D01*
X981Y120D02*
X984Y120D01*
X990Y120D02*
X993Y120D01*
X1007Y120D02*
X1010Y120D01*
X1018Y120D02*
X1021Y120D01*
X1068Y120D02*
X1071Y120D01*
X1168Y120D02*
X1171Y120D01*
X1197Y120D02*
X1200Y120D01*
X1225Y120D02*
X1228Y120D01*
X1241Y120D02*
X1244Y120D01*
X1312Y120D02*
X1316Y120D01*
X1342Y120D02*
X1347Y120D01*
X1353Y120D02*
X1358Y120D01*
X1377Y120D02*
X1380Y120D01*
X1406Y120D02*
X1409Y120D01*
X1960Y120D02*
X1967Y120D01*
X0Y119D02*
X7Y119D01*
X567Y119D02*
X576Y119D01*
X596Y119D02*
X599Y119D01*
X624Y119D02*
X627Y119D01*
X640Y119D02*
X643Y119D01*
X707Y119D02*
X710Y119D01*
X736Y119D02*
X740Y119D01*
X750Y119D02*
X754Y119D01*
X772Y119D02*
X775Y119D01*
X801Y119D02*
X804Y119D01*
X946Y119D02*
X949Y119D01*
X974Y119D02*
X977Y119D01*
X981Y119D02*
X984Y119D01*
X990Y119D02*
X993Y119D01*
X1007Y119D02*
X1010Y119D01*
X1018Y119D02*
X1021Y119D01*
X1168Y119D02*
X1177Y119D01*
X1197Y119D02*
X1200Y119D01*
X1225Y119D02*
X1228Y119D01*
X1241Y119D02*
X1244Y119D01*
X1312Y119D02*
X1315Y119D01*
X1341Y119D02*
X1345Y119D01*
X1355Y119D02*
X1359Y119D01*
X1377Y119D02*
X1380Y119D01*
X1406Y119D02*
X1409Y119D01*
X1960Y119D02*
X1967Y119D01*
X0Y118D02*
X7Y118D01*
X567Y118D02*
X577Y118D01*
X595Y118D02*
X598Y118D01*
X624Y118D02*
X627Y118D01*
X640Y118D02*
X643Y118D01*
X707Y118D02*
X710Y118D01*
X736Y118D02*
X739Y118D01*
X751Y118D02*
X754Y118D01*
X772Y118D02*
X775Y118D01*
X801Y118D02*
X804Y118D01*
X945Y118D02*
X948Y118D01*
X974Y118D02*
X977Y118D01*
X981Y118D02*
X985Y118D01*
X990Y118D02*
X993Y118D01*
X1007Y118D02*
X1010Y118D01*
X1018Y118D02*
X1022Y118D01*
X1168Y118D02*
X1178Y118D01*
X1196Y118D02*
X1199Y118D01*
X1225Y118D02*
X1228Y118D01*
X1241Y118D02*
X1244Y118D01*
X1312Y118D02*
X1315Y118D01*
X1341Y118D02*
X1344Y118D01*
X1356Y118D02*
X1359Y118D01*
X1377Y118D02*
X1380Y118D01*
X1406Y118D02*
X1409Y118D01*
X1960Y118D02*
X1967Y118D01*
X0Y117D02*
X7Y117D01*
X567Y117D02*
X578Y117D01*
X595Y117D02*
X598Y117D01*
X624Y117D02*
X627Y117D01*
X640Y117D02*
X643Y117D01*
X707Y117D02*
X710Y117D01*
X735Y117D02*
X738Y117D01*
X751Y117D02*
X754Y117D01*
X772Y117D02*
X775Y117D01*
X801Y117D02*
X804Y117D01*
X945Y117D02*
X948Y117D01*
X974Y117D02*
X977Y117D01*
X982Y117D02*
X985Y117D01*
X990Y117D02*
X993Y117D01*
X1007Y117D02*
X1010Y117D01*
X1019Y117D02*
X1022Y117D01*
X1168Y117D02*
X1179Y117D01*
X1196Y117D02*
X1199Y117D01*
X1225Y117D02*
X1228Y117D01*
X1241Y117D02*
X1244Y117D01*
X1312Y117D02*
X1315Y117D01*
X1341Y117D02*
X1344Y117D01*
X1356Y117D02*
X1359Y117D01*
X1377Y117D02*
X1380Y117D01*
X1406Y117D02*
X1409Y117D01*
X1960Y117D02*
X1967Y117D01*
X0Y116D02*
X7Y116D01*
X567Y116D02*
X577Y116D01*
X595Y116D02*
X598Y116D01*
X624Y116D02*
X627Y116D01*
X640Y116D02*
X643Y116D01*
X707Y116D02*
X710Y116D01*
X735Y116D02*
X738Y116D01*
X751Y116D02*
X754Y116D01*
X772Y116D02*
X775Y116D01*
X801Y116D02*
X804Y116D01*
X945Y116D02*
X948Y116D01*
X974Y116D02*
X977Y116D01*
X982Y116D02*
X986Y116D01*
X990Y116D02*
X993Y116D01*
X1007Y116D02*
X1010Y116D01*
X1018Y116D02*
X1022Y116D01*
X1168Y116D02*
X1178Y116D01*
X1196Y116D02*
X1199Y116D01*
X1225Y116D02*
X1228Y116D01*
X1241Y116D02*
X1244Y116D01*
X1312Y116D02*
X1315Y116D01*
X1340Y116D02*
X1344Y116D01*
X1356Y116D02*
X1359Y116D01*
X1377Y116D02*
X1380Y116D01*
X1406Y116D02*
X1409Y116D01*
X1960Y116D02*
X1967Y116D01*
X0Y115D02*
X7Y115D01*
X567Y115D02*
X570Y115D01*
X596Y115D02*
X599Y115D01*
X624Y115D02*
X627Y115D01*
X640Y115D02*
X643Y115D01*
X707Y115D02*
X710Y115D01*
X735Y115D02*
X738Y115D01*
X751Y115D02*
X754Y115D01*
X772Y115D02*
X775Y115D01*
X801Y115D02*
X804Y115D01*
X896Y115D02*
X899Y115D01*
X945Y115D02*
X948Y115D01*
X956Y115D02*
X964Y115D01*
X974Y115D02*
X977Y115D01*
X983Y115D02*
X986Y115D01*
X990Y115D02*
X993Y115D01*
X1007Y115D02*
X1010Y115D01*
X1018Y115D02*
X1021Y115D01*
X1068Y115D02*
X1071Y115D01*
X1168Y115D02*
X1171Y115D01*
X1197Y115D02*
X1200Y115D01*
X1225Y115D02*
X1228Y115D01*
X1241Y115D02*
X1244Y115D01*
X1312Y115D02*
X1315Y115D01*
X1340Y115D02*
X1344Y115D01*
X1356Y115D02*
X1359Y115D01*
X1377Y115D02*
X1380Y115D01*
X1406Y115D02*
X1409Y115D01*
X1960Y115D02*
X1967Y115D01*
X0Y114D02*
X7Y114D01*
X567Y114D02*
X570Y114D01*
X596Y114D02*
X599Y114D01*
X624Y114D02*
X627Y114D01*
X640Y114D02*
X643Y114D01*
X707Y114D02*
X711Y114D01*
X735Y114D02*
X738Y114D01*
X751Y114D02*
X754Y114D01*
X772Y114D02*
X775Y114D01*
X801Y114D02*
X804Y114D01*
X896Y114D02*
X899Y114D01*
X945Y114D02*
X948Y114D01*
X955Y114D02*
X964Y114D01*
X974Y114D02*
X977Y114D01*
X983Y114D02*
X987Y114D01*
X990Y114D02*
X993Y114D01*
X1007Y114D02*
X1010Y114D01*
X1018Y114D02*
X1021Y114D01*
X1068Y114D02*
X1071Y114D01*
X1168Y114D02*
X1171Y114D01*
X1197Y114D02*
X1200Y114D01*
X1225Y114D02*
X1228Y114D01*
X1241Y114D02*
X1244Y114D01*
X1312Y114D02*
X1316Y114D01*
X1340Y114D02*
X1344Y114D01*
X1356Y114D02*
X1359Y114D01*
X1377Y114D02*
X1380Y114D01*
X1406Y114D02*
X1409Y114D01*
X1960Y114D02*
X1967Y114D01*
X0Y113D02*
X7Y113D01*
X567Y113D02*
X570Y113D01*
X596Y113D02*
X600Y113D01*
X624Y113D02*
X627Y113D01*
X640Y113D02*
X643Y113D01*
X708Y113D02*
X711Y113D01*
X735Y113D02*
X738Y113D01*
X751Y113D02*
X754Y113D01*
X772Y113D02*
X775Y113D01*
X801Y113D02*
X804Y113D01*
X896Y113D02*
X899Y113D01*
X945Y113D02*
X948Y113D01*
X955Y113D02*
X964Y113D01*
X974Y113D02*
X977Y113D01*
X984Y113D02*
X987Y113D01*
X990Y113D02*
X993Y113D01*
X1007Y113D02*
X1010Y113D01*
X1017Y113D02*
X1021Y113D01*
X1068Y113D02*
X1071Y113D01*
X1168Y113D02*
X1171Y113D01*
X1197Y113D02*
X1201Y113D01*
X1225Y113D02*
X1228Y113D01*
X1241Y113D02*
X1244Y113D01*
X1313Y113D02*
X1316Y113D01*
X1340Y113D02*
X1344Y113D01*
X1356Y113D02*
X1359Y113D01*
X1377Y113D02*
X1380Y113D01*
X1406Y113D02*
X1409Y113D01*
X1960Y113D02*
X1967Y113D01*
X0Y112D02*
X7Y112D01*
X567Y112D02*
X570Y112D01*
X597Y112D02*
X600Y112D01*
X624Y112D02*
X627Y112D01*
X640Y112D02*
X643Y112D01*
X708Y112D02*
X712Y112D01*
X735Y112D02*
X738Y112D01*
X751Y112D02*
X754Y112D01*
X772Y112D02*
X775Y112D01*
X801Y112D02*
X804Y112D01*
X896Y112D02*
X899Y112D01*
X945Y112D02*
X948Y112D01*
X956Y112D02*
X964Y112D01*
X974Y112D02*
X977Y112D01*
X984Y112D02*
X987Y112D01*
X990Y112D02*
X993Y112D01*
X1007Y112D02*
X1010Y112D01*
X1017Y112D02*
X1020Y112D01*
X1068Y112D02*
X1071Y112D01*
X1168Y112D02*
X1171Y112D01*
X1198Y112D02*
X1201Y112D01*
X1225Y112D02*
X1228Y112D01*
X1241Y112D02*
X1244Y112D01*
X1313Y112D02*
X1317Y112D01*
X1340Y112D02*
X1344Y112D01*
X1356Y112D02*
X1359Y112D01*
X1377Y112D02*
X1380Y112D01*
X1406Y112D02*
X1409Y112D01*
X1960Y112D02*
X1967Y112D01*
X0Y111D02*
X7Y111D01*
X567Y111D02*
X570Y111D01*
X597Y111D02*
X601Y111D01*
X624Y111D02*
X627Y111D01*
X640Y111D02*
X643Y111D01*
X709Y111D02*
X712Y111D01*
X735Y111D02*
X738Y111D01*
X751Y111D02*
X754Y111D01*
X772Y111D02*
X775Y111D01*
X801Y111D02*
X804Y111D01*
X896Y111D02*
X899Y111D01*
X945Y111D02*
X948Y111D01*
X961Y111D02*
X964Y111D01*
X974Y111D02*
X977Y111D01*
X984Y111D02*
X988Y111D01*
X990Y111D02*
X993Y111D01*
X1007Y111D02*
X1010Y111D01*
X1016Y111D02*
X1020Y111D01*
X1068Y111D02*
X1071Y111D01*
X1168Y111D02*
X1171Y111D01*
X1198Y111D02*
X1202Y111D01*
X1225Y111D02*
X1228Y111D01*
X1241Y111D02*
X1244Y111D01*
X1314Y111D02*
X1317Y111D01*
X1340Y111D02*
X1344Y111D01*
X1356Y111D02*
X1359Y111D01*
X1377Y111D02*
X1380Y111D01*
X1406Y111D02*
X1409Y111D01*
X1960Y111D02*
X1967Y111D01*
X0Y110D02*
X7Y110D01*
X567Y110D02*
X570Y110D01*
X598Y110D02*
X601Y110D01*
X624Y110D02*
X627Y110D01*
X640Y110D02*
X643Y110D01*
X709Y110D02*
X713Y110D01*
X735Y110D02*
X738Y110D01*
X751Y110D02*
X754Y110D01*
X772Y110D02*
X775Y110D01*
X801Y110D02*
X804Y110D01*
X896Y110D02*
X899Y110D01*
X945Y110D02*
X948Y110D01*
X961Y110D02*
X964Y110D01*
X974Y110D02*
X977Y110D01*
X985Y110D02*
X988Y110D01*
X990Y110D02*
X993Y110D01*
X1007Y110D02*
X1010Y110D01*
X1016Y110D02*
X1019Y110D01*
X1068Y110D02*
X1071Y110D01*
X1168Y110D02*
X1171Y110D01*
X1199Y110D02*
X1202Y110D01*
X1225Y110D02*
X1228Y110D01*
X1241Y110D02*
X1244Y110D01*
X1314Y110D02*
X1318Y110D01*
X1340Y110D02*
X1344Y110D01*
X1356Y110D02*
X1359Y110D01*
X1377Y110D02*
X1380Y110D01*
X1406Y110D02*
X1409Y110D01*
X1960Y110D02*
X1967Y110D01*
X0Y109D02*
X7Y109D01*
X567Y109D02*
X570Y109D01*
X598Y109D02*
X602Y109D01*
X624Y109D02*
X627Y109D01*
X640Y109D02*
X643Y109D01*
X710Y109D02*
X713Y109D01*
X735Y109D02*
X738Y109D01*
X751Y109D02*
X754Y109D01*
X772Y109D02*
X775Y109D01*
X801Y109D02*
X804Y109D01*
X896Y109D02*
X899Y109D01*
X945Y109D02*
X948Y109D01*
X961Y109D02*
X964Y109D01*
X974Y109D02*
X977Y109D01*
X985Y109D02*
X993Y109D01*
X1007Y109D02*
X1010Y109D01*
X1015Y109D02*
X1019Y109D01*
X1068Y109D02*
X1071Y109D01*
X1168Y109D02*
X1171Y109D01*
X1199Y109D02*
X1203Y109D01*
X1225Y109D02*
X1228Y109D01*
X1241Y109D02*
X1244Y109D01*
X1315Y109D02*
X1318Y109D01*
X1340Y109D02*
X1344Y109D01*
X1356Y109D02*
X1359Y109D01*
X1377Y109D02*
X1380Y109D01*
X1406Y109D02*
X1409Y109D01*
X1960Y109D02*
X1967Y109D01*
X0Y108D02*
X7Y108D01*
X567Y108D02*
X570Y108D01*
X599Y108D02*
X602Y108D01*
X624Y108D02*
X627Y108D01*
X640Y108D02*
X643Y108D01*
X710Y108D02*
X714Y108D01*
X735Y108D02*
X739Y108D01*
X751Y108D02*
X754Y108D01*
X772Y108D02*
X775Y108D01*
X801Y108D02*
X804Y108D01*
X896Y108D02*
X899Y108D01*
X945Y108D02*
X948Y108D01*
X961Y108D02*
X964Y108D01*
X974Y108D02*
X977Y108D01*
X986Y108D02*
X993Y108D01*
X1007Y108D02*
X1010Y108D01*
X1015Y108D02*
X1018Y108D01*
X1068Y108D02*
X1071Y108D01*
X1168Y108D02*
X1171Y108D01*
X1200Y108D02*
X1203Y108D01*
X1225Y108D02*
X1228Y108D01*
X1241Y108D02*
X1244Y108D01*
X1315Y108D02*
X1319Y108D01*
X1341Y108D02*
X1344Y108D01*
X1356Y108D02*
X1359Y108D01*
X1377Y108D02*
X1380Y108D01*
X1406Y108D02*
X1409Y108D01*
X1960Y108D02*
X1967Y108D01*
X0Y107D02*
X7Y107D01*
X567Y107D02*
X570Y107D01*
X599Y107D02*
X603Y107D01*
X624Y107D02*
X627Y107D01*
X640Y107D02*
X643Y107D01*
X711Y107D02*
X714Y107D01*
X736Y107D02*
X739Y107D01*
X750Y107D02*
X754Y107D01*
X772Y107D02*
X775Y107D01*
X801Y107D02*
X804Y107D01*
X896Y107D02*
X899Y107D01*
X946Y107D02*
X949Y107D01*
X961Y107D02*
X964Y107D01*
X974Y107D02*
X977Y107D01*
X986Y107D02*
X993Y107D01*
X1007Y107D02*
X1010Y107D01*
X1014Y107D02*
X1018Y107D01*
X1068Y107D02*
X1071Y107D01*
X1168Y107D02*
X1171Y107D01*
X1200Y107D02*
X1204Y107D01*
X1225Y107D02*
X1228Y107D01*
X1241Y107D02*
X1244Y107D01*
X1316Y107D02*
X1319Y107D01*
X1341Y107D02*
X1344Y107D01*
X1355Y107D02*
X1359Y107D01*
X1377Y107D02*
X1380Y107D01*
X1406Y107D02*
X1409Y107D01*
X1960Y107D02*
X1967Y107D01*
X0Y106D02*
X7Y106D01*
X567Y106D02*
X570Y106D01*
X600Y106D02*
X604Y106D01*
X624Y106D02*
X628Y106D01*
X639Y106D02*
X643Y106D01*
X711Y106D02*
X715Y106D01*
X736Y106D02*
X741Y106D01*
X749Y106D02*
X754Y106D01*
X772Y106D02*
X775Y106D01*
X801Y106D02*
X804Y106D01*
X896Y106D02*
X899Y106D01*
X946Y106D02*
X949Y106D01*
X960Y106D02*
X964Y106D01*
X974Y106D02*
X977Y106D01*
X987Y106D02*
X993Y106D01*
X1007Y106D02*
X1010Y106D01*
X1013Y106D02*
X1017Y106D01*
X1068Y106D02*
X1071Y106D01*
X1168Y106D02*
X1171Y106D01*
X1201Y106D02*
X1205Y106D01*
X1225Y106D02*
X1229Y106D01*
X1240Y106D02*
X1244Y106D01*
X1316Y106D02*
X1320Y106D01*
X1341Y106D02*
X1346Y106D01*
X1354Y106D02*
X1359Y106D01*
X1377Y106D02*
X1380Y106D01*
X1406Y106D02*
X1409Y106D01*
X1960Y106D02*
X1967Y106D01*
X0Y105D02*
X7Y105D01*
X567Y105D02*
X585Y105D01*
X600Y105D02*
X613Y105D01*
X625Y105D02*
X642Y105D01*
X712Y105D02*
X725Y105D01*
X737Y105D02*
X753Y105D01*
X767Y105D02*
X780Y105D01*
X795Y105D02*
X809Y105D01*
X896Y105D02*
X899Y105D01*
X946Y105D02*
X964Y105D01*
X974Y105D02*
X977Y105D01*
X987Y105D02*
X993Y105D01*
X1004Y105D02*
X1017Y105D01*
X1068Y105D02*
X1071Y105D01*
X1168Y105D02*
X1186Y105D01*
X1201Y105D02*
X1214Y105D01*
X1226Y105D02*
X1243Y105D01*
X1317Y105D02*
X1330Y105D01*
X1342Y105D02*
X1358Y105D01*
X1372Y105D02*
X1385Y105D01*
X1401Y105D02*
X1414Y105D01*
X1960Y105D02*
X1967Y105D01*
X0Y104D02*
X7Y104D01*
X567Y104D02*
X585Y104D01*
X601Y104D02*
X614Y104D01*
X625Y104D02*
X642Y104D01*
X712Y104D02*
X725Y104D01*
X738Y104D02*
X752Y104D01*
X766Y104D02*
X781Y104D01*
X795Y104D02*
X809Y104D01*
X896Y104D02*
X899Y104D01*
X947Y104D02*
X963Y104D01*
X974Y104D02*
X977Y104D01*
X988Y104D02*
X993Y104D01*
X1003Y104D02*
X1016Y104D01*
X1068Y104D02*
X1071Y104D01*
X1168Y104D02*
X1186Y104D01*
X1202Y104D02*
X1215Y104D01*
X1226Y104D02*
X1243Y104D01*
X1317Y104D02*
X1331Y104D01*
X1343Y104D02*
X1357Y104D01*
X1371Y104D02*
X1386Y104D01*
X1400Y104D02*
X1415Y104D01*
X1960Y104D02*
X1967Y104D01*
X0Y103D02*
X7Y103D01*
X567Y103D02*
X585Y103D01*
X602Y103D02*
X614Y103D01*
X626Y103D02*
X641Y103D01*
X713Y103D02*
X725Y103D01*
X739Y103D02*
X751Y103D01*
X766Y103D02*
X781Y103D01*
X795Y103D02*
X809Y103D01*
X896Y103D02*
X899Y103D01*
X948Y103D02*
X962Y103D01*
X974Y103D02*
X977Y103D01*
X988Y103D02*
X993Y103D01*
X1003Y103D02*
X1015Y103D01*
X1068Y103D02*
X1071Y103D01*
X1168Y103D02*
X1186Y103D01*
X1203Y103D02*
X1215Y103D01*
X1227Y103D02*
X1242Y103D01*
X1318Y103D02*
X1331Y103D01*
X1344Y103D02*
X1356Y103D01*
X1371Y103D02*
X1386Y103D01*
X1400Y103D02*
X1415Y103D01*
X1960Y103D02*
X1967Y103D01*
X0Y102D02*
X7Y102D01*
X567Y102D02*
X585Y102D01*
X603Y102D02*
X613Y102D01*
X628Y102D02*
X639Y102D01*
X715Y102D02*
X725Y102D01*
X740Y102D02*
X749Y102D01*
X767Y102D02*
X780Y102D01*
X795Y102D02*
X809Y102D01*
X897Y102D02*
X898Y102D01*
X949Y102D02*
X961Y102D01*
X975Y102D02*
X976Y102D01*
X988Y102D02*
X993Y102D01*
X1004Y102D02*
X1014Y102D01*
X1069Y102D02*
X1070Y102D01*
X1168Y102D02*
X1186Y102D01*
X1204Y102D02*
X1214Y102D01*
X1229Y102D02*
X1240Y102D01*
X1320Y102D02*
X1330Y102D01*
X1346Y102D02*
X1354Y102D01*
X1372Y102D02*
X1385Y102D01*
X1401Y102D02*
X1414Y102D01*
X1960Y102D02*
X1967Y102D01*
X0Y101D02*
X7Y101D01*
X1960Y101D02*
X1967Y101D01*
X0Y100D02*
X7Y100D01*
X1960Y100D02*
X1967Y100D01*
X0Y99D02*
X7Y99D01*
X1960Y99D02*
X1967Y99D01*
X0Y98D02*
X7Y98D01*
X1960Y98D02*
X1967Y98D01*
X0Y97D02*
X7Y97D01*
X1960Y97D02*
X1967Y97D01*
X0Y96D02*
X7Y96D01*
X1960Y96D02*
X1967Y96D01*
X0Y95D02*
X7Y95D01*
X1960Y95D02*
X1967Y95D01*
X0Y94D02*
X7Y94D01*
X1960Y94D02*
X1967Y94D01*
X0Y93D02*
X7Y93D01*
X1960Y93D02*
X1967Y93D01*
X0Y92D02*
X7Y92D01*
X1960Y92D02*
X1967Y92D01*
X0Y91D02*
X7Y91D01*
X1960Y91D02*
X1967Y91D01*
X0Y90D02*
X7Y90D01*
X1960Y90D02*
X1967Y90D01*
X0Y89D02*
X7Y89D01*
X1960Y89D02*
X1967Y89D01*
X0Y88D02*
X7Y88D01*
X1960Y88D02*
X1967Y88D01*
X0Y87D02*
X7Y87D01*
X1960Y87D02*
X1967Y87D01*
X0Y86D02*
X7Y86D01*
X1960Y86D02*
X1967Y86D01*
X0Y85D02*
X7Y85D01*
X1960Y85D02*
X1967Y85D01*
X0Y84D02*
X7Y84D01*
X1960Y84D02*
X1967Y84D01*
X0Y83D02*
X7Y83D01*
X1960Y83D02*
X1967Y83D01*
X0Y82D02*
X7Y82D01*
X1960Y82D02*
X1967Y82D01*
X0Y81D02*
X7Y81D01*
X1960Y81D02*
X1967Y81D01*
X0Y80D02*
X7Y80D01*
X1960Y80D02*
X1967Y80D01*
X0Y79D02*
X7Y79D01*
X1960Y79D02*
X1967Y79D01*
X0Y78D02*
X7Y78D01*
X1960Y78D02*
X1967Y78D01*
X0Y77D02*
X7Y77D01*
X629Y77D02*
X643Y77D01*
X668Y77D02*
X672Y77D01*
X685Y77D02*
X688Y77D01*
X715Y77D02*
X723Y77D01*
X1240Y77D02*
X1254Y77D01*
X1279Y77D02*
X1283Y77D01*
X1296Y77D02*
X1299Y77D01*
X1326Y77D02*
X1338Y77D01*
X1960Y77D02*
X1967Y77D01*
X0Y76D02*
X7Y76D01*
X627Y76D02*
X645Y76D01*
X664Y76D02*
X674Y76D01*
X684Y76D02*
X689Y76D01*
X700Y76D02*
X703Y76D01*
X713Y76D02*
X724Y76D01*
X1238Y76D02*
X1256Y76D01*
X1275Y76D02*
X1285Y76D01*
X1295Y76D02*
X1300Y76D01*
X1311Y76D02*
X1314Y76D01*
X1324Y76D02*
X1341Y76D01*
X1960Y76D02*
X1967Y76D01*
X0Y75D02*
X7Y75D01*
X627Y75D02*
X646Y75D01*
X663Y75D02*
X674Y75D01*
X684Y75D02*
X689Y75D01*
X700Y75D02*
X703Y75D01*
X713Y75D02*
X724Y75D01*
X1238Y75D02*
X1257Y75D01*
X1274Y75D02*
X1285Y75D01*
X1295Y75D02*
X1300Y75D01*
X1311Y75D02*
X1314Y75D01*
X1324Y75D02*
X1342Y75D01*
X1960Y75D02*
X1967Y75D01*
X0Y74D02*
X7Y74D01*
X627Y74D02*
X645Y74D01*
X662Y74D02*
X674Y74D01*
X684Y74D02*
X690Y74D01*
X700Y74D02*
X703Y74D01*
X713Y74D02*
X724Y74D01*
X1238Y74D02*
X1256Y74D01*
X1273Y74D02*
X1285Y74D01*
X1295Y74D02*
X1301Y74D01*
X1311Y74D02*
X1314Y74D01*
X1324Y74D02*
X1343Y74D01*
X1960Y74D02*
X1967Y74D01*
X0Y73D02*
X7Y73D01*
X629Y73D02*
X644Y73D01*
X661Y73D02*
X672Y73D01*
X684Y73D02*
X690Y73D01*
X700Y73D02*
X703Y73D01*
X715Y73D02*
X724Y73D01*
X1240Y73D02*
X1255Y73D01*
X1272Y73D02*
X1283Y73D01*
X1295Y73D02*
X1301Y73D01*
X1311Y73D02*
X1314Y73D01*
X1326Y73D02*
X1343Y73D01*
X1960Y73D02*
X1967Y73D01*
X0Y72D02*
X7Y72D01*
X635Y72D02*
X638Y72D01*
X661Y72D02*
X665Y72D01*
X684Y72D02*
X691Y72D01*
X700Y72D02*
X703Y72D01*
X721Y72D02*
X724Y72D01*
X1246Y72D02*
X1249Y72D01*
X1272Y72D02*
X1276Y72D01*
X1295Y72D02*
X1302Y72D01*
X1311Y72D02*
X1314Y72D01*
X1340Y72D02*
X1343Y72D01*
X1960Y72D02*
X1967Y72D01*
X0Y71D02*
X7Y71D01*
X635Y71D02*
X638Y71D01*
X660Y71D02*
X664Y71D01*
X684Y71D02*
X691Y71D01*
X700Y71D02*
X703Y71D01*
X721Y71D02*
X724Y71D01*
X1246Y71D02*
X1249Y71D01*
X1271Y71D02*
X1275Y71D01*
X1295Y71D02*
X1302Y71D01*
X1311Y71D02*
X1314Y71D01*
X1340Y71D02*
X1343Y71D01*
X1960Y71D02*
X1967Y71D01*
X0Y70D02*
X7Y70D01*
X635Y70D02*
X638Y70D01*
X659Y70D02*
X663Y70D01*
X684Y70D02*
X692Y70D01*
X700Y70D02*
X703Y70D01*
X721Y70D02*
X724Y70D01*
X1246Y70D02*
X1249Y70D01*
X1270Y70D02*
X1274Y70D01*
X1295Y70D02*
X1303Y70D01*
X1311Y70D02*
X1314Y70D01*
X1340Y70D02*
X1343Y70D01*
X1960Y70D02*
X1967Y70D01*
X0Y69D02*
X7Y69D01*
X635Y69D02*
X638Y69D01*
X658Y69D02*
X662Y69D01*
X684Y69D02*
X692Y69D01*
X700Y69D02*
X703Y69D01*
X721Y69D02*
X724Y69D01*
X1246Y69D02*
X1249Y69D01*
X1269Y69D02*
X1273Y69D01*
X1295Y69D02*
X1303Y69D01*
X1311Y69D02*
X1314Y69D01*
X1340Y69D02*
X1343Y69D01*
X1960Y69D02*
X1967Y69D01*
X0Y68D02*
X7Y68D01*
X635Y68D02*
X638Y68D01*
X658Y68D02*
X662Y68D01*
X684Y68D02*
X687Y68D01*
X689Y68D02*
X693Y68D01*
X700Y68D02*
X703Y68D01*
X721Y68D02*
X724Y68D01*
X1246Y68D02*
X1249Y68D01*
X1268Y68D02*
X1273Y68D01*
X1295Y68D02*
X1298Y68D01*
X1300Y68D02*
X1303Y68D01*
X1311Y68D02*
X1314Y68D01*
X1340Y68D02*
X1343Y68D01*
X1960Y68D02*
X1967Y68D01*
X0Y67D02*
X7Y67D01*
X635Y67D02*
X638Y67D01*
X657Y67D02*
X661Y67D01*
X684Y67D02*
X687Y67D01*
X690Y67D02*
X693Y67D01*
X700Y67D02*
X703Y67D01*
X721Y67D02*
X724Y67D01*
X1246Y67D02*
X1249Y67D01*
X1268Y67D02*
X1272Y67D01*
X1295Y67D02*
X1298Y67D01*
X1301Y67D02*
X1304Y67D01*
X1311Y67D02*
X1314Y67D01*
X1340Y67D02*
X1343Y67D01*
X1960Y67D02*
X1967Y67D01*
X0Y66D02*
X7Y66D01*
X635Y66D02*
X638Y66D01*
X656Y66D02*
X660Y66D01*
X684Y66D02*
X687Y66D01*
X690Y66D02*
X693Y66D01*
X700Y66D02*
X703Y66D01*
X721Y66D02*
X724Y66D01*
X1246Y66D02*
X1249Y66D01*
X1267Y66D02*
X1271Y66D01*
X1295Y66D02*
X1298Y66D01*
X1301Y66D02*
X1304Y66D01*
X1311Y66D02*
X1314Y66D01*
X1340Y66D02*
X1343Y66D01*
X1960Y66D02*
X1967Y66D01*
X0Y65D02*
X7Y65D01*
X635Y65D02*
X638Y65D01*
X656Y65D02*
X659Y65D01*
X684Y65D02*
X687Y65D01*
X690Y65D02*
X694Y65D01*
X700Y65D02*
X703Y65D01*
X721Y65D02*
X724Y65D01*
X1246Y65D02*
X1249Y65D01*
X1267Y65D02*
X1270Y65D01*
X1295Y65D02*
X1298Y65D01*
X1301Y65D02*
X1305Y65D01*
X1311Y65D02*
X1314Y65D01*
X1340Y65D02*
X1343Y65D01*
X1960Y65D02*
X1967Y65D01*
X0Y64D02*
X7Y64D01*
X635Y64D02*
X638Y64D01*
X656Y64D02*
X659Y64D01*
X684Y64D02*
X687Y64D01*
X691Y64D02*
X694Y64D01*
X700Y64D02*
X703Y64D01*
X721Y64D02*
X724Y64D01*
X1246Y64D02*
X1249Y64D01*
X1267Y64D02*
X1270Y64D01*
X1295Y64D02*
X1298Y64D01*
X1302Y64D02*
X1305Y64D01*
X1311Y64D02*
X1314Y64D01*
X1340Y64D02*
X1343Y64D01*
X1960Y64D02*
X1967Y64D01*
X0Y63D02*
X7Y63D01*
X635Y63D02*
X638Y63D01*
X656Y63D02*
X659Y63D01*
X684Y63D02*
X687Y63D01*
X691Y63D02*
X695Y63D01*
X700Y63D02*
X703Y63D01*
X721Y63D02*
X724Y63D01*
X1246Y63D02*
X1249Y63D01*
X1267Y63D02*
X1270Y63D01*
X1295Y63D02*
X1298Y63D01*
X1302Y63D02*
X1306Y63D01*
X1311Y63D02*
X1314Y63D01*
X1326Y63D02*
X1343Y63D01*
X1960Y63D02*
X1967Y63D01*
X0Y62D02*
X7Y62D01*
X635Y62D02*
X638Y62D01*
X656Y62D02*
X659Y62D01*
X684Y62D02*
X687Y62D01*
X692Y62D02*
X695Y62D01*
X700Y62D02*
X703Y62D01*
X721Y62D02*
X724Y62D01*
X1246Y62D02*
X1249Y62D01*
X1267Y62D02*
X1270Y62D01*
X1295Y62D02*
X1298Y62D01*
X1303Y62D02*
X1306Y62D01*
X1311Y62D02*
X1314Y62D01*
X1325Y62D02*
X1342Y62D01*
X1960Y62D02*
X1967Y62D01*
X0Y61D02*
X7Y61D01*
X635Y61D02*
X638Y61D01*
X656Y61D02*
X659Y61D01*
X684Y61D02*
X687Y61D01*
X692Y61D02*
X696Y61D01*
X700Y61D02*
X703Y61D01*
X721Y61D02*
X724Y61D01*
X1246Y61D02*
X1249Y61D01*
X1267Y61D02*
X1270Y61D01*
X1295Y61D02*
X1298Y61D01*
X1303Y61D02*
X1307Y61D01*
X1311Y61D02*
X1314Y61D01*
X1324Y61D02*
X1342Y61D01*
X1960Y61D02*
X1967Y61D01*
X0Y60D02*
X7Y60D01*
X635Y60D02*
X638Y60D01*
X656Y60D02*
X659Y60D01*
X667Y60D02*
X674Y60D01*
X684Y60D02*
X687Y60D01*
X693Y60D02*
X696Y60D01*
X700Y60D02*
X703Y60D01*
X721Y60D02*
X724Y60D01*
X730Y60D02*
X730Y60D01*
X1246Y60D02*
X1249Y60D01*
X1267Y60D02*
X1270Y60D01*
X1278Y60D02*
X1285Y60D01*
X1295Y60D02*
X1298Y60D01*
X1304Y60D02*
X1307Y60D01*
X1311Y60D02*
X1314Y60D01*
X1324Y60D02*
X1341Y60D01*
X1960Y60D02*
X1967Y60D01*
X0Y59D02*
X7Y59D01*
X635Y59D02*
X638Y59D01*
X656Y59D02*
X659Y59D01*
X666Y59D02*
X674Y59D01*
X684Y59D02*
X687Y59D01*
X693Y59D02*
X696Y59D01*
X700Y59D02*
X703Y59D01*
X721Y59D02*
X724Y59D01*
X729Y59D02*
X732Y59D01*
X1246Y59D02*
X1249Y59D01*
X1267Y59D02*
X1270Y59D01*
X1277Y59D02*
X1285Y59D01*
X1295Y59D02*
X1298Y59D01*
X1304Y59D02*
X1307Y59D01*
X1311Y59D02*
X1314Y59D01*
X1324Y59D02*
X1327Y59D01*
X1960Y59D02*
X1967Y59D01*
X0Y58D02*
X7Y58D01*
X635Y58D02*
X638Y58D01*
X656Y58D02*
X659Y58D01*
X666Y58D02*
X674Y58D01*
X684Y58D02*
X687Y58D01*
X694Y58D02*
X697Y58D01*
X700Y58D02*
X703Y58D01*
X721Y58D02*
X724Y58D01*
X729Y58D02*
X732Y58D01*
X1246Y58D02*
X1249Y58D01*
X1267Y58D02*
X1270Y58D01*
X1276Y58D02*
X1285Y58D01*
X1295Y58D02*
X1298Y58D01*
X1304Y58D02*
X1308Y58D01*
X1311Y58D02*
X1314Y58D01*
X1324Y58D02*
X1327Y58D01*
X1960Y58D02*
X1967Y58D01*
X0Y57D02*
X7Y57D01*
X635Y57D02*
X638Y57D01*
X656Y57D02*
X659Y57D01*
X666Y57D02*
X674Y57D01*
X684Y57D02*
X687Y57D01*
X694Y57D02*
X697Y57D01*
X700Y57D02*
X703Y57D01*
X721Y57D02*
X724Y57D01*
X729Y57D02*
X732Y57D01*
X1246Y57D02*
X1249Y57D01*
X1267Y57D02*
X1270Y57D01*
X1277Y57D02*
X1285Y57D01*
X1295Y57D02*
X1298Y57D01*
X1305Y57D02*
X1308Y57D01*
X1311Y57D02*
X1314Y57D01*
X1324Y57D02*
X1327Y57D01*
X1960Y57D02*
X1967Y57D01*
X0Y56D02*
X7Y56D01*
X635Y56D02*
X638Y56D01*
X656Y56D02*
X659Y56D01*
X671Y56D02*
X674Y56D01*
X684Y56D02*
X687Y56D01*
X694Y56D02*
X698Y56D01*
X700Y56D02*
X703Y56D01*
X721Y56D02*
X724Y56D01*
X729Y56D02*
X732Y56D01*
X1246Y56D02*
X1249Y56D01*
X1267Y56D02*
X1270Y56D01*
X1282Y56D02*
X1285Y56D01*
X1295Y56D02*
X1298Y56D01*
X1305Y56D02*
X1309Y56D01*
X1311Y56D02*
X1314Y56D01*
X1324Y56D02*
X1327Y56D01*
X1960Y56D02*
X1967Y56D01*
X0Y55D02*
X7Y55D01*
X635Y55D02*
X638Y55D01*
X656Y55D02*
X659Y55D01*
X671Y55D02*
X674Y55D01*
X684Y55D02*
X687Y55D01*
X695Y55D02*
X698Y55D01*
X700Y55D02*
X703Y55D01*
X721Y55D02*
X724Y55D01*
X729Y55D02*
X732Y55D01*
X1246Y55D02*
X1249Y55D01*
X1267Y55D02*
X1270Y55D01*
X1282Y55D02*
X1285Y55D01*
X1295Y55D02*
X1298Y55D01*
X1306Y55D02*
X1309Y55D01*
X1311Y55D02*
X1314Y55D01*
X1324Y55D02*
X1327Y55D01*
X1960Y55D02*
X1967Y55D01*
X0Y54D02*
X7Y54D01*
X635Y54D02*
X638Y54D01*
X656Y54D02*
X659Y54D01*
X671Y54D02*
X674Y54D01*
X684Y54D02*
X687Y54D01*
X695Y54D02*
X703Y54D01*
X721Y54D02*
X724Y54D01*
X729Y54D02*
X732Y54D01*
X1246Y54D02*
X1249Y54D01*
X1267Y54D02*
X1270Y54D01*
X1282Y54D02*
X1285Y54D01*
X1295Y54D02*
X1298Y54D01*
X1306Y54D02*
X1314Y54D01*
X1324Y54D02*
X1327Y54D01*
X1960Y54D02*
X1967Y54D01*
X0Y53D02*
X7Y53D01*
X635Y53D02*
X638Y53D01*
X656Y53D02*
X659Y53D01*
X671Y53D02*
X674Y53D01*
X684Y53D02*
X687Y53D01*
X696Y53D02*
X703Y53D01*
X721Y53D02*
X724Y53D01*
X729Y53D02*
X732Y53D01*
X1246Y53D02*
X1249Y53D01*
X1267Y53D02*
X1270Y53D01*
X1282Y53D02*
X1285Y53D01*
X1295Y53D02*
X1298Y53D01*
X1307Y53D02*
X1314Y53D01*
X1324Y53D02*
X1327Y53D01*
X1960Y53D02*
X1967Y53D01*
X0Y52D02*
X7Y52D01*
X635Y52D02*
X638Y52D01*
X656Y52D02*
X659Y52D01*
X671Y52D02*
X674Y52D01*
X684Y52D02*
X687Y52D01*
X696Y52D02*
X703Y52D01*
X721Y52D02*
X724Y52D01*
X729Y52D02*
X732Y52D01*
X1246Y52D02*
X1249Y52D01*
X1267Y52D02*
X1270Y52D01*
X1282Y52D02*
X1285Y52D01*
X1295Y52D02*
X1298Y52D01*
X1307Y52D02*
X1314Y52D01*
X1324Y52D02*
X1327Y52D01*
X1960Y52D02*
X1967Y52D01*
X0Y51D02*
X7Y51D01*
X635Y51D02*
X638Y51D01*
X656Y51D02*
X659Y51D01*
X671Y51D02*
X674Y51D01*
X684Y51D02*
X687Y51D01*
X697Y51D02*
X703Y51D01*
X721Y51D02*
X724Y51D01*
X729Y51D02*
X732Y51D01*
X1246Y51D02*
X1249Y51D01*
X1267Y51D02*
X1270Y51D01*
X1282Y51D02*
X1285Y51D01*
X1295Y51D02*
X1298Y51D01*
X1308Y51D02*
X1314Y51D01*
X1324Y51D02*
X1327Y51D01*
X1960Y51D02*
X1967Y51D01*
X0Y50D02*
X7Y50D01*
X634Y50D02*
X638Y50D01*
X656Y50D02*
X661Y50D01*
X669Y50D02*
X674Y50D01*
X684Y50D02*
X687Y50D01*
X697Y50D02*
X703Y50D01*
X720Y50D02*
X724Y50D01*
X728Y50D02*
X732Y50D01*
X1245Y50D02*
X1249Y50D01*
X1267Y50D02*
X1272Y50D01*
X1280Y50D02*
X1285Y50D01*
X1295Y50D02*
X1298Y50D01*
X1308Y50D02*
X1314Y50D01*
X1324Y50D02*
X1327Y50D01*
X1960Y50D02*
X1967Y50D01*
X0Y49D02*
X7Y49D01*
X627Y49D02*
X645Y49D01*
X657Y49D02*
X674Y49D01*
X684Y49D02*
X687Y49D01*
X697Y49D02*
X703Y49D01*
X713Y49D02*
X732Y49D01*
X1238Y49D02*
X1256Y49D01*
X1267Y49D02*
X1284Y49D01*
X1295Y49D02*
X1298Y49D01*
X1308Y49D02*
X1314Y49D01*
X1324Y49D02*
X1342Y49D01*
X1960Y49D02*
X1967Y49D01*
X0Y48D02*
X7Y48D01*
X627Y48D02*
X646Y48D01*
X657Y48D02*
X673Y48D01*
X684Y48D02*
X687Y48D01*
X698Y48D02*
X703Y48D01*
X713Y48D02*
X732Y48D01*
X1238Y48D02*
X1257Y48D01*
X1268Y48D02*
X1284Y48D01*
X1295Y48D02*
X1298Y48D01*
X1309Y48D02*
X1314Y48D01*
X1324Y48D02*
X1343Y48D01*
X1960Y48D02*
X1967Y48D01*
X0Y47D02*
X7Y47D01*
X627Y47D02*
X645Y47D01*
X658Y47D02*
X672Y47D01*
X685Y47D02*
X687Y47D01*
X698Y47D02*
X703Y47D01*
X713Y47D02*
X731Y47D01*
X1238Y47D02*
X1256Y47D01*
X1269Y47D02*
X1283Y47D01*
X1296Y47D02*
X1298Y47D01*
X1309Y47D02*
X1314Y47D01*
X1324Y47D02*
X1342Y47D01*
X1960Y47D02*
X1967Y47D01*
X0Y46D02*
X7Y46D01*
X629Y46D02*
X644Y46D01*
X661Y46D02*
X669Y46D01*
X699Y46D02*
X703Y46D01*
X715Y46D02*
X730Y46D01*
X1240Y46D02*
X1255Y46D01*
X1272Y46D02*
X1280Y46D01*
X1310Y46D02*
X1314Y46D01*
X1324Y46D02*
X1341Y46D01*
X1960Y46D02*
X1967Y46D01*
X0Y45D02*
X7Y45D01*
X1960Y45D02*
X1967Y45D01*
X0Y44D02*
X7Y44D01*
X1960Y44D02*
X1967Y44D01*
X0Y43D02*
X7Y43D01*
X1960Y43D02*
X1967Y43D01*
X0Y42D02*
X7Y42D01*
X1960Y42D02*
X1967Y42D01*
X0Y41D02*
X7Y41D01*
X1960Y41D02*
X1967Y41D01*
X0Y40D02*
X7Y40D01*
X1960Y40D02*
X1967Y40D01*
X0Y39D02*
X7Y39D01*
X1960Y39D02*
X1967Y39D01*
X0Y38D02*
X7Y38D01*
X1960Y38D02*
X1967Y38D01*
X0Y37D02*
X7Y37D01*
X1960Y37D02*
X1967Y37D01*
X0Y36D02*
X7Y36D01*
X1960Y36D02*
X1967Y36D01*
X0Y35D02*
X7Y35D01*
X1960Y35D02*
X1967Y35D01*
X0Y34D02*
X7Y34D01*
X1960Y34D02*
X1967Y34D01*
X0Y33D02*
X7Y33D01*
X1960Y33D02*
X1967Y33D01*
X0Y32D02*
X7Y32D01*
X1960Y32D02*
X1967Y32D01*
X0Y31D02*
X7Y31D01*
X1960Y31D02*
X1967Y31D01*
X0Y30D02*
X7Y30D01*
X1960Y30D02*
X1967Y30D01*
X0Y29D02*
X7Y29D01*
X1960Y29D02*
X1967Y29D01*
X0Y28D02*
X7Y28D01*
X1960Y28D02*
X1967Y28D01*
X0Y27D02*
X7Y27D01*
X1960Y27D02*
X1967Y27D01*
X0Y26D02*
X7Y26D01*
X1960Y26D02*
X1967Y26D01*
X0Y25D02*
X7Y25D01*
X1960Y25D02*
X1967Y25D01*
X0Y24D02*
X7Y24D01*
X1960Y24D02*
X1967Y24D01*
X0Y23D02*
X7Y23D01*
X1960Y23D02*
X1967Y23D01*
X0Y22D02*
X7Y22D01*
X1960Y22D02*
X1967Y22D01*
X0Y21D02*
X7Y21D01*
X1960Y21D02*
X1967Y21D01*
X0Y20D02*
X7Y20D01*
X1960Y20D02*
X1967Y20D01*
X0Y19D02*
X7Y19D01*
X1960Y19D02*
X1967Y19D01*
X0Y18D02*
X7Y18D01*
X1960Y18D02*
X1967Y18D01*
X0Y17D02*
X7Y17D01*
X1960Y17D02*
X1967Y17D01*
X0Y16D02*
X7Y16D01*
X1960Y16D02*
X1967Y16D01*
X0Y15D02*
X7Y15D01*
X1960Y15D02*
X1967Y15D01*
X0Y14D02*
X7Y14D01*
X1960Y14D02*
X1967Y14D01*
X0Y13D02*
X7Y13D01*
X1960Y13D02*
X1967Y13D01*
X0Y12D02*
X7Y12D01*
X1960Y12D02*
X1967Y12D01*
X0Y11D02*
X7Y11D01*
X1960Y11D02*
X1967Y11D01*
X0Y10D02*
X7Y10D01*
X1960Y10D02*
X1967Y10D01*
X0Y9D02*
X7Y9D01*
X1960Y9D02*
X1967Y9D01*
X0Y8D02*
X1967Y8D01*
X0Y7D02*
X1967Y7D01*
X0Y6D02*
X1967Y6D01*
X0Y5D02*
X1967Y5D01*
X0Y4D02*
X1967Y4D01*
X0Y3D02*
X1967Y3D01*
X0Y2D02*
X1967Y2D01*
X0Y1D02*
X1967Y1D01*
D02*
G04 End of Silk1*
M02*