G04 MADE WITH FRITZING*
G04 WWW.FRITZING.ORG*
G04 DOUBLE SIDED*
G04 HOLES PLATED*
G04 CONTOUR ON CENTER OF CONTOUR VECTOR*
%ASAXBY*%
%FSLAX23Y23*%
%MOIN*%
%OFA0B0*%
%SFA1.0B1.0*%
%ADD10C,0.075000*%
%ADD11C,0.039370*%
%ADD12C,0.078740*%
%ADD13C,0.099055*%
%ADD14R,0.078740X0.078740*%
%ADD15C,0.048000*%
%ADD16R,0.001000X0.001000*%
%LNCOPPER0*%
G90*
G70*
G54D10*
X1774Y671D03*
X1459Y511D03*
X1059Y511D03*
X317Y521D03*
X317Y121D03*
G54D11*
X179Y206D03*
X1646Y265D03*
X514Y413D03*
X1390Y413D03*
G54D12*
X1455Y669D03*
X1555Y669D03*
X1655Y669D03*
X314Y669D03*
X414Y669D03*
X514Y669D03*
G54D13*
X1359Y196D03*
X1209Y196D03*
X1059Y196D03*
X909Y196D03*
X759Y196D03*
X609Y196D03*
G54D14*
X1655Y669D03*
X1555Y669D03*
X1455Y669D03*
X514Y669D03*
X414Y669D03*
X314Y669D03*
G54D15*
X760Y304D02*
X760Y248D01*
D02*
X731Y333D02*
X760Y304D01*
D02*
X436Y333D02*
X731Y333D01*
D02*
X416Y353D02*
X436Y333D01*
D02*
X414Y627D02*
X416Y353D01*
D02*
X1537Y196D02*
X1557Y216D01*
D02*
X1557Y216D02*
X1556Y627D01*
D02*
X1411Y196D02*
X1537Y196D01*
G36*
X40Y747D02*
X40Y717D01*
X1704Y717D01*
X1704Y619D01*
X1590Y619D01*
X1590Y455D01*
X1830Y455D01*
X1830Y453D01*
X1838Y453D01*
X1838Y451D01*
X1844Y451D01*
X1844Y449D01*
X1850Y449D01*
X1850Y447D01*
X1854Y447D01*
X1854Y445D01*
X1858Y445D01*
X1858Y443D01*
X1860Y443D01*
X1860Y441D01*
X1864Y441D01*
X1864Y439D01*
X1868Y439D01*
X1868Y437D01*
X1870Y437D01*
X1870Y435D01*
X1872Y435D01*
X1872Y433D01*
X1874Y433D01*
X1874Y431D01*
X1876Y431D01*
X1876Y429D01*
X1878Y429D01*
X1878Y427D01*
X1880Y427D01*
X1880Y425D01*
X1882Y425D01*
X1882Y423D01*
X1884Y423D01*
X1884Y421D01*
X1886Y421D01*
X1886Y419D01*
X1888Y419D01*
X1888Y415D01*
X1890Y415D01*
X1890Y413D01*
X1892Y413D01*
X1892Y409D01*
X1894Y409D01*
X1894Y405D01*
X1896Y405D01*
X1896Y401D01*
X1898Y401D01*
X1898Y397D01*
X1900Y397D01*
X1900Y391D01*
X1902Y391D01*
X1902Y383D01*
X1904Y383D01*
X1904Y373D01*
X1906Y373D01*
X1906Y353D01*
X1904Y353D01*
X1904Y343D01*
X1902Y343D01*
X1902Y335D01*
X1900Y335D01*
X1900Y329D01*
X1898Y329D01*
X1898Y325D01*
X1896Y325D01*
X1896Y321D01*
X1894Y321D01*
X1894Y317D01*
X1892Y317D01*
X1892Y313D01*
X1890Y313D01*
X1890Y311D01*
X1888Y311D01*
X1888Y307D01*
X1886Y307D01*
X1886Y305D01*
X1884Y305D01*
X1884Y303D01*
X1882Y303D01*
X1882Y301D01*
X1880Y301D01*
X1880Y299D01*
X1878Y299D01*
X1878Y297D01*
X1876Y297D01*
X1876Y295D01*
X1874Y295D01*
X1874Y293D01*
X1872Y293D01*
X1872Y291D01*
X1870Y291D01*
X1870Y289D01*
X1868Y289D01*
X1868Y287D01*
X1864Y287D01*
X1864Y285D01*
X1860Y285D01*
X1860Y283D01*
X1858Y283D01*
X1858Y281D01*
X1854Y281D01*
X1854Y279D01*
X1850Y279D01*
X1850Y277D01*
X1844Y277D01*
X1844Y275D01*
X1838Y275D01*
X1838Y273D01*
X1830Y273D01*
X1830Y271D01*
X1928Y271D01*
X1928Y747D01*
X40Y747D01*
G37*
D02*
G36*
X40Y717D02*
X40Y567D01*
X330Y567D01*
X330Y565D01*
X336Y565D01*
X336Y563D01*
X340Y563D01*
X340Y561D01*
X342Y561D01*
X342Y559D01*
X346Y559D01*
X346Y557D01*
X348Y557D01*
X348Y555D01*
X350Y555D01*
X350Y553D01*
X352Y553D01*
X352Y551D01*
X354Y551D01*
X354Y549D01*
X356Y549D01*
X356Y545D01*
X358Y545D01*
X358Y541D01*
X360Y541D01*
X360Y537D01*
X380Y537D01*
X380Y619D01*
X264Y619D01*
X264Y717D01*
X40Y717D01*
G37*
D02*
G36*
X564Y717D02*
X564Y619D01*
X448Y619D01*
X448Y559D01*
X1462Y559D01*
X1462Y557D01*
X1472Y557D01*
X1472Y555D01*
X1478Y555D01*
X1478Y553D01*
X1482Y553D01*
X1482Y551D01*
X1484Y551D01*
X1484Y549D01*
X1488Y549D01*
X1488Y547D01*
X1490Y547D01*
X1490Y545D01*
X1492Y545D01*
X1492Y543D01*
X1494Y543D01*
X1494Y541D01*
X1496Y541D01*
X1496Y539D01*
X1498Y539D01*
X1498Y535D01*
X1500Y535D01*
X1500Y531D01*
X1502Y531D01*
X1502Y527D01*
X1522Y527D01*
X1522Y619D01*
X1406Y619D01*
X1406Y717D01*
X564Y717D01*
G37*
D02*
G36*
X40Y567D02*
X40Y473D01*
X308Y473D01*
X308Y475D01*
X300Y475D01*
X300Y477D01*
X296Y477D01*
X296Y479D01*
X292Y479D01*
X292Y481D01*
X290Y481D01*
X290Y483D01*
X286Y483D01*
X286Y485D01*
X284Y485D01*
X284Y487D01*
X282Y487D01*
X282Y489D01*
X280Y489D01*
X280Y493D01*
X278Y493D01*
X278Y495D01*
X276Y495D01*
X276Y499D01*
X274Y499D01*
X274Y503D01*
X272Y503D01*
X272Y509D01*
X270Y509D01*
X270Y533D01*
X272Y533D01*
X272Y539D01*
X274Y539D01*
X274Y543D01*
X276Y543D01*
X276Y547D01*
X278Y547D01*
X278Y549D01*
X280Y549D01*
X280Y551D01*
X282Y551D01*
X282Y553D01*
X284Y553D01*
X284Y555D01*
X286Y555D01*
X286Y557D01*
X288Y557D01*
X288Y559D01*
X290Y559D01*
X290Y561D01*
X294Y561D01*
X294Y563D01*
X298Y563D01*
X298Y565D01*
X304Y565D01*
X304Y567D01*
X40Y567D01*
G37*
D02*
G36*
X448Y559D02*
X448Y463D01*
X1050Y463D01*
X1050Y465D01*
X1044Y465D01*
X1044Y467D01*
X1038Y467D01*
X1038Y469D01*
X1034Y469D01*
X1034Y471D01*
X1032Y471D01*
X1032Y473D01*
X1028Y473D01*
X1028Y475D01*
X1026Y475D01*
X1026Y477D01*
X1024Y477D01*
X1024Y479D01*
X1022Y479D01*
X1022Y481D01*
X1020Y481D01*
X1020Y485D01*
X1018Y485D01*
X1018Y489D01*
X1016Y489D01*
X1016Y491D01*
X1014Y491D01*
X1014Y499D01*
X1012Y499D01*
X1012Y523D01*
X1014Y523D01*
X1014Y529D01*
X1016Y529D01*
X1016Y533D01*
X1018Y533D01*
X1018Y537D01*
X1020Y537D01*
X1020Y539D01*
X1022Y539D01*
X1022Y541D01*
X1024Y541D01*
X1024Y545D01*
X1028Y545D01*
X1028Y547D01*
X1030Y547D01*
X1030Y549D01*
X1032Y549D01*
X1032Y551D01*
X1036Y551D01*
X1036Y553D01*
X1040Y553D01*
X1040Y555D01*
X1046Y555D01*
X1046Y557D01*
X1056Y557D01*
X1056Y559D01*
X448Y559D01*
G37*
D02*
G36*
X1062Y559D02*
X1062Y557D01*
X1072Y557D01*
X1072Y555D01*
X1078Y555D01*
X1078Y553D01*
X1082Y553D01*
X1082Y551D01*
X1084Y551D01*
X1084Y549D01*
X1088Y549D01*
X1088Y547D01*
X1090Y547D01*
X1090Y545D01*
X1092Y545D01*
X1092Y543D01*
X1094Y543D01*
X1094Y541D01*
X1096Y541D01*
X1096Y539D01*
X1098Y539D01*
X1098Y535D01*
X1100Y535D01*
X1100Y531D01*
X1102Y531D01*
X1102Y527D01*
X1104Y527D01*
X1104Y521D01*
X1106Y521D01*
X1106Y501D01*
X1104Y501D01*
X1104Y495D01*
X1102Y495D01*
X1102Y489D01*
X1100Y489D01*
X1100Y487D01*
X1098Y487D01*
X1098Y483D01*
X1096Y483D01*
X1096Y481D01*
X1094Y481D01*
X1094Y479D01*
X1092Y479D01*
X1092Y477D01*
X1090Y477D01*
X1090Y475D01*
X1088Y475D01*
X1088Y473D01*
X1086Y473D01*
X1086Y471D01*
X1082Y471D01*
X1082Y469D01*
X1080Y469D01*
X1080Y467D01*
X1074Y467D01*
X1074Y465D01*
X1066Y465D01*
X1066Y463D01*
X1450Y463D01*
X1450Y465D01*
X1444Y465D01*
X1444Y467D01*
X1438Y467D01*
X1438Y469D01*
X1434Y469D01*
X1434Y471D01*
X1432Y471D01*
X1432Y473D01*
X1428Y473D01*
X1428Y475D01*
X1426Y475D01*
X1426Y477D01*
X1424Y477D01*
X1424Y479D01*
X1422Y479D01*
X1422Y481D01*
X1420Y481D01*
X1420Y485D01*
X1418Y485D01*
X1418Y489D01*
X1416Y489D01*
X1416Y491D01*
X1414Y491D01*
X1414Y499D01*
X1412Y499D01*
X1412Y523D01*
X1414Y523D01*
X1414Y529D01*
X1416Y529D01*
X1416Y533D01*
X1418Y533D01*
X1418Y537D01*
X1420Y537D01*
X1420Y539D01*
X1422Y539D01*
X1422Y541D01*
X1424Y541D01*
X1424Y545D01*
X1428Y545D01*
X1428Y547D01*
X1430Y547D01*
X1430Y549D01*
X1432Y549D01*
X1432Y551D01*
X1436Y551D01*
X1436Y553D01*
X1440Y553D01*
X1440Y555D01*
X1446Y555D01*
X1446Y557D01*
X1456Y557D01*
X1456Y559D01*
X1062Y559D01*
G37*
D02*
G36*
X360Y503D02*
X360Y499D01*
X358Y499D01*
X358Y495D01*
X356Y495D01*
X356Y493D01*
X354Y493D01*
X354Y491D01*
X352Y491D01*
X352Y487D01*
X350Y487D01*
X350Y485D01*
X346Y485D01*
X346Y483D01*
X344Y483D01*
X344Y481D01*
X342Y481D01*
X342Y479D01*
X338Y479D01*
X338Y477D01*
X332Y477D01*
X332Y475D01*
X326Y475D01*
X326Y473D01*
X380Y473D01*
X380Y503D01*
X360Y503D01*
G37*
D02*
G36*
X1502Y495D02*
X1502Y489D01*
X1500Y489D01*
X1500Y487D01*
X1498Y487D01*
X1498Y483D01*
X1496Y483D01*
X1496Y481D01*
X1494Y481D01*
X1494Y479D01*
X1492Y479D01*
X1492Y477D01*
X1490Y477D01*
X1490Y475D01*
X1488Y475D01*
X1488Y473D01*
X1486Y473D01*
X1486Y471D01*
X1482Y471D01*
X1482Y469D01*
X1480Y469D01*
X1480Y467D01*
X1474Y467D01*
X1474Y465D01*
X1466Y465D01*
X1466Y463D01*
X1522Y463D01*
X1522Y495D01*
X1502Y495D01*
G37*
D02*
G36*
X40Y473D02*
X40Y471D01*
X380Y471D01*
X380Y473D01*
X40Y473D01*
G37*
D02*
G36*
X40Y473D02*
X40Y471D01*
X380Y471D01*
X380Y473D01*
X40Y473D01*
G37*
D02*
G36*
X40Y471D02*
X40Y455D01*
X166Y455D01*
X166Y453D01*
X174Y453D01*
X174Y451D01*
X180Y451D01*
X180Y449D01*
X186Y449D01*
X186Y447D01*
X190Y447D01*
X190Y445D01*
X194Y445D01*
X194Y443D01*
X198Y443D01*
X198Y441D01*
X200Y441D01*
X200Y439D01*
X204Y439D01*
X204Y437D01*
X206Y437D01*
X206Y435D01*
X210Y435D01*
X210Y433D01*
X212Y433D01*
X212Y431D01*
X214Y431D01*
X214Y429D01*
X216Y429D01*
X216Y427D01*
X218Y427D01*
X218Y425D01*
X220Y425D01*
X220Y421D01*
X222Y421D01*
X222Y419D01*
X224Y419D01*
X224Y417D01*
X226Y417D01*
X226Y413D01*
X228Y413D01*
X228Y411D01*
X230Y411D01*
X230Y407D01*
X232Y407D01*
X232Y403D01*
X234Y403D01*
X234Y399D01*
X236Y399D01*
X236Y393D01*
X238Y393D01*
X238Y387D01*
X240Y387D01*
X240Y377D01*
X242Y377D01*
X242Y349D01*
X240Y349D01*
X240Y339D01*
X238Y339D01*
X238Y333D01*
X236Y333D01*
X236Y327D01*
X234Y327D01*
X234Y323D01*
X232Y323D01*
X232Y319D01*
X230Y319D01*
X230Y315D01*
X228Y315D01*
X228Y313D01*
X226Y313D01*
X226Y309D01*
X224Y309D01*
X224Y307D01*
X222Y307D01*
X222Y305D01*
X220Y305D01*
X220Y301D01*
X218Y301D01*
X218Y299D01*
X216Y299D01*
X216Y297D01*
X214Y297D01*
X214Y295D01*
X212Y295D01*
X212Y293D01*
X208Y293D01*
X208Y291D01*
X206Y291D01*
X206Y289D01*
X204Y289D01*
X204Y287D01*
X200Y287D01*
X200Y285D01*
X198Y285D01*
X198Y283D01*
X194Y283D01*
X194Y281D01*
X190Y281D01*
X190Y279D01*
X186Y279D01*
X186Y277D01*
X180Y277D01*
X180Y275D01*
X174Y275D01*
X174Y273D01*
X166Y273D01*
X166Y271D01*
X726Y271D01*
X726Y291D01*
X724Y291D01*
X724Y293D01*
X722Y293D01*
X722Y295D01*
X720Y295D01*
X720Y297D01*
X718Y297D01*
X718Y299D01*
X428Y299D01*
X428Y301D01*
X422Y301D01*
X422Y303D01*
X418Y303D01*
X418Y305D01*
X414Y305D01*
X414Y307D01*
X412Y307D01*
X412Y309D01*
X410Y309D01*
X410Y311D01*
X408Y311D01*
X408Y313D01*
X406Y313D01*
X406Y315D01*
X404Y315D01*
X404Y317D01*
X402Y317D01*
X402Y319D01*
X400Y319D01*
X400Y321D01*
X398Y321D01*
X398Y323D01*
X396Y323D01*
X396Y325D01*
X394Y325D01*
X394Y327D01*
X392Y327D01*
X392Y329D01*
X390Y329D01*
X390Y331D01*
X388Y331D01*
X388Y335D01*
X386Y335D01*
X386Y339D01*
X384Y339D01*
X384Y343D01*
X382Y343D01*
X382Y439D01*
X380Y439D01*
X380Y471D01*
X40Y471D01*
G37*
D02*
G36*
X448Y463D02*
X448Y461D01*
X1522Y461D01*
X1522Y463D01*
X448Y463D01*
G37*
D02*
G36*
X448Y463D02*
X448Y461D01*
X1522Y461D01*
X1522Y463D01*
X448Y463D01*
G37*
D02*
G36*
X448Y463D02*
X448Y461D01*
X1522Y461D01*
X1522Y463D01*
X448Y463D01*
G37*
D02*
G36*
X448Y461D02*
X448Y441D01*
X1400Y441D01*
X1400Y439D01*
X1404Y439D01*
X1404Y437D01*
X1408Y437D01*
X1408Y435D01*
X1410Y435D01*
X1410Y433D01*
X1412Y433D01*
X1412Y431D01*
X1414Y431D01*
X1414Y427D01*
X1416Y427D01*
X1416Y423D01*
X1418Y423D01*
X1418Y415D01*
X1420Y415D01*
X1420Y409D01*
X1418Y409D01*
X1418Y401D01*
X1416Y401D01*
X1416Y397D01*
X1414Y397D01*
X1414Y395D01*
X1412Y395D01*
X1412Y391D01*
X1410Y391D01*
X1410Y389D01*
X1406Y389D01*
X1406Y387D01*
X1404Y387D01*
X1404Y385D01*
X1398Y385D01*
X1398Y383D01*
X1522Y383D01*
X1522Y461D01*
X448Y461D01*
G37*
D02*
G36*
X40Y455D02*
X40Y383D01*
X60Y383D01*
X60Y389D01*
X62Y389D01*
X62Y395D01*
X64Y395D01*
X64Y401D01*
X66Y401D01*
X66Y405D01*
X68Y405D01*
X68Y409D01*
X70Y409D01*
X70Y411D01*
X72Y411D01*
X72Y415D01*
X74Y415D01*
X74Y417D01*
X76Y417D01*
X76Y421D01*
X78Y421D01*
X78Y423D01*
X80Y423D01*
X80Y425D01*
X82Y425D01*
X82Y427D01*
X84Y427D01*
X84Y429D01*
X86Y429D01*
X86Y431D01*
X88Y431D01*
X88Y433D01*
X90Y433D01*
X90Y435D01*
X92Y435D01*
X92Y437D01*
X96Y437D01*
X96Y439D01*
X98Y439D01*
X98Y441D01*
X102Y441D01*
X102Y443D01*
X104Y443D01*
X104Y445D01*
X108Y445D01*
X108Y447D01*
X114Y447D01*
X114Y449D01*
X118Y449D01*
X118Y451D01*
X124Y451D01*
X124Y453D01*
X132Y453D01*
X132Y455D01*
X40Y455D01*
G37*
D02*
G36*
X1590Y455D02*
X1590Y295D01*
X1648Y295D01*
X1648Y293D01*
X1656Y293D01*
X1656Y291D01*
X1660Y291D01*
X1660Y289D01*
X1664Y289D01*
X1664Y287D01*
X1666Y287D01*
X1666Y285D01*
X1668Y285D01*
X1668Y283D01*
X1670Y283D01*
X1670Y279D01*
X1672Y279D01*
X1672Y275D01*
X1674Y275D01*
X1674Y271D01*
X1796Y271D01*
X1796Y273D01*
X1788Y273D01*
X1788Y275D01*
X1782Y275D01*
X1782Y277D01*
X1776Y277D01*
X1776Y279D01*
X1772Y279D01*
X1772Y281D01*
X1768Y281D01*
X1768Y283D01*
X1764Y283D01*
X1764Y285D01*
X1762Y285D01*
X1762Y287D01*
X1758Y287D01*
X1758Y289D01*
X1756Y289D01*
X1756Y291D01*
X1754Y291D01*
X1754Y293D01*
X1752Y293D01*
X1752Y295D01*
X1750Y295D01*
X1750Y297D01*
X1746Y297D01*
X1746Y301D01*
X1744Y301D01*
X1744Y303D01*
X1742Y303D01*
X1742Y305D01*
X1740Y305D01*
X1740Y307D01*
X1738Y307D01*
X1738Y311D01*
X1736Y311D01*
X1736Y313D01*
X1734Y313D01*
X1734Y317D01*
X1732Y317D01*
X1732Y321D01*
X1730Y321D01*
X1730Y325D01*
X1728Y325D01*
X1728Y329D01*
X1726Y329D01*
X1726Y335D01*
X1724Y335D01*
X1724Y341D01*
X1722Y341D01*
X1722Y351D01*
X1720Y351D01*
X1720Y375D01*
X1722Y375D01*
X1722Y385D01*
X1724Y385D01*
X1724Y391D01*
X1726Y391D01*
X1726Y397D01*
X1728Y397D01*
X1728Y401D01*
X1730Y401D01*
X1730Y405D01*
X1732Y405D01*
X1732Y409D01*
X1734Y409D01*
X1734Y413D01*
X1736Y413D01*
X1736Y415D01*
X1738Y415D01*
X1738Y419D01*
X1740Y419D01*
X1740Y421D01*
X1742Y421D01*
X1742Y423D01*
X1744Y423D01*
X1744Y425D01*
X1746Y425D01*
X1746Y429D01*
X1748Y429D01*
X1748Y431D01*
X1752Y431D01*
X1752Y433D01*
X1754Y433D01*
X1754Y435D01*
X1756Y435D01*
X1756Y437D01*
X1758Y437D01*
X1758Y439D01*
X1762Y439D01*
X1762Y441D01*
X1764Y441D01*
X1764Y443D01*
X1768Y443D01*
X1768Y445D01*
X1772Y445D01*
X1772Y447D01*
X1776Y447D01*
X1776Y449D01*
X1782Y449D01*
X1782Y451D01*
X1788Y451D01*
X1788Y453D01*
X1796Y453D01*
X1796Y455D01*
X1590Y455D01*
G37*
D02*
G36*
X450Y441D02*
X450Y367D01*
X500Y367D01*
X500Y387D01*
X496Y387D01*
X496Y389D01*
X494Y389D01*
X494Y391D01*
X492Y391D01*
X492Y393D01*
X490Y393D01*
X490Y395D01*
X488Y395D01*
X488Y399D01*
X486Y399D01*
X486Y405D01*
X484Y405D01*
X484Y419D01*
X486Y419D01*
X486Y425D01*
X488Y425D01*
X488Y429D01*
X490Y429D01*
X490Y431D01*
X492Y431D01*
X492Y433D01*
X494Y433D01*
X494Y435D01*
X496Y435D01*
X496Y437D01*
X500Y437D01*
X500Y439D01*
X504Y439D01*
X504Y441D01*
X450Y441D01*
G37*
D02*
G36*
X524Y441D02*
X524Y439D01*
X528Y439D01*
X528Y437D01*
X532Y437D01*
X532Y435D01*
X534Y435D01*
X534Y433D01*
X536Y433D01*
X536Y431D01*
X538Y431D01*
X538Y427D01*
X540Y427D01*
X540Y423D01*
X542Y423D01*
X542Y415D01*
X544Y415D01*
X544Y409D01*
X542Y409D01*
X542Y401D01*
X540Y401D01*
X540Y397D01*
X538Y397D01*
X538Y395D01*
X536Y395D01*
X536Y391D01*
X534Y391D01*
X534Y389D01*
X530Y389D01*
X530Y387D01*
X528Y387D01*
X528Y383D01*
X1382Y383D01*
X1382Y385D01*
X1376Y385D01*
X1376Y387D01*
X1372Y387D01*
X1372Y389D01*
X1370Y389D01*
X1370Y391D01*
X1368Y391D01*
X1368Y393D01*
X1366Y393D01*
X1366Y395D01*
X1364Y395D01*
X1364Y399D01*
X1362Y399D01*
X1362Y405D01*
X1360Y405D01*
X1360Y419D01*
X1362Y419D01*
X1362Y425D01*
X1364Y425D01*
X1364Y429D01*
X1366Y429D01*
X1366Y431D01*
X1368Y431D01*
X1368Y433D01*
X1370Y433D01*
X1370Y435D01*
X1372Y435D01*
X1372Y437D01*
X1376Y437D01*
X1376Y439D01*
X1380Y439D01*
X1380Y441D01*
X524Y441D01*
G37*
D02*
G36*
X528Y383D02*
X528Y381D01*
X1522Y381D01*
X1522Y383D01*
X528Y383D01*
G37*
D02*
G36*
X528Y383D02*
X528Y381D01*
X1522Y381D01*
X1522Y383D01*
X528Y383D01*
G37*
D02*
G36*
X528Y381D02*
X528Y367D01*
X738Y367D01*
X738Y365D01*
X744Y365D01*
X744Y363D01*
X748Y363D01*
X748Y361D01*
X752Y361D01*
X752Y359D01*
X754Y359D01*
X754Y357D01*
X756Y357D01*
X756Y355D01*
X758Y355D01*
X758Y353D01*
X760Y353D01*
X760Y351D01*
X762Y351D01*
X762Y349D01*
X764Y349D01*
X764Y347D01*
X766Y347D01*
X766Y345D01*
X768Y345D01*
X768Y343D01*
X770Y343D01*
X770Y341D01*
X772Y341D01*
X772Y339D01*
X774Y339D01*
X774Y337D01*
X776Y337D01*
X776Y335D01*
X778Y335D01*
X778Y333D01*
X780Y333D01*
X780Y331D01*
X782Y331D01*
X782Y329D01*
X784Y329D01*
X784Y327D01*
X786Y327D01*
X786Y325D01*
X788Y325D01*
X788Y321D01*
X790Y321D01*
X790Y317D01*
X792Y317D01*
X792Y311D01*
X794Y311D01*
X794Y255D01*
X1370Y255D01*
X1370Y253D01*
X1378Y253D01*
X1378Y251D01*
X1384Y251D01*
X1384Y249D01*
X1388Y249D01*
X1388Y247D01*
X1390Y247D01*
X1390Y245D01*
X1394Y245D01*
X1394Y243D01*
X1396Y243D01*
X1396Y241D01*
X1398Y241D01*
X1398Y239D01*
X1402Y239D01*
X1402Y235D01*
X1404Y235D01*
X1404Y233D01*
X1406Y233D01*
X1406Y231D01*
X1408Y231D01*
X1408Y229D01*
X1522Y229D01*
X1522Y381D01*
X528Y381D01*
G37*
D02*
G36*
X40Y343D02*
X40Y271D01*
X132Y271D01*
X132Y273D01*
X124Y273D01*
X124Y275D01*
X118Y275D01*
X118Y277D01*
X114Y277D01*
X114Y279D01*
X108Y279D01*
X108Y281D01*
X104Y281D01*
X104Y283D01*
X102Y283D01*
X102Y285D01*
X98Y285D01*
X98Y287D01*
X96Y287D01*
X96Y289D01*
X92Y289D01*
X92Y291D01*
X90Y291D01*
X90Y293D01*
X88Y293D01*
X88Y295D01*
X86Y295D01*
X86Y297D01*
X84Y297D01*
X84Y299D01*
X82Y299D01*
X82Y301D01*
X80Y301D01*
X80Y303D01*
X78Y303D01*
X78Y305D01*
X76Y305D01*
X76Y309D01*
X74Y309D01*
X74Y311D01*
X72Y311D01*
X72Y315D01*
X70Y315D01*
X70Y317D01*
X68Y317D01*
X68Y321D01*
X66Y321D01*
X66Y325D01*
X64Y325D01*
X64Y331D01*
X62Y331D01*
X62Y337D01*
X60Y337D01*
X60Y343D01*
X40Y343D01*
G37*
D02*
G36*
X1590Y295D02*
X1590Y235D01*
X1638Y235D01*
X1638Y237D01*
X1632Y237D01*
X1632Y239D01*
X1630Y239D01*
X1630Y241D01*
X1626Y241D01*
X1626Y243D01*
X1624Y243D01*
X1624Y245D01*
X1622Y245D01*
X1622Y249D01*
X1620Y249D01*
X1620Y251D01*
X1618Y251D01*
X1618Y257D01*
X1616Y257D01*
X1616Y273D01*
X1618Y273D01*
X1618Y277D01*
X1620Y277D01*
X1620Y281D01*
X1622Y281D01*
X1622Y283D01*
X1624Y283D01*
X1624Y285D01*
X1626Y285D01*
X1626Y287D01*
X1628Y287D01*
X1628Y289D01*
X1630Y289D01*
X1630Y291D01*
X1634Y291D01*
X1634Y293D01*
X1644Y293D01*
X1644Y295D01*
X1590Y295D01*
G37*
D02*
G36*
X40Y271D02*
X40Y269D01*
X726Y269D01*
X726Y271D01*
X40Y271D01*
G37*
D02*
G36*
X40Y271D02*
X40Y269D01*
X726Y269D01*
X726Y271D01*
X40Y271D01*
G37*
D02*
G36*
X1674Y271D02*
X1674Y269D01*
X1928Y269D01*
X1928Y271D01*
X1674Y271D01*
G37*
D02*
G36*
X1674Y271D02*
X1674Y269D01*
X1928Y269D01*
X1928Y271D01*
X1674Y271D01*
G37*
D02*
G36*
X40Y269D02*
X40Y255D01*
X620Y255D01*
X620Y253D01*
X628Y253D01*
X628Y251D01*
X634Y251D01*
X634Y249D01*
X638Y249D01*
X638Y247D01*
X640Y247D01*
X640Y245D01*
X644Y245D01*
X644Y243D01*
X646Y243D01*
X646Y241D01*
X648Y241D01*
X648Y239D01*
X652Y239D01*
X652Y235D01*
X654Y235D01*
X654Y233D01*
X656Y233D01*
X656Y231D01*
X658Y231D01*
X658Y229D01*
X660Y229D01*
X660Y225D01*
X662Y225D01*
X662Y221D01*
X664Y221D01*
X664Y217D01*
X666Y217D01*
X666Y209D01*
X668Y209D01*
X668Y181D01*
X666Y181D01*
X666Y175D01*
X664Y175D01*
X664Y171D01*
X662Y171D01*
X662Y167D01*
X660Y167D01*
X660Y163D01*
X658Y163D01*
X658Y161D01*
X656Y161D01*
X656Y157D01*
X654Y157D01*
X654Y155D01*
X652Y155D01*
X652Y153D01*
X650Y153D01*
X650Y151D01*
X648Y151D01*
X648Y149D01*
X644Y149D01*
X644Y147D01*
X642Y147D01*
X642Y145D01*
X638Y145D01*
X638Y143D01*
X634Y143D01*
X634Y141D01*
X630Y141D01*
X630Y139D01*
X624Y139D01*
X624Y137D01*
X746Y137D01*
X746Y139D01*
X738Y139D01*
X738Y141D01*
X734Y141D01*
X734Y143D01*
X730Y143D01*
X730Y145D01*
X726Y145D01*
X726Y147D01*
X724Y147D01*
X724Y149D01*
X722Y149D01*
X722Y151D01*
X718Y151D01*
X718Y153D01*
X716Y153D01*
X716Y155D01*
X714Y155D01*
X714Y159D01*
X712Y159D01*
X712Y161D01*
X710Y161D01*
X710Y165D01*
X708Y165D01*
X708Y167D01*
X706Y167D01*
X706Y171D01*
X704Y171D01*
X704Y177D01*
X702Y177D01*
X702Y183D01*
X700Y183D01*
X700Y207D01*
X702Y207D01*
X702Y215D01*
X704Y215D01*
X704Y221D01*
X706Y221D01*
X706Y225D01*
X708Y225D01*
X708Y227D01*
X710Y227D01*
X710Y231D01*
X712Y231D01*
X712Y233D01*
X714Y233D01*
X714Y235D01*
X716Y235D01*
X716Y237D01*
X718Y237D01*
X718Y239D01*
X720Y239D01*
X720Y241D01*
X722Y241D01*
X722Y243D01*
X724Y243D01*
X724Y245D01*
X726Y245D01*
X726Y269D01*
X40Y269D01*
G37*
D02*
G36*
X1674Y269D02*
X1674Y267D01*
X1676Y267D01*
X1676Y263D01*
X1674Y263D01*
X1674Y253D01*
X1672Y253D01*
X1672Y249D01*
X1670Y249D01*
X1670Y247D01*
X1668Y247D01*
X1668Y245D01*
X1666Y245D01*
X1666Y243D01*
X1664Y243D01*
X1664Y241D01*
X1662Y241D01*
X1662Y239D01*
X1658Y239D01*
X1658Y237D01*
X1652Y237D01*
X1652Y235D01*
X1928Y235D01*
X1928Y269D01*
X1674Y269D01*
G37*
D02*
G36*
X40Y255D02*
X40Y235D01*
X186Y235D01*
X186Y233D01*
X192Y233D01*
X192Y231D01*
X196Y231D01*
X196Y229D01*
X198Y229D01*
X198Y227D01*
X200Y227D01*
X200Y225D01*
X202Y225D01*
X202Y223D01*
X204Y223D01*
X204Y219D01*
X206Y219D01*
X206Y215D01*
X208Y215D01*
X208Y197D01*
X206Y197D01*
X206Y191D01*
X204Y191D01*
X204Y189D01*
X202Y189D01*
X202Y185D01*
X200Y185D01*
X200Y183D01*
X196Y183D01*
X196Y181D01*
X194Y181D01*
X194Y179D01*
X190Y179D01*
X190Y177D01*
X180Y177D01*
X180Y175D01*
X554Y175D01*
X554Y177D01*
X552Y177D01*
X552Y183D01*
X550Y183D01*
X550Y207D01*
X552Y207D01*
X552Y215D01*
X554Y215D01*
X554Y221D01*
X556Y221D01*
X556Y225D01*
X558Y225D01*
X558Y227D01*
X560Y227D01*
X560Y231D01*
X562Y231D01*
X562Y233D01*
X564Y233D01*
X564Y235D01*
X566Y235D01*
X566Y237D01*
X568Y237D01*
X568Y239D01*
X570Y239D01*
X570Y241D01*
X572Y241D01*
X572Y243D01*
X574Y243D01*
X574Y245D01*
X578Y245D01*
X578Y247D01*
X580Y247D01*
X580Y249D01*
X584Y249D01*
X584Y251D01*
X590Y251D01*
X590Y253D01*
X598Y253D01*
X598Y255D01*
X40Y255D01*
G37*
D02*
G36*
X794Y255D02*
X794Y243D01*
X796Y243D01*
X796Y241D01*
X798Y241D01*
X798Y239D01*
X802Y239D01*
X802Y235D01*
X804Y235D01*
X804Y233D01*
X806Y233D01*
X806Y231D01*
X808Y231D01*
X808Y229D01*
X810Y229D01*
X810Y225D01*
X812Y225D01*
X812Y221D01*
X814Y221D01*
X814Y217D01*
X816Y217D01*
X816Y209D01*
X818Y209D01*
X818Y181D01*
X816Y181D01*
X816Y175D01*
X814Y175D01*
X814Y171D01*
X812Y171D01*
X812Y167D01*
X810Y167D01*
X810Y163D01*
X808Y163D01*
X808Y161D01*
X806Y161D01*
X806Y157D01*
X804Y157D01*
X804Y155D01*
X802Y155D01*
X802Y153D01*
X800Y153D01*
X800Y151D01*
X798Y151D01*
X798Y149D01*
X794Y149D01*
X794Y147D01*
X792Y147D01*
X792Y145D01*
X788Y145D01*
X788Y143D01*
X784Y143D01*
X784Y141D01*
X780Y141D01*
X780Y139D01*
X774Y139D01*
X774Y137D01*
X896Y137D01*
X896Y139D01*
X888Y139D01*
X888Y141D01*
X884Y141D01*
X884Y143D01*
X880Y143D01*
X880Y145D01*
X876Y145D01*
X876Y147D01*
X874Y147D01*
X874Y149D01*
X872Y149D01*
X872Y151D01*
X868Y151D01*
X868Y153D01*
X866Y153D01*
X866Y155D01*
X864Y155D01*
X864Y159D01*
X862Y159D01*
X862Y161D01*
X860Y161D01*
X860Y165D01*
X858Y165D01*
X858Y167D01*
X856Y167D01*
X856Y171D01*
X854Y171D01*
X854Y177D01*
X852Y177D01*
X852Y183D01*
X850Y183D01*
X850Y207D01*
X852Y207D01*
X852Y215D01*
X854Y215D01*
X854Y221D01*
X856Y221D01*
X856Y225D01*
X858Y225D01*
X858Y227D01*
X860Y227D01*
X860Y231D01*
X862Y231D01*
X862Y233D01*
X864Y233D01*
X864Y235D01*
X866Y235D01*
X866Y237D01*
X868Y237D01*
X868Y239D01*
X870Y239D01*
X870Y241D01*
X872Y241D01*
X872Y243D01*
X874Y243D01*
X874Y245D01*
X878Y245D01*
X878Y247D01*
X880Y247D01*
X880Y249D01*
X884Y249D01*
X884Y251D01*
X890Y251D01*
X890Y253D01*
X898Y253D01*
X898Y255D01*
X794Y255D01*
G37*
D02*
G36*
X920Y255D02*
X920Y253D01*
X928Y253D01*
X928Y251D01*
X934Y251D01*
X934Y249D01*
X938Y249D01*
X938Y247D01*
X940Y247D01*
X940Y245D01*
X944Y245D01*
X944Y243D01*
X946Y243D01*
X946Y241D01*
X948Y241D01*
X948Y239D01*
X952Y239D01*
X952Y235D01*
X954Y235D01*
X954Y233D01*
X956Y233D01*
X956Y231D01*
X958Y231D01*
X958Y229D01*
X960Y229D01*
X960Y225D01*
X962Y225D01*
X962Y221D01*
X964Y221D01*
X964Y217D01*
X966Y217D01*
X966Y209D01*
X968Y209D01*
X968Y181D01*
X966Y181D01*
X966Y175D01*
X964Y175D01*
X964Y171D01*
X962Y171D01*
X962Y167D01*
X960Y167D01*
X960Y163D01*
X958Y163D01*
X958Y161D01*
X956Y161D01*
X956Y157D01*
X954Y157D01*
X954Y155D01*
X952Y155D01*
X952Y153D01*
X950Y153D01*
X950Y151D01*
X948Y151D01*
X948Y149D01*
X944Y149D01*
X944Y147D01*
X942Y147D01*
X942Y145D01*
X938Y145D01*
X938Y143D01*
X934Y143D01*
X934Y141D01*
X930Y141D01*
X930Y139D01*
X924Y139D01*
X924Y137D01*
X1046Y137D01*
X1046Y139D01*
X1038Y139D01*
X1038Y141D01*
X1034Y141D01*
X1034Y143D01*
X1030Y143D01*
X1030Y145D01*
X1026Y145D01*
X1026Y147D01*
X1024Y147D01*
X1024Y149D01*
X1022Y149D01*
X1022Y151D01*
X1018Y151D01*
X1018Y153D01*
X1016Y153D01*
X1016Y155D01*
X1014Y155D01*
X1014Y159D01*
X1012Y159D01*
X1012Y161D01*
X1010Y161D01*
X1010Y165D01*
X1008Y165D01*
X1008Y167D01*
X1006Y167D01*
X1006Y171D01*
X1004Y171D01*
X1004Y177D01*
X1002Y177D01*
X1002Y183D01*
X1000Y183D01*
X1000Y207D01*
X1002Y207D01*
X1002Y215D01*
X1004Y215D01*
X1004Y221D01*
X1006Y221D01*
X1006Y225D01*
X1008Y225D01*
X1008Y227D01*
X1010Y227D01*
X1010Y231D01*
X1012Y231D01*
X1012Y233D01*
X1014Y233D01*
X1014Y235D01*
X1016Y235D01*
X1016Y237D01*
X1018Y237D01*
X1018Y239D01*
X1020Y239D01*
X1020Y241D01*
X1022Y241D01*
X1022Y243D01*
X1024Y243D01*
X1024Y245D01*
X1028Y245D01*
X1028Y247D01*
X1030Y247D01*
X1030Y249D01*
X1034Y249D01*
X1034Y251D01*
X1040Y251D01*
X1040Y253D01*
X1048Y253D01*
X1048Y255D01*
X920Y255D01*
G37*
D02*
G36*
X1070Y255D02*
X1070Y253D01*
X1078Y253D01*
X1078Y251D01*
X1084Y251D01*
X1084Y249D01*
X1088Y249D01*
X1088Y247D01*
X1090Y247D01*
X1090Y245D01*
X1094Y245D01*
X1094Y243D01*
X1096Y243D01*
X1096Y241D01*
X1098Y241D01*
X1098Y239D01*
X1102Y239D01*
X1102Y235D01*
X1104Y235D01*
X1104Y233D01*
X1106Y233D01*
X1106Y231D01*
X1108Y231D01*
X1108Y229D01*
X1110Y229D01*
X1110Y225D01*
X1112Y225D01*
X1112Y221D01*
X1114Y221D01*
X1114Y217D01*
X1116Y217D01*
X1116Y209D01*
X1118Y209D01*
X1118Y181D01*
X1116Y181D01*
X1116Y175D01*
X1114Y175D01*
X1114Y171D01*
X1112Y171D01*
X1112Y167D01*
X1110Y167D01*
X1110Y163D01*
X1108Y163D01*
X1108Y161D01*
X1106Y161D01*
X1106Y157D01*
X1104Y157D01*
X1104Y155D01*
X1102Y155D01*
X1102Y153D01*
X1100Y153D01*
X1100Y151D01*
X1098Y151D01*
X1098Y149D01*
X1094Y149D01*
X1094Y147D01*
X1092Y147D01*
X1092Y145D01*
X1088Y145D01*
X1088Y143D01*
X1084Y143D01*
X1084Y141D01*
X1080Y141D01*
X1080Y139D01*
X1074Y139D01*
X1074Y137D01*
X1196Y137D01*
X1196Y139D01*
X1188Y139D01*
X1188Y141D01*
X1184Y141D01*
X1184Y143D01*
X1180Y143D01*
X1180Y145D01*
X1176Y145D01*
X1176Y147D01*
X1174Y147D01*
X1174Y149D01*
X1172Y149D01*
X1172Y151D01*
X1168Y151D01*
X1168Y153D01*
X1166Y153D01*
X1166Y157D01*
X1164Y157D01*
X1164Y159D01*
X1162Y159D01*
X1162Y161D01*
X1160Y161D01*
X1160Y165D01*
X1158Y165D01*
X1158Y167D01*
X1156Y167D01*
X1156Y171D01*
X1154Y171D01*
X1154Y177D01*
X1152Y177D01*
X1152Y183D01*
X1150Y183D01*
X1150Y207D01*
X1152Y207D01*
X1152Y215D01*
X1154Y215D01*
X1154Y221D01*
X1156Y221D01*
X1156Y225D01*
X1158Y225D01*
X1158Y227D01*
X1160Y227D01*
X1160Y231D01*
X1162Y231D01*
X1162Y233D01*
X1164Y233D01*
X1164Y235D01*
X1166Y235D01*
X1166Y237D01*
X1168Y237D01*
X1168Y239D01*
X1170Y239D01*
X1170Y241D01*
X1172Y241D01*
X1172Y243D01*
X1174Y243D01*
X1174Y245D01*
X1178Y245D01*
X1178Y247D01*
X1180Y247D01*
X1180Y249D01*
X1184Y249D01*
X1184Y251D01*
X1190Y251D01*
X1190Y253D01*
X1198Y253D01*
X1198Y255D01*
X1070Y255D01*
G37*
D02*
G36*
X1220Y255D02*
X1220Y253D01*
X1228Y253D01*
X1228Y251D01*
X1234Y251D01*
X1234Y249D01*
X1238Y249D01*
X1238Y247D01*
X1240Y247D01*
X1240Y245D01*
X1244Y245D01*
X1244Y243D01*
X1246Y243D01*
X1246Y241D01*
X1248Y241D01*
X1248Y239D01*
X1252Y239D01*
X1252Y235D01*
X1254Y235D01*
X1254Y233D01*
X1256Y233D01*
X1256Y231D01*
X1258Y231D01*
X1258Y229D01*
X1260Y229D01*
X1260Y225D01*
X1262Y225D01*
X1262Y221D01*
X1264Y221D01*
X1264Y217D01*
X1266Y217D01*
X1266Y209D01*
X1268Y209D01*
X1268Y181D01*
X1266Y181D01*
X1266Y175D01*
X1264Y175D01*
X1264Y171D01*
X1262Y171D01*
X1262Y167D01*
X1260Y167D01*
X1260Y163D01*
X1258Y163D01*
X1258Y161D01*
X1256Y161D01*
X1256Y157D01*
X1254Y157D01*
X1254Y155D01*
X1252Y155D01*
X1252Y153D01*
X1250Y153D01*
X1250Y151D01*
X1248Y151D01*
X1248Y149D01*
X1244Y149D01*
X1244Y147D01*
X1242Y147D01*
X1242Y145D01*
X1238Y145D01*
X1238Y143D01*
X1234Y143D01*
X1234Y141D01*
X1230Y141D01*
X1230Y139D01*
X1224Y139D01*
X1224Y137D01*
X1346Y137D01*
X1346Y139D01*
X1338Y139D01*
X1338Y141D01*
X1334Y141D01*
X1334Y143D01*
X1330Y143D01*
X1330Y145D01*
X1326Y145D01*
X1326Y147D01*
X1324Y147D01*
X1324Y149D01*
X1322Y149D01*
X1322Y151D01*
X1318Y151D01*
X1318Y153D01*
X1316Y153D01*
X1316Y157D01*
X1314Y157D01*
X1314Y159D01*
X1312Y159D01*
X1312Y161D01*
X1310Y161D01*
X1310Y165D01*
X1308Y165D01*
X1308Y167D01*
X1306Y167D01*
X1306Y171D01*
X1304Y171D01*
X1304Y177D01*
X1302Y177D01*
X1302Y183D01*
X1300Y183D01*
X1300Y207D01*
X1302Y207D01*
X1302Y215D01*
X1304Y215D01*
X1304Y221D01*
X1306Y221D01*
X1306Y225D01*
X1308Y225D01*
X1308Y227D01*
X1310Y227D01*
X1310Y231D01*
X1312Y231D01*
X1312Y233D01*
X1314Y233D01*
X1314Y235D01*
X1316Y235D01*
X1316Y237D01*
X1318Y237D01*
X1318Y239D01*
X1320Y239D01*
X1320Y241D01*
X1322Y241D01*
X1322Y243D01*
X1324Y243D01*
X1324Y245D01*
X1328Y245D01*
X1328Y247D01*
X1330Y247D01*
X1330Y249D01*
X1334Y249D01*
X1334Y251D01*
X1340Y251D01*
X1340Y253D01*
X1348Y253D01*
X1348Y255D01*
X1220Y255D01*
G37*
D02*
G36*
X40Y235D02*
X40Y175D01*
X178Y175D01*
X178Y177D01*
X168Y177D01*
X168Y179D01*
X164Y179D01*
X164Y181D01*
X162Y181D01*
X162Y183D01*
X158Y183D01*
X158Y185D01*
X156Y185D01*
X156Y189D01*
X154Y189D01*
X154Y191D01*
X152Y191D01*
X152Y197D01*
X150Y197D01*
X150Y215D01*
X152Y215D01*
X152Y219D01*
X154Y219D01*
X154Y223D01*
X156Y223D01*
X156Y225D01*
X158Y225D01*
X158Y227D01*
X160Y227D01*
X160Y229D01*
X162Y229D01*
X162Y231D01*
X166Y231D01*
X166Y233D01*
X172Y233D01*
X172Y235D01*
X40Y235D01*
G37*
D02*
G36*
X1590Y235D02*
X1590Y233D01*
X1928Y233D01*
X1928Y235D01*
X1590Y235D01*
G37*
D02*
G36*
X1590Y235D02*
X1590Y233D01*
X1928Y233D01*
X1928Y235D01*
X1590Y235D01*
G37*
D02*
G36*
X1590Y233D02*
X1590Y205D01*
X1588Y205D01*
X1588Y201D01*
X1586Y201D01*
X1586Y197D01*
X1584Y197D01*
X1584Y195D01*
X1582Y195D01*
X1582Y193D01*
X1580Y193D01*
X1580Y191D01*
X1578Y191D01*
X1578Y189D01*
X1576Y189D01*
X1576Y187D01*
X1574Y187D01*
X1574Y185D01*
X1572Y185D01*
X1572Y183D01*
X1570Y183D01*
X1570Y181D01*
X1568Y181D01*
X1568Y179D01*
X1566Y179D01*
X1566Y177D01*
X1564Y177D01*
X1564Y175D01*
X1562Y175D01*
X1562Y173D01*
X1560Y173D01*
X1560Y171D01*
X1558Y171D01*
X1558Y169D01*
X1556Y169D01*
X1556Y167D01*
X1552Y167D01*
X1552Y165D01*
X1548Y165D01*
X1548Y163D01*
X1536Y163D01*
X1536Y161D01*
X1406Y161D01*
X1406Y157D01*
X1404Y157D01*
X1404Y155D01*
X1402Y155D01*
X1402Y153D01*
X1400Y153D01*
X1400Y151D01*
X1398Y151D01*
X1398Y149D01*
X1394Y149D01*
X1394Y147D01*
X1392Y147D01*
X1392Y145D01*
X1388Y145D01*
X1388Y143D01*
X1384Y143D01*
X1384Y141D01*
X1380Y141D01*
X1380Y139D01*
X1374Y139D01*
X1374Y137D01*
X1928Y137D01*
X1928Y233D01*
X1590Y233D01*
G37*
D02*
G36*
X40Y175D02*
X40Y173D01*
X554Y173D01*
X554Y175D01*
X40Y175D01*
G37*
D02*
G36*
X40Y175D02*
X40Y173D01*
X554Y173D01*
X554Y175D01*
X40Y175D01*
G37*
D02*
G36*
X40Y173D02*
X40Y167D01*
X330Y167D01*
X330Y165D01*
X336Y165D01*
X336Y163D01*
X340Y163D01*
X340Y161D01*
X342Y161D01*
X342Y159D01*
X346Y159D01*
X346Y157D01*
X348Y157D01*
X348Y155D01*
X350Y155D01*
X350Y153D01*
X352Y153D01*
X352Y151D01*
X354Y151D01*
X354Y149D01*
X356Y149D01*
X356Y145D01*
X358Y145D01*
X358Y141D01*
X360Y141D01*
X360Y137D01*
X596Y137D01*
X596Y139D01*
X588Y139D01*
X588Y141D01*
X584Y141D01*
X584Y143D01*
X580Y143D01*
X580Y145D01*
X576Y145D01*
X576Y147D01*
X574Y147D01*
X574Y149D01*
X572Y149D01*
X572Y151D01*
X568Y151D01*
X568Y153D01*
X566Y153D01*
X566Y155D01*
X564Y155D01*
X564Y159D01*
X562Y159D01*
X562Y161D01*
X560Y161D01*
X560Y165D01*
X558Y165D01*
X558Y167D01*
X556Y167D01*
X556Y171D01*
X554Y171D01*
X554Y173D01*
X40Y173D01*
G37*
D02*
G36*
X40Y167D02*
X40Y73D01*
X308Y73D01*
X308Y75D01*
X300Y75D01*
X300Y77D01*
X296Y77D01*
X296Y79D01*
X292Y79D01*
X292Y81D01*
X290Y81D01*
X290Y83D01*
X286Y83D01*
X286Y85D01*
X284Y85D01*
X284Y87D01*
X282Y87D01*
X282Y89D01*
X280Y89D01*
X280Y93D01*
X278Y93D01*
X278Y95D01*
X276Y95D01*
X276Y99D01*
X274Y99D01*
X274Y103D01*
X272Y103D01*
X272Y109D01*
X270Y109D01*
X270Y133D01*
X272Y133D01*
X272Y139D01*
X274Y139D01*
X274Y143D01*
X276Y143D01*
X276Y147D01*
X278Y147D01*
X278Y149D01*
X280Y149D01*
X280Y151D01*
X282Y151D01*
X282Y153D01*
X284Y153D01*
X284Y155D01*
X286Y155D01*
X286Y157D01*
X288Y157D01*
X288Y159D01*
X290Y159D01*
X290Y161D01*
X294Y161D01*
X294Y163D01*
X298Y163D01*
X298Y165D01*
X304Y165D01*
X304Y167D01*
X40Y167D01*
G37*
D02*
G36*
X362Y137D02*
X362Y135D01*
X1928Y135D01*
X1928Y137D01*
X362Y137D01*
G37*
D02*
G36*
X362Y137D02*
X362Y135D01*
X1928Y135D01*
X1928Y137D01*
X362Y137D01*
G37*
D02*
G36*
X362Y137D02*
X362Y135D01*
X1928Y135D01*
X1928Y137D01*
X362Y137D01*
G37*
D02*
G36*
X362Y137D02*
X362Y135D01*
X1928Y135D01*
X1928Y137D01*
X362Y137D01*
G37*
D02*
G36*
X362Y137D02*
X362Y135D01*
X1928Y135D01*
X1928Y137D01*
X362Y137D01*
G37*
D02*
G36*
X362Y137D02*
X362Y135D01*
X1928Y135D01*
X1928Y137D01*
X362Y137D01*
G37*
D02*
G36*
X362Y137D02*
X362Y135D01*
X1928Y135D01*
X1928Y137D01*
X362Y137D01*
G37*
D02*
G36*
X362Y135D02*
X362Y131D01*
X364Y131D01*
X364Y111D01*
X362Y111D01*
X362Y103D01*
X360Y103D01*
X360Y99D01*
X358Y99D01*
X358Y95D01*
X356Y95D01*
X356Y93D01*
X354Y93D01*
X354Y91D01*
X352Y91D01*
X352Y87D01*
X350Y87D01*
X350Y85D01*
X346Y85D01*
X346Y83D01*
X344Y83D01*
X344Y81D01*
X342Y81D01*
X342Y79D01*
X338Y79D01*
X338Y77D01*
X332Y77D01*
X332Y75D01*
X326Y75D01*
X326Y73D01*
X1928Y73D01*
X1928Y135D01*
X362Y135D01*
G37*
D02*
G36*
X40Y73D02*
X40Y71D01*
X1928Y71D01*
X1928Y73D01*
X40Y73D01*
G37*
D02*
G36*
X40Y73D02*
X40Y71D01*
X1928Y71D01*
X1928Y73D01*
X40Y73D01*
G37*
D02*
G36*
X40Y71D02*
X40Y41D01*
X1928Y41D01*
X1928Y71D01*
X40Y71D01*
G37*
D02*
G36*
X489Y721D02*
X534Y721D01*
X534Y689D01*
X489Y689D01*
X489Y721D01*
G37*
D02*
G36*
X489Y651D02*
X534Y651D01*
X534Y619D01*
X489Y619D01*
X489Y651D01*
G37*
D02*
G36*
X530Y692D02*
X564Y692D01*
X564Y647D01*
X530Y647D01*
X530Y692D01*
G37*
D02*
G36*
X1375Y445D02*
X1400Y445D01*
X1400Y421D01*
X1375Y421D01*
X1375Y445D01*
G37*
D02*
G36*
X1375Y407D02*
X1400Y407D01*
X1400Y383D01*
X1375Y383D01*
X1375Y407D01*
G37*
D02*
G36*
X1356Y426D02*
X1380Y426D01*
X1380Y401D01*
X1356Y401D01*
X1356Y426D01*
G37*
D02*
G36*
X1394Y426D02*
X1420Y426D01*
X1420Y401D01*
X1394Y401D01*
X1394Y426D01*
G37*
D02*
G36*
X499Y445D02*
X524Y445D01*
X524Y421D01*
X499Y421D01*
X499Y445D01*
G37*
D02*
G36*
X518Y426D02*
X544Y426D01*
X544Y401D01*
X518Y401D01*
X518Y426D01*
G37*
D02*
G36*
X1631Y299D02*
X1656Y299D01*
X1656Y275D01*
X1631Y275D01*
X1631Y299D01*
G37*
D02*
G36*
X1631Y261D02*
X1656Y261D01*
X1656Y235D01*
X1631Y235D01*
X1631Y261D01*
G37*
D02*
G36*
X1650Y280D02*
X1676Y280D01*
X1676Y255D01*
X1650Y255D01*
X1650Y280D01*
G37*
D02*
G36*
X165Y239D02*
X190Y239D01*
X190Y215D01*
X165Y215D01*
X165Y239D01*
G37*
D02*
G36*
X165Y201D02*
X190Y201D01*
X190Y175D01*
X165Y175D01*
X165Y201D01*
G37*
D02*
G36*
X146Y220D02*
X170Y220D01*
X170Y195D01*
X146Y195D01*
X146Y220D01*
G37*
D02*
G36*
X184Y220D02*
X208Y220D01*
X208Y195D01*
X184Y195D01*
X184Y220D01*
G37*
D02*
G36*
X880Y259D02*
X935Y259D01*
X935Y227D01*
X880Y227D01*
X880Y259D01*
G37*
D02*
G36*
X880Y169D02*
X935Y169D01*
X935Y137D01*
X880Y137D01*
X880Y169D01*
G37*
D02*
G36*
X1030Y259D02*
X1085Y259D01*
X1085Y227D01*
X1030Y227D01*
X1030Y259D01*
G37*
D02*
G36*
X1030Y169D02*
X1085Y169D01*
X1085Y137D01*
X1030Y137D01*
X1030Y169D01*
G37*
D02*
G36*
X1631Y721D02*
X1676Y721D01*
X1676Y689D01*
X1631Y689D01*
X1631Y721D01*
G37*
D02*
G36*
X1631Y651D02*
X1676Y651D01*
X1676Y619D01*
X1631Y619D01*
X1631Y651D01*
G37*
D02*
G36*
X1672Y692D02*
X1704Y692D01*
X1704Y647D01*
X1672Y647D01*
X1672Y692D01*
G37*
D02*
G54D16*
D02*
G04 End of Copper0*
M02*